<?xml version="1.0" encoding="UTF-8" standalone="no" ?>
<!DOCTYPE sesx>
<sesx version="1.8">

  <session appBuild="13.0.0.519" appVersion="13.0" audioChannelType="stereo" bitDepth="24" duration="86596991" sampleRate="48000">
    <tracks>
      <audioTrack automationLaneOpenState="false" id="10005" index="1" select="false" visible="true">
        <trackParameters trackHeight="30" trackHue="326" trackMinimized="false">
          <name>historia</name>
        </trackParameters>
        <trackAudioParameters audioChannelType="stereo" automationMode="1" monitoring="false" recordArmed="false" solo="false" soloSafe="false">
          <trackOutput outputID="10000" type="trackID"/>
          <trackInput inputID="1"/>
          <component componentGuid="1dc4677f-0405-4aec-a1fd-ab62df10a6df" componentID="Audition.Fader" id="trackFader" name="volume" powered="true">
            <parameter index="0" name="volume" parameterValue="1"/>
            <parameter index="1" name="static gain" parameterValue="1"/>
          </component>
          <component componentGuid="5c06238a-1915-4ae4-b6ae-5825c3cca601" componentID="Audition.Mute" id="trackMute" name="Mute" powered="true">
            <parameter index="0" parameterValue="0"/>
            <parameter index="1" name="mute" parameterValue="0"/>
          </component>
          <component componentGuid="e42b265e-26e8-490b-83a0-6dde786332b2" componentID="Audition.StereoPanner" id="trackPan" name="StereoPanner" powered="true">
            <parameter index="0" name="Panorámica" parameterValue="0"/>
          </component>
          <component componentGuid="d022797c-183f-4665-8161-9850d7bb79d5" componentID="Audition.EQ" id="trackEQ" name="EQ" powered="false">
            <parameter index="0" name="Frecuencia estante inferior" parameterValue="0.000834028352983295917510986328125"/>
            <parameter index="1" name="Ganancia estante inferior" parameterValue="0.5"/>
            <parameter index="2" name="Frecuencia estante superior" parameterValue="0.74979150295257568359375"/>
            <parameter index="3" name="Ganancia estante superior" parameterValue="0.5"/>
            <parameter index="4" name="Frecuencia central de banda de EC 1" parameterValue="0.00125104258768260478973388671875"/>
            <parameter index="5" name="Valor Q de banda de EC 1" parameterValue="0.000199989997781813144683837890625"/>
            <parameter index="6" name="Ganancia de banda de EC 1" parameterValue="0.5"/>
            <parameter index="7" name="Activación de banda de EC 1" parameterValue="1"/>
            <parameter index="8" name="Frecuencia central de banda de EC 2" parameterValue="0.0075062550604343414306640625"/>
            <parameter index="9" name="Valor Q de banda de EC 2" parameterValue="0.000199989997781813144683837890625"/>
            <parameter index="10" name="Ganancia de banda de EC 2" parameterValue="0.5"/>
            <parameter index="11" name="Activación de banda de EC 2" parameterValue="1"/>
            <parameter index="12" name="Frecuencia central de banda de EC 3" parameterValue="0.0325271077454090118408203125"/>
            <parameter index="13" name="Valor Q de banda de EC 3" parameterValue="0.000199989997781813144683837890625"/>
            <parameter index="14" name="Ganancia de banda de EC 3" parameterValue="0.5"/>
            <parameter index="15" name="Activación de banda de EC 3" parameterValue="1"/>
            <parameter index="16" name="Frecuencia central de banda de EC 4" parameterValue="0.13261051476001739501953125"/>
            <parameter index="17" name="Valor Q de banda de EC 4" parameterValue="0.000199989997781813144683837890625"/>
            <parameter index="18" name="Ganancia de banda de EC 4" parameterValue="0.5"/>
            <parameter index="19" name="Activación de banda de EC 4" parameterValue="1"/>
            <parameter index="20" name="Frecuencia central de banda de EC 5" parameterValue="0.532944142818450927734375"/>
            <parameter index="21" name="Valor Q de banda de EC 5" parameterValue="0.000199989997781813144683837890625"/>
            <parameter index="22" name="Ganancia de banda de EC 5" parameterValue="0.5"/>
            <parameter index="23" name="Activación de banda de EC 5" parameterValue="1"/>
            <parameter index="24" name="Ganancia maestra" parameterValue="0.666666686534881591796875"/>
            <parameter index="25" name="Constant Q" parameterValue="1"/>
            <parameter index="26" name="Orden de filtro de estante inferior" parameterValue="0"/>
            <parameter index="27" name="Orden de filtro de estante superior" parameterValue="0"/>
            <parameter index="28" name="Modo ultrasilencioso" parameterValue="0"/>
            <parameter index="29" name="Activar estante inferior" parameterValue="1"/>
            <parameter index="30" name="Activar estante superior" parameterValue="1"/>
            <parameter index="31" name="Velocidad de muestreo original" parameterValue="0.25"/>
            <parameter index="32" name="Ancho de banda de EC 1" parameterValue="0.002499990165233612060546875"/>
            <parameter index="33" name="Ancho de banda de EC 2" parameterValue="0.0099999904632568359375"/>
            <parameter index="34" name="Ancho de banda de EC 3" parameterValue="0.0399999916553497314453125"/>
            <parameter index="35" name="Ancho de banda de EC 4" parameterValue="0.15999998152256011962890625"/>
            <parameter index="36" name="Ancho de banda de EC 5" parameterValue="0.63999998569488525390625"/>
            <parameter index="37" name="Activación de filtro de pase alto" parameterValue="0"/>
            <parameter index="38" name="Frecuencia de límite de paso alto" parameterValue="0"/>
            <parameter index="39" name="Pendiente de paso alto" parameterValue="0.4000000059604644775390625"/>
            <parameter index="40" name="Activación de filtro de pase bajo" parameterValue="0"/>
            <parameter index="41" name="Frecuencia de límite de paso bajo" parameterValue="0.833194315433502197265625"/>
            <parameter index="42" name="Pendiente de paso bajo" parameterValue="0.4000000059604644775390625"/>
            <parameter index="43" name="Derivar" parameterValue="0"/>
            <parameter index="44" name="Rango de gráfico bajo" parameterValue="1"/>
          </component>
        </trackAudioParameters>
        <effectsRack preFader="true">
          <component componentGuid="4c1b5a7c-25aa-462b-8f00-2ced3ac77d6c" componentID="Audition.ComponentGroup" id="rackMix" powered="true">
            <parameter index="0" parameterValue="0"/>
            <parameter index="1" parameterValue="0"/>
          </component>
          <component componentGuid="f26a0b30-bb40-4ea3-a68b-dfc0f3b6a582" id="rackInput" powered="true">
            <parameter index="0" parameterValue="1"/>
            <parameter index="1" parameterValue="0"/>
          </component>
          <component componentGuid="603752d8-79fc-41ff-958d-6940ec313a26" id="rackOutput" powered="true">
            <parameter index="0" parameterValue="1"/>
            <parameter index="1" parameterValue="0"/>
          </component>
          <slot powered="true" slotIndex="0">
            <component componentGuid="7b05816e-0846-4217-ad89-caca57def76f" componentID="c6762838-e451-4d22-9c90-b0eaa734605a" editorHeight="454" editorLeft="647" editorTop="293" editorWidth="627" name="Eliminar ruido" presetName="(Personalizar)">
              <busConfig><![CDATA[{"in":[{"layout":[100,101],"name":"Entrada de estéreo","type":0}],"out":[{"layout":[100,101],"name":"Salida de estéreo","type":0}]}]]></busConfig>
              <channelMap direction="input">
                <channel index="0" sourceIndex="0"/>
                <channel index="1" sourceIndex="1"/>
              </channelMap>
              <channelMap direction="output">
                <channel index="0" sourceIndex="0"/>
                <channel index="1" sourceIndex="1"/>
              </channelMap>
              <presetChunkData><![CDATA[AiBuYWZldFMHAAAAzcxMPgAAAAAAAAAAAAAAAAAAAAACEAAA5S2CLwEuOT8nMXD50i9iPwA+/5kkG5M/t3iUAohNvz82hT4tJ5nSP3v6s7IIWuE/zWA1riY13z/ZGnN7joDQP9oc1oczo8Q/bgAflhlOxj97OQG/ysLQP3HMSLqRoNM/nyQkQIhU1T+CQZHid4XBP3tfNAF0/LE/g0zDT2DAsz/yeh2iP5i5P/SWNvTOaLY/TRpABTgHuD9crGDk7ga2PxjJOHkwdbQ/dHidpn+VsT+lG4uygu+0P0ewFplTkrk/G8xsh5SVuD/SsHAXfvCxP32UGBlZEKc/pCxQqqhnqT/1cbrJ92OvP4TTO4CT+7I/s0bTAn8uuD+EGYmAP7iyP8ICtZ8qYKg/tRD8aPO7rT/LzoP5zNinP7gf83Oa/aw/Md8IMQivqz8o0foy/1SwP39IfrjwuaE/OnBUSpmQoT/SmZGO+tqdP+8EaKiG35s/quJjLJS6nz/x2FNUmyChP5uiwfW9E6s/wEkAZEgboT+JsM9XX4miP+WD2GlIwIw/nxiY4tMjpz/rxZbeRvewP4aaxdwuCbM/kZXT6kwxrT+qxk5qbburPyawR94taLA/jSzMy1jMrj8tcZRszIifPy7Gi/3Lrqc/qUKURhbxoT9n79d1YV6cP6Lhpa9ATJQ/+uJd6qeJhT9nHYCZ5++EP1qseNZ/Lok/QOcbeKheij8xqgMs7BOLP03eQ0LohZk/J9RQrV4hjD/YkwbZtTWcP1W5X7FjXJY/Ijo8ZYGnkj8ieV80bOORP0rPCW+Ypo8/LWPohQOHkD9tPY1q9EmUP7ELImMFQ5I/B5KLZlVZiT/tDUw2V6uTP00HNaT6mYw/3CTU0GThiT8QjTL1uB2GPxmG49MeZ4Q/ORuQdSB7jz+QT3aI+ryJP40Lu6snI4s/auDpUeM/kD+By986oi6MPzO7wv8TxYA/mPoIOkkehz/KeoMjmXN/P/aen1wyJIc/66IxSN59gz8fVtwfHk+BPzhDaU8Ddns/LI4oKI1egz9QQk/CeHyDP/QjE/nUjoM/Cm1eIVRwgz8e3Oa/Gmh5P0hYoUEUf3I/mKjTMGUEcj9hx65AvY5zP1yyXfvo8XM/U6wEY2rncj/EMCbkdLN7P+pttMYUcoA/iutuR5R0dD+hK5Sgr7hyPzf+2XdHbm8/70vr1BV3cz+nsCwTmu97P+oxyxzZ93c/IZUoGghgeT9RXo7jwvt6P64r0ANTooA/1ieO3hxggD9zQoKEfLZ5P5CYNJUI230/ou3AJCqYez9jYCr4a8x6P8l0jjWzymY/32sDOkanZT9sLz+hJIRoPwKzcu4XGXY/pFgsd+ywbz9EzKKO7yNoP9BLO3FSxmg/zOS5jVIWej+RuBx4TbRyP9r9rpPyR3Y/wYMxngEXej/q7HO0qvhlP+f6wrWlLnI/2c/1BqATej+6znLube13PwN7hsANBHc/9ui6zo1OgD8YW+8cmLV5PxRy3//Df2o/TknA7RxQaj82d2sGMPhmP2cMj5T3xnM/exKYKdCNgD9r7PnkfKqAP/Nl6NWw738/mUJlUGcLez/yKpwjO0B2P0SgzCeUVWk/t0IAdUKYaT9k9SJs6qxlP9pR6otLGXI/qTq85tWMbz/SjJ9qZLVzP5YEmCgQWnU/JrcP+E34bT96QnRETAlyP3pMrCf6LHE/uRBWSwleZj9WNBwSUuZxP/bsBOimI3Q/BwKvI8k1ez+eR0GyxeV0P5K8Xpp6bXg/zhrSIrxtcz//kOy23Bp5P9bUncIAc3o/OD+yesNNdj8eL+ELUGptP8HHrU9yqm8/HDHeuLjAbz8W30FyjqBrP9r+A7BSomM/IZpvmnOpYj/xh8g5w/ZsP6EPwdPvpnY/zHTQkH0hdj9oG0rzLcNqPy5Bbe3cB2c/wlLpjcWfaj8pG7z8q4FvP2dWz4/U6XE/0z4LqjFGdD/fTz0T1Yd1P4WIrCGNEHs/ODEw9LAicT+l2UOqa+hxPy78E3JgFGM/horxeB5jYT/0LXJ/L/lpPzEF8kq3C3E/Kau38u8qXj90xUxdZBhgP4bjS50M/mQ/Oozt4B7vZT/Cp6q/60VkP/FyXTzK814/bJfIdfDGWz+ezlJyC8JhP+9ZCYsTtFc/4Qf6bwkOYz8EH4/rKatfP1/bhHpInVg/ZD7wSgogXT+LSmYTT2BYPyz8V3l0KFU/RdxmZk66Vz/gwMi5XoBWPzpA7cL6XFI/bXNsGAS5Vj/4ICQQGzxKP+CGAxWes0I/clEw8rGdTD9zyZO/b2NcP+eskWaz01I/WIRUvrFBUz9SQm+EGzdQPw41+dlq6lY/DGm8nvxXWD807IchyWRQP5h02SXQUlY/ihcAhQ9KTD+dJYgitvJPPzPmUbzO/lE/k8SVA/gKWD+kTsbGhWlWP3VCnlRtCVU/Tj3tpH7NUz9/Rwa64kRcP3vSFETZEF8/xSnAhw6gYD96veOEUuBXP0A5Av1sDFw/Ps5C06MtVz94tlOE/vlZP4flCHjig1Y/Us6IWHFUVT/iqXp+2rhbPwu+FVNl91Y/PzMBjfu8UT8S3NE7rWNWP66kcPl4mV8/qvFVtuyFXD9bp+FnevlZP490zjoeuVQ/XvG8H9LbVT/sHacMnb5QP2fK3bs3iEk/ZfTtOIbKRz+VWIgqSJlMP48iMmTj6lg/i95O8AXkWj+Y4J9bUHlSP3YKXucaY0Y/9y1pB6IrRz9K8E3HMPFNP93qDOjK4k4/pTIjk57RQz/0EN5Mxq0/P1NDaEuOCD4/xTNnzEQ8QD87AwnpMhdCP3CIIdtIDUI/AMGbUOBjPT/pf9Gqveo5P7XzLZtDRzk/2Mhj2hGhOj/kTTQdVTc8P2nR/Vs5+EQ/H7QqDywlTT/ukFvMvIBIP2NujCJTkT4/IopjZZJXTj9YmpircMVMP/LdbzgQBkk/+VUqwAIvSj9LhLa9TUlOP/zKgVUOZks/7XCOyciQRD/dcrj+rpZWPyxcopIKDlc/dOoRQ4abTD8SRHuv0w9NP/WDBKuTdEo/Ed3nOpdkSj/m7gfc5kFFP8+MVO+Shjw/JUeTYSTCQz+ZWztZ60NIP2efLRdqAEk/Cpifmd8uRz/5N1XHjjlOP5x9zdczUEk/FRR4mAA/QD/buKU2kbpNP/vimE512lM/V7NjqXz1UT9gU+/PYYtMP6VN7YrddUY/bs1xwaooQz9M5kpTTbVEPzVMzMOW21Q/0CQtfgafXD8fbe+yCixmP4gqIaJteF8//OLlG4I0Wz+1wc0ok8JYP8V3rAmiRlY/4Km1qfUAYD9aVSTv4GtcPw4OiFvZ2FE/3J/UO4LaRz/Tg1DS805LP7npbWkwE0Y/jt5gpuzARz/4mwICX5VOP1Vu/lKJ7EY/JheJlqxVSD9oTILRiRZGP5jyxltN7kI/ueITQwIrOj820G1o7bxAP40I/VkdY0c/KwKP+N2GRj9o5nTxbEpMP3iIteEG7FM/2nu9M0KXTD/o1r0QCpZIPzbYraRikjs/SNofBAK3MT862u+syLkwP92Dfspj1TA/Jo7huqyZMD+mSCUMVA0oPwJDzQsJryw/XkhDeDd+Nz+VBwItFZ1DP2FLOmZzEjE/+4WtTNCrLT8U4PTdlJ00P9zmx33JzTU/HLcq/EMFLj+TIA/GpGgjP8YbuAJHqSI/eOvgUghrHj88xOsPJScpP/jrZDAiHjQ/y1hIl/kAOj/lIPMYhq03Pyb6EtyiTjo/NirDprH0Nz9YOqb36GEwPxW6xLLopDA/37MPwbM9Kz89TTM4IJUsP5L8jb/tXC0/LKobXkC6Mz8FJIQGz9M2PwUGIs2Zpjw///19Fl4yMT/CvTxLQ8cwP160+EY9FzE/1r8PBszrMz8uFoG8Xos8P4gqrHSpxDE/wh9jnRR7Jj+K3O+ki3AeP8jeQI3URSc/RU0Mvh6jLD+KO0vBIr8qP02nXGzNKiQ/A0LTDTEPKz+1aVzm0eExPyDFbh+M9TE/WhpfUcs2MD+an27UsswzP0bk/goJXz8/TNUmI9MpPT94oc5sywU0P9FIe+HsXTQ/zP95ynmyMj/fGUwEi/4nP3Qh5SeJIR8/wZGYrJQOLT9EOegMIyE6Pwi39wXhuzQ/JS9QCvviJz8Zg7nU3pgZP9sKfEzzRyM/keuwPgXhLj+fP+apiRcvPyNYF/HhwzE/GhZXurHCKj9eukmozx8iP1JlpbMxkiI/4Usuj6lDNj/SnprHr6c0P3m/dJxpJj0/+j0S9D7PPz8SgJAjHy09P9Qzai1Tays/mBVrTwHjKD9fVvebT/EhP/DUjAeuxCk/zrfnY6E7ND9bkF48o3ApP/5EPST8ISs/7HmWl99NHD8F5Mixjw4mP2RTrXbPPiY/gDADKaluIT826xnO1zMgP6V/m+g5TSg/ZpPu7FDPJj9ezaeNdaclP+hZLEu2yhI/ghx86ljRHT9vSQjsxrksP/9VA7ny+zU/mw8LojwVPT+4wbl4mpI8Pxgy7iNJ3EE/sj0ufzhmPT/OBRYPBCkrP2xyEQzu3Sw/5MhXBT61Kz8y/tSV3rIkPyMbC5Akvyo/Uw++yKPxJT8rxLDlrocoP9d8cIpj6CI/tGbG24EhGD8HBzuc+rMcP/lNyW9qGSQ/7ZZkH7GcJD9R059NxewxP3k51L96JiQ/HqnvAMgAJz/7U50c574kP0fId0SwFic/ku0jIr11HT9hpkgkLSYbP0nmY2swExU/+nHb6z6BHj/1HaeUDQ8hP802qccM0SE/ChCs3++jIT9D4U9X668XP+YQAvBHTCc/Aji5nHI+Lj9OplooTlswPxmLiHMk4Sg/pKqHJYd5FD+ovkKfSvAVPx/XtU31gho/LLnpsCAcJT/cExxOTporP62JKJ8tTzE/sFlSX50vMz8+D2IGIqwpP94HmZY84CU/6Jx4VZIYJT+c52RTO8EqP/fSLBwGnic/EP6jAQkdHD+uIKaXT3IVPxgMP7S5cCI/7ysOl1ArFj/VmlLOW8cSP9fvHDHQWxM/sDX9YuWoFz/+Q3UEiFQYPwioOZL9Ohs/Asgl8XooJT9GoQzuPAYvPxrFXSOfmS4/Wjg+d9q3LD9u1vORp4QwP7RAqIYL6z0/lpOv84b6MD8nMPHiry0oPzUL4j+6pTI/1Uzi7tskLT/gxhOrDsAZPw/kSVfpEic/YTSJKHVGMD/wE/+kFuogPxBbkaZh7iQ/1azQtDoDKT/2TpF77YwnP7KzmYt+uDA/BsCSmY+BND9g/xILG/8uP3ZMKuhJJR8/5ZBuNw3jJj+s/U54/z04P0N2m2qoQys/D97WJMGQMj/HYFd7U6I2PxgQLJzc6yM/cJecNFoeGT9UrA3Ig9AUP9K1e4bs5Rc/NNELycaIDz/qJ077ENEVP0+ucwr45io/if0JnIldKT+GvB19esslP+RlWZrtmiA/jSlSngS/HD/BZ7NUJckhP7vjlHDT5CA/eaDhaXEHJT/eVNl/g0ElP60n39vWwyY/ihFExfR+Iz9AQ9OKLAciP4scrwqM0BQ/IIhOiKiFFD9XDiM/Bv0aP8tRIp8wRyo/w2EwfpkyJT9AvErKHaMoP3Ofv9mp4DI/6rFJejXJLj+eRVzOAqUpPxLRVo0uch8/YnYGG0kUID+vdQVPt64jP0kPLtly+DI/Y3+YHal0Lj9VbOXQXNogPwltZ8rfpRU/6MinwdW0Fz9Sm5h2ysYgPx8opTwQsC8/chJvLMbSMz9wD4M4tXguP7mn331hziY/O1Pp3qWFHD/U2yHowe8kPwi1GgzkPyI/ebE3tNgjLT+MoedywRMhP/LT6FUmgCE/F5WCM1X/JD/wVxe/aTAbP9PnPxFj+yE/mmwLHkB3IT/VWw26VvIrP83JUN0ZyiQ/MIZAMgxKHD+B137X+P8YP4bCkJvNoRs/91PqpLgKGz/8lKL8ewgQPzexkyGzlxY/2k5oXNAvEz9S/jVsKM0lP/0kG8/k2iQ/6AUoGHhvIT8zQ3dAOo8oP42ihftvfjQ/krzr1EQpOD+k4BMjgBMvPygbdkYuwig/iGzMCpg7Ij8y9HSmDJYhP/PiFREijCg/9/ObEMiVIj/uXTjRbosiP5OB937XtRQ/zmCxqjuaFz+wfNj6ZVodP8BPNXEiKiA/96wShtyIJj9z/Z1x4ogiP3llpS5/eh8/A+RBOhGAKT+wM5Mdfi0lP2314gtLDSU/qL9uGFhwKT9erJHeNO00P7AkJdzm0io/vQJdD8bMJT9tX4nFEE0hP7ioWa5QkB0/jrf4g1m+HT+4N1imiColPwhnq0hzjyw/njf9zbiVMj/2XVvBwaErP4+wEz2pGiE/wAQJO7tiID/aU+X+LBgcPxO3KIHI4hY/SlSwbVq9FT/m2SOXll0UP1vfEGAzMxs/5j6PTbBULj+qhvnmwD0rP4yYYne7Zig/a8g4Ohk4MT9gGQMhUb4gP37/egEhiSQ/hVhAbQwpGT/AkrM7ng0fPyhLp/DsBiI/P9LqquD0Kj9PDnfsWeAnPxq+7wolBSQ/eJe6KUSFMj/PNFkDD/EvP2pwylAymCY/OrLHENLUIz+a1dMnxj8mP4HKuri8FR8/Nl+r6CvhEz/EN5ngqe0jP04kjiJT3RQ/f9DweVZsEz+TFIIA/hUePy+DMSJ+ACY/AXwhAGjeFD/v0OAWIC8ZP8gJup4Xfhw/z80mHO0hJD/n4HG08sIpPxoYg7RDbRg/TDvo3y9eGT+N5lNQGFIjP1PvcojD7SE/tlP+62FEGz/HQp/daekUP7Il1Z/8vRk/WeB5+SNFKD+zXm/MVsYYP/DjCQc3yB8/UByZcjWzHz/yLZVI1J4aP1M7Q6OxMiM/q3R9FkstIz9c4sxdHzQUP+bz+m2QeQY/3cCx0a0sAj85uOJNRLUFP8qRBgWGJw4/c5LvDMuuCD9xbeelbtoYP7CBX/j+LRQ/XzxPoQw8Bj9N45ix+/0JP5Fi2IA0sxk/tT0hkx29Jj8K1bTLFAofP/yF03yjzxg/rW3OTUJGFj/IQFnH4ScRP6Iino3nRB0/4qJaHoObFD91kXNQRQAMP/cKvBwskxo/lJedwci0DT8QgNUrudETP5oTGgCaOSQ/HN+VXuy+KD+qrDGaoSgiP3f22dWE9Ck/taSBWwL2Fz9UcdShxuIVP7ieOCfSqR0/pExx8MwlHT+V6xss0KYdPx28oQtPLBs/rdSN8Y71Hz8ezW98n5gRPwFAXZ4P4Bc/RdNL31uCFT/mCDUAIZ8UPwFXZRQpHyI/e2PwBCKFJz/YE01f7v0zP+oBWgs2SSY/cpTWu9DpHD8nX3zAcuMRP2lNl9fB8RM/BAop/c1uID+qmwVcBksXP8lTCssXqhY/CjM+IF6TGD/ohmqxfosUP/qaumRVxRs/6tKAjiNfHz9J7lExIxcQPxGPFFeeOhI//MOLjf4EDD+VqzSXAcwXPyc7N7qMjBM//UU0bL2xGT+1WnCsfoYnP4IGkjF+tR8/qj7bbSoEHD+PDy41e7ETP+Q7sWEWsBk//n/BS7c3KD+JjRq9d80lP4PR1LcEPio/Ne+QxfFWIj+273omri8XPw2Io/Sl2x4/QcVo59CZFj+yPOxUWQYeP8Q2BHJUiiA/yZDm0CxjIT+glLTIeBYlPysC9GEaqCc/i5JLO+NSIT/lzJkK0oIVPw+Tqjt4dxo/SSdOVyeaHz9sIUdcz2EjP2yOpTYFTCA/dW50ggXBHz/3edfkr24iP++/imM/UyA/Yy3oAUKCIT9XCKlRoPsdP0rZXHQbMyE/MsxfwVASKT8qFa3cvfQePwgPzvLlkC8/oDagnujdKz/YY+221o4vP6ZO4XOEhCk/p3pGMyraID+qSCnSkAEbP20bNny3sCc/P7ys2oZDIT/EJXlvPR4lP4r06Y6mkTE/tv1EsDTDJj8uBzLnhrcaP26NDQEW8CA/Ip0GOq6vIT/flPf2Gy0hPyhRsyevqyo/9cJKr/AOJD/KRz0ByzAZP28Y1GZbCSE/iCOgjshSGD/4zF6AUjoYP9HNsTlqkyE/C0q4QC9CIT+ZOtKNjLwnP9AdJ0VQcio/Xnp72o4RFD+KUtsOBWgYPxyflCcrgxw/8+a5aclILD8qCpz8dKgrP9bjPj+HrSg/Rhhb9u+RKD92r4q/yZQhP0mrwutcEyU/0iZTAZ2MIz/UzBxmQSQnPyfSrz3mmh4/Fz4VqbF0JD85IIaJuyYjPwNiBaaR3x8/wiWtV1h+KD8byE8S1g4hP4c5XPh7OSE/Bokxlu2iFj9vwbaVT7YiPyDaZF3rQyA/cRAT/ql2HT8JaRTLTs4fP1LakvKWChY/jnoczpAiHj9fReR14EUsP8bxXPDpqS8/lt9D2Oe2Ij9ZL0ieuOIWP5e8TC5KZh4/jpbIUQ3bJT/MmHPZO7geP2wLuaOhkiQ/ExMCYLFaGz+qVJjO8hUgPzJVrV+LdSc/jGNnrHsYJT8JcWqgRKsmPz4pmuPYXyE/eI4NnNqLIj/CNzodx0saP06hUY0OoCA/yEyuh+WOED8e+zGCoYwRP1ladzcGRBk/fi25XGI2FT+rZUmp/+ETP6Ko+tJ0QSA/2pWhbkYLIT8OhmV2bY0iPwS5CvPBXCQ/uuooBh2RID/+02eCLOQiP2E2+qkdgiM/uthWQE8mGz/OZ8BSXyQdP7DDj1xcFSA/RootJ5D1ID/2uelcc+QfPzt4P+Ny4TA/xqQSFSlpHz81AsQEF/QmPyTSplOTZiU/iS6lg1XxIT+IuU14kpMaP5qVGrXWZR4/9qTlngnQKT+HvtpsGtwyPwicNhMpujE/cWsMfvGQMz+SJ1db7/ckP+K2s5+4Bio/a/Or99llLj/nAk4NspUoP35Dd7sRtCM/3jKmakQQHz82BCP5En4hPzqSx18RiiQ/xK8cAJiuKT95Ht3T2XojP5jecsyvLys/I6B2Z5xwIj92/34RcOAjP4MFl6rulyc/tux87xBPJT8ANhjvQ/0iP/UnOiunZiI/hX2iPLbQKD/0UWvQWkMlPx346MnWZiQ/Jh+/DtW0Kj9C5Y3eP8EmP3odqmq8NyA/KHJ+aFM3IT989UGrsdsSP8ybktvSCg0/AKLthkgCFT+W+UzJ9iEiP345ZdDiwx8/t6cVpSrRFz+YxWFKIncTPzX6R5ifPRA/XPei3d0fCD+FwrTmec0KP5w+Mc25VQ0/oOHXF7MmGT8j27ugeQcZP7WaxycSZiA/d1HAP4zwIz/gKILM2g0gP4BC84aCjxc/RXPA2hD1Hz/jRe49W2gaP7oYSDVF9CA/6e5H0Yh+HD/t3GoRvNMjP7pZPknxyBs/UU8NoBQ3Ij8AnSzg1RkgP/sjV9jzHCY/CA5qG2U/Iz80SRc82k0iPwkm4LG4uSw/S29Spb+sMz9NzPhA5lYjP666NoJv9yY/KxpVZOjPKD+ZMLahQ30nPxZR9LdUfiQ/aZjLpvDGKz/gfw+gmNcmP12EWlD10x0/IzY0jGBPIT/20X0YNvIcP44L2Vlg/B0/J9wcCz8RKD+9PbMsfgYxP3yhVDA3mCc/k4eIE83YMD+4ie8CmMEmP+RXiieZ+hs/01h4+y7tKD8deY9pI2QwP4XqfvUsFiY/SsB916asFz9cGU5pujoSP708/RzIvBk/dejPAL9HHD/EswTxaSoiPytRlJ4oTyE/dhSakb7XLj/YlUA6jHwqPzmfl7IdAyM/P2v9IjJ/Iz9aDJNIN58aP2HXfbuqSyA/sAgqh9bGMD/l6XJI1VMoP0JhPGegoRk/9m2Xb258Gj8RRsyg6JQYP8v5SBRTzhc/b7T0ZYRlJj9b8+ybtRwjPyhEZzz9vBA/1FDo+CHBED8tyiPXJAUUP9D9jiOrTxg/LB5eqM2IJD9KjPkAih8oPwTvN/BwqTU/CvlcIo3OMj8E0MWJVwcyP+3cJZ/NDRY/p9TE9430KT+7m49JatkzPzw/bigjXjE/DZWBU3fTJj9T3GwfR8wmP9oSrwPY/h4/BZ2j537YMD8Jbh+c66YmPwvzWlX/TR0/F8W/JkXjID8SH4d5kf0hP926NOaPuCI/+JTX1V0CHD+OpLp8/gAwPxu/OL8b7ic/jObc4qmbGD8CPOOfxPQjP+pPoFrObRY/Hv2sVnYvGD8gdHdplOkfP4yEt3AyBSA/DuRRvoIyLD/TCAph8A0hP6PRnwFgMCg/hH5MWc15FT9BFTIOXIoXP3HveYZIliY/DDaV7OXXID8T/Dsy3gohPxBn1NnmmC0/Aknj/t+aKj9LMZQQSNocP/p8Yn+ariA/QWrKuJcZFD+WwCsk6u8QPw74URnS3iQ/Dhxv/uStHj+T857SToofP+KhU/K/Aho/azvI+dhoID+F4ZskgXckP76UA4bGsiY/5ytft3W1HT9xaTu7dzsgP2vaRXQkdBw/3pyV+WFGIT8PW2l80WIkP4+zN0NA4SA/rPK31gkIIz/2CMKNl4clP+EkM1X3qR4/eCe07amaJj+Xxv75sZEnP5IhV2frZh0/yfqJFkcWHz/HKD2D8oElP170i9PkKyA/CjsRYWK2FD/3OXCXwPokP8jzz1GVLAs/mw6ACRM3BD/AJ5d/MLAMP3X06D4CWBc/B059tHnUEz+AYS82baoXP+93VfFReS4/wx2sji9GMD+/2Er9rOk5PwAxBlXP3zU/ZOiaBOg5LT81uKeL5OwUP6HpdkTPcRw//kzojAxuFz/c97CuSEQXP1NpldQhHAw/1ma+sFpFHT/KpMgJXWcfP6Cmio+mhyE/KGIrUJwvFT8eTx/edIIYP3A1d+DqtRk/EsrI+G8GID9sEYIT/pUZPzC8nCdECgA/xYdE7tuVBD81uHc6vXkoP+3N68UcmiQ/fPKklTiLID/yckGHeu8aP8p6uj4LBiQ/0eTyfDvfHT8n1qsc3u8ZP9ikRASM4iA/7cifDcD2JT/FAlFQMYwkP5cSzZet+CQ/QOhOU2j8Fj+IaGTpoUoiP65ybT7jmyQ/js2yEIxTIj/eZqRMx/wpP0pwZ6M2HiA/GnGlnS8TEj8Yh/+wOMUQPyJEO9Zylgw/PXkNwPC4ED+lmZZIo04jP6F0bqNrTiA/eyfQAhspID/WnpzQXZojPyCIYVCXpiA/mxiHlRtUJD/ZfWwJB3sbP28+0ly54hk/2XvDJjBdHz9w5y5Zm1EnP/NXrnRQpyo/wktYsx21IT+4XYqoi58gPwAwRmc/1xc/h4qzPGugET/xo1mkcZsJP0MKhVrUFBc/vNoQlb3uHT9BYvfSfzMXP2YgqpFwdBE/JOmJriN1Fz86lXhElcodP6SFoZ5eoRc/zQ1uzrG/Fj+5xzDPVkQgPyttlLZEQiE/8bK5qMbvKz93HN7yKnofP7l8v2C1bCI/8oeeDmSrFT998+xKsWsgP6OYK2PSwR4/ZF4BQ/PTGj9bo63XAKAhPzWgTn9l6iE/BUL4ipmWJj/KyWwAxgoXP8RFjFD7phM/LBSDdD5QHD+vJ1cJMZIXP4w1prrJViA/1uCjzRXTIj+fh47CewQiPx9xbp2ccSE/fJRWb/p+Iz9BdtWdew8fPzZUwu1raxs/gpsZjpceHT/wf969BvYdP5SaIhEPSRE/IQ0WFXrZEz/EcqxRrzEaP8QaQOmSQhk/rabQ8VlvHj9oY5ZpuDskP7gIMsxPUCI/BMA0pEWPIj9mSIyD2P8rPwXa+2fBHiQ/y2tAHi2JGT9mXDmGYIIaP0IKrfbtxBs/01GmTfSAIj+K0d++4p8oP7ZbvZxUViU/88L7Y3jxJT/6M3ez5uErP/GAo27RdjE/texRS8giJz98AfJFqPssP1++lkYx9hw/qQHCkkyjEz9Dq+XrVIMQP8aPNCs50Bo/NssHrB8oJT8tX9KQxQExP6uWF0+WSC8/mxPMnaWOFT/VG9JdiMIWP9JjeS5CNRs/VybtZp3RGT86JWKrUEwnP365v0Ihxx4/PmvaKBz8HT9uaNTmGXogPzU1ajiUZyQ/ou/UJ5rCJT+9yDhcEPAdP9KdPy7nYyA/YBHpojBAFD+2UfhTnpoYP0yKK+9LIhQ/ap+WRMBQHT/eQofss+4kP2B20LUyAh0/up7x8lEPIj/uqHG0eDchPwvEozq82h4/4tqHtmMDIj9fDjsweHsiP+slFzP0axo/uv8hA1eeFj/wxmpOtVEgP4gGhJxCACM/nQnAO1djIT9kaaE0YKMeP7AtA8ftNx4/IW7gHvYLIT+VoYWHGZMgP7e55lRucSE/3J8Hr4mDIT9IHwV+4S8kPxAL/H40NCE/JjqrHpzUFT+B9hyupyEZP8uUSyZ6gB8/4NMDuMGzKT/375WfJSwkP8LH4SHIACg/zqEWmwN2KT/5T2YTEr0hP62w/HnOXiU/WopN9TsAID/cuFP5jmQbP3mkDYfu5h4/+oGmxhyvHj98cX8f8gIZP0iAEg61Axo/wCLfYbCuIT86qXRsW9scP7pT9w78Khw/CI+VKwIeKT/0W9ds6XklP2ibQb9pqx8/8iAC5lV/Fz++Aiu9H98bP5BDwpSfHhY/phVIkuFXGT/kSA3tsGcYP7YHZbXFfRA//OvU7BpXCz+WRF6GQZUaPw5E01uZXRI/ZionvXr2FD8AmzuesLIQPz6Yscjkaxg/W+q5WxedJj+AIL/RohgjP5qIJu92Xhs/WgGypRaJID+LGh9NQpEsP9Pyg94xXCU/Mpqal2LYGT/+M8vdO6osPxjEK/m7FjI/GM8nJoL9Kz8cmqWOlK8qP/KdA7jSkCg/APJENzFHKD97pAaveisnP79wj4ne7CE/o3qe02LiGD/ggvrliVwUPysNWJC3ohU/CRK8rnm0JD9E5msQaa4sPyOdOI+glSY/yNeBXOVjHD++WCagWo8nP6QzkB/Lxik/+99tKAQIMT9jeD15AT0uPwKp6Nn1wSY/HegbV3RbJD8LBlKkmOkWP3wPVzHiNyA/OGbBURFyIT853nSGXBgkPwzEfehgFCo/segi6fU6KT+H7DdtyX4nP23De2RMvRM/3qA2BpMEGj8jeD1+DishP5ur8BZjtiM/EoAzsrqnID/dyjE4sGwdP7x55eKW5As/zKsRM/sEFz+B8GVm/CAfP6hJCMVrviE/Wr93bLIwIz8doJQT0fAbP0Z7rPVExCY/i7llaNYWIT8jn0ZPm/gXP4riAsjQKCI/J12lAINMFz9yxp0UOjkZPwGgGNtHbyc/7D2rqVVDJz+mHl5aGT4UP1YLKrN2Exk/qYxlouyxID+ag+qlQxwfP5AwBQvGmx0/33TxNyWfEz8o4JsyjkkWPzv2XXa0Hio/nGmAEo6FIz8M/8iZXSgqP+E72APo6yM/bHBLXB7+ID8dAwGf/1IfP0SJM12WGSQ/yqLm6RxAIT8Iv2OM/T8gP3yGtfkwxyA/dLyvaPFZEz/a6EcY2HwhP0FO67XIRiY/rDoxk7+HKD+bqRKKaREnP9vXnCw3ZRY/FAXKlZZBCT92fTxfgsYkP1GxujZjJyY/b8+isezvHj+AjVhZCjEcP94jEu8X8hs/cxM0sYBTFz94hZXGQp0WP7hcVJVJHRY/fByQw04GGT+gwU+z2uwYPyFpmHbpDRk/IFz+cvmDET9/rYTv6CgZP5kuY4SyaxY/TkdaenbtDz/elv5xtCMHPxlOageRlwc/oCPByYDDEz8DonrJ63gbP7NUu5ZM8B0/tGEj1WlLHT9Ey71Ug+YiP8DpoS8BTR0/MTMSbYtvHz/B07Ys53IhP/7E6ClYgCY/2NcZIzRSJD/sXCWSg80mP0I4KvbUHiA/m3INdMGTJD/PxABq2tktPzE9RENnmS0/2Z4euEtKLj8uc6tFnIIjP2KRS5jaqSc/3BHQ0RHQFT/+HkHQCYMQP8bfU/PLIQc/HMe4eZ13Ez+qdCsbusMSP54kDii91RU/V8Pz2DlVIj/Uz7bqLuohP4Cd92u7JzE/Lh8CoQMoJD/ex/s195UbP/46N8TkoRc/1sZO731GFT/L3Y8dRUsfP4njRcTLFRg/tzJEuPYqGz98jovfdD4lP5x1cw/Wwh4/upFNzF92Ej+QNg5t3boaP1kh6qXiLB0/YWNPMXQ2Gz8yCvWBimsaP1eEf8B3KRM/swQgrOU1Hj9hptPGZKUSP6+IeOC/kAQ/Cx3AGBwwAj+797Gg9SoSP3XNNMZLeRM/ElsgJKhYET/4SStqS24WPxeBzRk/GRE/+szqdSLzGT/EuSyXVPsYP+OmCarfBR0/GHpO/j38Ez86mnm9r2YQP3g6lTHmfRE/WBO1cuh6DT/LWJwiRbgRP1pARsfyjhI/itZ7PfoQGj/GjXshcgcXP3qAUBDlHBI/dLXDpNMKFT+Vzebssb4dPwJXKHrKaiE/3bOir6bfGD9DhoRjtQQhP/tqpFCC2g0/9v/XRR6qHT9zcvWC6/EcP8XXxNtSqRY/wWU2tg/vEz9TI1ZvBHAgP9VBgWcIkSQ/QApw8rlaIT//Su26R4gRP1SaDY0neRQ/pmSgFqvFFT9TqKg26vEUPx6duw3elxM/4HzA1U2SDj+YRewtePQKP2H6KuGrEwo/TeGF1zGbED8Im30scpEVP4clEgq1NxM/ZPS1U2y7Gz9rBA2cleIPPwMPH8omsA4/m2to5BdYFT9Gs72+1UkQP5XUk1rUgw0/QdXg52TWBj9ibtaThk4KP/MUMv5pvRE/ykFFVkGVCz8D4YqIuxP5PlLVUcKuBgc/bvv68A+tBD/7gm6wsAIKP6Pwua+m0wM/u3zt/lezCD9Tci3gwXoUP9KgmdLwtxM/qdleU5dtEj9abKykC/oTP2TblHGCSQ8/EOYdHH/JED+XkcA/0MgWP+sVD2QvYAc/fHPP66HiCT+UPNGRKSsEPwFiO9oxpwk//nh3HbTmCz8EK4EvXmMIPxhfz0qkVgc/smJT5fd7Cz9UeY8QEbQVP3vMRmmvzRM/u6ay8PyXEz/dw6xLrdkUPxrvv6wt8Qg/4COrtqNqEj8Qc//0KKcLP4IDW0htMA4/QCVGa+MIGT+dGbw2CagRP5EogguRqhU/wYGWaqWAJD9IGEpM5XMjPxzGHqv/zBI/fRA3Zte1Jj/OS7qnUB8iP325LutzChc/ow5pBZXjDz/YE8GnmbwEP1jeA1aWHv4+5XQGx/EzDD8PfWilJbwBPxbUcdbKfwU/MCW9T9PoAD9cWJjOrbf9PqjETX2I0wM/PinseV1G9D6QoaLIgWkAP2xYyo4T2/w+mLi+/GLy/z5sogC8gr4DP9pFboxtbv4+oQy9RKxVAT/+/JaUgiL+PlJ53cXvsAI/j7HKe3oaBT9AU7bzkUAJPx0mEa11PQo/0o5jkXjlBD8yvKplfA8HPxMjdmizJwE/4HcmtE5K/D71WoXuPkT6Ps5qZWfakPs+zPf+CK9O/T5Q8HbKNXv6PpjbpmgZHQM/c63MmfDL+j5sVPunOiX6PvatJLPm7AQ/XH1ZJt3GBD9mh1D0C4MFP82D+xWeXAM/3IxR7A+58z4EC5H+fGj5PsWOd6ULEvA+nOd0XTvt8T5D4QmpIHLpPgNNgMHPuOA+9FV0paojwD6EDgOxydykPviRUSIJs5M+j+gIVOZKjT5ksxEkR6aNPvu5Lb8kMJE+WsWIyXmOkD6426906W+RPi5PaeaImY0+oIbBf06Tkj7LUjTK9yyRPu3yDoCQWoo+8oHeDrfMkD6JXuYWQESHPulNPb0LrZE+jA8o6cuiiz72zWCRNiaFPpc5ZUHPr3w+FlMzpwrEgz4U+r4/52aOPg2aLcOIwZA+61BbI97miz6DHfz9neqJPm0ItsFy34U+tM8buDa9jz4lemz5k+uRPg4hqhPfyIU+kk7JX6MogT6AM0Zl7i50PoReAV1XxYk+Ca4R1CwsjD7YJV/8+4CPPlyuhdIIKIM+k4lNytOOhD4LaW/ekkOSPuINnVjPWpU+UU0hnMu9jT5n/lb5AhWGPvxnDNjUdIg+dIB7zX57gz6VRoYpEoSNPrBdfleesIQ+3dh0FAjdgj7+ba6CIwaHPlQ+SbWWlIo+Vs4KpUKIjD6YZJNEPWqCPjTKpB3GBYY+JhyINCxbgz4iWcFWkj2OPlESJJnEzog+Tc8K1BfUjD5nzqRt3y+PPt7D36OCRoI+GkbNzBhDiz6bIvPZ+DiLPmiwTEoCSJE+I/6SxwCMhj6qY4NaSAWGPsSIrCL6jHk+mkapqwzIhT74zowGZ+aCPuOFugvbg4M+8StpbrQ1jz7hqiKsLqOSPk8nvjCPl4Y+9bNV6QTHkD7Sfa9v82CPPkqYEOZKw4s+xOKl/DlzjD6c3ngR9gyCPi+V8Ot5I44+ZwanY/zygz42GY5JUviJPrBLFN1Nzow+hgRflIviiT6scjNbXyaQPucg9hiRU5A+O4nAo/8chz4wnkQfifOIPvaMwRtVX4g+CSvCU2erhT4+CqgBTW2EPqLMmNVK5no+36hhD3zbej7VzvsZckB/Pp3qIxRo7n4+lyS62SYqhT7qF1yZ9X2WPol4pFtTapE+EpYf9NwPiD42yxdl/FGGPtFsLgn57H8+RO5JqR8Lij5rySG6fLWHPjB3l+0RC4M+GQnS+Lo9hD6Z983ic+yEPu7t5MnRaIU+3hj0LefOkj5EiiZVy9eKPs6Z7FrzLow+k5iH54/BiD6fW6UtGseCPlnQjcMZmYE+xu4lhRp6gT4mbJdSh6GIPhNvK0MIe4I+JXFbOx4Zjj6J1HieJ+SQPrlaiR+9g5E+WDi+R7ZTiD51o6OSSc6EPszvpb2L54o+VurmNFeAjD4BycJahZaFPioZWpnDZII+OxU9AVSvhD4qHAJkUOB0Pr6s2eX6XoI+xN37W3ZNhD6skkiPBx2MPnZN77Mo0IQ+mXyES7HMiD6HszMEUEyKPkC9j2F0HZM+EIueR375kj7syxDlLhWQPrzqHLafAYg+hdAIKgNrgj7Ez213HeCBPho6Lm/jToI+55uHOi5Ajz6or0C7lVOEPlnuprhPioc+6cYajz4HjD7HFpx1AH6PPqOnywv8GZA+cM4vCOntiz40StBbXEKKPnibNIl3WIY+cH597Ywhgz4XYpfB6lmDPh6r2rLEM4c+X0l4pCr8iz52nxhjNgaOPmJ0v77C6IQ+SOHq3SCkgT7c7Z+UlAeKPiQWnyehqYQ+S+J52rcwgD7EvuQs4S2APniwAETXj4A+JnFLTLS/gj4zsYCURuuHPjm0YWmOTIc+ECMNTc9jjz4kXkfpeXiIPnVcL0kwxIM+9y+7jSLfgD7GxRAKlN6LPtBN5GX//Yo+4AAzGAlOij49wTQBm8WPPv7bk9QkN3g+FDy4nj+Sgj6P0Uk6DYmAPkROZ3qxkJM+3Qkd/Hzqkz68HgRMp1WQPmSqaYVgrIw+kGXccQO/iD4xAd10c6mRPjK9FpV42YM+TM7nGPcWfz7SzZTuwHCFPopOtGiAQpE+9NURz9kEiT65qFFnvm2LPkdHhB7QZIo+22Jn6PcjhT4wbkB7rlKDPhwEd3NzrYo+kmEmEhq+iT6ovV2tu/mNPqIgPv4hqpE+SDm3CbX8gj4WPVZo7/aKPjl143f5WYI+q9/yKeLtgz7q+FiAECCKPvDQjiioDpA+ZcyiYeDikj7L9/PDTqaPPuxKzrxIqpE+RG1drt0ilD5jFQCWvm6NPuCn2/WZMYk+qBnF9ZF8gT46P7OB5CuJPoA3X92LIJg+O5nLz8hhkz6J88dnyNuHPlmd1e4Bx40+crgTTvigkj5NDAclAwGRPqDkgoun5os+9cmYERgKij4MGvxqGWSBPiMHZofx944+glfAtgtIjj4eFfj9gj2OPra+l0oJH4s+SlQOJWdEkD6Qr4/guJiYPgkKqjnNz5Q+NqUMs59+ij4wfMBN4KyFPtI6l3rdRYU+1cahkcMPhD66QfnSHRWGPg5D2r4YQ3w+peyTmIURhT6N8wOFuLODPtP49NcoZoo+enmTIPdpiD4NjFhVjk6IPg5VLpdxVYE+6zWR4yUEhT5cKnTBXHSGPsI7fFlaGIQ+MZIQG+zAhT4lIevtsLeBPlejvkhrPpE+xitYyOjRhD548ef4IguTPgBKFs7gbJQ+m5fCetiFjj6zNnRkaA6XPs666Hk6hZE+BPTlXbS+hz4gdcOOYqOGPnroPdGCAYw+aj9GXiArfj7Z9Q/ZZfCIPrCVOMFKMIk+u9uS3c+qkT704nIUgbaRPvk3kFBLd5E+m00+7SuGhz6yBIbAl8iHPkwE8pgcs4Q+x3IyGJbCgT4hoLlbZUWFPuVL2Oj/EYA+15s5agq9gD4+/Js1S3mKPmJ3J4u1BYs+VR0MFYe0jz4cMOY9faiQPuGjt0sMyow+PHetT+8njD7AtPi/GhCTPhsWsXhiC4U+9DjSukqHkT4TmQKBODGHPqt/Ll2KdoM+k/AIgvSKiT6rGDa/9WWMPo6MNG1dIJY+YzGh7O3/kD4YpOtL0ECKPmN3PqTfzII+I2N+Fqdbij74OpQwo3eIPjrHkmzT04Q+Ft7M74T6hD7xsrSCG46JPkunJF5pJoo+3Fh7ty/diD4jUCfsu+SCPngDfGLISoc+cH7pvXueiD45rdOVc/GFPlD4IThdRoE+zH6BQUS2gz7JgK6oIuiKPv8LSVIGfIg+QTNzYrHzij5o/3xyQLiHPgAozjoT6YA+zkF9Z1B/gz7p6dowPH2TPlz8stZk4YY+Gna79YzRkD6+XX9LXbyOPhKDPOALLok+D0FKzWavjD6W4arATWuFPlcabwuQ14E+woLRk3gHgD468RA0AvuFPkSucLrtbpg+XQ4yEwDxjT6/1g2LI32OPoC7wyBMb5Y+Zj5GA8jziz6060EglUeMPkWOjWpt1oM+k7IahJA7gz666vmnwOyAPtaA3Cp9Kno+3W8trvs0dz79RXvJTH54PmnzK9kY+YM+P0jbXUPwkD6vZYHzjeeRPqwu5SY5n4U+l7BXf9GbiD6YYscl/SyEPpj0Gp6KYYI+Siy/lyOLhj7nOFqYpxuIPigyTmXV74U+MdWmsqv2iD6nPoLtj0CSPhIXZoElhIs+mtA+q11CkD456Qbn+saJPjmXbboO940+kLdV7VWokD5isjjnmBuFPs4nYP0XR4k+hugCbgxMjj5dlRM29JCNPvSDkhV//IM+MUbkAylLkz7wIq4dTvuNPqev4pHC/4s+I8uWT/w/kD5y+Me5dSKOPqFIKD6lDos+UBtaO3gaiD7DLUHC+g+FPuR0HCcBp4E+AqOs2Ix0hT6OambknEWEPhmuD504OYY++24COqXfhT6ESIm2CciLPqKPIQaqwY4+wp1VAoyskD7TJquwpqiSPtaFhFdxYYc+lkK33FEXhT4cHJZgiJuPPlDmz3a6zZQ+/TQnCeABhz5NyglUqYWCPpjn2o3aQIs+zLUBBeLylD58JZ3IDFKTPpNQVu8/EoY+Hiqn9pqphT5mHPSRuOOHPn4UaotcSo8+PKZBgI02hD7SVw5tHKOGPlWb6ETn84k+WS3tjsERhz5yZJhvpeCCPt9DXVHOkJI+fwVduSejkD7QNEcb6QWWPieoT98waZE+z1AdSb2jkD60x3+EmdWKPtqr8suoU4o+WnuAVtU1iz7kB3WjQ1h8PjTOx0rg9YU+EHbfoa84hD50G2SK3MKJPo9hV1edR4E+0xB6vOI1jD6WdTbXdjiJPuIHO08spIk+mhyttIxmhz4zt9p9TySJPhHH6I6BuYg+hJgrGJPPgz5E6AfXt8eDPqr2jVRW6nY+f9W1jk+0gD5isPmGJiuJPl4INsmnuok+sJQL6OtthT7d7MXnGAGJPh0VBzqLEZE+8tt4vnEbkD6DJtdTCtaCPpCn2NRof4I+CGoB1ZtRgD53IMHgAJZ8Prb+vi1lc4I+ZaIpXNnfiD7nSucYX/+QPs/AfxMIKps+w6r8+xMjkj4mErSm2FSEPvLsI5cEyn8+RtF8RCYQfD7h0sDIbL2BPt1NxlWSqIQ+lYrJb28Qgj55Tb/1YWGGPgW1zVwcD4Q+VZM7OglEiD5gTJ4M5gSFPpCkFQ4cxoY+qTptqS92jj6U0561dIqMPu+cGJnGeYs+4n4nIlnykT6vyC9A1p2EPkeK6YlU2n0+6Gb3+Le4dD6IMpvhA+V0Pk/UaeltJXQ+G8S5gSjycD5BxZZQoIVvPiK/YQfRrmw+HrafyiFuaj7xhNv6dTlpPvp8LX9jwWM+aIQMWs7JYz6OcvbZDsVZPi1fG3v6310+Zuf3gGarXT7/YYKF8ddlPmnSpR4BNWU+Aya/Kgtwaj4W49yqTJNrPiRXHY5IOGs+C3koTWlKaj726ho9hPtkPhr8FPU4wmU+3GSAuDh3XD5DAcx5lqZbPmNJi7TwwVo+Eb/OCDUTZD5llw+BS/ZjPrNGVEvv2Gk+ZDyswT2zaj6qIObiW6NrPoBj3Xk5gGo+Qi5++CgLZj5FbNceiA9nPmusk1Jhz14+GqC6PEblXT6xhKKeWHZaPo1zjbdVc2M+OCyPbRwsYz5W8wW564ZpPi6g/WDplWk+QPuPThRwaz78q2+VMdBqPrMPMu88S2c+eDfDLEP9Zz42oq2VqV9gPsMy774gxl4+SPeHJKHzVz52zD25HlVhPtdu50Bo2mE+xPaw8J7daD7ZTuK3Rl1oPqCi7RRybms+hVWN4U5baz5XsT7gXbBoPn6EbSGRS2g+UqKYrxfhYT4bzt9Ess5hPpYuu6CSIFk+pcuRTRb9Xz4C/uqHjqFgPvqoHuBufmc+dhWZj60MZz7sUNWgqMtqPq52yV6oQ2s+TKtTgwGsaT7RRH9d0ytpPvXwRRU1GGM+cxf9XE75Yj4Sb5l16xtaPusm6SjV3l0+HDaqbh9oXT5fxcVAQMFlPlMAECShe2U+39jLIGjKaj765BlZgWRrPgsmjbl2nmo+I5fhcSGYaT4SQ8QuhT5kPh+qdtzXs2Q+grVH5DqFWj6WgShmQZ5ZPodIQXEh31o+wWxMve7pZD5qkfndu0hkPmJqldb96Wk+UIwz7o69aj7gZywP3iBrPiRF0iEDKmo+L6SZb1mPZT5AhqoX1MtlPpXYEpKtQV0+SnI2Yq/lXT6qaNkjJjtaPoiEQHcGmWM+XBOWIDhHYz416Ak1rChpPhh7JY2Gxmk+HeBVnlYVaz6yURcSJptqPvfi3H2o82Y+076VVtqoZz5W0JM0oTpgPrBIjT6DBV4+3oSbJSJSWD4kfYFN4K5hPgBMgoAgNGI+OMVztq7UZz4WrZh7D5NoPm9X1A0V+2o+fWby6+bvaj5SLoJpkvlnPkgLOi+3HGg+WKV53gl0YT4Y+1xCrdBgPgcydvWLn1U+hUzjwnBeYD7u4q2Sv3tgPpHl0OMU72c+0em9nNNdZz7vY6fkJ/xqPnkI26bdE2s+fHDTNcdEaT61he3+L8xpPsmFCY+0r2I+XCcyC0qNYj6xfJF6XK5ZPnx9bj+bI14+usdNhXmGXj5WCsIpodtlPr4NZEKy52U+ywifkqUnaj5IKkkweTtrPqwEWuWzSGo+QD3MoO96aT5PiqShcc5jPlJWoZhc3GQ+wE9oQvwZWj6//qDD97ZaPrRusa0HO1s+6Qce/o9QZT6It+5Ddp1kPilduTt05mk+EARyhDnOaj76DKlGIdZqPtsfBjSgSmo+G1RoiVsrZT7lCyvABzpmPnLMmxeNEVw+GQO4F24nXD46ceYKtaVZPhKcHOv9nGM+MshnbJ6pYz6TUxMiBSlpPhREbkwL42k+ond/b/szaz5ufJhQTqZqPhvsSj4yiWY+QWhOGhiwZj7QFQUMAo9ePnQDZxPJA14+s+PdicfUWD5CGmI3nPxhPri+e4LiTGI+HNIgaaqwaD6jw+IoGBZpPsMsy1pqMWs+R89Jct0Laz6CHUrLYtpnPrbNU/Y+c2c+qh8QY4oAYT6cmqenOU9gPqcWDXKTUVM+gw6S15y2XD/jZJqXb1pQPzUtb71HbjA/XFgOEwq+yT7obcWQypDePni4W5Xghuw+shVdYqGw9z79jpOnoY+FP/3veE4EyGA//Y5qehdKZT+alwXqmlWMP8b3nankxLQ/65PvaMnwqj/JzHnKFWyePyNsBiel5qI/nN2q9GiBsT/WMjzg/fybP0jmOrJfXHQ/xjkGErVtgT9vubcB1dhOP76J1yb0mYE/DRkaoLG/bj+UuUNh66KXP/yaoJHft0A/ch78EtybVT/CHXzgkPaZP7qLLxWKlck/VxWuxYOGvT92qfFCAPewP4wXREpaLaM/0lUZRthAbz/phLeTzhMXP9MMTRD9c3I/byN3U7jfjj8QYoWvTEqKP72hJmiG/mw/vzraSYnRQz/3VoX5zi+WPzwTCoHCcq8/Wicr1ssolz/exaE50WyMP9Apuh9pTZc/YQGsyF1nlD+jE8OWK+6NPytccXvJS6o/Yt8hZI+M7D9y7TN9pFTuP5yekN3NKrE/TsZtlHcS0T/T1HCoxubQP0RUSFHvx9A/RXerhZtqwD+xnpm3yHHeP0/vr7BpxtY/3ktysrDjzT++iOWAQw7mP6vI5PZcTcs/mhySlIdqxD9WOR+Q++XkP7aR2Pd4reY/9WKn3ehM7T9glf0YQHj3P3CNreqkjPg/PZkMn/rT9T8gnIrOqVfzP2HEmH3TF+s/Ge5yODTi9D8OPpGmIUvjP4l+D5u46MA//4bYlFlklT/IX+lvnFmEP7JG5iWQ6oA/uPwZ9pFrlT+ke8Q+zJWvP1EK6n7nmMU/KnVyLsv62D8ZT8r2c3HQP+uDiMNtQ8I/Npo91RB3wj9+t6crobbIP9hQa092kcU/Cwj1ENVAtT+o/4yDMRKxP2akODkdWqE/u0pVe236lj/VZPCY4N2SP6Jz9ETMO6g/yU4aTdcOrD87TLmvEruxP6EfaegBo54/UQ7v1H/voD/IbRfgJeimP/01NyXat68/e3oYIfvZuD9SVQY422TJP6POglF4D8Y/PifyAbDFuz8O7/Y5RBzEP4ZHzSx+ds4/uBPAZeg70T+46P1zxVTMPyjlhV/jC8Q/VWiDrxxTxz+eZRm5IfzPP+1w/+B44NE/abuUhCO72j9XgG9V2bbjPzDZP4tJY+k/ABhAeK3x7T9pTsnCfkrxP3SVm3jWsfE/3nv2MLtQ8D+n83qUZWTyPxO0avU5q/A/QuHNBaIE5z/CfE5ZiQjjP/N0ITjz7No/vFEJZOMS1D+YqFEzkN/NPwyWvNXE28w/1avwzL9Qwj/EsLcyMK23PyHA6vKtbKg/5+ojdUPErz/M39SiV9+yP4J9Lpp+6rI/wgvvq/dnsD/KXlHRVuq7P4rUp8jUg5w/KDepx85KlT/RQ+aFsO+vP8KzdaNau4A/IADDKrRWZT8j9tBgXtV1PzIRd5xsVnw/x5VihPM+fj+CiZRvZwSQP9Uo3LsoWpY/0NwD7/Oqmz+GJpgVMWuIPyh9Xe6D0i0/4DdC6Yl9PT98cAEe7lViPw/LFn2lroQ/aLCDPYoqWj/P+NRBiTNFPwxbPqX8tH0/McNCh4WvZT8dVMPDKTZZP5zXwYpSMSE/UekkqROOPz8fI6LWqI5XP/ZB0KwiB2U/yBVwknsFZj967W2j8XdoPxeq5NmMjHg/Pl1PWjWIcz9P9ADnaPRLP1C50Pexn0I/hNpuoTTBST/aTnYRFZBQP5HyQVa4GE4/8y+gO17yaT/R29Gs5jF0P8glzT2WuGM/GYg7jN4iXz8MQH04381lP4ADHG/wgk8/Le4HAnAuRT+90zADcc4lP995xPXaRkI/TBYIWqAgaj/eNvzsY/hiP1JlRpN8rVE/WuDAZOKuWz8FAjEooE1mP2knWK1jA0M/NwRcKprHPz+ekCvhKiNBP3yG016Bnj4/JvK3zZw9LT9fkJU2H3wqP6/1MqkLBkY/tOT2nTxYXz+5SKDDMbxPP7lG0Xq4r0Q/w2tsvz2ANz946FfEZPg6PwgY9aVYEUs//6CUVWr9cT/E7S4WtXNkP2HNRTUiolQ/tf/pnbHXVz+CmBdVIQRhPxHFo8pKXmc/Ut0ayMUoYj8qY2OcawQ5P9Qnq0JbPTc/BtoQzkEbMT8DJd5yDeBLP6RtAmhocX0/yI88PdaCez9oplDuXxhuP6JQ9YUeNoE/gt2rZ0KGhT9S5xj7ITZ6P/mWh5F7lHo/F1OdUHOthz/bftQIp6yUP/7wzcuswZY/3O3FYNRZoz9KZ4gcaMmtP5YBKa7Jca8/AEvvnidukz95LIcJQ0uSP6BAz8oNqZ8/2Lxyfm5HrD/++KQxR+OxP+qfa22EuJs/11UmqOi6kD/myTrMajamP/gsvGnmMqs/kxSLqh8Xnj/7OKKKmnOgP+JqQTn8K6A/Kv1mnXggmj/lhlj/9ZaHPwOkrixneog/ESzYo3yIkT+r5aUaRLuKP1uWhTDl2GA/ZyMT5ITHaj8qRNDAqnWBP7CtGFGiqIE/pmW8lgcXez/6VJCvHxNHP1EB8ryWw1Y/hFU5nG24dD8gkqXogl9zP+2olL2Gw18/ZgoRxADmTD/ezzhNefVOP1CDxtNr3FY/A+uFizZOcD9dU1UpARaDPw7eWjQ42m8/yM12LS4qUD8kk4KhQwY/P66keE8fvDA/KlHecBpxOj/eeP/Y/jtjP7uMASRLSY4/632O5tYVgT/qMslU9XBTP4wWBIZb804/GAnvOcwhbD+QDchgIoBiP2F5fjawwzE/Ni5QTWboVz/vyLaNt/huPwTDkW3prkk/0gH1C4xXHT9keZyJlP5ZPy8y+1JLAXY/PQegKWTmUz9H45Ab23ctP6jgZwIaIiI/RFSGMDHFRz+okGiYqaxSP5Z2s0c6ky4/havswcmJLj+yOUjH0ntTP4cyzkypdEo/xkHBoBegGT+5xGQVHGszP31g7YotO1E/i80w0c0mWD/TUqQq4XsRP5a0PJUxYyY/4ecOWtWbdT+5ntL1uJR5P95G54bFEEg/y0EEpqVifz8iQHF++KSfP0Hu6s6MlZg/6hxsMG9Hbj8WD1jE0dyAP7gxIF+fNqI/6AG3OkCkqT8O6VHWODiQP+riIlrD7ZA/1femAC1RtD8Mo8yh9F+sPyLlqicprIA/C5OTKYUoSz+CwjgP8a53P7yZvGuonn4/JRjQw/F/TT9lkbxPjSI4P4aZ9Inpv0k/RjDkJcvHPD+eZcV2ppYyP2K6LAJ32EM/kV4UXeK+XT/Kdhjgr2ddP/Qd7BSOVVg/sZNQlRTVND+WKrLwPQcbPyx3KQoY1FU/vsUlkgHLPz+gZzqNWQo2P9IS5ISWS1w/EPLyuDxibD8ZE8h/Ms84P8hkh8DAokY/qLeeR+dMNT+9xD5TfbU1Pywkhn1o6iA/uX47JigGCD+QE6cwNnNEPx7N+ujeFDc/xBd2+anrLz/4HQDp9O0gPxy9PzkxEH0+kFGTZ6Xwnj5WWrtnqVf8PgfXtmPhlCI/n9MMijHuOT+k5ITO/Yk5PzTUp3FpXiA/3kov7cuk+j5epUqwBvb8PnqTZaWyEvg+1/40QPN/8T563I3qVFYAP+wAJxQybRI/Gtnt6CxmBz9IL/Ia+a3VPn7sLNy2cdY+e4KXD3lD9T43kf8beQnlPqw3jPz7dgs/qk/1lU8zLz8EGpNIiv4jP5INMaIWYwY/0IjTk3T55z5lFJoc29HzPkrAlRFPFBM/FxDl8sNDKT9RjmMmlbX1PjnaupIZNtM+yXAb6AG92D6HxX0Rr1niPhV0TYkXk+A+z7BCi6vRxz6ob/wD09vPPkJmuX5jEbA+VkQGLvyM9j7uuMy3+wb9Pn+q5yAITPE+Ub2vOkio6z4BGs/3ZUzzPgeU7UgaSeE+KYv7vKGFPD5CtJPMjsDZPmb9vZG8quI++xh6HemS8T5M+pXoXE38PgaHdqmquOE+Z9XJssMBtD6ZTrZickvVPlI+vwLSF+Q+LuJnExJ0Bz93sgYGQmcPP3xe8ncMLAY/pDtDP6nZ2z7v0eZaLnlAPmwZAIIw1uU+5Tiy4BVg6z7t1ty8IE7tPnpKzrMQZhI/7o/aHNlMGz+CwxMvOnkUP8u7xx3qgx8/v2oBa+BVST+qWlraWmFqP+WGroMESls/fxO805pgMj+Ttv58CFIuP2i8ciKDrwA/ghabpn5kET92wNgKypdTP4LxEx1+nk4/lL5/LL8TET9YcgbP6/gtP2dvmuZnKRE/WPFYVIRbTT/R0ikXwjU5P5N/ftfdZOk+EhMaLjFQLT9Fx4GSGXxGPzTKKoP6Bjw/GlVy36NBET8AcC1Q7cPfPiwdM+GrNBE/plUj9tFRNT+I2Fo9wT4RP8Hnw7RBUzo/ACjH9ZyiVz9gsM+MDPA0Pz1iB1DAyOo+Nv7WW1COoz7E5WujOEHlPo5egV1c9+M+/ckRfIAVxj4sVfuFAJoYP6N9bJKsASs/YnvDjYIUBD+qjqT/+HtHPhQgP8Sap2Q+8wCn9QUIZj77qe7C4arVPs8Lyeybokc+pvHDn0eywD6bJ+hS9T3QPg7qG/NS+TU+9hwsWL0jyj6TDzGveFLxPnlAmVekQOA+9IjVaSXAxz7UPzTtPcWaPgxUmvx/Nrw+TGhyre1q/j5SrG4HQTP9PkCqRznp6Ns+kafVfvPv9T7ZD7CD49ELPzbHBV7becA+04tBrgMy2D7GdmV/aHkBP3CCWFCLch8/ubXni55n9z53I6bQbFQxPqk7pNcpNQw/wh2mK7DlIT9M1PWJ96/9PmRXmMD9UAk/8mhHSM5xED+juKTG00P5PhWhzcfChOE+Zor9nt5kDz/RszFxCwIyPwH2fflBgQ8/PuHsLK9iBz9w22lwJ5FBPzqBn+BP6DU/stK8cNA7Fj+1UaJTMzsfP3DW+7jt0i8/AZ/La+D5LT+DcnUoJ4IeP5a0VBm83fc+/FMMUcJyQj/ecsCtAsZuP6CK+Yz19FQ/kcqBc0tdUD98KpYSvPFrP8bw1Vkcg20/9EqEGKoEZz/BMrXCWwJVP90ZiwD0mlU/KmL4TFGKcj+xL1+acJ5kPyFRs9v8uUo/kElYAR6LbT/LxKueR2VuP1Dios3RiEQ/8lJUTSh7Vz8RmYt326NkP9iwAKOG+1w/faJmJEENYT+8hQXiwkVFP81RdiRQyWA/YG75LYZtbz/gCJEqgAZxP80vM5EedHQ/O6sb/uYlgj/iHfGQzr6DP7y6Fu8Xt30/hJAb0N2Oaz8qVSHzbfxjP7OxeuVLP3s/S+V31mFAdD8sUChS359cP9BAVojK1Xg/kMh2UV8rdT/lSlfXDqhuPyloVkRWYYE/oq++gpBefT9xlV8wOBd4P87bgUwoi3M/15K6AdYJYj8B5VmoSqJ0P5L6OfV9D3A/QttHwjbubj9HE16YRbd3P0aJtOQw1YM/nSC6H5OAhj/zzQrVgCaEPxriJjnflnE/IiqrjGqDXD/sHLzPqZtvP9jHhxNxMGA/FRuBzMToRj8rHuriapVfPzvyIehTVXE/2jr6IC9ucz/eJNQ8ew1zPxrYrXaGtVs/ZFF9pBGUVj/FzjU4GKg4Px/jO4sj0gw/ufK+zIfSQT/9t0Wz2bNVP31DSOhl910/L7Q9KFt9aD/fNcy5GtJxP0Bfi4IhpWw/DC32cHm1Zj86BmBygNpCP4KtVpj0tUc/pHaAir6YUz+jNdQTuZUtP5wWP+NcSTQ/sEP5VGppYj+OOsD2m0pzP8Np4uuFC3g/FgL1blntcT9Jc9neK0JUP0WIdDHppD8/gB9twwOs9z6KJqkir8I4P4YErSVkTmk/EMErEJkncj+kWzjSs71nPzm9VjEswGs/GVe+wlm+aD/JSqlD0pJOP4M/j4LKcTM/7Hx0txMY+z6Eg97lgHxJPz1EbcTtHFk/QisH+FLAUD8YhK3VYepnPzUCkTH/8XA/LJIPetQ8Zz+JEcscphxaP9MqIsA7okM/TsFvKbU/Nj/115AKz+UeP9EgGI2N1RU/+g4/y3oYUD9TzMfR7wNzP3Hdpf0QQnI/Z/dRG/RWcD8qAjG9L8xtP090wUIKeFo/VvG9ZJR0Uz8KpcjQft4UPwFLWf5mlCA/WEpzsjg/YD+qVuBAVLVsP2fKG7AzH3I/10ryu43acT9hWc9lvO5gP14JBZ0DYTE/VZt3wh2PEj9WVHiAilYLP6pvYpfixiA/Vks8LQXNQz979VtnLPhRP4qKsKuGL3Y/pBVl709Edj+pkeEcIJtgP47wZkwIQUE/RFFbatVUDz86TeCAUxeFPjKZEtzaQf8+LVIsnIOtBD/6PVpqc4sKP9EhRB3FZjI/Q+Y3ZjCjOj/WwsnBYCtDP6bZzoxjAUE/le4xMzyiCz/FPiK5ogu8PhF5W+RXchI/3iOkHDLx9j6Es19L5skJP0jbZMNj2/4+NUFJQmCatD7n1y0/ICL6Pv9Y1xZ5bQE/H544rNDiEj/iq0IuTFv0PkDMGYyXt88+eEtMZ3ob8T6qaC/QzT4fPz9zMJ+XtRM/yFBXDoc71z4lGKPPtXaXPkZU3o76Skk+FdX0fXcF9T5Z1MPx10D4Po4CgbVCx94+O+VdglLH2j5BBR2lkiXyPpH0dU5AcDI/CCT1Wv7CTj/tfzE2YtYtP5+bI116keQ+NuillI9OAz/5UJkZ8m/mPjviM0JDU+c+toWZAYxl6z7gEjVRdajKPvb0N6VGdQU/H9qR+8L++j6t9b8BrkWnPmSB/rjK6Zg+wkl/nFmrrj5nl7X6auq3Po8DizSnms8+Rtzz+w3knT6sxXYgqJw3Pqjref0T7zk+jHhMUzN9wz5TZcH9CJLVPhVer2ygQqs+ikKhehpM1T4q2k4szavgPqrZn/Wkx+c+uH2+fSsx1j7DzWFG0MejPs2gPoOOOsE++H3z4dcy2D6MwwAZdQSRPg3KSGGHmSA+ndYgUSxMEj7eVll3z1AVPvlWfzVv5tQ+zWf0NWOn4D5+NvhDKHLoPqJld6ccFUA+fy0fSFv9JD6DDcUMQefjPmN4GptBmwg/d7RCS11mFT9t+QQLF+ERPy7fBwpFGP8+5tjdxF1ECD8QSqXDfQj0PrLeTO/mU9I+G4A723BOtD6YI5DoEtYtPhaw1xTrWTU+orVdQ16zgz60EOlKdgvkPiTaxTP+9to+Higaa9f1Jz7+BKAB4tvBPtWtjL/nw+A+3h4CuaIIST7aFLHtJQ+0PkJlH+Es+do+1uftibXAEz+ihLUnDSAsP0QnqI30mQA/KOC8RzG5wD4UmczGmKfYPhAZm//B+fQ+PqTyBBsQAD//v0KmGpUbP9WLHu0HPAk/jkQYyqpQED9GIKS0FqEbPxQA4+zxqvE+f4S6VcJiCD8FTCAju/EgP/nEhSWXYOg+Jq8W4PyCoz5KE846b1HhPs+X1mswYdQ+h9aWI8o/5j7UEfhMCvvFPkeeotDpI6E+h5QCqRs90T4ofvYvEtKZPpY/ldfSByo++NERLHYPtD6kV5V4MZzEPnfXJuXnZ+c+9hdZooi+2z7XQ0uUrjjLPsMOXlKlxbg+a25FdvXvMD6w9t2wflYzPgyFxAHniWQ+wkElTIX+ND5/N+PUErg8PqxwOYrr2kY+eGVDSgmfLD5bsoc3/ww2Pqk0+aIeIkk+Lg7/t6IfQj7E/hNwJrIhPscx5BPrGjQ+QIyit/H1KT7MTkmVYfHaPlTpZrajz+0+LuljghfY2T5oRaur2q7IPm9uT7hqtkg+rDIQqH3PLD6iLSz9zJwoPkW3M54Dq7g+mToObdWn5T4zlPA1bbLoPi2Ecwfila4+dr4sWD005z54ZMOCxdTmPpTHSFJYj68+K9MyE+WxKz5mfaB8xkF3Ph61gnDomL4+QbT61VfSQz5Ugb3JryQ5Pq4ut377LsU+Ejve1busyz4hMyybV/QlPuwOy9O54is+ruERnc8BNz5+DJdsC5HfPgStebAMl90+hQEEjRxQMj4WdyKxb//TPtwYcfw689w+L56Y+brxuj5WdORgQHzlPmjVhNLFsOs+RgofaMIh4z5OvLwLSo7GPvwBpXmBO+g+ZqSDZXsCNT8XN8O9vw8uP87ECa63H/8+bX3DQJEp7T5VZw9ilvz+PhsE69GekuU+ib3IVvb2Rz4w/UsyJhfgPl5opZxyWTE+MiLiBWAKMD67dNuLwgwzPqcY6n1N+sc+2j/3M5yl1T7jSmzc3VnhPkA74VfY19w+Qz9zsQLngD6V7xKQNSiXPrIgP4mjzbU+1LzaAFu7HT9c5m9BPkslP5g3OfewEzw/AL93u0z0Mj/8MA0/B0/0Pp1aohVEUsI+MLaT4dSjxT7f0Z7Nz69GPujTNXV4DDo+/AKTVO24lj46yohDRRqMPqylnpKTZTM+wVyUhfg0lj4IW2jkFcG8PiiWT+P9EYY+p98yJo56Jj7tKpwE7VWgPpeQs5MxDsE+R7DyCYW5QT7fs7m7X5syPudgvQzvjCw+Qomqle2HLj58dBCfNbU9Po2zFtD3g6o+3A0eZ8L42z5rcxReae7NPjfIKKb1C7I+fY6qie1ewz6aLPUoqqicPkA7Lha0g3U+bLTswJCYtD7Enm86lEVEPk+Y3ytSzzw+wJxwhjYR0z4VkLC+LorfPv4mhluNbEM+eE7vDci3wD6X78kSy4nbPg6TFUCK7L0+S4KREanQOD7XRJ5Xq4bYPreer6aLauw+vEa6elckDD+SUGWq16XfPmWB3BGqZUo+CAkb5ozM1D7/kfVVKJvcPqfD32L9q6s+P4xxjTaX0j7HyVD+HAjRPnvZhU7RsVk+YGyhbBoZQD4opOS8NpOJPmDTXHjIhes++FW/6Y7l2z5UIpquXTfbPlMRhm93bv8+3Di3EW6s6D5mGvdXHx/bPlXHd8kBTek+uEKWwjTbxT5/xEjiKJLYPlOPenGCnDg+cIEwdcE/Lj6CCqtEPjI9PkH8pCKJhVI+Yl5GHKL2qj4nchSIjb5HPqstoZ+nRy4+/ZLnbWRaND7jVvvIyX7RPpS5zOaGfP8+vjoGpqtl1D6VEimCDiFFPoJjbv0F2zo+SN4nNTkZPD628innUfsePnXmxpg9zSA+FxTVlyfApT7yWMyypx6LPq//iDqm+TI+zVcjl/2ZIz4m4PNpbN82PsvrVJN/Apg+WO0+PXJMsj4TZ7M23SwlPkHYWK07p2o+AFdNCcNFpz5Tk80JqHiyPjNLKaBAJeA+fLOwj7el2j6qvBuwvtMwPv1RLJN0ViM+yJrqoQg+Kj5LyxIoLLslPqRS42jTySs+gE5SJmx1ND79YMaTGCBIPiEW1fHfhDQ+dl5FukP2tT4jU4MqOPfoPiIaOqDVudE+97LR/lULQz4+5H/pwRU5PsZvNJtnfEY+7NXXduuagD6+yfzJAGXwPnTGdwK6990+tfhElFJ67T65/w//Ngn4PvYtfes4ONI+kEvLwhjDQj5P3rAcK7JIPjiofuao0PU+DuMHCUrwKj+LGf6bdiIxPwel0engGyI/Shb/ea/IGT80TrGdtOYBP7PFZybFZwA/Uar2DhEq4z5tMYa2P566Ph0ZaznnO9M+whaIWGP78D4IHI/y4brmPkwwPCLmfvQ+xZ18pB/YAz+0no4F0pr1Phg942ztAe0+VcVIbBDp6z7RrjY7SsGkPmsmyIEv2TM+DhuW5CLGRT5IEXaFtFc6PvjzyI2nBfE+icBubPJ/BD96dxZ5ZCURP0S2y17rPvw+A9KolSX4oT67h1aCZSW2PpwcyjmEL/Y+8yOl7TPJ1T7v8vW/9oW9PnnuPPqA2dE+dDBsUMKxRT5dwx8FowK/PuIvsniwcsE+eAZ8F4DMxT7aELvgLFT/Ph6pVcJsgvs+X92PLDmL0j4tf+3wl13IPrIP13nxF0M+VfUvPEB91j5GlYQu2O7lPqIqy+f9SfY+RrRBT/Ezyj7Ul24cSd+4PsCnwvTXVkM+RsSn1JXCNj7BfcSYtb0yPtaXbVG+uUE+7NoYs5yF2z5qZRQKIa4JP99VUPA44DM/TvK5HO5QCT8EU24eF/6kPlFXoAbv+NI+24Ee4AIzBz+s4r8JBi/UPkDFVpUeO0A+zsufY4KA4z7ydFkyruXaPq62nx73Kx8/rbTFtIXNQD+WhNC3sp0vP3aiOEuu/RI/BwPUN+oR4z5f4CHip27mPorOjeqAWeo+yH8HVQt59j6recJw5L6/PvV2ys/na9A+VHNkuIyu0j5AMCZ4IdjDPsbmwbaG0MI+zU97nPqavD4CDhrTXnzFPupgwdR/I9g+iCtUM5OTvD78+ljOIDLKPia7W+/x0Y0+OJM125V9vD6NfyX3nRjXPh0jGjvAFPI+0+zux3CErj4dioXvM80wPsil64OpH0c+XlvuTo9YLT7gFVSWtMMvPi9TZyas+jU+Rqa85cWfMD69JlCn0CwzPkwTnA3fub0+bGEKr4xjzz7iQicU07cxPusFGgXKMik+E/buLziXMj46RXUO9j5PPk18sqVewGM+zMAtL6IkpD4KsGNFFt8/Ps1ambuxCqY+RmB+FDklaz6ATfQ8HXdGPkTTFNyJptQ+Vw9elKmmnT4JCVSOdtQyPq5TRK8KNCM+EPq5CWA3bD6ClkDHAEcnPqCpSBFmwDs+pAAXOxzhTj50+KlE55lJPkZcmwMkpUo+yY9BcCMJOD4bxlklpSL0PnulOZAD/ac+jk2yJHE2OD7PMe3WalY0PiERs2e+JsA+jO74YB77ND4kI2SUVBLvPoIRfrWQCQs/9KZUAm8kBz+kwhOPsua3PjLd51SaLLQ+dbbPxIIxxz7S3O+2EmvAPmNUyKroHaQ+ybmHdF7Muz6A3VCUHhNPPlmcTlZAuEA+T0duGoUARj7GIFkwZ93DPks4PUYJTqY+kpK0MbrJ5T7UIkuWZ5fqPptHTj6n95A+1tLR0p/+SD7c0dJtzvZLPoSAgEhC0UA+lFwlU+DAyD4Pn2PpDUJCPtQIXEAv9DA+XGo1djot0z4htpb8e53CPgQ2c1WemqI+ZsErX3pDoD5O11i0Kr2MPkHbLTFgfBc+3YVWZ/GBGz6V6s2rq7svPgHciDVo70g+dXdAdxYIQT4/q9/g5R0wPtHPgBWU65Q+wlTrmz1lOT5XO8rWtpMmPjKHd7iCOCU+TBrmd4/MKT7B2lTe2LBFPiiU48NHHUM+EsGYvM2pND6TsvJ7eZc9PsBk9amplCM+Q8nMYC7BoD68rhoRRQjZPu+ZZXdT/7I+wuKPOzmchz528PhopASuPiAZCZq6XR0++GN589BOIz67sbwX03AoPlqdDDlVUjA+N/qFvod6Lj4IkxJL878qPl9Y5cadvoQ+6FO6wlixOD5GO6hVHMQ4PoAa0gFMYLs+gMVSXgeLOz54RlnpCQIrPhvvcSYQUik+yApmBg6gLD71qKxM+Y9CPoPywIgnfC0+wsBCE+GDMj6w7+BctvciPipQjAXNPzk+Kv8+lfSobj4TpRZdBGbbPn6ZM0RKNcc+/miQzB8swD6lZtQXPGG5PtATwU/VjUg+/sMxOMnzRT5NCSTKAvLVProkQlEgeOg+0EilVrLJxj5g9av6WtHBPmNocrlPXdQ+FvR1M89VID72BIof9fBBPuBBRkpWqr4+DZj6Kh+kRj4Zu0mPD6IwPh7hqrLYGi4+B4LoeUR3Lj5a6nFnSBNCPjb9/I+XgEU+Tjk0Ab0ZJz5Ei/EGxlNDPsQJmh3Fx8c+08pKUj90RD53a8Kp6jw0PmiukN90jDE+0LoIJOSJQD5WxsNLsXc3Pu36IOghkFQ+pk8wzdJkUD7TCwjNCsk3Ps8XBeWkpzQ+te4KmvonID7qLy/RhHYlPs1HTxecDZQ++UpZCT5qpT5RdWDTi6dVPpKJ8D0YuDk+kh7i9VispT7KAunhX47NPvAe1JnUKpU+XmsfakgrJT679VwDI4M5PpkFbJFaqEE+yyi8kKViLj79hR7LJJE7PobtSN4f2kM+EvXaX5DmMT4sLhTIH3tEPuIsqvIXcz8+8GHlBejtjj7oLz0qtwCQPsyB5diPKis+6NQl+Jq3KD42jZ9wyTMxPifWLa+8gY0+V+MeM1zbdD6ybC+ll+FCPvn+lNU9TSk+nos6S4p6PT63iOzp9kCFPoMrYPHDdLA+1G2v74Z6pD6HjYtjkjA9Pva9Vk6n1EA+mvT4ow85RT7VcPP5U402PuaFzM86t3c+0GeURMMxdD5+dV2MvaowPsEkfv8Xryw+AHXFY3jLLD6KS4pyO8NOPvylFPXuhIc+PFTLwLXwIT6WUlN4tKgkPlDlby6f4ik+rvP51OMmNT5krNMZgpcwPs/dsJsksjM+P55YKZjrND5WqU71bLM9PnmcuA2SrjQ+vC/Dx0B8Mj5c2T/ilVqlPk2KL6aaWaU+OIf41ah4RT6aqGSQO5YkPsxKdf1dZSU+2MLeEv+9Rz7yXsgQiUCrPgp6yXkjNEI+rsry5rpAQj40mSFKOtyCPiFcfitIvUM+/Ry0WmtEIz4p9U1+eiQwPhIOqVU4OCo+YSPf1YXaJD6S5pjLow8kPoYoxAfbCxs+XSbItDCDlz5YZDXvGEw/PjCmt2SlaLA+e4J4mvo1sD5WTrJhYkygPha3AcZgFCQ+gQBwJw/coj5DMSM0fFnSPqlK+r7oR6Q+KJ/9NCa0Nz7GaW5y5303Pltkv7kIjTE+eHU+FMerUD6hsQZmNme5PieEgG/gobM+m/vCsbo7RD5uLV/+4PM1PvSjjepRMTQ+W+t7e3CZQD4XsXmeOQQzPubSkApOXTc+9TGsvpIbOj42jdQ89+S7Pg/wvlxWv+k+W5rbGmojMj5+3C+fbLlMPn/LiqMV7LQ+zskA412wAT+v53+9x0TwPrengBJQl7Y+tMn74bMvQD4CQf48rTc7Pg5lEHfMsDI+zC+gtUP8Oj4Q8TA46WOIPhJoOqhuoyo+up7cMLedRD5lfkvg3GVGPsA07sEDEkc+hFjDA/ODwj7K+TXZ/EPFPlAB/rn60tk+vY5cQA5rJT6TazPDUC4sPqbZIH5b33U+7pti6HTRQT4C3/9pDyAoPjFDHl2T8BY+rhEDtAXoIj5bqZiCaI4pPhFhLP4vMC0+ipuNWCmePD4+SvNMwJFAPjMtKa3lAEI+Bj8Xm5W6MD7pkTrXUNzBPhxLcW2nDzo+4MmYh8JbMz4E9e3xCT0oPiDJ/3uO0ko+0bsQzyZpRD7LOxF3zJCBPsAJKlhq58I+oWBNo5IwRz7iiqUMGmgyPtX3Fyv7iXE+Jw/NetpD0T56SPdtoybYPmQdYi7iqVI+IlT5j2MNMD7EUgPKFYg1PqnyxIIGtUo++sEN61zsKz4EF98d6Q6hPqABbvH9u6E+yuMZbOxiLD6tcvGuVPDEPlA7F3cM8Kk+ANI69K/H1z484bi5H8RvPtpBTVaMUTI+cD6dX/Xd0T5u7TY5MRDRPn/LyKB7p8I+fWiUhMLX4j6DQxC9CP6VPoSY9kvNT0c+WPJc8QEtQj6mKrGU7CgnPk1AFKK+Jz8+3tL33juqoD7PtZl7uiZuPogAM5541TU+APbbwTd9Oj7G8XsIHXE0PoExwZpE4JY+ksYstfyzpD7G/ROI9aMkPic7p0cmvzg+0jwvIchAIz6e1wLeuQwTPqIOJYm4XFo+Uslk7VU9ID5AABAN0JImPj4Gxx93fjg+MUGtAA126D65ogVfsm76PpY9N+tmfeo+9YIl5zJCYj44i8qzbeNFPrWHRenKKEU+AdHIvS0tND45XvDITrsyPpNF8mp58zI+8yLp2FzjMD6xpR3UtQtBPoQU1xzFLkA+cnDp9z7iOD7DW/sHBBQwPvJCaQvUL5Q+tRoYnvaD0D5lbu52wU/lPsdCUMJz8OA+8faZ/o3erT6EfYzAZENVPqVFMB98KTw+J12kqCYVLj4tkdEL8at+PoyeDFQcjVg+quY3Pyb5RD5EGn6qe6SuPrbwMA34UjY+zD0Oe8cvKj4BKsFH6KiVPuf+dcTHvbk+GZMiHsQqzz4Yufpoptm1Po2v9vWQmzU+mO8IQrgipz5Qq7slb+DRPsQgvdCfD8I+JuZXu9rSLj7Q298Z4e+UPu6aq1hVCtc+2xHYUqDn5D6NlKqIlhjRPukHIDzfd7Y+lBsl2oaYBj9McaSgzR3ZPqBS2v4iA8M+xEawc11m7D7+/TKmDT++Ph5ZNIJV8bA+7/upLVDEsD6dAztlhdeBPpWj4ECLgkQ+PTL1TUzNsz5KUaJpW8zFPgc3kDp526g+Z67E8uGOsD5GiZl7UjnKPoGNtTFbU6M+5rs1/njkLT7gXLTt92soPq1bvak+wjQ+uLXOtW8PqT4goZhLYFBBPhv82nUzkSw+a6THGnOFLj6TrZCjuD82PqX9ssdEbbM+2RWHjo0kqj6uU8pmb7qmPtUbX9Tg1pc+1q9VC4ziNT5me3aLVXw1Pl5OfPwEiTU+X48CKgDdkD48HzAcmAm7PnOjRehlqz8+I8Q9E+ECOD7qVH92kkOqPpwYdL1sMrM+ygpv3kR+0z7/F6xCbVXOPk54/68Zppo+Qp+mqc5EGz4uOAXBmC/IPoZ6iQ0GqfQ+g5tyKfDdwT4C0072Nr3APiOAjLbGGMM+XfxFV8NKwD6r+z5KyQrFPuXY7tffL+0+ShgMzFmMGT8KJyl9rjsQP8C7vScmKcI+ss4BsjE8yT6MYJL8DZwMPwbKhpQ+n/E+7CdhvFew2j6VrXh0JRTRPpCqnkDBCKg+DAc0ErMnIT63K56im5+gPn1ULee5NpY+ojjEMIfXKj4T+6f/RXAgPtrEQVsBvRk+Ao7tke+cGz7tdhXcKEYkPuKE6VmlPRM+QcTlCoGaIT7oMkjY6LrNPphWsWxvXdI+/cVB7g/7sz6t1p9IXEKePpNJ3P9iq5E+GCfPoSQRKz5oWQbSJOaPPkK9NTfc0aY+qHUjH+kmND5T6jfbcyIhPqXEbMifD9Y+ESa4dgXg7z7WC44+j3/4PnaX0h4VLOA+1dvZsRhLzz6OD3YaxsvwPg2Ohm36vfE+6hbql+xcwT42Glrpr9BEPkRhDR2sxs0+YhJuXoPhSz5Scq1e3qMvPsy4H8k1/yg+OsIH7tXruD4pc04pREbkPqLxE7SBuQg/+ScuU0fmmz6gVRm9RjuEPsksOksO/JE+g+5VM/S6sT5S2MOEKze4PmZ7uOJf6sA+/7kNqVK01z5zp9cLdcuvPkbD+s2gaKc+ErUMgrNPnj5pBQzIIXW2Puvdrgi5HuM+weZfOAzj/D7k5gK2vyX7Pj4lGNyBG+Y+vBNFliQt1z4EPUuDZsuXPqDUpuvczWQ+DCWAwmP+tT7S7lnGed+3PgYb7UctNbk+rAM+p7v6pT6TzTkfKI8FPnHdmJcgQqg+BTw9XhF0kT7xpdV8gccTPun3rEcckhI+yFinPL+inT4riLwZ39XMPgCFuRFr0OM+FvLKx1I40D788MQopeW+PrL0XBKQocQ+KsX1vJM/oz4ITllJIcmkPhqv+aW+r8A+khWSR4B8uz5hgMbClZegPo7uHMN8l08+HrDpmNTylj6NRk0KX/q/Pmr0GZa83ss+TI7n+HJ4uz5/zq5FD+yxPguv+da7GbE+SnWOr/prwz61xWdcfLbGPkQPxXVKQ9Y+YHDb4N7+wD6H9v+IftCxPla8hJXKtrg+knis0jrwuD7jfN7Dri7EPr/fE+dXdLg+BKDsULVzyT6BXG/2EZjOPmDcxf3TSc8+Pr4Uv0j+xj5g3bjotBS2PujNA1RYxb0+kqRrtHK6yz7fIeaqaYfHPqLwIcnLsdA+wIKoTrZXxz5ZMmG3S+mwPs0FRc7X4sI+ikYk6w6Qzj6wOMrf1m3NPvp25erFeMA+D4dijwjQwT70CgaczA/FPhNCmI6GV8k+r5bGYzUUxD5b5FdVUXvFPnasLKtOIas+4lUARruWxD762u7zNyDTPjap7UQNCcE+nzJGlXT/xT5vrqTaNjTEPmyPzPXFvcQ+DQbqUm3Cvj4nKoLDnge/Pu6pXSlUX8Y+T+MOowWJwj6PbK9Cc9jBPnbF8oNjUcc+vyJtt2VLzj6yW8ItD/K8Puc7LXEUUcc+JGcV7Djjwz4EXWEQex+/Pg/+/uf4Pcs+6CHMSJyLwT56mEdAnrTAPpcSvu0lJbg+2BAEUtaSvT6qKteAUnXBPi/tYTsZVdA+nd5nRajUyD4SBG6AqyHLPjHjkFg258U+xsi+w9m3wj59qLMcS2y2PgPxEp8X8L4+EiZDdy2IvT4w4Vt2G5y7PlxkfHIUscU+5XT+SlFsxz7N/gL40bDHPmGeliaJ6LQ+IFTjW7vWwj6uAackX0fBPoI2Hb3Yr8Y+0raGDt+dwz5INr6xZBy8Pt7azzlglbs+EkHLbT9uwz7e3c8IlXvLPvieKYz6UcU+B3PVh7J1wj4Q3DapQ9HMPl1JXZwjw9U+JWly2c+W0D7ZqiZ5Tk3BPiYP2G7UXMU+tPz+SvJkyD4MCxYHUsG1PmSxNdZbDLk+30gJggUcxz5cSwYYbTLDPn/o+uPtcsg+CcLNNZ74zj7+Rg5Q64zDPtv6sHE+ZMA+hm2iHqnVxT76G3QFA7rKPgZDNNuCmsg+ZhLN3dhuvT4szXpLNui4Pu0h4MdVArc+me5of9fEyD79BSSRgPLLPqhBURcULsQ+12ehRHKOzD6USPaDFbHAPl19X0dnC8o+Rq/0+GKwvz6a7d7Qwtq3PrBIPLYvZ7w+mEGi2e+kxj4qd6bxRCHFPofDIltbBcU+M6zEk4CXwT6zjpOw06nAPoVaYQLb3sY+8EmUUfduyD41HJlv+PHPPjbQtWWuRsk+wn6iwpOZxT5qOqKVWCu7PuxMPqVwg8g+DMjuxJFcxT7AJ7q3pnC9Pt5OmQy+PLM+s8i6/FlPwT4xoCCCoZ7BPrxJuOB91sM+srUBWnbTyD6cLfBwRtzNPoQPeo8RU74+tXnWJpQbuD4DUcUUGizRPr6tK7VOobo+cnOXBcgivT7YQiq7DVPRPkvZDVPOFbg+nWWUEE5svD4NXTX5wEDIPrfOFhVXusI+0pzaKQHYwz6CkrRgMHHIPiIYaQmgiMY+oMNwYlp0vj4uzNRz3US5PmJLLg36EcA+516XFGNHzj49lYcIhCu8PpeZptZliMY+eHQjp2MpyT4DZIJtV7/HPg2nLXUxasc+lOFKdZjfxD7KKZpFkDW8Pke2RqYvAr8+HqyxTcEeyD7yJp1E5+vHPmrZJiWfGr8+9SpMT8m4zT4ODmeE+qm6Pt00w/0VfLk+PAnhTpvuxD7Y7BYX+eS2PmsotQbtScU+aLsQK+xBwT4jMuTD1KzNPu6pRQ4Nhr8+Fan7jCrntj4TWW0wY625PhNXthy46b0+HVmOCOJatD4ANdkUZIi7PlKtZ3MUssw+nThy71Skuz7WzYmS9PjLPp4j/cqkJ8I+2AYT4rkZwT6hrh0viKC7PnRRkLbqqL4+TK5m1wkDxD4DqdRKLX2+Poxy/fAQecE+vwug8DmJwT7Hsy0b8xK/Pk/6DU7Wyrw+TFAeYV2WyD6oNFLcpDvDPogCcXkZ0sU+ku+paHkNvz7Fs3nnFiS8PjTLdi7QDbw+m7lA+81Axz4m4HwSrAe2PpbvI6bFP6M+foI6Jf3Vtj5RJedhD7/JPrLqbCmK7rM+YeonURWlzT4aQajgpNXFPtiatf1JLqk+1oNDr7DVuT4UgT7Qf8S8Pk9KH7uc4bQ+dI1SVx/ftD5V40At8Hq9PgyN9cISRro+c9qk6C/BuT5908sHKX7HPqoqzbWTacI+FFmimPhswD401SfQCZm4PoCj0AGfVbU+9S2QS2H0uz5qE+fcIfu1PjZ8IS+tvq0+JJsFZLcuxj5xWhDXERfMPuwQPrHb9bk+8R4O+qsszD5+kd0yLsHBPurZU7oVuMg+NT7AUYnowz6A927ZIIzCPqY6p5PDMMU+jv+B5fq0vz6eIP3RoJ6+PvKYLMX6ws8+nhklu74dxj6RonPKIDbFPoIiC4Ynb8A+qhDYoQAnwD4M+aj+oCvJPuP491NQb7c+cCdglPOGuz5cpq+/FBe3PuhFbGjZk7g+QrM26IbUqT7drr4i5RioPlZvUt+XkL4+bLVRO0IWwj6tOCiheybLPqjzZWSktMA+SODOIPFMwT6JqvQ4/VDBPlx8Yd3v4cE+YoCpX/h6wD4W5TD+7Xa4Ploi/N+5ELA+9SWETZ7ewz6wJkw0DUvAPndUEbWXpMA+1QZuchJRwD7nhZX2nZ/FPqNxsyjIq84+QmR/EWyPyD4i1eaZIL23PkZH0DLCrrs+8HnYgDfCuD4aKh3lDzO+PowAgdrg1bs+G2HNFriIuD5Gwe2j1yiyPgmfB7kvXcY+KzUFKuyXwz6wp87KK1q6PmzyIM1q18M+mV7phZcuxD4kHuaHFxyzPrqVCNEWTME+jYFDuRo/vj4EzIKOaUytPnbFoMna+Lo+V/gHrU1Lvj4oiGir323DPp/D1EjTIMw+ROWYBFmMxz5HqrDtlNSyPpiqp3givcA++vqapIazvT6AnzFhR/7DPgquzMm6ccA+WQciA2YHuT47AzVscMDDPsAEJ7ZLqtE+a0pSGzAJwD6OdBl8u3ewPpCDchN7Xco+KYFA4t4iwj7CqsBADku5Pq2d+ouP8dA+ZKqgflj9xz7HoVoLlWatPgWSvtQrVrU+QEI4NpGwwD7mV66zbaC+PrrgBdTn7Lw+ywRgM7G9wT7ZpmI88lLDPrfTRZRey8o+gQXRekSxxT4h9PzmCGrAPrUiP2XFn60+PqMFGAn1qD5oxU3sPS+6Pi6S2fL5NsA+ZmJgGALEwT7xtu96yHiyPvhQwP4n5rY+xIz9oJ45wT7dRIDmOWjFPqBssqvSuMc+phCirpsyzD4qA7oCtjbTPnxmxLq9Pck+1Ay6gLFPsD6U9BM8pQ2tPkdtTaQmk8E+AyLP464pvj6s88IJ2rvEPjgaXwtYxMM+QuHOop11wj6VunhPJf/FPiXyZ4QnZ74+oXobYr/+tT4iESn2kaq3PhNCFYly2sA+ck0J6JSrtz6VJilpstO6PiiN+5Od9cI+jwDBjYFStD7n7SrXRDrCPlgEtf9z+cI+fDyg8GCmvj75KW/aoZG4Pgn1vPEYQcI+Ly5j5IGArT4u8Lxuq7+6Prg25J2xpb4+sNlH/SgDsT7/sqxCyoHBPsHlu205DsQ+1xINPXw9tj7i1B9KME7DPnIEWrE6g7w+apawdbr6vj5D/e1e6jvQPmJcUjDJPsM+MvrwU7mkuD718yxxR763PhwolztE6cI+rZXWcbZevj7UA4KDYZqrPpHGbkgPxr4+FOnpIPxrxz4Nnv/K3XWyPirORNXVQKI+Ya5UYMegxz7ovhm1QPXHPmlygMYckLI+/ZLbOlH9rT7cyF1Njda5PnfTwFEOb8I+FFUhhfCJvD4KcZ5mxmrAPqOXhVlepsM+S+RqFdWNxT62RSG1yCLHPhQeYrm/qbk++O08pf7yvT54n0oX3fy+Pqgrj70AgrU+vGW/27CjwD5aPu22XDemPhBziXYqmLA+ZhBGwT41uz6M1f1A68m5PjdYRqUXF74+B+CdsJFAsT4EHBveeQ3LPhVNadjlEsg+AJwXEnm7wz7OKF31h1e/PuRKqdEiK8A+SN91hIretD4qSEdUH5fAPg9Izg10s74+pgo4zyLqwj7AgD/v9121Pij4E7sd1LQ+f3GNawuCvj4b8zJsEqfKPgXogHbbfNU+DS6dbzoVuj4YteyAGDHCPlqUNWQeAcU+hKn1Rc2Msz4RKD8ZmXK7PnLmJxC2fbk+Svl2OwZUtT4fP+u5DG3DPu+gQx5uTMc+Oyd/A8nGyz7z9hqdJNe4Ptyd6n7Whso+z7xomQdEyT4LUsaWdnyzPlxxW8+bbaY+4ILE+WlRuD4mJZ3YJ/K2PnahWH+MI80+d+oGqlZ20z7AQnbLPKy8PvDiEWPpLcQ+uPkOzabyzz68901UGVKxPhOETGdUhME+OCSgndItwj6Y4g2EgZvBPgK4ZujXd7c+0L1RE7cbuT7C7A9vW8HDPplE34ort8Q+CM6f/rPRsD4TdsCjq0i+Pnz/6NSwdNE+RYDbcPHkyT5KyYQP+wfJPnhc/vtqKNE+/zUZMpu00D76OZ/CtVXPPqiu2ggPv9A+QJNDRjts0T5prd6u36LRPpl/rMIlktM+Zy2/la4c0z6NWKwJyjbWPm0T6w8np9Q+l9mc8a9n1T44LXtI5X7SPvbQM/GqCtM+gH25EFtI0T5Y+Z/J7g/RPn4VnXNiJdE+PCPJj0pQ0T4u5sW/eBPTPnE5wRgoftI+st+XjpWS1T43f2nhe/7UPp1gt+0y6tU+nltLQEz20j6COXaszmbTPteIRkmOX9E+O0t2AupC0T7Y1PVrbvbQPgwxmkEeOtE+5GILYW2o0j4VitgQJRbSPo0GFTkVCtU+/n5w9maP1D4oG7UxOevVPoj+bAcZGdM+kIawTRih0z7Ua6kNtGbRPlK+go43itE+SzMCtPP00D4cUTsVrB3RPhUrwYDRNNI+mShQpXfM0T6LwMZyh5vUPk/I2LNfYNQ+692XIdNj1j5GwaZOYLjTPsN3pG4uDtQ+CNudL2OH0T4aQpFxJN3RPr1gJu/V59A+PtPB/w/y0D6ps86AN7zRPsyZt4McsdE+AKBHPjUA1D6xTPm8MIzTPplMOGZ2GNY+sczXqjse1D6XQZBqpnfUPv7gTEvm3NE+5dLeLIU70j5W2Upe2gbRPm2QDiyn8tA+1yUaAkln0T4Wmt3oWG7RPro8uIHdhdM+HYHVlwko0z4RJqr14NjVPhGcEEi5cNQ+B9HXIJ4r1T5uhhJxpFHSPkGHD04os9I+6QBUCM/70D4QD9VwrOTQPmgnOeFtGNE+tULAr8BM0T5KeiwkSxbTPqqSX0QinNI+L9T2OB641T6f+YBOSSnVPjc6SuPnpdU+V9QzPdqG0j5LwyYfKBLTPsB2Cn6MLdE+pm9SfnQN0T70MqUd3erQPtH1sIvfIdE+1klAxtad0j4WEWEn5EXSPgt1vuUCItU+E/wkcZFh1D5jkNN7FMHVPqLyPEyO49I+tqcllLRk0z4+3v/2dljRPhrp42FdTtE+N0ze3NHk0D7l+BWrxgDRPh9s/37lJNI+FlIsd5m60T71GLK/BHzUPsywmILPV9Q+95g5oWMg1j6crZ9jc3XTPigA2EPAwNM+qxNC/uCt0T5C0Q+FoqPRPuwtfLSR49A+KBEsLhLo0D70z7Bifc3RPult8BTDmNE+qQrs55AA1D56dp1m/LnTPnxLmtFXrtY+pc0+dF3c0z6ehjTpC13UPrO2wOxyntE+ct/nh3r90T5PiH0T4NvQPjim93IX3dA+GHeGoNNl0T4ih98k1SHRPqL/WzZeidM+V6MNB6cp0z7auvTBsszVPrNeZBQBR9Q+EI7J2uvQ1D7eOG5LVC/SPmxf7pLbb9I+CMI/uxYO0T7vWrLcwdHQPurWABaOFtE+4vU3reo30T5GcKY40CDTPlyCt5FFdNI+4RSbsUKx1T6goioDkdzUPvHglM4+ddU+gZrSZvtR0j5XB2KK2tnSPl8uFx+0GdE+n2bpGzXv0D6O9H0vfOrQPg0+KAOwANE+9ELddnuo0j5k+8UQYA7SPmYbTu/0RtU+G1gfwUKZ1D7CBk5qGMfVPtRk1H0T0NI+UyKRUbgr0z4dFpbw+0fRPsiU9PXoMNE+PH1BeMPM0D4qSQngsenQPhG/A7lqNdI+x+iTwTzu0T5+seMSd8bUPmMV1k1hRtQ+UJaKERny1T4WA0i9Wk7TPiamXl00pdM+XGLyTZZk0T7yg6rBrGzRPr++3LPLydA+q7byst/Q0D4XFwhzg8vRPjCYI0KFudE+nWfSoIMe1D5tbGXJTdfTPjI1pZm2I9c+]]></presetChunkData>
            </component>
          </slot>
        </effectsRack>
        <editParameter parameterIndex="0" slotIndex="4294967280"/>
        <audioClip clipAutoCrossfade="true" crossFadeHeadClipID="-1" crossFadeTailClipID="-1" endPoint="331605" fileID="0" hue="-1" id="0" lockedInTime="false" looped="false" name="cuento 48000 1" offline="false" select="false" sourceInPoint="69193" sourceOutPoint="400798" startPoint="0" zOrder="0">
          <component componentGuid="7391d650-2447-426b-b3cc-38da203be4d8" componentID="Audition.Fader" id="clipGain" name="volume" powered="true">
            <parameter index="0" name="volume" parameterValue="1"/>
            <parameter index="1" name="static gain" parameterValue="1"/>
          </component>
          <component componentGuid="8c3f059b-7079-475a-bf9e-c912c4c24a39" componentID="Audition.Mute" id="clipMute" name="Mute" powered="true">
            <parameter index="0" parameterValue="0"/>
            <parameter index="1" name="mute" parameterValue="0"/>
          </component>
          <component componentGuid="277bc014-53a3-4c6e-a552-9bed888792e5" componentID="Audition.StereoPanner" id="clipPan" name="StereoPanner" powered="true">
            <parameter index="0" name="Panorámica" parameterValue="0">
              <parameterKeyframes enableSplines="false" readOnly="false">
                <parameterKeyframe sampleOffset="3052330" select="false" type="linear" value="0.5"/>
              </parameterKeyframes>
            </parameter>
          </component>
          <fadeIn crossFadeLinkType="linkedAsymmetric" endPoint="0" shape="0" startPoint="0" type="cosine"/>
          <fadeOut crossFadeLinkType="linkedAsymmetric" endPoint="331605" shape="0" startPoint="331605" type="cosine"/>
          <editParameter parameterIndex="0" slotIndex="4294967280"/>
          <editParameter parameterIndex="0" slotIndex="4294967281"/>
          <channelMap>
            <channel index="0" sourceIndex="0"/>
          </channelMap>
        </audioClip>
        <audioClip clipAutoCrossfade="true" crossFadeHeadClipID="-1" crossFadeTailClipID="-1" endPoint="1710230" fileID="0" hue="-1" id="1" lockedInTime="false" looped="false" name="cuento 48000 1" offline="false" select="false" sourceInPoint="400798" sourceOutPoint="1700772" startPoint="410256" zOrder="1">
          <component componentGuid="8ef66914-c0b0-404c-bd4b-67bd4342c1e6" componentID="Audition.Fader" id="clipGain" name="volume" powered="true">
            <parameter index="0" name="volume" parameterValue="1"/>
            <parameter index="1" name="static gain" parameterValue="1"/>
          </component>
          <component componentGuid="8a6ac5f5-18d8-42bd-8316-55e046b9598e" componentID="Audition.Mute" id="clipMute" name="Mute" powered="true">
            <parameter index="0" parameterValue="0"/>
            <parameter index="1" name="mute" parameterValue="0"/>
          </component>
          <component componentGuid="4fff0b85-6c38-4ac2-a469-a1fcf0ac4be7" componentID="Audition.StereoPanner" id="clipPan" name="StereoPanner" powered="true">
            <parameter index="0" name="Panorámica" parameterValue="0">
              <parameterKeyframes enableSplines="false" readOnly="false">
                <parameterKeyframe sampleOffset="3052330" select="false" type="linear" value="0.5"/>
              </parameterKeyframes>
            </parameter>
          </component>
          <fadeIn crossFadeLinkType="linkedAsymmetric" endPoint="0" shape="0" startPoint="0" type="cosine"/>
          <fadeOut crossFadeLinkType="linkedAsymmetric" endPoint="1299974" shape="0" startPoint="1299974" type="cosine"/>
          <editParameter parameterIndex="0" slotIndex="4294967280"/>
          <editParameter parameterIndex="0" slotIndex="4294967281"/>
          <channelMap>
            <channel index="0" sourceIndex="0"/>
          </channelMap>
        </audioClip>
        <audioClip clipAutoCrossfade="true" crossFadeHeadClipID="-1" crossFadeTailClipID="-1" endPoint="2155102" fileID="0" hue="-1" id="2" lockedInTime="false" looped="false" name="cuento 48000 1" offline="false" select="false" sourceInPoint="1700772" sourceOutPoint="1955526" startPoint="1900348" zOrder="2">
          <component componentGuid="3e817cae-1d7a-4761-851a-822504a6d696" componentID="Audition.Fader" id="clipGain" name="volume" powered="true">
            <parameter index="0" name="volume" parameterValue="1"/>
            <parameter index="1" name="static gain" parameterValue="1"/>
          </component>
          <component componentGuid="732a7b76-7d4c-4ce1-aebd-90242eef53d0" componentID="Audition.Mute" id="clipMute" name="Mute" powered="true">
            <parameter index="0" parameterValue="0"/>
            <parameter index="1" name="mute" parameterValue="0"/>
          </component>
          <component componentGuid="2a6145ce-871d-47a5-9eb2-a556be6ff361" componentID="Audition.StereoPanner" id="clipPan" name="StereoPanner" powered="true">
            <parameter index="0" name="Panorámica" parameterValue="0">
              <parameterKeyframes enableSplines="false" readOnly="false">
                <parameterKeyframe sampleOffset="3052330" select="false" type="linear" value="0.5"/>
              </parameterKeyframes>
            </parameter>
          </component>
          <fadeIn crossFadeLinkType="linkedAsymmetric" endPoint="0" shape="0" startPoint="0" type="cosine"/>
          <fadeOut crossFadeLinkType="linkedAsymmetric" endPoint="254754" shape="0" startPoint="254754" type="cosine"/>
          <editParameter parameterIndex="0" slotIndex="4294967281"/>
          <editParameter parameterIndex="0" slotIndex="4294967280"/>
          <channelMap>
            <channel index="0" sourceIndex="0"/>
          </channelMap>
        </audioClip>
        <audioClip clipAutoCrossfade="true" crossFadeHeadClipID="-1" crossFadeTailClipID="-1" endPoint="2529934" fileID="0" hue="-1" id="3" lockedInTime="false" looped="false" name="cuento 48000 1" offline="false" select="false" sourceInPoint="1955526" sourceOutPoint="2208253" startPoint="2277207" zOrder="3">
          <component componentGuid="545c4f61-62a9-4b8d-81b8-c099c16e4bd6" componentID="Audition.Fader" id="clipGain" name="volume" powered="true">
            <parameter index="0" name="volume" parameterValue="1"/>
            <parameter index="1" name="static gain" parameterValue="1"/>
          </component>
          <component componentGuid="5d282124-03f8-41a4-a906-a6f7e0721efa" componentID="Audition.Mute" id="clipMute" name="Mute" powered="true">
            <parameter index="0" parameterValue="0"/>
            <parameter index="1" name="mute" parameterValue="0"/>
          </component>
          <component componentGuid="b28eb867-342a-4e13-8a4b-e302c8135930" componentID="Audition.StereoPanner" id="clipPan" name="StereoPanner" powered="true">
            <parameter index="0" name="Panorámica" parameterValue="0">
              <parameterKeyframes enableSplines="false" readOnly="false">
                <parameterKeyframe sampleOffset="3052330" select="false" type="linear" value="0.5"/>
              </parameterKeyframes>
            </parameter>
          </component>
          <fadeIn crossFadeLinkType="linkedAsymmetric" endPoint="0" shape="0" startPoint="0" type="cosine"/>
          <fadeOut crossFadeLinkType="linkedAsymmetric" endPoint="252727" shape="0" startPoint="252727" type="cosine"/>
          <editParameter parameterIndex="0" slotIndex="4294967281"/>
          <editParameter parameterIndex="0" slotIndex="4294967280"/>
          <channelMap>
            <channel index="0" sourceIndex="0"/>
          </channelMap>
        </audioClip>
        <audioClip clipAutoCrossfade="true" crossFadeHeadClipID="-1" crossFadeTailClipID="-1" endPoint="2844696" fileID="0" hue="-1" id="4" lockedInTime="false" looped="false" name="cuento 48000 1" offline="false" select="false" sourceInPoint="2208253" sourceOutPoint="2412949" startPoint="2640000" zOrder="4">
          <component componentGuid="76fa11b6-a517-4e77-bbc2-025f8b9f2928" componentID="Audition.Fader" id="clipGain" name="volume" powered="true">
            <parameter index="0" name="volume" parameterValue="1"/>
            <parameter index="1" name="static gain" parameterValue="1"/>
          </component>
          <component componentGuid="df64572b-b34d-48ce-a854-01b7333c3ba0" componentID="Audition.Mute" id="clipMute" name="Mute" powered="true">
            <parameter index="0" parameterValue="0"/>
            <parameter index="1" name="mute" parameterValue="0"/>
          </component>
          <component componentGuid="89ef21a4-a11a-4751-b2b0-9ddae46fa298" componentID="Audition.StereoPanner" id="clipPan" name="StereoPanner" powered="true">
            <parameter index="0" name="Panorámica" parameterValue="0">
              <parameterKeyframes enableSplines="false" readOnly="false">
                <parameterKeyframe sampleOffset="3052330" select="false" type="linear" value="0.5"/>
              </parameterKeyframes>
            </parameter>
          </component>
          <fadeIn crossFadeLinkType="linkedAsymmetric" endPoint="0" shape="0" startPoint="0" type="cosine"/>
          <fadeOut crossFadeLinkType="linkedAsymmetric" endPoint="204696" shape="0" startPoint="204696" type="cosine"/>
          <editParameter parameterIndex="0" slotIndex="4294967281"/>
          <editParameter parameterIndex="0" slotIndex="4294967280"/>
          <channelMap>
            <channel index="0" sourceIndex="0"/>
          </channelMap>
        </audioClip>
        <audioClip clipAutoCrossfade="true" crossFadeHeadClipID="-1" crossFadeTailClipID="-1" endPoint="3395651" fileID="0" hue="-1" id="5" lockedInTime="false" looped="false" name="cuento 48000 1" offline="false" select="false" sourceInPoint="2412949" sourceOutPoint="2716419" startPoint="3092181" zOrder="5">
          <component componentGuid="2e63e0ad-cbaf-48ff-997e-6c3f27f8d905" componentID="Audition.Fader" id="clipGain" name="volume" powered="true">
            <parameter index="0" name="volume" parameterValue="1"/>
            <parameter index="1" name="static gain" parameterValue="1"/>
          </component>
          <component componentGuid="2b36e57f-132b-4c34-be2e-b70d1b5116ad" componentID="Audition.Mute" id="clipMute" name="Mute" powered="true">
            <parameter index="0" parameterValue="0"/>
            <parameter index="1" name="mute" parameterValue="0"/>
          </component>
          <component componentGuid="adba3e47-f9ba-47c3-92a0-1c1d31055693" componentID="Audition.StereoPanner" id="clipPan" name="StereoPanner" powered="true">
            <parameter index="0" name="Panorámica" parameterValue="0">
              <parameterKeyframes enableSplines="false" readOnly="false">
                <parameterKeyframe sampleOffset="3052330" select="false" type="linear" value="0.5"/>
              </parameterKeyframes>
            </parameter>
          </component>
          <fadeIn crossFadeLinkType="linkedAsymmetric" endPoint="0" shape="0" startPoint="0" type="cosine"/>
          <fadeOut crossFadeLinkType="linkedAsymmetric" endPoint="303470" shape="0" startPoint="303470" type="cosine"/>
          <editParameter parameterIndex="0" slotIndex="4294967281"/>
          <editParameter parameterIndex="0" slotIndex="4294967280"/>
          <channelMap>
            <channel index="0" sourceIndex="0"/>
          </channelMap>
        </audioClip>
        <audioClip clipAutoCrossfade="true" crossFadeHeadClipID="-1" crossFadeTailClipID="-1" endPoint="3906251" fileID="0" hue="-1" id="6" lockedInTime="false" looped="false" name="cuento 48000 1" offline="false" select="false" sourceInPoint="2716419" sourceOutPoint="3054329" startPoint="3568341" zOrder="6">
          <component componentGuid="da818712-ff1b-4a7d-8387-9f819e866987" componentID="Audition.Fader" id="clipGain" name="volume" powered="true">
            <parameter index="0" name="volume" parameterValue="1"/>
            <parameter index="1" name="static gain" parameterValue="1"/>
          </component>
          <component componentGuid="ee0aabc9-3f86-44e4-8fbe-656b46111219" componentID="Audition.Mute" id="clipMute" name="Mute" powered="true">
            <parameter index="0" parameterValue="0"/>
            <parameter index="1" name="mute" parameterValue="0"/>
          </component>
          <component componentGuid="c6075164-4e69-4fbb-8072-aa9cd2b41f4c" componentID="Audition.StereoPanner" id="clipPan" name="StereoPanner" powered="true">
            <parameter index="0" name="Panorámica" parameterValue="0">
              <parameterKeyframes enableSplines="false" readOnly="false">
                <parameterKeyframe sampleOffset="3052330" select="false" type="linear" value="0.5"/>
              </parameterKeyframes>
            </parameter>
          </component>
          <fadeIn crossFadeLinkType="linkedAsymmetric" endPoint="0" shape="0" startPoint="0" type="cosine"/>
          <fadeOut crossFadeLinkType="linkedAsymmetric" endPoint="337910" shape="0" startPoint="337910" type="cosine"/>
          <editParameter parameterIndex="0" slotIndex="4294967281"/>
          <editParameter parameterIndex="0" slotIndex="4294967280"/>
          <channelMap>
            <channel index="0" sourceIndex="0"/>
          </channelMap>
        </audioClip>
      </audioTrack>
      <audioTrack automationLaneOpenState="false" id="10001" index="2" select="false" visible="true">
        <trackParameters trackHeight="30" trackHue="211" trackMinimized="false">
          <name>mujer tarareando</name>
        </trackParameters>
        <trackAudioParameters audioChannelType="stereo" automationMode="1" monitoring="false" recordArmed="false" solo="false" soloSafe="false">
          <trackOutput outputID="10000" type="trackID"/>
          <trackInput inputID="1"/>
          <component componentGuid="4d40325a-a80d-422c-9db4-191e0a72e5b5" componentID="Audition.Fader" id="trackFader" name="volume" powered="true">
            <parameter index="0" name="volume" parameterValue="1"/>
            <parameter index="1" name="static gain" parameterValue="1"/>
          </component>
          <component componentGuid="e939338e-99ff-4de0-83b7-4fcac641b300" componentID="Audition.Mute" id="trackMute" name="Mute" powered="true">
            <parameter index="0" parameterValue="0"/>
            <parameter index="1" name="mute" parameterValue="0"/>
          </component>
          <component componentGuid="c93d245d-62d4-4c31-85b3-5bedd2a7cc04" componentID="Audition.StereoPanner" id="trackPan" name="StereoPanner" powered="true">
            <parameter index="0" name="Panorámica" parameterValue="0"/>
          </component>
          <component componentGuid="51846ea7-ba9f-4142-ab23-cb27983ac9c0" componentID="Audition.EQ" id="trackEQ" name="EQ" powered="false">
            <parameter index="0" name="Frecuencia estante inferior" parameterValue="0.000834028352983295917510986328125"/>
            <parameter index="1" name="Ganancia estante inferior" parameterValue="0.5"/>
            <parameter index="2" name="Frecuencia estante superior" parameterValue="0.74979150295257568359375"/>
            <parameter index="3" name="Ganancia estante superior" parameterValue="0.5"/>
            <parameter index="4" name="Frecuencia central de banda de EC 1" parameterValue="0.00125104258768260478973388671875"/>
            <parameter index="5" name="Valor Q de banda de EC 1" parameterValue="0.000199989997781813144683837890625"/>
            <parameter index="6" name="Ganancia de banda de EC 1" parameterValue="0.5"/>
            <parameter index="7" name="Activación de banda de EC 1" parameterValue="1"/>
            <parameter index="8" name="Frecuencia central de banda de EC 2" parameterValue="0.0075062550604343414306640625"/>
            <parameter index="9" name="Valor Q de banda de EC 2" parameterValue="0.000199989997781813144683837890625"/>
            <parameter index="10" name="Ganancia de banda de EC 2" parameterValue="0.5"/>
            <parameter index="11" name="Activación de banda de EC 2" parameterValue="1"/>
            <parameter index="12" name="Frecuencia central de banda de EC 3" parameterValue="0.0325271077454090118408203125"/>
            <parameter index="13" name="Valor Q de banda de EC 3" parameterValue="0.000199989997781813144683837890625"/>
            <parameter index="14" name="Ganancia de banda de EC 3" parameterValue="0.5"/>
            <parameter index="15" name="Activación de banda de EC 3" parameterValue="1"/>
            <parameter index="16" name="Frecuencia central de banda de EC 4" parameterValue="0.13261051476001739501953125"/>
            <parameter index="17" name="Valor Q de banda de EC 4" parameterValue="0.000199989997781813144683837890625"/>
            <parameter index="18" name="Ganancia de banda de EC 4" parameterValue="0.5"/>
            <parameter index="19" name="Activación de banda de EC 4" parameterValue="1"/>
            <parameter index="20" name="Frecuencia central de banda de EC 5" parameterValue="0.532944142818450927734375"/>
            <parameter index="21" name="Valor Q de banda de EC 5" parameterValue="0.000199989997781813144683837890625"/>
            <parameter index="22" name="Ganancia de banda de EC 5" parameterValue="0.5"/>
            <parameter index="23" name="Activación de banda de EC 5" parameterValue="1"/>
            <parameter index="24" name="Ganancia maestra" parameterValue="0.666666686534881591796875"/>
            <parameter index="25" name="Constant Q" parameterValue="1"/>
            <parameter index="26" name="Orden de filtro de estante inferior" parameterValue="0"/>
            <parameter index="27" name="Orden de filtro de estante superior" parameterValue="0"/>
            <parameter index="28" name="Modo ultrasilencioso" parameterValue="0"/>
            <parameter index="29" name="Activar estante inferior" parameterValue="1"/>
            <parameter index="30" name="Activar estante superior" parameterValue="1"/>
            <parameter index="31" name="Velocidad de muestreo original" parameterValue="0.25"/>
            <parameter index="32" name="Ancho de banda de EC 1" parameterValue="0.002499990165233612060546875"/>
            <parameter index="33" name="Ancho de banda de EC 2" parameterValue="0.0099999904632568359375"/>
            <parameter index="34" name="Ancho de banda de EC 3" parameterValue="0.0399999916553497314453125"/>
            <parameter index="35" name="Ancho de banda de EC 4" parameterValue="0.15999998152256011962890625"/>
            <parameter index="36" name="Ancho de banda de EC 5" parameterValue="0.63999998569488525390625"/>
            <parameter index="37" name="Activación de filtro de pase alto" parameterValue="0"/>
            <parameter index="38" name="Frecuencia de límite de paso alto" parameterValue="0"/>
            <parameter index="39" name="Pendiente de paso alto" parameterValue="0.4000000059604644775390625"/>
            <parameter index="40" name="Activación de filtro de pase bajo" parameterValue="0"/>
            <parameter index="41" name="Frecuencia de límite de paso bajo" parameterValue="0.833194315433502197265625"/>
            <parameter index="42" name="Pendiente de paso bajo" parameterValue="0.4000000059604644775390625"/>
            <parameter index="43" name="Derivar" parameterValue="0"/>
            <parameter index="44" name="Rango de gráfico bajo" parameterValue="1"/>
          </component>
        </trackAudioParameters>
        <editParameter parameterIndex="0" slotIndex="4294967280"/>
        <audioClip clipAutoCrossfade="true" crossFadeHeadClipID="-1" crossFadeTailClipID="-1" endPoint="3906251" fileID="1" hue="-1" id="0" lockedInTime="false" looped="true" name="mujer tarareando 48000 2" offline="false" select="false" sourceInPoint="0" sourceOutPoint="3906251" startPoint="0" zOrder="0">
          <component componentGuid="9c9d07de-49d3-49a8-88cb-00ff3761c821" componentID="Audition.Fader" id="clipGain" name="volume" powered="true">
            <parameter index="0" name="volume" parameterValue="1"/>
            <parameter index="1" name="static gain" parameterValue="1"/>
          </component>
          <component componentGuid="e3eeaf1e-c7df-48f6-8c7a-7f14b6f38588" componentID="Audition.Mute" id="clipMute" name="Mute" powered="true">
            <parameter index="0" parameterValue="0"/>
            <parameter index="1" name="mute" parameterValue="0"/>
          </component>
          <component componentGuid="11979b1c-0b09-4cf5-8bb2-d4bc6e234dc0" componentID="Audition.StereoPanner" id="clipPan" name="StereoPanner" powered="true">
            <parameter index="0" name="Panorámica" parameterValue="0"/>
          </component>
          <fadeIn crossFadeLinkType="linkedAsymmetric" endPoint="0" shape="0" startPoint="0" type="cosine"/>
          <fadeOut crossFadeLinkType="linkedAsymmetric" endPoint="3906251" shape="0" startPoint="3906251" type="cosine"/>
          <editParameter parameterIndex="0" slotIndex="4294967280"/>
          <editParameter parameterIndex="0" slotIndex="4294967281"/>
          <channelMap>
            <channel index="0" sourceIndex="0"/>
            <channel index="1" sourceIndex="1"/>
          </channelMap>
        </audioClip>
      </audioTrack>
      <audioTrack automationLaneOpenState="false" id="10002" index="3" select="false" visible="true">
        <trackParameters trackHeight="30" trackHue="130" trackMinimized="false">
          <name>Ambiente</name>
        </trackParameters>
        <trackAudioParameters audioChannelType="stereo" automationMode="1" monitoring="false" recordArmed="false" solo="false" soloSafe="false">
          <trackOutput outputID="10000" type="trackID"/>
          <trackInput inputID="1"/>
          <component componentGuid="15a33a7d-3c30-48bf-8414-329b8159aa96" componentID="Audition.Fader" id="trackFader" name="volume" powered="true">
            <parameter index="0" name="volume" parameterValue="1"/>
            <parameter index="1" name="static gain" parameterValue="1"/>
          </component>
          <component componentGuid="cf87bbd0-f811-4d8b-926f-ceddd37c8ef9" componentID="Audition.Mute" id="trackMute" name="Mute" powered="true">
            <parameter index="0" parameterValue="0"/>
            <parameter index="1" name="mute" parameterValue="0"/>
          </component>
          <component componentGuid="88a49644-3a6d-4704-80ff-9c14920cb629" componentID="Audition.StereoPanner" id="trackPan" name="StereoPanner" powered="true">
            <parameter index="0" name="Panorámica" parameterValue="0"/>
          </component>
          <component componentGuid="64847d0b-56d2-4e83-9f6d-415d87a29cf9" componentID="Audition.EQ" id="trackEQ" name="EQ" powered="false">
            <parameter index="0" name="Frecuencia estante inferior" parameterValue="0.000834028352983295917510986328125"/>
            <parameter index="1" name="Ganancia estante inferior" parameterValue="0.5"/>
            <parameter index="2" name="Frecuencia estante superior" parameterValue="0.74979150295257568359375"/>
            <parameter index="3" name="Ganancia estante superior" parameterValue="0.5"/>
            <parameter index="4" name="Frecuencia central de banda de EC 1" parameterValue="0.00125104258768260478973388671875"/>
            <parameter index="5" name="Valor Q de banda de EC 1" parameterValue="0.000199989997781813144683837890625"/>
            <parameter index="6" name="Ganancia de banda de EC 1" parameterValue="0.5"/>
            <parameter index="7" name="Activación de banda de EC 1" parameterValue="1"/>
            <parameter index="8" name="Frecuencia central de banda de EC 2" parameterValue="0.0075062550604343414306640625"/>
            <parameter index="9" name="Valor Q de banda de EC 2" parameterValue="0.000199989997781813144683837890625"/>
            <parameter index="10" name="Ganancia de banda de EC 2" parameterValue="0.5"/>
            <parameter index="11" name="Activación de banda de EC 2" parameterValue="1"/>
            <parameter index="12" name="Frecuencia central de banda de EC 3" parameterValue="0.0325271077454090118408203125"/>
            <parameter index="13" name="Valor Q de banda de EC 3" parameterValue="0.000199989997781813144683837890625"/>
            <parameter index="14" name="Ganancia de banda de EC 3" parameterValue="0.5"/>
            <parameter index="15" name="Activación de banda de EC 3" parameterValue="1"/>
            <parameter index="16" name="Frecuencia central de banda de EC 4" parameterValue="0.13261051476001739501953125"/>
            <parameter index="17" name="Valor Q de banda de EC 4" parameterValue="0.000199989997781813144683837890625"/>
            <parameter index="18" name="Ganancia de banda de EC 4" parameterValue="0.5"/>
            <parameter index="19" name="Activación de banda de EC 4" parameterValue="1"/>
            <parameter index="20" name="Frecuencia central de banda de EC 5" parameterValue="0.532944142818450927734375"/>
            <parameter index="21" name="Valor Q de banda de EC 5" parameterValue="0.000199989997781813144683837890625"/>
            <parameter index="22" name="Ganancia de banda de EC 5" parameterValue="0.5"/>
            <parameter index="23" name="Activación de banda de EC 5" parameterValue="1"/>
            <parameter index="24" name="Ganancia maestra" parameterValue="0.666666686534881591796875"/>
            <parameter index="25" name="Constant Q" parameterValue="1"/>
            <parameter index="26" name="Orden de filtro de estante inferior" parameterValue="0"/>
            <parameter index="27" name="Orden de filtro de estante superior" parameterValue="0"/>
            <parameter index="28" name="Modo ultrasilencioso" parameterValue="0"/>
            <parameter index="29" name="Activar estante inferior" parameterValue="1"/>
            <parameter index="30" name="Activar estante superior" parameterValue="1"/>
            <parameter index="31" name="Velocidad de muestreo original" parameterValue="0.25"/>
            <parameter index="32" name="Ancho de banda de EC 1" parameterValue="0.002499990165233612060546875"/>
            <parameter index="33" name="Ancho de banda de EC 2" parameterValue="0.0099999904632568359375"/>
            <parameter index="34" name="Ancho de banda de EC 3" parameterValue="0.0399999916553497314453125"/>
            <parameter index="35" name="Ancho de banda de EC 4" parameterValue="0.15999998152256011962890625"/>
            <parameter index="36" name="Ancho de banda de EC 5" parameterValue="0.63999998569488525390625"/>
            <parameter index="37" name="Activación de filtro de pase alto" parameterValue="0"/>
            <parameter index="38" name="Frecuencia de límite de paso alto" parameterValue="0"/>
            <parameter index="39" name="Pendiente de paso alto" parameterValue="0.4000000059604644775390625"/>
            <parameter index="40" name="Activación de filtro de pase bajo" parameterValue="0"/>
            <parameter index="41" name="Frecuencia de límite de paso bajo" parameterValue="0.833194315433502197265625"/>
            <parameter index="42" name="Pendiente de paso bajo" parameterValue="0.4000000059604644775390625"/>
            <parameter index="43" name="Derivar" parameterValue="0"/>
            <parameter index="44" name="Rango de gráfico bajo" parameterValue="1"/>
          </component>
        </trackAudioParameters>
        <editParameter parameterIndex="0" slotIndex="4294967280"/>
        <audioClip clipAutoCrossfade="true" crossFadeHeadClipID="-1" crossFadeTailClipID="-1" endPoint="446810" fileID="2" hue="-1" id="0" lockedInTime="false" looped="false" name="campanas de boda 48000 1" offline="false" select="false" sourceInPoint="926926" sourceOutPoint="1203929" startPoint="169807" zOrder="0">
          <component componentGuid="a2cc08ff-1c26-413a-8674-d5b8f13d77f4" componentID="Audition.Fader" id="clipGain" name="volume" powered="true">
            <parameter index="0" name="volume" parameterValue="0.15709473192691802978515625"/>
            <parameter index="1" name="static gain" parameterValue="1"/>
          </component>
          <component componentGuid="faebd601-ea45-4d3e-a65b-8ba6a4ee6c44" componentID="Audition.Mute" id="clipMute" name="Mute" powered="true">
            <parameter index="0" parameterValue="0"/>
            <parameter index="1" name="mute" parameterValue="0"/>
          </component>
          <component componentGuid="56e6abf8-6877-465e-a4fc-e95d9b573999" componentID="Audition.StereoPanner" id="clipPan" name="StereoPanner" powered="true">
            <parameter index="0" name="Panorámica" parameterValue="0">
              <parameterKeyframes enableSplines="false" readOnly="false">
                <parameterKeyframe sampleOffset="127942" select="false" type="linear" value="0.5"/>
                <parameterKeyframe sampleOffset="973838" select="false" type="linear" value="0.5"/>
              </parameterKeyframes>
            </parameter>
          </component>
          <fadeIn crossFadeLinkType="linkedAsymmetric" endPoint="90081" shape="19" startPoint="0" type="log"/>
          <fadeOut crossFadeLinkType="linkedAsymmetric" endPoint="277003" shape="19" startPoint="277003" type="log"/>
          <editParameter parameterIndex="0" slotIndex="4294967281"/>
          <editParameter parameterIndex="0" slotIndex="4294967280"/>
          <channelMap>
            <channel index="0" sourceIndex="0"/>
            <channel index="1" sourceIndex="1"/>
          </channelMap>
        </audioClip>
        <audioClip clipAutoCrossfade="true" crossFadeHeadClipID="-1" crossFadeTailClipID="-1" endPoint="977231" fileID="19" hue="-1" id="1" lockedInTime="false" looped="false" name="sonido-ambiente-de-bar 48000 1" offline="false" select="false" sourceInPoint="475213" sourceOutPoint="799420" startPoint="653024" zOrder="1">
          <component componentGuid="713259f3-9ef1-4e17-8902-bdf3c01862b6" componentID="Audition.Fader" id="clipGain" name="volume" powered="true">
            <parameter index="0" name="volume" parameterValue="0.1940693557262420654296875"/>
            <parameter index="1" name="static gain" parameterValue="1"/>
          </component>
          <component componentGuid="ebee59fd-c867-486d-b917-d3ecc2b1db37" componentID="Audition.Mute" id="clipMute" name="Mute" powered="true">
            <parameter index="0" parameterValue="0"/>
            <parameter index="1" name="mute" parameterValue="0"/>
          </component>
          <component componentGuid="ba974a5f-ef27-40b0-9e9a-f10ea7c4dbb2" componentID="Audition.StereoPanner" id="clipPan" name="StereoPanner" powered="true">
            <parameter index="0" name="Panorámica" parameterValue="0"/>
          </component>
          <fadeIn crossFadeLinkType="linkedAsymmetric" endPoint="46999" shape="-28" startPoint="0" type="log"/>
          <fadeOut crossFadeLinkType="linkedAsymmetric" endPoint="324207" shape="-58" startPoint="264153" type="log"/>
          <editParameter parameterIndex="0" slotIndex="4294967281"/>
          <editParameter parameterIndex="0" slotIndex="4294967280"/>
          <channelMap>
            <channel index="0" sourceIndex="0"/>
            <channel index="1" sourceIndex="1"/>
          </channelMap>
        </audioClip>
        <audioClip clipAutoCrossfade="true" crossFadeHeadClipID="-1" crossFadeTailClipID="-1" endPoint="1522621" fileID="3" hue="-1" id="2" lockedInTime="false" looped="false" name="bebe riendo 48000 1" offline="false" select="false" sourceInPoint="0" sourceOutPoint="291507" startPoint="1231114" zOrder="2">
          <component componentGuid="858d1b2a-b3b5-4add-a950-ffedc4ce302d" componentID="Audition.Fader" id="clipGain" name="volume" powered="true">
            <parameter index="0" name="volume" parameterValue="0.33149516582489013671875"/>
            <parameter index="1" name="static gain" parameterValue="1"/>
          </component>
          <component componentGuid="11f3feed-6005-4d6d-a5bd-30206b545f03" componentID="Audition.Mute" id="clipMute" name="Mute" powered="true">
            <parameter index="0" parameterValue="0"/>
            <parameter index="1" name="mute" parameterValue="0"/>
          </component>
          <component componentGuid="9b79bd65-f7f6-4deb-9d66-bd7ec185cb6a" componentID="Audition.StereoPanner" id="clipPan" name="StereoPanner" powered="true">
            <parameter index="0" name="Panorámica" parameterValue="0"/>
          </component>
          <fadeIn crossFadeLinkType="linkedAsymmetric" endPoint="50915" shape="-22" startPoint="0" type="log"/>
          <fadeOut crossFadeLinkType="linkedAsymmetric" endPoint="291507" shape="-38" startPoint="227163" type="log"/>
          <editParameter parameterIndex="0" slotIndex="4294967281"/>
          <editParameter parameterIndex="0" slotIndex="4294967280"/>
          <channelMap>
            <channel index="0" sourceIndex="0"/>
            <channel index="1" sourceIndex="1"/>
          </channelMap>
        </audioClip>
      </audioTrack>
      <audioTrack automationLaneOpenState="false" id="10003" index="4" select="true" visible="true">
        <trackParameters trackHeight="30" trackHue="211" trackMinimized="false">
          <name>Efectos</name>
        </trackParameters>
        <trackAudioParameters audioChannelType="stereo" automationMode="1" monitoring="false" recordArmed="false" solo="false" soloSafe="false">
          <trackOutput outputID="10000" type="trackID"/>
          <trackInput inputID="1"/>
          <component componentGuid="5e595622-cdce-4f46-afd9-af35f0a4c2a6" componentID="Audition.Fader" id="trackFader" name="volume" powered="true">
            <parameter index="0" name="volume" parameterValue="1"/>
            <parameter index="1" name="static gain" parameterValue="1"/>
          </component>
          <component componentGuid="7af0b20f-8eed-4d48-a168-ec6e937b9fd7" componentID="Audition.Mute" id="trackMute" name="Mute" powered="true">
            <parameter index="0" parameterValue="0"/>
            <parameter index="1" name="mute" parameterValue="0"/>
          </component>
          <component componentGuid="9d4b96f8-a801-4ed6-8800-08c492fa505a" componentID="Audition.StereoPanner" id="trackPan" name="StereoPanner" powered="true">
            <parameter index="0" name="Panorámica" parameterValue="0"/>
          </component>
          <component componentGuid="5f2f59b7-438f-4950-bca2-4c4a4cb3b44b" componentID="Audition.EQ" id="trackEQ" name="EQ" powered="false">
            <parameter index="0" name="Frecuencia estante inferior" parameterValue="0.000834028352983295917510986328125"/>
            <parameter index="1" name="Ganancia estante inferior" parameterValue="0.5"/>
            <parameter index="2" name="Frecuencia estante superior" parameterValue="0.74979150295257568359375"/>
            <parameter index="3" name="Ganancia estante superior" parameterValue="0.5"/>
            <parameter index="4" name="Frecuencia central de banda de EC 1" parameterValue="0.00125104258768260478973388671875"/>
            <parameter index="5" name="Valor Q de banda de EC 1" parameterValue="0.000199989997781813144683837890625"/>
            <parameter index="6" name="Ganancia de banda de EC 1" parameterValue="0.5"/>
            <parameter index="7" name="Activación de banda de EC 1" parameterValue="1"/>
            <parameter index="8" name="Frecuencia central de banda de EC 2" parameterValue="0.0075062550604343414306640625"/>
            <parameter index="9" name="Valor Q de banda de EC 2" parameterValue="0.000199989997781813144683837890625"/>
            <parameter index="10" name="Ganancia de banda de EC 2" parameterValue="0.5"/>
            <parameter index="11" name="Activación de banda de EC 2" parameterValue="1"/>
            <parameter index="12" name="Frecuencia central de banda de EC 3" parameterValue="0.0325271077454090118408203125"/>
            <parameter index="13" name="Valor Q de banda de EC 3" parameterValue="0.000199989997781813144683837890625"/>
            <parameter index="14" name="Ganancia de banda de EC 3" parameterValue="0.5"/>
            <parameter index="15" name="Activación de banda de EC 3" parameterValue="1"/>
            <parameter index="16" name="Frecuencia central de banda de EC 4" parameterValue="0.13261051476001739501953125"/>
            <parameter index="17" name="Valor Q de banda de EC 4" parameterValue="0.000199989997781813144683837890625"/>
            <parameter index="18" name="Ganancia de banda de EC 4" parameterValue="0.5"/>
            <parameter index="19" name="Activación de banda de EC 4" parameterValue="1"/>
            <parameter index="20" name="Frecuencia central de banda de EC 5" parameterValue="0.532944142818450927734375"/>
            <parameter index="21" name="Valor Q de banda de EC 5" parameterValue="0.000199989997781813144683837890625"/>
            <parameter index="22" name="Ganancia de banda de EC 5" parameterValue="0.5"/>
            <parameter index="23" name="Activación de banda de EC 5" parameterValue="1"/>
            <parameter index="24" name="Ganancia maestra" parameterValue="0.666666686534881591796875"/>
            <parameter index="25" name="Constant Q" parameterValue="1"/>
            <parameter index="26" name="Orden de filtro de estante inferior" parameterValue="0"/>
            <parameter index="27" name="Orden de filtro de estante superior" parameterValue="0"/>
            <parameter index="28" name="Modo ultrasilencioso" parameterValue="0"/>
            <parameter index="29" name="Activar estante inferior" parameterValue="1"/>
            <parameter index="30" name="Activar estante superior" parameterValue="1"/>
            <parameter index="31" name="Velocidad de muestreo original" parameterValue="0.25"/>
            <parameter index="32" name="Ancho de banda de EC 1" parameterValue="0.002499990165233612060546875"/>
            <parameter index="33" name="Ancho de banda de EC 2" parameterValue="0.0099999904632568359375"/>
            <parameter index="34" name="Ancho de banda de EC 3" parameterValue="0.0399999916553497314453125"/>
            <parameter index="35" name="Ancho de banda de EC 4" parameterValue="0.15999998152256011962890625"/>
            <parameter index="36" name="Ancho de banda de EC 5" parameterValue="0.63999998569488525390625"/>
            <parameter index="37" name="Activación de filtro de pase alto" parameterValue="0"/>
            <parameter index="38" name="Frecuencia de límite de paso alto" parameterValue="0"/>
            <parameter index="39" name="Pendiente de paso alto" parameterValue="0.4000000059604644775390625"/>
            <parameter index="40" name="Activación de filtro de pase bajo" parameterValue="0"/>
            <parameter index="41" name="Frecuencia de límite de paso bajo" parameterValue="0.833194315433502197265625"/>
            <parameter index="42" name="Pendiente de paso bajo" parameterValue="0.4000000059604644775390625"/>
            <parameter index="43" name="Derivar" parameterValue="0"/>
            <parameter index="44" name="Rango de gráfico bajo" parameterValue="1"/>
          </component>
        </trackAudioParameters>
        <effectsRack preFader="true">
          <component componentGuid="bbfefcee-61b7-4569-801a-2b1026e87c7a" componentID="Audition.ComponentGroup" id="rackMix" powered="true">
            <parameter index="0" parameterValue="0"/>
            <parameter index="1" parameterValue="0"/>
          </component>
          <component componentGuid="fd0c53dc-1f02-4ff8-bf8a-f67d2286dc5a" id="rackInput" powered="true">
            <parameter index="0" parameterValue="1"/>
            <parameter index="1" parameterValue="0"/>
          </component>
          <component componentGuid="456d50f9-5ee4-4585-bba1-0c504bf3a4fc" id="rackOutput" powered="true">
            <parameter index="0" parameterValue="1"/>
            <parameter index="1" parameterValue="0"/>
          </component>
          <slot powered="true" slotIndex="0">
            <component componentGuid="b4cabf60-bc5f-42b5-af6d-d6d35b9c6971" componentID="5e85f068-b39d-4c63-9912-2030f6f0041e" editorHeight="487" editorLeft="689" editorTop="277" editorWidth="542" name="Retardo" presetName="(Personalizar)">
              <busConfig><![CDATA[{"in":[{"layout":[100,101],"name":"Entrada de estéreo","type":0}],"out":[{"layout":[100,101],"name":"Salida de estéreo","type":0}]}]]></busConfig>
              <channelMap direction="input">
                <channel index="0" sourceIndex="0"/>
                <channel index="1" sourceIndex="1"/>
              </channelMap>
              <channelMap direction="output">
                <channel index="0" sourceIndex="0"/>
                <channel index="1" sourceIndex="1"/>
              </channelMap>
              <parameter index="0" name="Tiempo de retardo del canal izquierdo" parameterValue="0.62000000476837158203125"/>
              <parameter index="1" name="Invertir canal izquierdo" parameterValue="0"/>
              <parameter index="2" name="Mezcla canal izquierdo" parameterValue="0.75"/>
              <parameter index="3" name="Tiempo de retardo del canal derecho" parameterValue="0.680000007152557373046875"/>
              <parameter index="4" name="Invertir canal derecho" parameterValue="0"/>
              <parameter index="5" name="Mezcla canal derecho" parameterValue="0.64999997615814208984375"/>
              <parameter index="6" name="Unidades de tiempo de retardo" parameterValue="0"/>
              <parameter index="7" name="Número de canales" parameterValue="0.0625"/>
            </component>
          </slot>
        </effectsRack>
        <editParameter parameterIndex="0" slotIndex="4294967280"/>
        <audioClip clipAutoCrossfade="true" crossFadeHeadClipID="-1" crossFadeTailClipID="-1" endPoint="931199" fileID="4" hue="-1" id="0" lockedInTime="false" looped="false" name="botella chocando 48000 1" offline="false" select="false" sourceInPoint="0" sourceOutPoint="146703" startPoint="784496" zOrder="0">
          <component componentGuid="f57773fa-7d91-4b85-84d0-d1e9a28e9633" componentID="Audition.Fader" id="clipGain" name="volume" powered="true">
            <parameter index="0" name="volume" parameterValue="0.124383561313152313232421875"/>
            <parameter index="1" name="static gain" parameterValue="1"/>
          </component>
          <component componentGuid="717114a3-7272-4c59-84b3-4ff802e635da" componentID="Audition.Mute" id="clipMute" name="Mute" powered="true">
            <parameter index="0" parameterValue="0"/>
            <parameter index="1" name="mute" parameterValue="0"/>
          </component>
          <component componentGuid="587f55a9-fdb1-4595-87ff-f7627b395de1" componentID="Audition.StereoPanner" id="clipPan" name="StereoPanner" powered="true">
            <parameter index="0" name="Panorámica" parameterValue="0">
              <parameterKeyframes enableSplines="false" readOnly="false">
                <parameterKeyframe sampleOffset="67626" select="false" type="linear" value="0.5"/>
              </parameterKeyframes>
            </parameter>
          </component>
          <fadeIn crossFadeLinkType="linkedAsymmetric" endPoint="26110" shape="-33" startPoint="0" type="log"/>
          <fadeOut crossFadeLinkType="linkedAsymmetric" endPoint="146703" shape="-24" startPoint="119287" type="log"/>
          <editParameter parameterIndex="0" slotIndex="4294967281"/>
          <editParameter parameterIndex="0" slotIndex="4294967280"/>
          <channelMap>
            <channel index="0" sourceIndex="0"/>
          </channelMap>
        </audioClip>
        <audioClip clipAutoCrossfade="true" crossFadeHeadClipID="-1" crossFadeTailClipID="-1" endPoint="1570561" fileID="5" hue="-1" id="1" lockedInTime="false" looped="true" name="buho 48000 1" offline="false" select="false" sourceInPoint="0" sourceOutPoint="224552" startPoint="1346009" zOrder="1">
          <component componentGuid="6f3b24c3-18b2-4c22-be71-68e0f2322c40" componentID="Audition.Fader" id="clipGain" name="volume" powered="true">
            <parameter index="0" name="volume" parameterValue="0.14021255075931549072265625"/>
            <parameter index="1" name="static gain" parameterValue="1"/>
          </component>
          <component componentGuid="18d73a88-772e-416f-86bc-cd6fab2396d2" componentID="Audition.Mute" id="clipMute" name="Mute" powered="true">
            <parameter index="0" parameterValue="0"/>
            <parameter index="1" name="mute" parameterValue="0"/>
          </component>
          <component componentGuid="78b5a89a-a628-4e4c-a841-c9adcd03a7ea" componentID="Audition.StereoPanner" id="clipPan" name="StereoPanner" powered="true">
            <parameter index="0" name="Panorámica" parameterValue="0"/>
          </component>
          <fadeIn crossFadeLinkType="linkedAsymmetric" endPoint="60069" shape="-34" startPoint="0" type="log"/>
          <fadeOut crossFadeLinkType="linkedAsymmetric" endPoint="224552" shape="-48" startPoint="195719" type="log"/>
          <editParameter parameterIndex="0" slotIndex="4294967281"/>
          <editParameter parameterIndex="0" slotIndex="4294967280"/>
          <channelMap>
            <channel index="0" sourceIndex="0"/>
          </channelMap>
        </audioClip>
        <audioClip clipAutoCrossfade="true" crossFadeHeadClipID="-1" crossFadeTailClipID="3" endPoint="1729153" fileID="6" hue="-1" id="2" lockedInTime="false" looped="false" name="carruaje 48000 1" offline="false" select="false" sourceInPoint="0" sourceOutPoint="158592" startPoint="1570561" zOrder="2">
          <component componentGuid="df0676c8-bef2-45cc-9eb5-df8afa8bb69f" componentID="Audition.Fader" id="clipGain" name="volume" powered="true">
            <parameter index="0" name="volume" parameterValue="0.33149516582489013671875"/>
            <parameter index="1" name="static gain" parameterValue="1"/>
          </component>
          <component componentGuid="51dba0a7-1dd8-4059-91f3-578aba60caf9" componentID="Audition.Mute" id="clipMute" name="Mute" powered="true">
            <parameter index="0" parameterValue="0"/>
            <parameter index="1" name="mute" parameterValue="0"/>
          </component>
          <component componentGuid="37899e2f-82df-4710-a897-dc17fd348a37" componentID="Audition.StereoPanner" id="clipPan" name="StereoPanner" powered="true">
            <parameter index="0" name="Panorámica" parameterValue="0"/>
          </component>
          <fadeIn crossFadeLinkType="linkedAsymmetric" endPoint="0" shape="0" startPoint="0" type="cosine"/>
          <fadeOut crossFadeLinkType="linkedAsymmetric" endPoint="158592" shape="19" startPoint="130355" type="log"/>
          <editParameter parameterIndex="0" slotIndex="4294967281"/>
          <editParameter parameterIndex="0" slotIndex="4294967280"/>
          <channelMap>
            <channel index="0" sourceIndex="0"/>
            <channel index="1" sourceIndex="1"/>
          </channelMap>
        </audioClip>
        <audioClip clipAutoCrossfade="true" crossFadeHeadClipID="2" crossFadeTailClipID="-1" endPoint="1848910" fileID="7" hue="-1" id="3" lockedInTime="false" looped="false" name="lamentomujer 48000 1" offline="false" select="false" sourceInPoint="134554" sourceOutPoint="282548" startPoint="1700916" zOrder="3">
          <component componentGuid="18fc40e0-3f85-4e3a-a621-b4d381dd04ed" componentID="Audition.Fader" id="clipGain" name="volume" powered="true">
            <parameter index="0" name="volume" parameterValue="1"/>
            <parameter index="1" name="static gain" parameterValue="1"/>
          </component>
          <component componentGuid="cfba9d9b-7d1f-46bc-8e53-e2569db84893" componentID="Audition.Mute" id="clipMute" name="Mute" powered="true">
            <parameter index="0" parameterValue="0"/>
            <parameter index="1" name="mute" parameterValue="0"/>
          </component>
          <component componentGuid="a5c0b5fd-fa69-440c-b98a-1f3020a7b8a7" componentID="Audition.StereoPanner" id="clipPan" name="StereoPanner" powered="true">
            <parameter index="0" name="Panorámica" parameterValue="0"/>
          </component>
          <fadeIn crossFadeLinkType="linkedAsymmetric" endPoint="28237" shape="18" startPoint="0" type="log"/>
          <fadeOut crossFadeLinkType="linkedAsymmetric" endPoint="147994" shape="0" startPoint="147994" type="cosine"/>
          <editParameter parameterIndex="0" slotIndex="4294967280"/>
          <editParameter parameterIndex="0" slotIndex="4294967281"/>
          <channelMap>
            <channel index="0" sourceIndex="0"/>
          </channelMap>
        </audioClip>
        <audioClip clipAutoCrossfade="true" crossFadeHeadClipID="-1" crossFadeTailClipID="-1" endPoint="2051296" fileID="8" hue="-1" id="4" lockedInTime="false" looped="false" name="bebé llorando 48000 1" offline="false" select="false" sourceInPoint="234049" sourceOutPoint="436435" startPoint="1848910" zOrder="4">
          <component componentGuid="857ed81a-74ef-436c-b471-774fb6930f12" componentID="Audition.Fader" id="clipGain" name="volume" powered="true">
            <parameter index="0" name="volume" parameterValue="1"/>
            <parameter index="1" name="static gain" parameterValue="1"/>
          </component>
          <component componentGuid="e49004e6-4567-4423-89ed-46dfa41dec8c" componentID="Audition.Mute" id="clipMute" name="Mute" powered="true">
            <parameter index="0" parameterValue="0"/>
            <parameter index="1" name="mute" parameterValue="0"/>
          </component>
          <component componentGuid="98bc835d-b9bd-4468-a785-ebe1e5bc78ce" componentID="Audition.StereoPanner" id="clipPan" name="StereoPanner" powered="true">
            <parameter index="0" name="Panorámica" parameterValue="0"/>
          </component>
          <fadeIn crossFadeLinkType="linkedAsymmetric" endPoint="60069" shape="-42" startPoint="0" type="log"/>
          <fadeOut crossFadeLinkType="linkedAsymmetric" endPoint="202386" shape="0" startPoint="202386" type="cosine"/>
          <editParameter parameterIndex="0" slotIndex="4294967280"/>
          <editParameter parameterIndex="0" slotIndex="4294967281"/>
          <channelMap>
            <channel index="0" sourceIndex="0"/>
            <channel index="1" sourceIndex="1"/>
          </channelMap>
        </audioClip>
        <audioClip clipAutoCrossfade="true" crossFadeHeadClipID="-1" crossFadeTailClipID="-1" endPoint="2277207" fileID="9" hue="-1" id="5" lockedInTime="false" looped="false" name="ahogamiento 48000 1" offline="false" select="false" sourceInPoint="0" sourceOutPoint="141688" startPoint="2135519" zOrder="5">
          <component componentGuid="94698321-6791-4c4e-bf84-d3d0a724f539" componentID="Audition.Fader" id="clipGain" name="volume" powered="true">
            <parameter index="0" name="volume" parameterValue="0.358375072479248046875"/>
            <parameter index="1" name="static gain" parameterValue="1"/>
          </component>
          <component componentGuid="ae340ae2-4525-4e7f-a92d-dfa2dee02abd" componentID="Audition.Mute" id="clipMute" name="Mute" powered="true">
            <parameter index="0" parameterValue="0"/>
            <parameter index="1" name="mute" parameterValue="0"/>
          </component>
          <component componentGuid="64a8a427-4ce1-44a0-9cd4-1d7d49f4b9c9" componentID="Audition.StereoPanner" id="clipPan" name="StereoPanner" powered="true">
            <parameter index="0" name="Panorámica" parameterValue="33.802825927734375"/>
          </component>
          <fadeIn crossFadeLinkType="linkedAsymmetric" endPoint="0" shape="0" startPoint="0" type="cosine"/>
          <fadeOut crossFadeLinkType="linkedAsymmetric" endPoint="141688" shape="0" startPoint="141688" type="cosine"/>
          <editParameter parameterIndex="0" slotIndex="4294967281"/>
          <editParameter parameterIndex="0" slotIndex="4294967280"/>
          <channelMap>
            <channel index="0" sourceIndex="0"/>
            <channel index="1" sourceIndex="1"/>
          </channelMap>
        </audioClip>
        <audioClip clipAutoCrossfade="true" crossFadeHeadClipID="-1" crossFadeTailClipID="-1" endPoint="2469849" fileID="10" hue="-1" id="6" lockedInTime="false" looped="false" name="clavadoenelagua 48000 1" offline="false" select="false" sourceInPoint="0" sourceOutPoint="151719" startPoint="2318130" zOrder="6">
          <component componentGuid="983549d7-82f6-4d8f-a179-42960851a0a9" componentID="Audition.Fader" id="clipGain" name="volume" powered="true">
            <parameter index="0" name="volume" parameterValue="1"/>
            <parameter index="1" name="static gain" parameterValue="1"/>
          </component>
          <component componentGuid="cff54ab3-9fbf-4032-9832-4d6c2a31adc8" componentID="Audition.Mute" id="clipMute" name="Mute" powered="true">
            <parameter index="0" parameterValue="0"/>
            <parameter index="1" name="mute" parameterValue="0"/>
          </component>
          <component componentGuid="db632574-e0a4-473c-987e-08c613fa4985" componentID="Audition.StereoPanner" id="clipPan" name="StereoPanner" powered="true">
            <parameter index="0" name="Panorámica" parameterValue="0"/>
          </component>
          <fadeIn crossFadeLinkType="linkedAsymmetric" endPoint="0" shape="0" startPoint="0" type="cosine"/>
          <fadeOut crossFadeLinkType="linkedAsymmetric" endPoint="151719" shape="0" startPoint="151719" type="cosine"/>
          <editParameter parameterIndex="0" slotIndex="4294967280"/>
          <editParameter parameterIndex="0" slotIndex="4294967281"/>
          <channelMap>
            <channel index="0" sourceIndex="0"/>
            <channel index="1" sourceIndex="1"/>
          </channelMap>
        </audioClip>
        <audioClip clipAutoCrossfade="true" crossFadeHeadClipID="-1" crossFadeTailClipID="-1" endPoint="2640000" fileID="11" hue="-1" id="7" lockedInTime="false" looped="false" name="suspenso.2 48000 1" offline="false" select="false" sourceInPoint="0" sourceOutPoint="137130" startPoint="2502870" zOrder="7">
          <component componentGuid="59ffa8f6-e607-48ce-99f6-a707833b361e" componentID="Audition.Fader" id="clipGain" name="volume" powered="true">
            <parameter index="0" name="volume" parameterValue="0.73266041278839111328125"/>
            <parameter index="1" name="static gain" parameterValue="1"/>
          </component>
          <component componentGuid="b0c9075e-4dca-4761-9430-5911e4acdcb4" componentID="Audition.Mute" id="clipMute" name="Mute" powered="true">
            <parameter index="0" parameterValue="0"/>
            <parameter index="1" name="mute" parameterValue="0"/>
          </component>
          <component componentGuid="137f0528-b66f-4ed0-bc60-ff74c71c8453" componentID="Audition.StereoPanner" id="clipPan" name="StereoPanner" powered="true">
            <parameter index="0" name="Panorámica" parameterValue="0"/>
          </component>
          <fadeIn crossFadeLinkType="linkedAsymmetric" endPoint="0" shape="0" startPoint="0" type="cosine"/>
          <fadeOut crossFadeLinkType="linkedAsymmetric" endPoint="137130" shape="19" startPoint="137130" type="log"/>
          <editParameter parameterIndex="0" slotIndex="4294967281"/>
          <editParameter parameterIndex="0" slotIndex="4294967280"/>
          <channelMap>
            <channel index="0" sourceIndex="0"/>
            <channel index="1" sourceIndex="1"/>
          </channelMap>
        </audioClip>
        <audioClip clipAutoCrossfade="true" crossFadeHeadClipID="-1" crossFadeTailClipID="-1" endPoint="3765749" fileID="12" hue="-1" id="8" lockedInTime="false" looped="false" name="pasos mujer 48000 1" offline="false" select="true" sourceInPoint="0" sourceOutPoint="645749" startPoint="3120000" zOrder="15">
          <component componentGuid="d1d99b6d-e37c-4add-bc47-b519005d2ffd" componentID="Audition.Fader" id="clipGain" name="volume" powered="true">
            <parameter index="0" name="volume" parameterValue="1"/>
            <parameter index="1" name="static gain" parameterValue="1"/>
          </component>
          <component componentGuid="195b2e76-dedb-4dd0-81aa-d7d275e2e385" componentID="Audition.Mute" id="clipMute" name="Mute" powered="true">
            <parameter index="0" parameterValue="0"/>
            <parameter index="1" name="mute" parameterValue="0"/>
          </component>
          <component componentGuid="1b5fa008-4fbc-4d70-a98a-0b63f159c734" componentID="Audition.StereoPanner" id="clipPan" name="StereoPanner" powered="true">
            <parameter index="0" name="Panorámica" parameterValue="0"/>
          </component>
          <fadeIn crossFadeLinkType="linkedAsymmetric" endPoint="0" shape="0" startPoint="0" type="cosine"/>
          <fadeOut crossFadeLinkType="linkedAsymmetric" endPoint="645749" shape="-19" startPoint="537625" type="log"/>
          <editParameter parameterIndex="0" slotIndex="4294967281"/>
          <editParameter parameterIndex="0" slotIndex="4294967280"/>
          <channelMap>
            <channel index="0" sourceIndex="0"/>
            <channel index="1" sourceIndex="1"/>
          </channelMap>
        </audioClip>
      </audioTrack>
      <audioTrack automationLaneOpenState="false" id="10004" index="5" select="false" visible="true">
        <trackParameters trackHeight="30" trackHue="51" trackMinimized="false">
          <name>Canción</name>
        </trackParameters>
        <trackAudioParameters audioChannelType="stereo" automationMode="1" monitoring="false" recordArmed="false" solo="false" soloSafe="false">
          <trackOutput outputID="10000" type="trackID"/>
          <trackInput inputID="1"/>
          <component componentGuid="af98a3b9-844b-4a7e-9a33-0535a449e967" componentID="Audition.Fader" id="trackFader" name="volume" powered="true">
            <parameter index="0" name="volume" parameterValue="1"/>
            <parameter index="1" name="static gain" parameterValue="1"/>
          </component>
          <component componentGuid="31716d3a-33e2-4754-b68d-5355383275a5" componentID="Audition.Mute" id="trackMute" name="Mute" powered="true">
            <parameter index="0" parameterValue="0"/>
            <parameter index="1" name="mute" parameterValue="0"/>
          </component>
          <component componentGuid="8297be7e-614a-448c-900d-aa70e3a6007b" componentID="Audition.StereoPanner" id="trackPan" name="StereoPanner" powered="true">
            <parameter index="0" name="Panorámica" parameterValue="0"/>
          </component>
          <component componentGuid="ed40227b-9f91-4493-a749-372f0844f584" componentID="Audition.EQ" id="trackEQ" name="EQ" powered="false">
            <parameter index="0" name="Frecuencia estante inferior" parameterValue="0.000834028352983295917510986328125"/>
            <parameter index="1" name="Ganancia estante inferior" parameterValue="0.5"/>
            <parameter index="2" name="Frecuencia estante superior" parameterValue="0.74979150295257568359375"/>
            <parameter index="3" name="Ganancia estante superior" parameterValue="0.5"/>
            <parameter index="4" name="Frecuencia central de banda de EC 1" parameterValue="0.00125104258768260478973388671875"/>
            <parameter index="5" name="Valor Q de banda de EC 1" parameterValue="0.000199989997781813144683837890625"/>
            <parameter index="6" name="Ganancia de banda de EC 1" parameterValue="0.5"/>
            <parameter index="7" name="Activación de banda de EC 1" parameterValue="1"/>
            <parameter index="8" name="Frecuencia central de banda de EC 2" parameterValue="0.0075062550604343414306640625"/>
            <parameter index="9" name="Valor Q de banda de EC 2" parameterValue="0.000199989997781813144683837890625"/>
            <parameter index="10" name="Ganancia de banda de EC 2" parameterValue="0.5"/>
            <parameter index="11" name="Activación de banda de EC 2" parameterValue="1"/>
            <parameter index="12" name="Frecuencia central de banda de EC 3" parameterValue="0.0325271077454090118408203125"/>
            <parameter index="13" name="Valor Q de banda de EC 3" parameterValue="0.000199989997781813144683837890625"/>
            <parameter index="14" name="Ganancia de banda de EC 3" parameterValue="0.5"/>
            <parameter index="15" name="Activación de banda de EC 3" parameterValue="1"/>
            <parameter index="16" name="Frecuencia central de banda de EC 4" parameterValue="0.13261051476001739501953125"/>
            <parameter index="17" name="Valor Q de banda de EC 4" parameterValue="0.000199989997781813144683837890625"/>
            <parameter index="18" name="Ganancia de banda de EC 4" parameterValue="0.5"/>
            <parameter index="19" name="Activación de banda de EC 4" parameterValue="1"/>
            <parameter index="20" name="Frecuencia central de banda de EC 5" parameterValue="0.532944142818450927734375"/>
            <parameter index="21" name="Valor Q de banda de EC 5" parameterValue="0.000199989997781813144683837890625"/>
            <parameter index="22" name="Ganancia de banda de EC 5" parameterValue="0.5"/>
            <parameter index="23" name="Activación de banda de EC 5" parameterValue="1"/>
            <parameter index="24" name="Ganancia maestra" parameterValue="0.666666686534881591796875"/>
            <parameter index="25" name="Constant Q" parameterValue="1"/>
            <parameter index="26" name="Orden de filtro de estante inferior" parameterValue="0"/>
            <parameter index="27" name="Orden de filtro de estante superior" parameterValue="0"/>
            <parameter index="28" name="Modo ultrasilencioso" parameterValue="0"/>
            <parameter index="29" name="Activar estante inferior" parameterValue="1"/>
            <parameter index="30" name="Activar estante superior" parameterValue="1"/>
            <parameter index="31" name="Velocidad de muestreo original" parameterValue="0.25"/>
            <parameter index="32" name="Ancho de banda de EC 1" parameterValue="0.002499990165233612060546875"/>
            <parameter index="33" name="Ancho de banda de EC 2" parameterValue="0.0099999904632568359375"/>
            <parameter index="34" name="Ancho de banda de EC 3" parameterValue="0.0399999916553497314453125"/>
            <parameter index="35" name="Ancho de banda de EC 4" parameterValue="0.15999998152256011962890625"/>
            <parameter index="36" name="Ancho de banda de EC 5" parameterValue="0.63999998569488525390625"/>
            <parameter index="37" name="Activación de filtro de pase alto" parameterValue="0"/>
            <parameter index="38" name="Frecuencia de límite de paso alto" parameterValue="0"/>
            <parameter index="39" name="Pendiente de paso alto" parameterValue="0.4000000059604644775390625"/>
            <parameter index="40" name="Activación de filtro de pase bajo" parameterValue="0"/>
            <parameter index="41" name="Frecuencia de límite de paso bajo" parameterValue="0.833194315433502197265625"/>
            <parameter index="42" name="Pendiente de paso bajo" parameterValue="0.4000000059604644775390625"/>
            <parameter index="43" name="Derivar" parameterValue="0"/>
            <parameter index="44" name="Rango de gráfico bajo" parameterValue="1"/>
          </component>
        </trackAudioParameters>
        <editParameter parameterIndex="0" slotIndex="4294967280"/>
        <audioClip clipAutoCrossfade="true" crossFadeHeadClipID="-1" crossFadeTailClipID="-1" endPoint="615473" fileID="13" hue="-1" id="0" lockedInTime="false" looped="false" name="canciondecuna 48000 1" offline="false" select="false" sourceInPoint="0" sourceOutPoint="168663" startPoint="446810" zOrder="0">
          <component componentGuid="8272e5ec-7262-4b55-9e7b-1d3b8799429b" componentID="Audition.Fader" id="clipGain" name="volume" powered="true">
            <parameter index="0" name="volume" parameterValue="1"/>
            <parameter index="1" name="static gain" parameterValue="1"/>
          </component>
          <component componentGuid="20fc950d-9b30-4b47-bc57-01d01181c4dd" componentID="Audition.Mute" id="clipMute" name="Mute" powered="true">
            <parameter index="0" parameterValue="0"/>
            <parameter index="1" name="mute" parameterValue="0"/>
          </component>
          <component componentGuid="7272304e-5144-4236-ada3-63983cfc3625" componentID="Audition.StereoPanner" id="clipPan" name="StereoPanner" powered="true">
            <parameter index="0" name="Panorámica" parameterValue="0"/>
          </component>
          <fadeIn crossFadeLinkType="linkedAsymmetric" endPoint="22194" shape="-50" startPoint="0" type="log"/>
          <fadeOut crossFadeLinkType="linkedAsymmetric" endPoint="168663" shape="-10" startPoint="130803" type="log"/>
          <editParameter parameterIndex="0" slotIndex="4294967280"/>
          <editParameter parameterIndex="0" slotIndex="4294967281"/>
          <channelMap>
            <channel index="0" sourceIndex="0"/>
            <channel index="1" sourceIndex="1"/>
          </channelMap>
        </audioClip>
      </audioTrack>
      <audioTrack automationLaneOpenState="false" id="10006" index="6" select="false" visible="true">
        <trackParameters trackHeight="30" trackHue="92" trackMinimized="false">
          <name>ambiente rio</name>
        </trackParameters>
        <trackAudioParameters audioChannelType="stereo" automationMode="1" monitoring="false" recordArmed="false" solo="false" soloSafe="false">
          <trackOutput outputID="10000" type="trackID"/>
          <trackInput inputID="1"/>
          <component componentGuid="e8cebed9-444f-4877-a8b4-d5083ad4470a" componentID="Audition.Fader" id="trackFader" name="volume" powered="true">
            <parameter index="0" name="volume" parameterValue="1"/>
            <parameter index="1" name="static gain" parameterValue="1"/>
          </component>
          <component componentGuid="693b0fce-991a-493e-ab7e-439790c2f66b" componentID="Audition.Mute" id="trackMute" name="Mute" powered="true">
            <parameter index="0" parameterValue="0"/>
            <parameter index="1" name="mute" parameterValue="0"/>
          </component>
          <component componentGuid="51094fee-e373-49a9-b8d3-66cec591b4c3" componentID="Audition.StereoPanner" id="trackPan" name="StereoPanner" powered="true">
            <parameter index="0" name="Panorámica" parameterValue="0"/>
          </component>
          <component componentGuid="fefd228e-070d-4a0f-af2e-91b5590caaa5" componentID="Audition.EQ" id="trackEQ" name="EQ" powered="false">
            <parameter index="0" name="Frecuencia estante inferior" parameterValue="0.000834028352983295917510986328125"/>
            <parameter index="1" name="Ganancia estante inferior" parameterValue="0.5"/>
            <parameter index="2" name="Frecuencia estante superior" parameterValue="0.74979150295257568359375"/>
            <parameter index="3" name="Ganancia estante superior" parameterValue="0.5"/>
            <parameter index="4" name="Frecuencia central de banda de EC 1" parameterValue="0.00125104258768260478973388671875"/>
            <parameter index="5" name="Valor Q de banda de EC 1" parameterValue="0.000199989997781813144683837890625"/>
            <parameter index="6" name="Ganancia de banda de EC 1" parameterValue="0.5"/>
            <parameter index="7" name="Activación de banda de EC 1" parameterValue="1"/>
            <parameter index="8" name="Frecuencia central de banda de EC 2" parameterValue="0.0075062550604343414306640625"/>
            <parameter index="9" name="Valor Q de banda de EC 2" parameterValue="0.000199989997781813144683837890625"/>
            <parameter index="10" name="Ganancia de banda de EC 2" parameterValue="0.5"/>
            <parameter index="11" name="Activación de banda de EC 2" parameterValue="1"/>
            <parameter index="12" name="Frecuencia central de banda de EC 3" parameterValue="0.0325271077454090118408203125"/>
            <parameter index="13" name="Valor Q de banda de EC 3" parameterValue="0.000199989997781813144683837890625"/>
            <parameter index="14" name="Ganancia de banda de EC 3" parameterValue="0.5"/>
            <parameter index="15" name="Activación de banda de EC 3" parameterValue="1"/>
            <parameter index="16" name="Frecuencia central de banda de EC 4" parameterValue="0.13261051476001739501953125"/>
            <parameter index="17" name="Valor Q de banda de EC 4" parameterValue="0.000199989997781813144683837890625"/>
            <parameter index="18" name="Ganancia de banda de EC 4" parameterValue="0.5"/>
            <parameter index="19" name="Activación de banda de EC 4" parameterValue="1"/>
            <parameter index="20" name="Frecuencia central de banda de EC 5" parameterValue="0.532944142818450927734375"/>
            <parameter index="21" name="Valor Q de banda de EC 5" parameterValue="0.000199989997781813144683837890625"/>
            <parameter index="22" name="Ganancia de banda de EC 5" parameterValue="0.5"/>
            <parameter index="23" name="Activación de banda de EC 5" parameterValue="1"/>
            <parameter index="24" name="Ganancia maestra" parameterValue="0.666666686534881591796875"/>
            <parameter index="25" name="Constant Q" parameterValue="1"/>
            <parameter index="26" name="Orden de filtro de estante inferior" parameterValue="0"/>
            <parameter index="27" name="Orden de filtro de estante superior" parameterValue="0"/>
            <parameter index="28" name="Modo ultrasilencioso" parameterValue="0"/>
            <parameter index="29" name="Activar estante inferior" parameterValue="1"/>
            <parameter index="30" name="Activar estante superior" parameterValue="1"/>
            <parameter index="31" name="Velocidad de muestreo original" parameterValue="0.25"/>
            <parameter index="32" name="Ancho de banda de EC 1" parameterValue="0.002499990165233612060546875"/>
            <parameter index="33" name="Ancho de banda de EC 2" parameterValue="0.0099999904632568359375"/>
            <parameter index="34" name="Ancho de banda de EC 3" parameterValue="0.0399999916553497314453125"/>
            <parameter index="35" name="Ancho de banda de EC 4" parameterValue="0.15999998152256011962890625"/>
            <parameter index="36" name="Ancho de banda de EC 5" parameterValue="0.63999998569488525390625"/>
            <parameter index="37" name="Activación de filtro de pase alto" parameterValue="0"/>
            <parameter index="38" name="Frecuencia de límite de paso alto" parameterValue="0"/>
            <parameter index="39" name="Pendiente de paso alto" parameterValue="0.4000000059604644775390625"/>
            <parameter index="40" name="Activación de filtro de pase bajo" parameterValue="0"/>
            <parameter index="41" name="Frecuencia de límite de paso bajo" parameterValue="0.833194315433502197265625"/>
            <parameter index="42" name="Pendiente de paso bajo" parameterValue="0.4000000059604644775390625"/>
            <parameter index="43" name="Derivar" parameterValue="0"/>
            <parameter index="44" name="Rango de gráfico bajo" parameterValue="1"/>
          </component>
        </trackAudioParameters>
        <editParameter parameterIndex="0" slotIndex="4294967280"/>
        <audioClip clipAutoCrossfade="true" crossFadeHeadClipID="-1" crossFadeTailClipID="-1" endPoint="2051296" fileID="14" hue="-1" id="0" lockedInTime="false" looped="false" name="ranas 48000 1" offline="false" select="false" sourceInPoint="0" sourceOutPoint="705287" startPoint="1346009" zOrder="0">
          <component componentGuid="36e5b11c-5917-4b60-87a0-e3adb3690511" componentID="Audition.Fader" id="clipGain" name="volume" powered="true">
            <parameter index="0" name="volume" parameterValue="0.015529043041169643402099609375"/>
            <parameter index="1" name="static gain" parameterValue="1"/>
          </component>
          <component componentGuid="2fa1663f-12bc-4671-bd43-bb3ef0fa9782" componentID="Audition.Mute" id="clipMute" name="Mute" powered="true">
            <parameter index="0" parameterValue="0"/>
            <parameter index="1" name="mute" parameterValue="0"/>
          </component>
          <component componentGuid="c5975e65-4437-471d-b399-107c863c010b" componentID="Audition.StereoPanner" id="clipPan" name="StereoPanner" powered="true">
            <parameter index="0" name="Panorámica" parameterValue="0"/>
          </component>
          <fadeIn crossFadeLinkType="linkedAsymmetric" endPoint="0" shape="18" startPoint="0" type="log"/>
          <fadeOut crossFadeLinkType="linkedAsymmetric" endPoint="705287" shape="-58" startPoint="571157" type="log"/>
          <editParameter parameterIndex="0" slotIndex="4294967281"/>
          <editParameter parameterIndex="0" slotIndex="4294967280"/>
          <channelMap>
            <channel index="0" sourceIndex="0"/>
          </channelMap>
        </audioClip>
        <audioClip clipAutoCrossfade="true" crossFadeHeadClipID="-1" crossFadeTailClipID="-1" endPoint="3092181" fileID="15" hue="-1" id="1" lockedInTime="false" looped="true" name="corrienterio 48000 1" offline="false" select="false" sourceInPoint="0" sourceOutPoint="1040885" startPoint="2051296" zOrder="1">
          <component componentGuid="506b47e2-6277-42ac-865f-c6cc0b8898e3" componentID="Audition.Fader" id="clipGain" name="volume" powered="true">
            <parameter index="0" name="volume" parameterValue="0.15709473192691802978515625"/>
            <parameter index="1" name="static gain" parameterValue="1"/>
          </component>
          <component componentGuid="2456c903-1ba1-4d7f-a2a9-5205d6109492" componentID="Audition.Mute" id="clipMute" name="Mute" powered="true">
            <parameter index="0" parameterValue="0"/>
            <parameter index="1" name="mute" parameterValue="0"/>
          </component>
          <component componentGuid="c03402f0-3491-4963-9a17-1c6cfca03787" componentID="Audition.StereoPanner" id="clipPan" name="StereoPanner" powered="true">
            <parameter index="0" name="Panorámica" parameterValue="0"/>
          </component>
          <fadeIn crossFadeLinkType="linkedAsymmetric" endPoint="43250" shape="-24" startPoint="0" type="log"/>
          <fadeOut crossFadeLinkType="linkedAsymmetric" endPoint="1040885" shape="-16" startPoint="887108" type="log"/>
          <editParameter parameterIndex="0" slotIndex="4294967281"/>
          <editParameter parameterIndex="0" slotIndex="4294967280"/>
          <channelMap>
            <channel index="0" sourceIndex="0"/>
            <channel index="1" sourceIndex="1"/>
          </channelMap>
        </audioClip>
      </audioTrack>
      <audioTrack automationLaneOpenState="false" id="10007" index="7" select="false" visible="true">
        <trackParameters trackHeight="30" trackHue="130" trackMinimized="false">
          <name>ambinte bosque</name>
        </trackParameters>
        <trackAudioParameters audioChannelType="stereo" automationMode="1" monitoring="false" recordArmed="false" solo="false" soloSafe="false">
          <trackOutput outputID="10000" type="trackID"/>
          <trackInput inputID="1"/>
          <component componentGuid="9a922c87-eb9e-4c57-8edf-7c4361764451" componentID="Audition.Fader" id="trackFader" name="volume" powered="true">
            <parameter index="0" name="volume" parameterValue="1"/>
            <parameter index="1" name="static gain" parameterValue="1"/>
          </component>
          <component componentGuid="233bf22b-cb0b-4141-a600-29331208ac1b" componentID="Audition.Mute" id="trackMute" name="Mute" powered="true">
            <parameter index="0" parameterValue="0"/>
            <parameter index="1" name="mute" parameterValue="0"/>
          </component>
          <component componentGuid="6cd08583-f1e0-4d37-89a9-2abe2c17fbb3" componentID="Audition.StereoPanner" id="trackPan" name="StereoPanner" powered="true">
            <parameter index="0" name="Panorámica" parameterValue="0"/>
          </component>
          <component componentGuid="d19b67b6-f69b-4784-8d81-110b36a57f72" componentID="Audition.EQ" id="trackEQ" name="EQ" powered="false">
            <parameter index="0" name="Frecuencia estante inferior" parameterValue="0.000834028352983295917510986328125"/>
            <parameter index="1" name="Ganancia estante inferior" parameterValue="0.5"/>
            <parameter index="2" name="Frecuencia estante superior" parameterValue="0.74979150295257568359375"/>
            <parameter index="3" name="Ganancia estante superior" parameterValue="0.5"/>
            <parameter index="4" name="Frecuencia central de banda de EC 1" parameterValue="0.00125104258768260478973388671875"/>
            <parameter index="5" name="Valor Q de banda de EC 1" parameterValue="0.000199989997781813144683837890625"/>
            <parameter index="6" name="Ganancia de banda de EC 1" parameterValue="0.5"/>
            <parameter index="7" name="Activación de banda de EC 1" parameterValue="1"/>
            <parameter index="8" name="Frecuencia central de banda de EC 2" parameterValue="0.0075062550604343414306640625"/>
            <parameter index="9" name="Valor Q de banda de EC 2" parameterValue="0.000199989997781813144683837890625"/>
            <parameter index="10" name="Ganancia de banda de EC 2" parameterValue="0.5"/>
            <parameter index="11" name="Activación de banda de EC 2" parameterValue="1"/>
            <parameter index="12" name="Frecuencia central de banda de EC 3" parameterValue="0.0325271077454090118408203125"/>
            <parameter index="13" name="Valor Q de banda de EC 3" parameterValue="0.000199989997781813144683837890625"/>
            <parameter index="14" name="Ganancia de banda de EC 3" parameterValue="0.5"/>
            <parameter index="15" name="Activación de banda de EC 3" parameterValue="1"/>
            <parameter index="16" name="Frecuencia central de banda de EC 4" parameterValue="0.13261051476001739501953125"/>
            <parameter index="17" name="Valor Q de banda de EC 4" parameterValue="0.000199989997781813144683837890625"/>
            <parameter index="18" name="Ganancia de banda de EC 4" parameterValue="0.5"/>
            <parameter index="19" name="Activación de banda de EC 4" parameterValue="1"/>
            <parameter index="20" name="Frecuencia central de banda de EC 5" parameterValue="0.532944142818450927734375"/>
            <parameter index="21" name="Valor Q de banda de EC 5" parameterValue="0.000199989997781813144683837890625"/>
            <parameter index="22" name="Ganancia de banda de EC 5" parameterValue="0.5"/>
            <parameter index="23" name="Activación de banda de EC 5" parameterValue="1"/>
            <parameter index="24" name="Ganancia maestra" parameterValue="0.666666686534881591796875"/>
            <parameter index="25" name="Constant Q" parameterValue="1"/>
            <parameter index="26" name="Orden de filtro de estante inferior" parameterValue="0"/>
            <parameter index="27" name="Orden de filtro de estante superior" parameterValue="0"/>
            <parameter index="28" name="Modo ultrasilencioso" parameterValue="0"/>
            <parameter index="29" name="Activar estante inferior" parameterValue="1"/>
            <parameter index="30" name="Activar estante superior" parameterValue="1"/>
            <parameter index="31" name="Velocidad de muestreo original" parameterValue="0.25"/>
            <parameter index="32" name="Ancho de banda de EC 1" parameterValue="0.002499990165233612060546875"/>
            <parameter index="33" name="Ancho de banda de EC 2" parameterValue="0.0099999904632568359375"/>
            <parameter index="34" name="Ancho de banda de EC 3" parameterValue="0.0399999916553497314453125"/>
            <parameter index="35" name="Ancho de banda de EC 4" parameterValue="0.15999998152256011962890625"/>
            <parameter index="36" name="Ancho de banda de EC 5" parameterValue="0.63999998569488525390625"/>
            <parameter index="37" name="Activación de filtro de pase alto" parameterValue="0"/>
            <parameter index="38" name="Frecuencia de límite de paso alto" parameterValue="0"/>
            <parameter index="39" name="Pendiente de paso alto" parameterValue="0.4000000059604644775390625"/>
            <parameter index="40" name="Activación de filtro de pase bajo" parameterValue="0"/>
            <parameter index="41" name="Frecuencia de límite de paso bajo" parameterValue="0.833194315433502197265625"/>
            <parameter index="42" name="Pendiente de paso bajo" parameterValue="0.4000000059604644775390625"/>
            <parameter index="43" name="Derivar" parameterValue="0"/>
            <parameter index="44" name="Rango de gráfico bajo" parameterValue="1"/>
          </component>
        </trackAudioParameters>
        <editParameter parameterIndex="0" slotIndex="4294967280"/>
        <audioClip clipAutoCrossfade="true" crossFadeHeadClipID="-1" crossFadeTailClipID="-1" endPoint="2051296" fileID="16" hue="-1" id="0" lockedInTime="false" looped="true" name="WhatsApp Audio 2020-11-16 at 1.47.10 PM 48000 1" offline="false" select="false" sourceInPoint="0" sourceOutPoint="705287" startPoint="1346009" zOrder="0">
          <component componentGuid="24a996ed-63e4-4af9-864e-0f4985e1fd6f" componentID="Audition.Fader" id="clipGain" name="volume" powered="true">
            <parameter index="0" name="volume" parameterValue="0.0507526695728302001953125"/>
            <parameter index="1" name="static gain" parameterValue="1"/>
          </component>
          <component componentGuid="7ae6870c-849a-4b06-90b1-c11a3cce23c8" componentID="Audition.Mute" id="clipMute" name="Mute" powered="true">
            <parameter index="0" parameterValue="0"/>
            <parameter index="1" name="mute" parameterValue="0"/>
          </component>
          <component componentGuid="4ca7d43b-2e25-45bc-b824-159c3b5ce5ac" componentID="Audition.StereoPanner" id="clipPan" name="StereoPanner" powered="true">
            <parameter index="0" name="Panorámica" parameterValue="0"/>
          </component>
          <fadeIn crossFadeLinkType="linkedAsymmetric" endPoint="81694" shape="-33" startPoint="0" type="log"/>
          <fadeOut crossFadeLinkType="linkedAsymmetric" endPoint="705287" shape="19" startPoint="705287" type="log"/>
          <editParameter parameterIndex="0" slotIndex="4294967281"/>
          <editParameter parameterIndex="0" slotIndex="4294967280"/>
          <channelMap>
            <channel index="0" sourceIndex="0"/>
          </channelMap>
        </audioClip>
        <audioClip clipAutoCrossfade="true" crossFadeHeadClipID="-1" crossFadeTailClipID="-1" endPoint="1762411" fileID="5" hue="-1" id="1" lockedInTime="false" looped="false" name="buho 48000 1" offline="false" select="false" sourceInPoint="0" sourceOutPoint="117862" startPoint="1644549" zOrder="3">
          <component componentGuid="429f0b5f-17c6-49a6-9f62-948da5736b85" componentID="Audition.Fader" id="clipGain" name="volume" powered="true">
            <parameter index="0" name="volume" parameterValue="0.2354023456573486328125"/>
            <parameter index="1" name="static gain" parameterValue="1"/>
          </component>
          <component componentGuid="c5e54a48-fb82-4afe-8fb0-24877979f716" componentID="Audition.Mute" id="clipMute" name="Mute" powered="true">
            <parameter index="0" parameterValue="0"/>
            <parameter index="1" name="mute" parameterValue="0"/>
          </component>
          <component componentGuid="94851410-85fb-4e1b-ab06-cd640a56d9a5" componentID="Audition.StereoPanner" id="clipPan" name="StereoPanner" powered="true">
            <parameter index="0" name="Panorámica" parameterValue="0"/>
          </component>
          <fadeIn crossFadeLinkType="linkedAsymmetric" endPoint="0" shape="0" startPoint="0" type="cosine"/>
          <fadeOut crossFadeLinkType="linkedAsymmetric" endPoint="117862" shape="0" startPoint="117862" type="cosine"/>
          <editParameter parameterIndex="0" slotIndex="4294967281"/>
          <editParameter parameterIndex="0" slotIndex="4294967280"/>
          <channelMap>
            <channel index="0" sourceIndex="0"/>
          </channelMap>
        </audioClip>
        <audioClip clipAutoCrossfade="true" crossFadeHeadClipID="-1" crossFadeTailClipID="-1" endPoint="1966772" fileID="5" hue="-1" id="2" lockedInTime="false" looped="false" name="buho 48000 1" offline="false" select="false" sourceInPoint="0" sourceOutPoint="117862" startPoint="1848910" zOrder="4">
          <component componentGuid="99841353-fd22-4680-825f-50f4f74e4d05" componentID="Audition.Fader" id="clipGain" name="volume" powered="true">
            <parameter index="0" name="volume" parameterValue="0.2354023456573486328125"/>
            <parameter index="1" name="static gain" parameterValue="1"/>
          </component>
          <component componentGuid="fe41a1dd-33e9-4703-afe1-482af87c17ea" componentID="Audition.Mute" id="clipMute" name="Mute" powered="true">
            <parameter index="0" parameterValue="0"/>
            <parameter index="1" name="mute" parameterValue="0"/>
          </component>
          <component componentGuid="55e82139-90ae-41ae-b247-3dea98d90f48" componentID="Audition.StereoPanner" id="clipPan" name="StereoPanner" powered="true">
            <parameter index="0" name="Panorámica" parameterValue="0"/>
          </component>
          <fadeIn crossFadeLinkType="linkedAsymmetric" endPoint="0" shape="0" startPoint="0" type="cosine"/>
          <fadeOut crossFadeLinkType="linkedAsymmetric" endPoint="117862" shape="0" startPoint="117862" type="cosine"/>
          <editParameter parameterIndex="0" slotIndex="4294967281"/>
          <editParameter parameterIndex="0" slotIndex="4294967280"/>
          <channelMap>
            <channel index="0" sourceIndex="0"/>
          </channelMap>
        </audioClip>
        <audioClip clipAutoCrossfade="true" crossFadeHeadClipID="-1" crossFadeTailClipID="-1" endPoint="2169158" fileID="5" hue="-1" id="3" lockedInTime="false" looped="false" name="buho 48000 1" offline="false" select="false" sourceInPoint="0" sourceOutPoint="117862" startPoint="2051296" zOrder="2">
          <component componentGuid="ecd127e1-d64f-456a-9548-af114dfd0c0b" componentID="Audition.Fader" id="clipGain" name="volume" powered="true">
            <parameter index="0" name="volume" parameterValue="0.2354023456573486328125"/>
            <parameter index="1" name="static gain" parameterValue="1"/>
          </component>
          <component componentGuid="6f263bc9-ac8b-47f6-aee1-20de10d1dcf4" componentID="Audition.Mute" id="clipMute" name="Mute" powered="true">
            <parameter index="0" parameterValue="0"/>
            <parameter index="1" name="mute" parameterValue="0"/>
          </component>
          <component componentGuid="2eb715cd-e532-459c-8b33-29356d53bba2" componentID="Audition.StereoPanner" id="clipPan" name="StereoPanner" powered="true">
            <parameter index="0" name="Panorámica" parameterValue="0"/>
          </component>
          <fadeIn crossFadeLinkType="linkedAsymmetric" endPoint="0" shape="0" startPoint="0" type="cosine"/>
          <fadeOut crossFadeLinkType="linkedAsymmetric" endPoint="117862" shape="0" startPoint="117862" type="cosine"/>
          <editParameter parameterIndex="0" slotIndex="4294967281"/>
          <editParameter parameterIndex="0" slotIndex="4294967280"/>
          <channelMap>
            <channel index="0" sourceIndex="0"/>
          </channelMap>
        </audioClip>
        <audioClip clipAutoCrossfade="true" crossFadeHeadClipID="-1" crossFadeTailClipID="-1" endPoint="3906251" fileID="14" hue="-1" id="4" lockedInTime="false" looped="true" name="ranas 48000 1" offline="false" select="false" sourceInPoint="0" sourceOutPoint="1854955" startPoint="2051296" zOrder="1">
          <component componentGuid="68599a13-1b54-4d9b-8ba6-5e9507ed1f2e" componentID="Audition.Fader" id="clipGain" name="volume" powered="true">
            <parameter index="0" name="volume" parameterValue="0.0605590753257274627685546875"/>
            <parameter index="1" name="static gain" parameterValue="1"/>
          </component>
          <component componentGuid="1430c2c9-541c-43b0-809d-eb6fbeec51ae" componentID="Audition.Mute" id="clipMute" name="Mute" powered="true">
            <parameter index="0" parameterValue="0"/>
            <parameter index="1" name="mute" parameterValue="0"/>
          </component>
          <component componentGuid="79ae3390-2a35-4e61-be3b-8ec84822f0ae" componentID="Audition.StereoPanner" id="clipPan" name="StereoPanner" powered="true">
            <parameter index="0" name="Panorámica" parameterValue="0"/>
          </component>
          <fadeIn crossFadeLinkType="linkedAsymmetric" endPoint="0" shape="0" startPoint="0" type="cosine"/>
          <fadeOut crossFadeLinkType="linkedAsymmetric" endPoint="1854955" shape="0" startPoint="1854955" type="cosine"/>
          <editParameter parameterIndex="0" slotIndex="4294967281"/>
          <editParameter parameterIndex="0" slotIndex="4294967280"/>
          <channelMap>
            <channel index="0" sourceIndex="0"/>
          </channelMap>
        </audioClip>
        <audioClip clipAutoCrossfade="true" crossFadeHeadClipID="-1" crossFadeTailClipID="-1" endPoint="2435992" fileID="5" hue="-1" id="5" lockedInTime="false" looped="false" name="buho 48000 1" offline="false" select="false" sourceInPoint="0" sourceOutPoint="117862" startPoint="2318130" zOrder="5">
          <component componentGuid="f4817d26-00c7-4723-8145-b5a07bbfd306" componentID="Audition.Fader" id="clipGain" name="volume" powered="true">
            <parameter index="0" name="volume" parameterValue="0.2354023456573486328125"/>
            <parameter index="1" name="static gain" parameterValue="1"/>
          </component>
          <component componentGuid="a63281c6-228b-43b1-95d8-f8498598d89d" componentID="Audition.Mute" id="clipMute" name="Mute" powered="true">
            <parameter index="0" parameterValue="0"/>
            <parameter index="1" name="mute" parameterValue="0"/>
          </component>
          <component componentGuid="8fdfdbd6-6e80-4808-8f64-2853ccea64f2" componentID="Audition.StereoPanner" id="clipPan" name="StereoPanner" powered="true">
            <parameter index="0" name="Panorámica" parameterValue="0"/>
          </component>
          <fadeIn crossFadeLinkType="linkedAsymmetric" endPoint="0" shape="0" startPoint="0" type="cosine"/>
          <fadeOut crossFadeLinkType="linkedAsymmetric" endPoint="117862" shape="0" startPoint="117862" type="cosine"/>
          <editParameter parameterIndex="0" slotIndex="4294967281"/>
          <editParameter parameterIndex="0" slotIndex="4294967280"/>
          <channelMap>
            <channel index="0" sourceIndex="0"/>
          </channelMap>
        </audioClip>
        <audioClip clipAutoCrossfade="true" crossFadeHeadClipID="-1" crossFadeTailClipID="-1" endPoint="2701130" fileID="5" hue="-1" id="6" lockedInTime="false" looped="false" name="buho 48000 1" offline="false" select="false" sourceInPoint="0" sourceOutPoint="117862" startPoint="2583268" zOrder="6">
          <component componentGuid="3e14ae0a-064f-404f-a889-ed439e3452dc" componentID="Audition.Fader" id="clipGain" name="volume" powered="true">
            <parameter index="0" name="volume" parameterValue="0.2354023456573486328125"/>
            <parameter index="1" name="static gain" parameterValue="1"/>
          </component>
          <component componentGuid="b1237d80-0945-48c2-833b-23b919617c2d" componentID="Audition.Mute" id="clipMute" name="Mute" powered="true">
            <parameter index="0" parameterValue="0"/>
            <parameter index="1" name="mute" parameterValue="0"/>
          </component>
          <component componentGuid="c9c1986c-e00e-4857-a965-e797fb15cfe3" componentID="Audition.StereoPanner" id="clipPan" name="StereoPanner" powered="true">
            <parameter index="0" name="Panorámica" parameterValue="0"/>
          </component>
          <fadeIn crossFadeLinkType="linkedAsymmetric" endPoint="0" shape="0" startPoint="0" type="cosine"/>
          <fadeOut crossFadeLinkType="linkedAsymmetric" endPoint="117862" shape="0" startPoint="117862" type="cosine"/>
          <editParameter parameterIndex="0" slotIndex="4294967280"/>
          <editParameter parameterIndex="0" slotIndex="4294967281"/>
          <channelMap>
            <channel index="0" sourceIndex="0"/>
          </channelMap>
        </audioClip>
        <audioClip clipAutoCrossfade="true" crossFadeHeadClipID="-1" crossFadeTailClipID="-1" endPoint="2961650" fileID="5" hue="-1" id="7" lockedInTime="false" looped="false" name="buho 48000 1" offline="false" select="false" sourceInPoint="0" sourceOutPoint="117862" startPoint="2843788" zOrder="7">
          <component componentGuid="6d9b0b74-2c58-4c94-b05c-828daaebc876" componentID="Audition.Fader" id="clipGain" name="volume" powered="true">
            <parameter index="0" name="volume" parameterValue="0.2354023456573486328125"/>
            <parameter index="1" name="static gain" parameterValue="1"/>
          </component>
          <component componentGuid="dc8aa8ac-d1f2-4e11-92c5-ecb52ecfe2e4" componentID="Audition.Mute" id="clipMute" name="Mute" powered="true">
            <parameter index="0" parameterValue="0"/>
            <parameter index="1" name="mute" parameterValue="0"/>
          </component>
          <component componentGuid="52076d3d-ec1c-4941-98fc-92d4c97d24b6" componentID="Audition.StereoPanner" id="clipPan" name="StereoPanner" powered="true">
            <parameter index="0" name="Panorámica" parameterValue="0"/>
          </component>
          <fadeIn crossFadeLinkType="linkedAsymmetric" endPoint="0" shape="0" startPoint="0" type="cosine"/>
          <fadeOut crossFadeLinkType="linkedAsymmetric" endPoint="117862" shape="0" startPoint="117862" type="cosine"/>
          <editParameter parameterIndex="0" slotIndex="4294967281"/>
          <editParameter parameterIndex="0" slotIndex="4294967280"/>
          <channelMap>
            <channel index="0" sourceIndex="0"/>
          </channelMap>
        </audioClip>
        <audioClip clipAutoCrossfade="true" crossFadeHeadClipID="-1" crossFadeTailClipID="-1" endPoint="3210043" fileID="5" hue="-1" id="8" lockedInTime="false" looped="false" name="buho 48000 1" offline="false" select="false" sourceInPoint="0" sourceOutPoint="117862" startPoint="3092181" zOrder="8">
          <component componentGuid="089142ea-216e-4ac6-9cdd-ee07ec0af107" componentID="Audition.Fader" id="clipGain" name="volume" powered="true">
            <parameter index="0" name="volume" parameterValue="0.2354023456573486328125"/>
            <parameter index="1" name="static gain" parameterValue="1"/>
          </component>
          <component componentGuid="7ab17d7f-5859-48df-8dc3-7527d5c60787" componentID="Audition.Mute" id="clipMute" name="Mute" powered="true">
            <parameter index="0" parameterValue="0"/>
            <parameter index="1" name="mute" parameterValue="0"/>
          </component>
          <component componentGuid="311bcff3-0caa-44ff-9433-ce93c623f2d0" componentID="Audition.StereoPanner" id="clipPan" name="StereoPanner" powered="true">
            <parameter index="0" name="Panorámica" parameterValue="0"/>
          </component>
          <fadeIn crossFadeLinkType="linkedAsymmetric" endPoint="0" shape="0" startPoint="0" type="cosine"/>
          <fadeOut crossFadeLinkType="linkedAsymmetric" endPoint="117862" shape="0" startPoint="117862" type="cosine"/>
          <editParameter parameterIndex="0" slotIndex="4294967281"/>
          <editParameter parameterIndex="0" slotIndex="4294967280"/>
          <channelMap>
            <channel index="0" sourceIndex="0"/>
          </channelMap>
        </audioClip>
        <audioClip clipAutoCrossfade="true" crossFadeHeadClipID="-1" crossFadeTailClipID="-1" endPoint="3342827" fileID="17" hue="-1" id="9" lockedInTime="false" looped="false" name="arbustos 48000 1" offline="false" select="false" sourceInPoint="0" sourceOutPoint="112849" startPoint="3229978" zOrder="12">
          <component componentGuid="5fd79e91-7e7e-4344-8de5-0f45003164b5" componentID="Audition.Fader" id="clipGain" name="volume" powered="true">
            <parameter index="0" name="volume" parameterValue="0.0605590753257274627685546875"/>
            <parameter index="1" name="static gain" parameterValue="1"/>
          </component>
          <component componentGuid="1026d052-a840-4f2c-b13d-8f1ceaa8bd02" componentID="Audition.Mute" id="clipMute" name="Mute" powered="true">
            <parameter index="0" parameterValue="0"/>
            <parameter index="1" name="mute" parameterValue="0"/>
          </component>
          <component componentGuid="a6e2e006-af42-4240-b93e-195672ce48e2" componentID="Audition.StereoPanner" id="clipPan" name="StereoPanner" powered="true">
            <parameter index="0" name="Panorámica" parameterValue="0"/>
          </component>
          <fadeIn crossFadeLinkType="linkedAsymmetric" endPoint="0" shape="0" startPoint="0" type="cosine"/>
          <fadeOut crossFadeLinkType="linkedAsymmetric" endPoint="112849" shape="0" startPoint="112849" type="cosine"/>
          <editParameter parameterIndex="0" slotIndex="4294967281"/>
          <editParameter parameterIndex="0" slotIndex="4294967280"/>
          <channelMap>
            <channel index="0" sourceIndex="0"/>
          </channelMap>
        </audioClip>
        <audioClip clipAutoCrossfade="true" crossFadeHeadClipID="-1" crossFadeTailClipID="-1" endPoint="3477862" fileID="5" hue="-1" id="10" lockedInTime="false" looped="false" name="buho 48000 1" offline="false" select="false" sourceInPoint="0" sourceOutPoint="117862" startPoint="3360000" zOrder="11">
          <component componentGuid="64bed1ae-4807-47ca-ae32-fcb416906724" componentID="Audition.Fader" id="clipGain" name="volume" powered="true">
            <parameter index="0" name="volume" parameterValue="0.2354023456573486328125"/>
            <parameter index="1" name="static gain" parameterValue="1"/>
          </component>
          <component componentGuid="3fe9b11a-fd1d-4a01-98f4-854fef52eb46" componentID="Audition.Mute" id="clipMute" name="Mute" powered="true">
            <parameter index="0" parameterValue="0"/>
            <parameter index="1" name="mute" parameterValue="0"/>
          </component>
          <component componentGuid="cc6c222d-733d-4336-910c-de61a088d6da" componentID="Audition.StereoPanner" id="clipPan" name="StereoPanner" powered="true">
            <parameter index="0" name="Panorámica" parameterValue="0"/>
          </component>
          <fadeIn crossFadeLinkType="linkedAsymmetric" endPoint="0" shape="0" startPoint="0" type="cosine"/>
          <fadeOut crossFadeLinkType="linkedAsymmetric" endPoint="117862" shape="0" startPoint="117862" type="cosine"/>
          <editParameter parameterIndex="0" slotIndex="4294967281"/>
          <editParameter parameterIndex="0" slotIndex="4294967280"/>
          <channelMap>
            <channel index="0" sourceIndex="0"/>
          </channelMap>
        </audioClip>
        <audioClip clipAutoCrossfade="true" crossFadeHeadClipID="-1" crossFadeTailClipID="-1" endPoint="3616168" fileID="17" hue="-1" id="11" lockedInTime="false" looped="false" name="arbustos 48000 1" offline="false" select="false" sourceInPoint="0" sourceOutPoint="112849" startPoint="3503319" zOrder="14">
          <component componentGuid="c8a5dc39-e928-421f-8f97-78fbe8891086" componentID="Audition.Fader" id="clipGain" name="volume" powered="true">
            <parameter index="0" name="volume" parameterValue="0.0605590753257274627685546875"/>
            <parameter index="1" name="static gain" parameterValue="1"/>
          </component>
          <component componentGuid="e64ec95e-1e8f-4c5b-8811-b2e6f62b4a3d" componentID="Audition.Mute" id="clipMute" name="Mute" powered="true">
            <parameter index="0" parameterValue="0"/>
            <parameter index="1" name="mute" parameterValue="0"/>
          </component>
          <component componentGuid="8aaeaa29-5020-47ff-b859-93ea25b8e7cc" componentID="Audition.StereoPanner" id="clipPan" name="StereoPanner" powered="true">
            <parameter index="0" name="Panorámica" parameterValue="0"/>
          </component>
          <fadeIn crossFadeLinkType="linkedAsymmetric" endPoint="0" shape="0" startPoint="0" type="cosine"/>
          <fadeOut crossFadeLinkType="linkedAsymmetric" endPoint="112849" shape="0" startPoint="112849" type="cosine"/>
          <editParameter parameterIndex="0" slotIndex="4294967281"/>
          <editParameter parameterIndex="0" slotIndex="4294967280"/>
          <channelMap>
            <channel index="0" sourceIndex="0"/>
          </channelMap>
        </audioClip>
        <audioClip clipAutoCrossfade="true" crossFadeHeadClipID="-1" crossFadeTailClipID="-1" endPoint="3644214" fileID="5" hue="-1" id="12" lockedInTime="false" looped="false" name="buho 48000 1" offline="false" select="false" sourceInPoint="0" sourceOutPoint="117862" startPoint="3526352" zOrder="9">
          <component componentGuid="f814eccf-36f6-4554-852c-630f5bdd8c81" componentID="Audition.Fader" id="clipGain" name="volume" powered="true">
            <parameter index="0" name="volume" parameterValue="0.2354023456573486328125"/>
            <parameter index="1" name="static gain" parameterValue="1"/>
          </component>
          <component componentGuid="9101d56e-9b3b-4ff9-8161-e70a045fb441" componentID="Audition.Mute" id="clipMute" name="Mute" powered="true">
            <parameter index="0" parameterValue="0"/>
            <parameter index="1" name="mute" parameterValue="0"/>
          </component>
          <component componentGuid="0fc7bb5e-e574-4593-b72a-6ed8a9871e8d" componentID="Audition.StereoPanner" id="clipPan" name="StereoPanner" powered="true">
            <parameter index="0" name="Panorámica" parameterValue="0"/>
          </component>
          <fadeIn crossFadeLinkType="linkedAsymmetric" endPoint="0" shape="0" startPoint="0" type="cosine"/>
          <fadeOut crossFadeLinkType="linkedAsymmetric" endPoint="117862" shape="0" startPoint="117862" type="cosine"/>
          <editParameter parameterIndex="0" slotIndex="4294967281"/>
          <editParameter parameterIndex="0" slotIndex="4294967280"/>
          <channelMap>
            <channel index="0" sourceIndex="0"/>
          </channelMap>
        </audioClip>
        <audioClip clipAutoCrossfade="true" crossFadeHeadClipID="-1" crossFadeTailClipID="-1" endPoint="3734030" fileID="5" hue="-1" id="13" lockedInTime="false" looped="false" name="buho 48000 1" offline="false" select="false" sourceInPoint="0" sourceOutPoint="117862" startPoint="3616168" zOrder="10">
          <component componentGuid="602678ff-218c-497e-9ff1-0b2d206db5ae" componentID="Audition.Fader" id="clipGain" name="volume" powered="true">
            <parameter index="0" name="volume" parameterValue="0.2354023456573486328125"/>
            <parameter index="1" name="static gain" parameterValue="1"/>
          </component>
          <component componentGuid="9ce12711-73af-4095-8d64-b5f66a69a1d7" componentID="Audition.Mute" id="clipMute" name="Mute" powered="true">
            <parameter index="0" parameterValue="0"/>
            <parameter index="1" name="mute" parameterValue="0"/>
          </component>
          <component componentGuid="e5d43446-c988-4f33-b28c-ca5965638e64" componentID="Audition.StereoPanner" id="clipPan" name="StereoPanner" powered="true">
            <parameter index="0" name="Panorámica" parameterValue="0"/>
          </component>
          <fadeIn crossFadeLinkType="linkedAsymmetric" endPoint="0" shape="0" startPoint="0" type="cosine"/>
          <fadeOut crossFadeLinkType="linkedAsymmetric" endPoint="117862" shape="0" startPoint="117862" type="cosine"/>
          <editParameter parameterIndex="0" slotIndex="4294967281"/>
          <editParameter parameterIndex="0" slotIndex="4294967280"/>
          <channelMap>
            <channel index="0" sourceIndex="0"/>
          </channelMap>
        </audioClip>
        <audioClip clipAutoCrossfade="true" crossFadeHeadClipID="-1" crossFadeTailClipID="-1" endPoint="3883611" fileID="5" hue="-1" id="14" lockedInTime="false" looped="false" name="buho 48000 1" offline="false" select="false" sourceInPoint="0" sourceOutPoint="117862" startPoint="3765749" zOrder="13">
          <component componentGuid="eb70c85a-f8b2-4da0-bf63-d82a6e70cfa2" componentID="Audition.Fader" id="clipGain" name="volume" powered="true">
            <parameter index="0" name="volume" parameterValue="0.2354023456573486328125"/>
            <parameter index="1" name="static gain" parameterValue="1"/>
          </component>
          <component componentGuid="d63a22b7-f3bb-414a-a4ac-29bc7f974faa" componentID="Audition.Mute" id="clipMute" name="Mute" powered="true">
            <parameter index="0" parameterValue="0"/>
            <parameter index="1" name="mute" parameterValue="0"/>
          </component>
          <component componentGuid="b84075a4-cc71-41eb-a980-24c11d12341a" componentID="Audition.StereoPanner" id="clipPan" name="StereoPanner" powered="true">
            <parameter index="0" name="Panorámica" parameterValue="0"/>
          </component>
          <fadeIn crossFadeLinkType="linkedAsymmetric" endPoint="0" shape="0" startPoint="0" type="cosine"/>
          <fadeOut crossFadeLinkType="linkedAsymmetric" endPoint="117862" shape="0" startPoint="117862" type="cosine"/>
          <editParameter parameterIndex="0" slotIndex="4294967281"/>
          <editParameter parameterIndex="0" slotIndex="4294967280"/>
          <channelMap>
            <channel index="0" sourceIndex="0"/>
          </channelMap>
        </audioClip>
      </audioTrack>
      <audioTrack automationLaneOpenState="false" id="10008" index="8" select="false" visible="true">
        <trackParameters trackHeight="30" trackHue="211" trackMinimized="false">
          <name>mujer llorando</name>
        </trackParameters>
        <trackAudioParameters audioChannelType="stereo" automationMode="1" monitoring="false" recordArmed="false" solo="false" soloSafe="false">
          <trackOutput outputID="10000" type="trackID"/>
          <trackInput inputID="1"/>
          <component componentGuid="433a82f3-09f6-4a44-bd94-681cfc5b2fa0" componentID="Audition.Fader" id="trackFader" name="volume" powered="true">
            <parameter index="0" name="volume" parameterValue="1"/>
            <parameter index="1" name="static gain" parameterValue="1"/>
          </component>
          <component componentGuid="1de6831b-3657-4b85-a3a3-14808611fd20" componentID="Audition.Mute" id="trackMute" name="Mute" powered="true">
            <parameter index="0" parameterValue="0"/>
            <parameter index="1" name="mute" parameterValue="0"/>
          </component>
          <component componentGuid="fba32b06-0cbb-4a16-b7ec-3ebda29caad4" componentID="Audition.StereoPanner" id="trackPan" name="StereoPanner" powered="true">
            <parameter index="0" name="Panorámica" parameterValue="0"/>
          </component>
          <component componentGuid="30a7cddb-25ff-4682-9cc1-fc4e4a3beb5d" componentID="Audition.EQ" id="trackEQ" name="EQ" powered="false">
            <parameter index="0" name="Frecuencia estante inferior" parameterValue="0.000834028352983295917510986328125"/>
            <parameter index="1" name="Ganancia estante inferior" parameterValue="0.5"/>
            <parameter index="2" name="Frecuencia estante superior" parameterValue="0.74979150295257568359375"/>
            <parameter index="3" name="Ganancia estante superior" parameterValue="0.5"/>
            <parameter index="4" name="Frecuencia central de banda de EC 1" parameterValue="0.00125104258768260478973388671875"/>
            <parameter index="5" name="Valor Q de banda de EC 1" parameterValue="0.000199989997781813144683837890625"/>
            <parameter index="6" name="Ganancia de banda de EC 1" parameterValue="0.5"/>
            <parameter index="7" name="Activación de banda de EC 1" parameterValue="1"/>
            <parameter index="8" name="Frecuencia central de banda de EC 2" parameterValue="0.0075062550604343414306640625"/>
            <parameter index="9" name="Valor Q de banda de EC 2" parameterValue="0.000199989997781813144683837890625"/>
            <parameter index="10" name="Ganancia de banda de EC 2" parameterValue="0.5"/>
            <parameter index="11" name="Activación de banda de EC 2" parameterValue="1"/>
            <parameter index="12" name="Frecuencia central de banda de EC 3" parameterValue="0.0325271077454090118408203125"/>
            <parameter index="13" name="Valor Q de banda de EC 3" parameterValue="0.000199989997781813144683837890625"/>
            <parameter index="14" name="Ganancia de banda de EC 3" parameterValue="0.5"/>
            <parameter index="15" name="Activación de banda de EC 3" parameterValue="1"/>
            <parameter index="16" name="Frecuencia central de banda de EC 4" parameterValue="0.13261051476001739501953125"/>
            <parameter index="17" name="Valor Q de banda de EC 4" parameterValue="0.000199989997781813144683837890625"/>
            <parameter index="18" name="Ganancia de banda de EC 4" parameterValue="0.5"/>
            <parameter index="19" name="Activación de banda de EC 4" parameterValue="1"/>
            <parameter index="20" name="Frecuencia central de banda de EC 5" parameterValue="0.532944142818450927734375"/>
            <parameter index="21" name="Valor Q de banda de EC 5" parameterValue="0.000199989997781813144683837890625"/>
            <parameter index="22" name="Ganancia de banda de EC 5" parameterValue="0.5"/>
            <parameter index="23" name="Activación de banda de EC 5" parameterValue="1"/>
            <parameter index="24" name="Ganancia maestra" parameterValue="0.666666686534881591796875"/>
            <parameter index="25" name="Constant Q" parameterValue="1"/>
            <parameter index="26" name="Orden de filtro de estante inferior" parameterValue="0"/>
            <parameter index="27" name="Orden de filtro de estante superior" parameterValue="0"/>
            <parameter index="28" name="Modo ultrasilencioso" parameterValue="0"/>
            <parameter index="29" name="Activar estante inferior" parameterValue="1"/>
            <parameter index="30" name="Activar estante superior" parameterValue="1"/>
            <parameter index="31" name="Velocidad de muestreo original" parameterValue="0.25"/>
            <parameter index="32" name="Ancho de banda de EC 1" parameterValue="0.002499990165233612060546875"/>
            <parameter index="33" name="Ancho de banda de EC 2" parameterValue="0.0099999904632568359375"/>
            <parameter index="34" name="Ancho de banda de EC 3" parameterValue="0.0399999916553497314453125"/>
            <parameter index="35" name="Ancho de banda de EC 4" parameterValue="0.15999998152256011962890625"/>
            <parameter index="36" name="Ancho de banda de EC 5" parameterValue="0.63999998569488525390625"/>
            <parameter index="37" name="Activación de filtro de pase alto" parameterValue="0"/>
            <parameter index="38" name="Frecuencia de límite de paso alto" parameterValue="0"/>
            <parameter index="39" name="Pendiente de paso alto" parameterValue="0.4000000059604644775390625"/>
            <parameter index="40" name="Activación de filtro de pase bajo" parameterValue="0"/>
            <parameter index="41" name="Frecuencia de límite de paso bajo" parameterValue="0.833194315433502197265625"/>
            <parameter index="42" name="Pendiente de paso bajo" parameterValue="0.4000000059604644775390625"/>
            <parameter index="43" name="Derivar" parameterValue="0"/>
            <parameter index="44" name="Rango de gráfico bajo" parameterValue="1"/>
          </component>
        </trackAudioParameters>
        <editParameter parameterIndex="0" slotIndex="4294967280"/>
        <audioClip clipAutoCrossfade="true" crossFadeHeadClipID="-1" crossFadeTailClipID="-1" endPoint="3765749" fileID="18" hue="-1" id="0" lockedInTime="false" looped="true" name="llantomujer 48000 1" offline="false" select="false" sourceInPoint="0" sourceOutPoint="921961" startPoint="2843788" zOrder="0">
          <component componentGuid="a75a2b4c-f8cb-442d-b10f-bb73e810577d" componentID="Audition.Fader" id="clipGain" name="volume" powered="true">
            <parameter index="0" name="volume" parameterValue="1"/>
            <parameter index="1" name="static gain" parameterValue="1"/>
          </component>
          <component componentGuid="2bd4ea62-baea-45e5-b10e-c0c56b5b3ed1" componentID="Audition.Mute" id="clipMute" name="Mute" powered="true">
            <parameter index="0" parameterValue="0"/>
            <parameter index="1" name="mute" parameterValue="0"/>
          </component>
          <component componentGuid="3514e731-c5a0-4b90-a55e-b4ef2848ce53" componentID="Audition.StereoPanner" id="clipPan" name="StereoPanner" powered="true">
            <parameter index="0" name="Panorámica" parameterValue="0"/>
          </component>
          <fadeIn crossFadeLinkType="linkedAsymmetric" endPoint="72083" shape="-16" startPoint="0" type="log"/>
          <fadeOut crossFadeLinkType="linkedAsymmetric" endPoint="921961" shape="-16" startPoint="787407" type="log"/>
          <editParameter parameterIndex="0" slotIndex="4294967280"/>
          <editParameter parameterIndex="0" slotIndex="4294967281"/>
          <channelMap>
            <channel index="0" sourceIndex="0"/>
          </channelMap>
        </audioClip>
      </audioTrack>
      <masterTrack automationLaneOpenState="false" id="10000" index="9" select="false" visible="true">
        <trackParameters trackHeight="30" trackHue="-1" trackMinimized="false">
          <name>Maestro</name>
        </trackParameters>
        <trackAudioParameters audioChannelType="stereo" automationMode="1" monitoring="false" recordArmed="false" solo="false" soloSafe="true">
          <trackOutput outputID="1" type="hardwareOutput"/>
          <trackInput inputID="-1"/>
          <component componentGuid="0ce60ebc-fa15-4b91-b1bc-4d58f9f2480f" componentID="Audition.Fader" id="trackFader" name="volume" powered="true">
            <parameter index="0" name="volume" parameterValue="1"/>
            <parameter index="1" name="static gain" parameterValue="1"/>
          </component>
          <component componentGuid="78a31db6-b598-4c65-b48c-4fa2e88a25d4" componentID="Audition.Mute" id="trackMute" name="Mute" powered="true">
            <parameter index="0" parameterValue="0"/>
            <parameter index="1" name="mute" parameterValue="0"/>
          </component>
          <component componentGuid="67e79b1d-e031-49bb-92ea-92b48f0ee831" componentID="Audition.StereoPanner" id="trackPan" name="StereoPanner" powered="true">
            <parameter index="0" name="Panorámica" parameterValue="0"/>
          </component>
          <component componentGuid="9da8fe32-1cab-4644-a6b9-1a6588975163" componentID="Audition.EQ" id="trackEQ" name="EQ" powered="false">
            <parameter index="0" name="Frecuencia estante inferior" parameterValue="0.000834028352983295917510986328125"/>
            <parameter index="1" name="Ganancia estante inferior" parameterValue="0.5"/>
            <parameter index="2" name="Frecuencia estante superior" parameterValue="0.74979150295257568359375"/>
            <parameter index="3" name="Ganancia estante superior" parameterValue="0.5"/>
            <parameter index="4" name="Frecuencia central de banda de EC 1" parameterValue="0.00125104258768260478973388671875"/>
            <parameter index="5" name="Valor Q de banda de EC 1" parameterValue="0.000199989997781813144683837890625"/>
            <parameter index="6" name="Ganancia de banda de EC 1" parameterValue="0.5"/>
            <parameter index="7" name="Activación de banda de EC 1" parameterValue="1"/>
            <parameter index="8" name="Frecuencia central de banda de EC 2" parameterValue="0.0075062550604343414306640625"/>
            <parameter index="9" name="Valor Q de banda de EC 2" parameterValue="0.000199989997781813144683837890625"/>
            <parameter index="10" name="Ganancia de banda de EC 2" parameterValue="0.5"/>
            <parameter index="11" name="Activación de banda de EC 2" parameterValue="1"/>
            <parameter index="12" name="Frecuencia central de banda de EC 3" parameterValue="0.0325271077454090118408203125"/>
            <parameter index="13" name="Valor Q de banda de EC 3" parameterValue="0.000199989997781813144683837890625"/>
            <parameter index="14" name="Ganancia de banda de EC 3" parameterValue="0.5"/>
            <parameter index="15" name="Activación de banda de EC 3" parameterValue="1"/>
            <parameter index="16" name="Frecuencia central de banda de EC 4" parameterValue="0.13261051476001739501953125"/>
            <parameter index="17" name="Valor Q de banda de EC 4" parameterValue="0.000199989997781813144683837890625"/>
            <parameter index="18" name="Ganancia de banda de EC 4" parameterValue="0.5"/>
            <parameter index="19" name="Activación de banda de EC 4" parameterValue="1"/>
            <parameter index="20" name="Frecuencia central de banda de EC 5" parameterValue="0.532944142818450927734375"/>
            <parameter index="21" name="Valor Q de banda de EC 5" parameterValue="0.000199989997781813144683837890625"/>
            <parameter index="22" name="Ganancia de banda de EC 5" parameterValue="0.5"/>
            <parameter index="23" name="Activación de banda de EC 5" parameterValue="1"/>
            <parameter index="24" name="Ganancia maestra" parameterValue="0.666666686534881591796875"/>
            <parameter index="25" name="Constant Q" parameterValue="1"/>
            <parameter index="26" name="Orden de filtro de estante inferior" parameterValue="0"/>
            <parameter index="27" name="Orden de filtro de estante superior" parameterValue="0"/>
            <parameter index="28" name="Modo ultrasilencioso" parameterValue="0"/>
            <parameter index="29" name="Activar estante inferior" parameterValue="1"/>
            <parameter index="30" name="Activar estante superior" parameterValue="1"/>
            <parameter index="31" name="Velocidad de muestreo original" parameterValue="0.25"/>
            <parameter index="32" name="Ancho de banda de EC 1" parameterValue="0.002499990165233612060546875"/>
            <parameter index="33" name="Ancho de banda de EC 2" parameterValue="0.0099999904632568359375"/>
            <parameter index="34" name="Ancho de banda de EC 3" parameterValue="0.0399999916553497314453125"/>
            <parameter index="35" name="Ancho de banda de EC 4" parameterValue="0.15999998152256011962890625"/>
            <parameter index="36" name="Ancho de banda de EC 5" parameterValue="0.63999998569488525390625"/>
            <parameter index="37" name="Activación de filtro de pase alto" parameterValue="0"/>
            <parameter index="38" name="Frecuencia de límite de paso alto" parameterValue="0"/>
            <parameter index="39" name="Pendiente de paso alto" parameterValue="0.4000000059604644775390625"/>
            <parameter index="40" name="Activación de filtro de pase bajo" parameterValue="0"/>
            <parameter index="41" name="Frecuencia de límite de paso bajo" parameterValue="0.833194315433502197265625"/>
            <parameter index="42" name="Pendiente de paso bajo" parameterValue="0.4000000059604644775390625"/>
            <parameter index="43" name="Derivar" parameterValue="0"/>
            <parameter index="44" name="Rango de gráfico bajo" parameterValue="1"/>
          </component>
        </trackAudioParameters>
        <editParameter parameterIndex="0" slotIndex="4294967280"/>
      </masterTrack>
    </tracks>
    <sessionState ctiPosition="0" smpteStart="0">
      <selectionState selectionDuration="0" selectionStart="0"/>
      <viewState horizontalViewDuration="2650252" horizontalViewStart="1991609" trackControlsWidth="224" verticalScrollOffset="0"/>
      <timeFormatState beatsPerBar="4" beatsPerMinute="120" customFrameRate="12" linkToDefaultTimeSettings="false" noteLength="4" subdivisions="16" timeCodeDropFrame="false" timeCodeFrameRate="30" timeCodeNTSC="false" timeFormat="timeFormatDecimal"/>
      <mixingOptionState defaultPanModeLogarithmic="false" panPower="-3" playOverlappingClips="false"/>
    </sessionState>
    <xmpMetadata><![CDATA[<?xpacket begin="﻿" id="W5M0MpCehiHzreSzNTczkc9d"?>
<x:xmpmeta xmlns:x="adobe:ns:meta/" x:xmptk="Adobe XMP Core 5.6-c148 79.164036, 2019/08/13-01:06:57        ">
   <rdf:RDF xmlns:rdf="http://www.w3.org/1999/02/22-rdf-syntax-ns#">
      <rdf:Description rdf:about=""
            xmlns:xmp="http://ns.adobe.com/xap/1.0/"
            xmlns:xmpMM="http://ns.adobe.com/xap/1.0/mm/"
            xmlns:stEvt="http://ns.adobe.com/xap/1.0/sType/ResourceEvent#"
            xmlns:dc="http://purl.org/dc/elements/1.1/"
            xmlns:xmpDM="http://ns.adobe.com/xmp/1.0/DynamicMedia/">
         <xmp:CreatorTool>Adobe Audition 12.1 (Windows)</xmp:CreatorTool>
         <xmp:CreateDate>2020-11-16T14:37:54-05:00</xmp:CreateDate>
         <xmp:MetadataDate>2020-11-19T18:17:05-05:00</xmp:MetadataDate>
         <xmp:ModifyDate>2020-11-19T18:17:05-05:00</xmp:ModifyDate>
         <xmpMM:InstanceID>xmp.iid:bc0ac6da-5497-c747-8da3-98d460eefe02</xmpMM:InstanceID>
         <xmpMM:DocumentID>xmp.did:1969f3a7-21d1-7742-b72c-617c7c381234</xmpMM:DocumentID>
         <xmpMM:OriginalDocumentID>xmp.did:1969f3a7-21d1-7742-b72c-617c7c381234</xmpMM:OriginalDocumentID>
         <xmpMM:History>
            <rdf:Seq>
               <rdf:li rdf:parseType="Resource">
                  <stEvt:action>saved</stEvt:action>
                  <stEvt:instanceID>xmp.iid:1969f3a7-21d1-7742-b72c-617c7c381234</stEvt:instanceID>
                  <stEvt:when>2020-11-16T14:37:57-05:00</stEvt:when>
                  <stEvt:softwareAgent>Adobe Audition 12.1 (Windows)</stEvt:softwareAgent>
                  <stEvt:changed>/metadata</stEvt:changed>
               </rdf:li>
               <rdf:li rdf:parseType="Resource">
                  <stEvt:action>saved</stEvt:action>
                  <stEvt:instanceID>xmp.iid:bbd66217-f2b9-fd4f-8cf3-cbc7c93ac15f</stEvt:instanceID>
                  <stEvt:when>2020-11-16T16:57:54-05:00</stEvt:when>
                  <stEvt:softwareAgent>Adobe Audition 12.1 (Windows)</stEvt:softwareAgent>
                  <stEvt:changed>/metadata</stEvt:changed>
               </rdf:li>
               <rdf:li rdf:parseType="Resource">
                  <stEvt:action>saved</stEvt:action>
                  <stEvt:instanceID>xmp.iid:f1832ca2-2e1c-0f43-91ed-078cb54cd80d</stEvt:instanceID>
                  <stEvt:when>2020-11-16T16:57:54-05:00</stEvt:when>
                  <stEvt:softwareAgent>Adobe Audition 12.1 (Windows)</stEvt:softwareAgent>
                  <stEvt:changed>/</stEvt:changed>
               </rdf:li>
               <rdf:li rdf:parseType="Resource">
                  <stEvt:action>saved</stEvt:action>
                  <stEvt:instanceID>xmp.iid:5fe855ca-89d9-4e46-9b41-ed0ea5a2860b</stEvt:instanceID>
                  <stEvt:when>2020-11-16T16:59:10-05:00</stEvt:when>
                  <stEvt:softwareAgent>Adobe Audition 12.1 (Windows)</stEvt:softwareAgent>
                  <stEvt:changed>/metadata</stEvt:changed>
               </rdf:li>
               <rdf:li rdf:parseType="Resource">
                  <stEvt:action>saved</stEvt:action>
                  <stEvt:instanceID>xmp.iid:7ccb73ed-18f5-4b40-893a-2d21501445bf</stEvt:instanceID>
                  <stEvt:when>2020-11-16T16:59:10-05:00</stEvt:when>
                  <stEvt:softwareAgent>Adobe Audition 12.1 (Windows)</stEvt:softwareAgent>
                  <stEvt:changed>/</stEvt:changed>
               </rdf:li>
               <rdf:li rdf:parseType="Resource">
                  <stEvt:action>saved</stEvt:action>
                  <stEvt:instanceID>xmp.iid:a978264d-cd05-f34e-9a1f-9ac56520ccd4</stEvt:instanceID>
                  <stEvt:when>2020-11-16T17:01:48-05:00</stEvt:when>
                  <stEvt:softwareAgent>Adobe Audition 12.1 (Windows)</stEvt:softwareAgent>
                  <stEvt:changed>/metadata</stEvt:changed>
               </rdf:li>
               <rdf:li rdf:parseType="Resource">
                  <stEvt:action>saved</stEvt:action>
                  <stEvt:instanceID>xmp.iid:0aced1c0-7147-1a4b-9baf-834c9df7d592</stEvt:instanceID>
                  <stEvt:when>2020-11-16T17:01:48-05:00</stEvt:when>
                  <stEvt:softwareAgent>Adobe Audition 12.1 (Windows)</stEvt:softwareAgent>
                  <stEvt:changed>/</stEvt:changed>
               </rdf:li>
               <rdf:li rdf:parseType="Resource">
                  <stEvt:action>saved</stEvt:action>
                  <stEvt:instanceID>xmp.iid:067a1111-90ef-4d4a-9205-024b21171ae4</stEvt:instanceID>
                  <stEvt:when>2020-11-19T18:17:05-05:00</stEvt:when>
                  <stEvt:softwareAgent>Adobe Audition 13.0 (Windows)</stEvt:softwareAgent>
                  <stEvt:changed>/metadata</stEvt:changed>
               </rdf:li>
               <rdf:li rdf:parseType="Resource">
                  <stEvt:action>saved</stEvt:action>
                  <stEvt:instanceID>xmp.iid:bc0ac6da-5497-c747-8da3-98d460eefe02</stEvt:instanceID>
                  <stEvt:when>2020-11-19T18:17:05-05:00</stEvt:when>
                  <stEvt:softwareAgent>Adobe Audition 13.0 (Windows)</stEvt:softwareAgent>
                  <stEvt:changed>/</stEvt:changed>
               </rdf:li>
            </rdf:Seq>
         </xmpMM:History>
         <dc:format>application/xml</dc:format>
         <xmpDM:Tracks>
            <rdf:Bag>
               <rdf:li rdf:parseType="Resource">
                  <xmpDM:trackName>CuePoint Markers</xmpDM:trackName>
                  <xmpDM:trackType>Cue</xmpDM:trackType>
                  <xmpDM:frameRate>f48000</xmpDM:frameRate>
               </rdf:li>
               <rdf:li rdf:parseType="Resource">
                  <xmpDM:trackName>CD Track Markers</xmpDM:trackName>
                  <xmpDM:trackType>Track</xmpDM:trackType>
                  <xmpDM:frameRate>f48000</xmpDM:frameRate>
               </rdf:li>
               <rdf:li rdf:parseType="Resource">
                  <xmpDM:trackName>Subclip Markers</xmpDM:trackName>
                  <xmpDM:trackType>InOut</xmpDM:trackType>
                  <xmpDM:frameRate>f48000</xmpDM:frameRate>
               </rdf:li>
            </rdf:Bag>
         </xmpDM:Tracks>
      </rdf:Description>
   </rdf:RDF>
</x:xmpmeta>
                                                                                                    
                                                                                                    
                                                                                                    
                                                                                                    
                                                                                                    
                                                                                                    
                                                                                                    
                                                                                                    
                                                                                                    
                                                                                                    
                                                                                                    
                                                                                                    
                                                                                                    
                                                                                                    
                                                                                                    
                                                                                                    
                                                                                                    
                                                                                                    
                                                                                                    
                                                                                                    
                           
<?xpacket end="w"?>]]></xmpMetadata>
    <clipGroups/>
    <metronome enabled="false" pattern="downBeat subdivision subdivision subdivision " soundSet="sticks">
      <metronomeTrack automationLaneOpenState="false" id="40000" index="0" select="false" visible="false">
        <trackParameters trackHeight="77" trackHue="-1" trackMinimized="false">
          <name>Metrónomo</name>
        </trackParameters>
        <trackAudioParameters audioChannelType="mono" automationMode="1" monitoring="false" recordArmed="false" solo="false" soloSafe="true">
          <trackOutput outputID="10000" type="trackID"/>
          <trackInput inputID="-1"/>
          <component componentGuid="727ba2b8-04dd-4e1f-bd59-b3391cee50c0" componentID="Audition.Fader" id="trackFader" name="volume" powered="true">
            <parameter index="0" name="volume" parameterValue="0.50118720531463623046875"/>
            <parameter index="1" name="static gain" parameterValue="1"/>
          </component>
          <component componentGuid="4d759201-5fa9-48a9-a67a-9056f022d5fe" componentID="Audition.Mute" id="trackMute" name="Mute" powered="true">
            <parameter index="0" parameterValue="0"/>
            <parameter index="1" name="mute" parameterValue="0"/>
          </component>
          <component componentGuid="8b102bcf-3f36-4b98-9c63-212e2ee14c1e" componentID="Audition.StereoPanner" id="trackPan" name="StereoPanner" powered="true">
            <parameter index="0" name="Panorámica" parameterValue="0"/>
          </component>
          <component componentGuid="c09b8275-0ba0-4201-9f51-d6484388aaaa" componentID="Audition.EQ" id="trackEQ" name="EQ" powered="false">
            <parameter index="0" name="Frecuencia estante inferior" parameterValue="0.000834028352983295917510986328125"/>
            <parameter index="1" name="Ganancia estante inferior" parameterValue="0.5"/>
            <parameter index="2" name="Frecuencia estante superior" parameterValue="0.74979150295257568359375"/>
            <parameter index="3" name="Ganancia estante superior" parameterValue="0.5"/>
            <parameter index="4" name="Frecuencia central de banda de EC 1" parameterValue="0.00125104258768260478973388671875"/>
            <parameter index="5" name="Valor Q de banda de EC 1" parameterValue="0.000199989997781813144683837890625"/>
            <parameter index="6" name="Ganancia de banda de EC 1" parameterValue="0.5"/>
            <parameter index="7" name="Activación de banda de EC 1" parameterValue="1"/>
            <parameter index="8" name="Frecuencia central de banda de EC 2" parameterValue="0.0075062550604343414306640625"/>
            <parameter index="9" name="Valor Q de banda de EC 2" parameterValue="0.000199989997781813144683837890625"/>
            <parameter index="10" name="Ganancia de banda de EC 2" parameterValue="0.5"/>
            <parameter index="11" name="Activación de banda de EC 2" parameterValue="1"/>
            <parameter index="12" name="Frecuencia central de banda de EC 3" parameterValue="0.0325271077454090118408203125"/>
            <parameter index="13" name="Valor Q de banda de EC 3" parameterValue="0.000199989997781813144683837890625"/>
            <parameter index="14" name="Ganancia de banda de EC 3" parameterValue="0.5"/>
            <parameter index="15" name="Activación de banda de EC 3" parameterValue="1"/>
            <parameter index="16" name="Frecuencia central de banda de EC 4" parameterValue="0.13261051476001739501953125"/>
            <parameter index="17" name="Valor Q de banda de EC 4" parameterValue="0.000199989997781813144683837890625"/>
            <parameter index="18" name="Ganancia de banda de EC 4" parameterValue="0.5"/>
            <parameter index="19" name="Activación de banda de EC 4" parameterValue="1"/>
            <parameter index="20" name="Frecuencia central de banda de EC 5" parameterValue="0.532944142818450927734375"/>
            <parameter index="21" name="Valor Q de banda de EC 5" parameterValue="0.000199989997781813144683837890625"/>
            <parameter index="22" name="Ganancia de banda de EC 5" parameterValue="0.5"/>
            <parameter index="23" name="Activación de banda de EC 5" parameterValue="1"/>
            <parameter index="24" name="Ganancia maestra" parameterValue="0.666666686534881591796875"/>
            <parameter index="25" name="Constant Q" parameterValue="1"/>
            <parameter index="26" name="Orden de filtro de estante inferior" parameterValue="0"/>
            <parameter index="27" name="Orden de filtro de estante superior" parameterValue="0"/>
            <parameter index="28" name="Modo ultrasilencioso" parameterValue="0"/>
            <parameter index="29" name="Activar estante inferior" parameterValue="1"/>
            <parameter index="30" name="Activar estante superior" parameterValue="1"/>
            <parameter index="31" name="Velocidad de muestreo original" parameterValue="0.25"/>
            <parameter index="32" name="Ancho de banda de EC 1" parameterValue="0.002499990165233612060546875"/>
            <parameter index="33" name="Ancho de banda de EC 2" parameterValue="0.0099999904632568359375"/>
            <parameter index="34" name="Ancho de banda de EC 3" parameterValue="0.0399999916553497314453125"/>
            <parameter index="35" name="Ancho de banda de EC 4" parameterValue="0.15999998152256011962890625"/>
            <parameter index="36" name="Ancho de banda de EC 5" parameterValue="0.63999998569488525390625"/>
            <parameter index="37" name="Activación de filtro de pase alto" parameterValue="0"/>
            <parameter index="38" name="Frecuencia de límite de paso alto" parameterValue="0"/>
            <parameter index="39" name="Pendiente de paso alto" parameterValue="0.4000000059604644775390625"/>
            <parameter index="40" name="Activación de filtro de pase bajo" parameterValue="0"/>
            <parameter index="41" name="Frecuencia de límite de paso bajo" parameterValue="0.833194315433502197265625"/>
            <parameter index="42" name="Pendiente de paso bajo" parameterValue="0.4000000059604644775390625"/>
            <parameter index="43" name="Derivar" parameterValue="0"/>
            <parameter index="44" name="Rango de gráfico bajo" parameterValue="1"/>
          </component>
        </trackAudioParameters>
        <editParameter parameterIndex="0" slotIndex="4294967280"/>
      </metronomeTrack>
    </metronome>
    <properties>
      <property key="EssentialSoundConfigurations">[{"Guid":"a8b40e3e-13e7-4c1f-b382-96058f1f691d","Name":"$$$/app/Presets/DefaultPresetName=(Default)","PresetData":{"ModeID":"ambience","Models":{"model_ducking":{},"model_loudness":{"DefaultLoudness":{"type":"float","value":-30},"LoudnessStandard":{"type":"std::uint32_t","value":0},"MaxLoudness":{"type":"float","value":-12},"MinLoudness":{"type":"float","value":-42}},"model_soundeffects":{"ReverbPresets":{"type":"tree::any","value":{"$$$/app/Presets/EssentialSound/ReverbPreset/LargeRoomAmbience=Large Room Ambience":{"type":"array::float","value":[0.051507499068975449,0.32432401180267334,0.29292899370193481,0.30000001192092896,0.20000000298023224,0,0.14285700023174286,0.40000000596046448,0.5,0.69999998807907104,0.30000001192092896,0.25125628709793091,0.03125]},"$$$/app/Presets/EssentialSound/ReverbPreset/OutsideAmbience=Outside Ambience":{"type":"array::float","value":[0.091708503663539886,0.043893899768590927,1,0.5,0.20000000298023224,0.80000001192092896,0.18367299437522888,1,0.5,0,0.80000001192092896,0.25125628709793091,0.03125]},"$$$/app/Presets/EssentialSound/ReverbPreset/RoomAmbience=Room Ambience":{"type":"array::float","value":[0.057788901031017303,0.44944900274276733,0.49494898319244385,0.89999997615814209,0.10000000149011612,0.15000000596046448,0.081632703542709351,0.40000000596046448,0.5,0.80000001192092896,0.20000000298023224,0.25125628709793091,0.03125]},"$$$/app/Presets/EssentialSound/ReverbPreset/WindEffect=Wind Effect":{"type":"array::float","value":[0.19597999751567841,0.6896899938583374,0.69696998596191406,0.25,0.5,0.5,0.23469400405883789,0.51999998092651367,0.5,0.75,0.25,0.25125628709793091,0.03125]}}}},"model_stereowidth":{},"model_volume":{"MaxGain":{"type":"float","value":15},"MinGain":{"type":"float","value":-60}}}},"Type":"1c19ca71-c24c-49cd-8dd5-2cc46018507a","Version":1},{"Guid":"58dc27a8-6a2a-480c-bd0c-4b45fff346a6","Name":"$$$/app/Presets/DefaultPresetName=(Default)","PresetData":{"ModeID":"dialog","Models":{"model_clarity":{"EQPresets":{"type":"tree::any","value":{"$$$/app/Presets/EssentialSound/EQPreset/BackgroundVoice=Background Voice":{"type":"array::float","value":[0.12099699676036835,0.5,0.39240506291389465,0,0.5,0.5,0.5,0.5,0.5,0.47827938199043274,0.45772689580917358,0.45778733491897583,0.47946760058403015,0.5,0]},"$$$/app/Presets/EssentialSound/EQPreset/Intercom=Intercom":{"type":"array::float","value":[0.19432899355888367,0.5,1,0,0.071499988436698914,0.071499988436698914,0.071499988436698914,0.40238627791404724,0.48571401834487915,0.5,0.55155748128890991,0.59602576494216919,0.22246670722961426,0.071499988436698914,0]},"$$$/app/Presets/EssentialSound/EQPreset/LockedInTheTrunk=Locked in the Trunk":{"type":"array::float","value":[0.12099699676036835,0.5,0.79746836423873901,0,0.5,0.5,0.5,0.5,0.5,0.32846158742904663,0.15721426904201508,0.15721426904201508,0.15721426904201508,0.15721426904201508,0]},"$$$/app/Presets/EssentialSound/EQPreset/OldRadio=Old Radio":{"type":"array::float","value":[0.12099699676036835,0.5,0.79746836423873901,0,0.15721426904201508,0.15721426904201508,0.15721426904201508,0.28442040085792542,0.48315632343292236,0.36498492956161499,0.52853888273239136,0.43511500954627991,0.27154684066772461,0.15721426904201508,0]},"$$$/app/Presets/EssentialSound/EQPreset/OnTheTelephone=On the Telephone":{"type":"array::float","value":[0.12099699676036835,0.5,0.39240506291389465,0,0.32864287495613098,0.32864287495613098,0.32864287495613098,0.32864287495613098,0.48571401834487915,0.53071397542953491,0.53071397542953491,0.48357096314430237,0.32864287495613098,0.32864287495613098,0]},"$$$/app/Presets/EssentialSound/EQPreset/OutsideOfTheRoom=Outside of the Room":{"type":"array::float","value":[0.12099699676036835,0.5,0.79746836423873901,0,0.42539370059967041,0.47865453362464905,0.5,0.5,0.48571401834487915,0.40073278546333313,0.25656309723854065,0.15721426904201508,0.15721426904201508,0.15721426904201508,0]},"$$$/app/Presets/EssentialSound/EQPreset/PodcastVoice=Podcast Voice":{"type":"array::float","value":[0.12099699676036835,0.5,0.39240506291389465,0,0.5,0.5,0.5,0.51789408922195435,0.50770342350006104,0.5,0.51789408922195435,0.528114914894104,0.5102812647819519,0.5,0]},"$$$/app/Presets/EssentialSound/EQPreset/SubtleBoostFemale=Subtle Boost (Female)":{"type":"array::float","value":[0.096553400158882141,0.5,0.29113924503326416,0,0.5,0.5,0.5,0.5,0.5,0.51933407783508301,0.54642897844314575,0.52706766128540039,0.5,0.5,0]},"$$$/app/Presets/EssentialSound/EQPreset/SubtleBoostMale=Subtle Boost (Male)":{"type":"array::float","value":[0.096553400158882141,0.5,0.29113924503326416,0,0.5,0.5,0.5,0.5,0.5,0.5135338306427002,0.54642897844314575,0.51933407783508301,0.5,0.5,0]},"$$$/app/Presets/EssentialSound/EQPreset/ThatPublicRadioSound=That Public Radio Sound":{"type":"array::float","value":[0.12099699676036835,0.5,0.79746836423873901,0,0.15721426904201508,0.15721426904201508,0.15721426904201508,0.36334344744682312,0.49468311667442322,0.5,0.5,0.5,0.5,0.5,0]},"$$$/app/Presets/EssentialSound/EQPreset/VocalPresence=Vocal Presence":{"type":"array::float","value":[0.096553400158882141,0.5,0.32489451766014099,0,0.3572143018245697,0.3572143018245697,0.46428570151329041,0.47857141494750977,0.4763694703578949,0.49570354819297791,0.55924957990646362,0.56523394584655762,0.50859290361404419,0.46992480754852295,0]}}}},"model_loudness":{"DefaultLoudness":{"type":"float","value":-23},"LoudnessStandard":{"type":"std::uint32_t","value":0},"MaxLoudness":{"type":"float","value":-12},"MinLoudness":{"type":"float","value":-42}},"model_restoration":{"ReduceNoiseMaxSetting":{"type":"array::float","value":[1,0,0,0,0]},"ReduceNoiseMinSetting":{"type":"array::float","value":[0,0,0,0,0]},"ReduceReverbMaxSetting":{"type":"array::float","value":[1,0,1,0,0]},"ReduceReverbMinSetting":{"type":"array::float","value":[0,0,1,0,0]},"ReduceRumbleMaxSetting":{"type":"array::float","value":[1,0.084112152457237244,0.375,0,0,0.00083333335351198912,1,0,1,0.0390625,0.00083408987848088145,0,0.0041666668839752674,0.00022554649331141263,0.0046875001862645149,0.75,0.0052083334885537624,0.75,1,0.75,0.0040520834736526012,0.75,0.0042629167437553406,0.00022554649331141263,0.0064883334562182426,0.00022554649331141263,0.006866666954010725,0.75,0.0071704164147377014,0.00022554649331141263,0.01041458360850811,0.00022554649331141263,0.010900000110268593,0.75,0.011407917365431786,0.00022554649331141263,0.015606249682605267,0.00022554649331141263,0.016333334147930145,0.75,0.017094582319259644,0.00022554649331141263,0.026243748143315315,0.00022554649331141263,0.0274666678160429,0.75,0.028746666386723518,0.00022554649331141263,0.041658751666545868,0.00022554649331141263,0.043600000441074371,0.75,0.045631669461727142,0.00022554649331141263,0.062424581497907639,0.00022554649331141263,0.065333336591720581,0.75,0.068377502262592316,0.00022554649331141263,0.10497540980577469,0.00022554649331141263,0.1098666712641716,0.75,0.11498583108186722,0.00022554649331141263,0.16663584113121033,0.00022554649331141263,0.17440000176429749,0.75,0.18252624571323395,0.00022554649331141263,0.91874998807907104,0.00022554649331141263,1,0.00022554649331141263,0,0,0,0,0,0,0,0,0,0,0,0,0,0,0,0,0,0,0,0,0,0,0,0,0,0,0,0,0,0,0,0,0,0,0,0,0,0,0,0,0,0,0,0,0,0,0,0,0,0,0,0,0,0,0,0,0,0,0,0,0,0,0,0,0,0,0,0,0,0,0,0,0,0,0,0,0,0,0,0,0,0,0,0,0,0,0,0,0,0,0,0,0,0,0,0,0,0,0,0,0,0,0,0,0,0,0,0,0,0,0,0,0,0,0,0,0,0,0,0,0,0,0,0,0,0,0,0,0,0,0,0,0,0,0,0,0,0,0,0,0,0,0,0,0,0,0,0,0,0,0,0,0,0,0,0,0,0,0,0,0,0,0,0,0,0,0,0,0,0,0,0,0,0,0,0,0,0,0,0,0,0,0,0,0,0,0,0,0,0]},"ReduceRumbleMinSetting":{"type":"array::float","value":[1,0.084112152457237244,0.375,0,0,0.00083333335351198912,1,0,1,0.0390625,0.00083408987848088145,0.75,0.0041666668839752674,0.75,0.0046875001862645149,0.75,0.0052083334885537624,0.75,1,0.75,0.91874998807907104,0.61237245798110962,1,0.61237245798110962,0,0,0,0,0,0,0,0,0,0,0,0,0,0,0,0,0,0,0,0,0,0,0,0,0,0,0,0,0,0,0,0,0,0,0,0,0,0,0,0,0,0,0,0,0,0,0,0,0,0,0,0,0,0,0,0,0,0,0,0,0,0,0,0,0,0,0,0,0,0,0,0,0,0,0,0,0,0,0,0,0,0,0,0,0,0,0,0,0,0,0,0,0,0,0,0,0,0,0,0,0,0,0,0,0,0,0,0,0,0,0,0,0,0,0,0,0,0,0,0,0,0,0,0,0,0,0,0,0,0,0,0,0,0,0,0,0,0,0,0,0,0,0,0,0,0,0,0,0,0,0,0,0,0,0,0,0,0,0,0,0,0,0,0,0,0,0,0,0,0,0,0,0,0,0,0,0,0,0,0,0,0,0,0,0,0,0,0,0,0,0,0,0,0,0,0,0,0,0,0,0,0,0,0,0,0,0,0,0,0,0,0,0,0,0,0,0,0,0,0,0,0,0,0,0,0,0,0,0,0,0,0,0,0,0,0,0,0,0,0,0,0]},"ReduceSibilanceMaxSetting":{"type":"array::float","value":[0.5,0.19983997941017151,0.18367347121238708,0.26086956262588501,0.52702701091766357,0,1,0,0,0,0,0.75,1,1,0.40000000596046448]},"ReduceSibilanceMinSetting":{"type":"array::float","value":[0.875,0.19983997941017151,0.18367347121238708,0.19130434095859528,0.25675675272941589,0,1,0,0,0,0,0.75,1,1,0.40000000596046448]}},"model_soundeffects":{"ReverbPresets":{"type":"tree::any","value":{"$$$/app/Presets/EssentialSound/ReverbPreset/Auditorium=Auditorium":{"type":"array::float","value":[0.013047545216977596,0.15895412862300873,1,0.89999997615814209,0,0.52007436752319336,0.41663265228271484,0.46000000834465027,0.5,0.73000001907348633,0.15999999642372131,0.75376886129379272,0.03125]},"$$$/app/Presets/EssentialSound/ReverbPreset/Church=Church":{"type":"array::float","value":[0.032663315534591675,0.39939939975738525,0.79797977209091187,0.25,0.5,0.5,0.2297959178686142,0.72000002861022949,0.5,0.62999999523162842,0.87999999523162842,0.25125628709793091,0.03125]},"$$$/app/Presets/EssentialSound/ReverbPreset/LargeReflectiveRoom=Large Reflective Room":{"type":"array::float","value":[0.0074449013918638229,0.098988421261310577,0.79890537261962891,0.89999997615814209,0.10000000149011612,0.40110713243484497,0.060284845530986786,0.27522978186607361,0.5,0.73000001907348633,0.31999999284744263,0.25125628709793091,0.03125]},"$$$/app/Presets/EssentialSound/ReverbPreset/OutsideTheClub=Outside the Club":{"type":"array::float","value":[0.020615793764591217,0.050136558711528778,0.69696998596191406,0.25,0.094355784356594086,0.22242647409439087,0.1071428582072258,0.2800000011920929,0.5,0.73000001907348633,0.46000000834465027,0.25125628709793091,0.03125]},"$$$/app/Presets/EssentialSound/ReverbPreset/SmallDryRoom=Small Dry Room":{"type":"array::float","value":[0.24623115360736847,0.69975000619888306,0.29292899370193481,0.40000000596046448,0.20000000298023224,0.40000000596046448,0.039285715669393539,0.10000000149011612,0.5,1,0.5,0.75376886129379272,0.03125]},"$$$/app/Presets/EssentialSound/ReverbPreset/ThickenVoice=Thicken Voice":{"type":"array::float","value":[0.19597999751567841,0.23931467533111572,0.69696998596191406,0.25,0.5,0.53999996185302734,0.020408162847161293,0.20945435762405396,0.5,1,0.34999999403953552,0.25125628709793091,0.03125]},"$$$/app/Presets/EssentialSound/ReverbPreset/WarmRoom=Warm Room":{"type":"array::float","value":[0.020100502297282219,0.074074074625968933,0.49494948983192444,0.40000000596046448,0.74960309267044067,0.40000000596046448,0.1239795908331871,0.67000001668930054,0.5,0.85000002384185791,0.56000000238418579,0.25125628709793091,0.03125]},"$$$/app/Presets/EssentialSound/ReverbPreset/WarmVoice=Warm Voice":{"type":"array::float","value":[0.19597989320755005,0.89989989995956421,0,0.40000000596046448,0.20000000298023224,0.40000000596046448,0.10204081982374191,0.090000003576278687,0.5,1,0.30000001192092896,0.25125628709793091,0.03125]}}}},"model_volume":{"MaxGain":{"type":"float","value":15},"MinGain":{"type":"float","value":-60}}}},"Type":"1c19ca71-c24c-49cd-8dd5-2cc46018507a","Version":1},{"Guid":"353811fa-4179-435e-8e5e-23028ba15a7a","Name":"$$$/app/Presets/DefaultPresetName=(Default)","PresetData":{"ModeID":"generic","Models":{"model_loudness":{"DefaultLoudness":{"type":"float","value":-24},"LoudnessStandard":{"type":"std::uint32_t","value":0},"MaxLoudness":{"type":"float","value":-12},"MinLoudness":{"type":"float","value":-42}},"model_volume":{"MaxGain":{"type":"float","value":15},"MinGain":{"type":"float","value":-60}}}},"Type":"1c19ca71-c24c-49cd-8dd5-2cc46018507a","Version":1},{"Guid":"31ba96a6-5d3e-4d89-b1e1-1dbe3c055d0c","Name":"$$$/app/Presets/DefaultPresetName=(Default)","PresetData":{"ModeID":"music","Models":{"model_ducking":{},"model_duration":{},"model_loudness":{"DefaultLoudness":{"type":"float","value":-25},"LoudnessStandard":{"type":"std::uint32_t","value":0},"MaxLoudness":{"type":"float","value":-12},"MinLoudness":{"type":"float","value":-42}},"model_volume":{"MaxGain":{"type":"float","value":15},"MinGain":{"type":"float","value":-60}}}},"Type":"1c19ca71-c24c-49cd-8dd5-2cc46018507a","Version":1},{"Guid":"cea63332-1adc-44a9-a6eb-5490f965859b","Name":"$$$/app/Presets/DefaultPresetName=(Default)","PresetData":{"ModeID":"sfx","Models":{"model_loudness":{"DefaultLoudness":{"type":"float","value":-21},"LoudnessStandard":{"type":"std::uint32_t","value":0},"MaxLoudness":{"type":"float","value":-12},"MinLoudness":{"type":"float","value":-42}},"model_pan":{},"model_soundeffects":{"ReverbPresets":{"type":"tree::any","value":{"$$$/app/Presets/EssentialSound/ReverbPreset/HeavyReverb=Heavy Reverb":{"type":"array::float","value":[0.13316600024700165,0.29929900169372559,1,0.95999997854232788,0.85000002384185791,0.5,0.51530599594116211,0.30000001192092896,0.5,0.5,0.5,0.25125628709793091,0.0625]},"$$$/app/Presets/EssentialSound/ReverbPreset/LightReverb=Light Reverb":{"type":"array::float","value":[0.095477402210235596,0.29929900169372559,0.090909101068973541,1,1,0.80000001192092896,0.22449000179767609,0.60000002384185791,0.5,0.69999998807907104,0.30000001192092896,0.25125628709793091,0.0625]},"$$$/app/Presets/EssentialSound/ReverbPreset/OutsideReverb=Outside Reverb":{"type":"array::float","value":[0.091708503663539886,0.043893899768590927,1,0.5,0.20000000298023224,0.80000001192092896,0.18367299437522888,1,0.5,0,0.80000001192092896,0.25125628709793091,0.0625]},"$$$/app/Presets/EssentialSound/ReverbPreset/RoomReverb=Room Reverb":{"type":"array::float","value":[0.057788901031017303,0.44944900274276733,0.49494898319244385,0.89999997615814209,0.10000000149011612,0.15000000596046448,0.081632703542709351,0.40000000596046448,0.5,0.80000001192092896,0.20000000298023224,0.25125628709793091,0.0625]}}}},"model_volume":{"MaxGain":{"type":"float","value":15},"MinGain":{"type":"float","value":-60}}}},"Type":"1c19ca71-c24c-49cd-8dd5-2cc46018507a","Version":1}]</property>
    </properties>
  </session>

  <files>
    <file absolutePath="E:\JAVERIANA\IX\PROD. SONORA\Documental\Documental-Sonido\Conformed Files\cuento 48000 1.wav" id="0" importerPrivateSettings="Compression:0:0;LargeFileSupport:0:0;SampleType:0:1;" mediaHandler="AmioWav" relativePath="Conformed Files/cuento 48000 1.wav"/>
    <file absolutePath="E:\JAVERIANA\IX\PROD. SONORA\Documental\Documental-Sonido\Conformed Files\mujer tarareando 48000 2.wav" id="1" importerPrivateSettings="Compression:0:0;LargeFileSupport:0:0;SampleType:0:40;" mediaHandler="AmioWav" relativePath="Conformed Files/mujer tarareando 48000 2.wav"/>
    <file absolutePath="E:\JAVERIANA\IX\PROD. SONORA\Documental\Documental-Sonido\Conformed Files\campanas de boda 48000 1.wav" id="2" importerPrivateSettings="Compression:0:0;LargeFileSupport:0:0;SampleType:0:1;" mediaHandler="AmioWav" relativePath="Conformed Files/campanas de boda 48000 1.wav"/>
    <file absolutePath="E:\JAVERIANA\IX\PROD. SONORA\Documental\Documental-Sonido\Conformed Files\bebe riendo 48000 1.wav" id="3" importerPrivateSettings="Compression:0:0;LargeFileSupport:0:0;SampleType:0:1;" mediaHandler="AmioWav" relativePath="Conformed Files/bebe riendo 48000 1.wav"/>
    <file absolutePath="E:\JAVERIANA\IX\PROD. SONORA\Documental\Documental-Sonido\Conformed Files\botella chocando 48000 1.wav" id="4" importerPrivateSettings="Compression:0:0;LargeFileSupport:0:0;SampleType:0:1;" mediaHandler="AmioWav" relativePath="Conformed Files/botella chocando 48000 1.wav"/>
    <file absolutePath="E:\JAVERIANA\IX\PROD. SONORA\Documental\Documental-Sonido\Conformed Files\buho 48000 1.wav" id="5" importerPrivateSettings="Compression:0:0;LargeFileSupport:0:0;SampleType:0:1;" mediaHandler="AmioWav" relativePath="Conformed Files/buho 48000 1.wav"/>
    <file absolutePath="E:\JAVERIANA\IX\PROD. SONORA\Documental\Documental-Sonido\Conformed Files\carruaje 48000 1.wav" id="6" importerPrivateSettings="Compression:0:0;LargeFileSupport:0:0;SampleType:0:1;" mediaHandler="AmioWav" relativePath="Conformed Files/carruaje 48000 1.wav"/>
    <file absolutePath="E:\JAVERIANA\IX\PROD. SONORA\Documental\Documental-Sonido\Conformed Files\lamentomujer 48000 1.wav" id="7" importerPrivateSettings="Compression:0:0;LargeFileSupport:0:0;SampleType:0:1;" mediaHandler="AmioWav" relativePath="Conformed Files/lamentomujer 48000 1.wav"/>
    <file absolutePath="E:\JAVERIANA\IX\PROD. SONORA\Documental\Documental-Sonido\Conformed Files\bebé llorando 48000 1.wav" id="8" importerPrivateSettings="Compression:0:0;LargeFileSupport:0:0;SampleType:0:40;" mediaHandler="AmioWav" relativePath="Conformed Files/bebé llorando 48000 1.wav"/>
    <file absolutePath="E:\JAVERIANA\IX\PROD. SONORA\Documental\Documental-Sonido\Conformed Files\ahogamiento 48000 1.wav" id="9" importerPrivateSettings="Compression:0:0;LargeFileSupport:0:0;SampleType:0:1;" mediaHandler="AmioWav" relativePath="Conformed Files/ahogamiento 48000 1.wav"/>
    <file absolutePath="E:\JAVERIANA\IX\PROD. SONORA\Documental\Documental-Sonido\Conformed Files\clavadoenelagua 48000 1.wav" id="10" importerPrivateSettings="Compression:0:0;LargeFileSupport:0:0;SampleType:0:1;" mediaHandler="AmioWav" relativePath="Conformed Files/clavadoenelagua 48000 1.wav"/>
    <file absolutePath="E:\JAVERIANA\IX\PROD. SONORA\Documental\Documental-Sonido\Conformed Files\suspenso.2 48000 1.wav" id="11" importerPrivateSettings="Compression:0:0;LargeFileSupport:0:0;SampleType:0:1;" mediaHandler="AmioWav" relativePath="Conformed Files/suspenso.2 48000 1.wav"/>
    <file absolutePath="E:\JAVERIANA\IX\PROD. SONORA\Documental\Documental-Sonido\Conformed Files\pasos mujer 48000 1.wav" id="12" importerPrivateSettings="Compression:0:0;LargeFileSupport:0:0;SampleType:0:1;" mediaHandler="AmioWav" relativePath="Conformed Files/pasos mujer 48000 1.wav"/>
    <file absolutePath="E:\JAVERIANA\IX\PROD. SONORA\Documental\Documental-Sonido\Conformed Files\canciondecuna 48000 1.wav" id="13" importerPrivateSettings="Compression:0:0;LargeFileSupport:0:0;SampleType:0:1;" mediaHandler="AmioWav" relativePath="Conformed Files/canciondecuna 48000 1.wav"/>
    <file absolutePath="E:\JAVERIANA\IX\PROD. SONORA\Documental\Documental-Sonido\Conformed Files\ranas 48000 1.wav" id="14" importerPrivateSettings="Compression:0:0;LargeFileSupport:0:0;SampleType:0:1;" mediaHandler="AmioWav" relativePath="Conformed Files/ranas 48000 1.wav"/>
    <file absolutePath="E:\JAVERIANA\IX\PROD. SONORA\Documental\Documental-Sonido\Conformed Files\corrienterio 48000 1.wav" id="15" importerPrivateSettings="Compression:0:0;LargeFileSupport:0:0;SampleType:0:1;" mediaHandler="AmioWav" relativePath="Conformed Files/corrienterio 48000 1.wav"/>
    <file absolutePath="E:\JAVERIANA\IX\PROD. SONORA\Documental\Documental-Sonido\Conformed Files\WhatsApp Audio 2020-11-16 at 1.47.10 PM 48000 1.wav" id="16" importerPrivateSettings="Compression:0:0;LargeFileSupport:0:0;SampleType:0:1;" mediaHandler="AmioWav" relativePath="Conformed Files/WhatsApp Audio 2020-11-16 at 1.47.10 PM 48000 1.wav"/>
    <file absolutePath="E:\JAVERIANA\IX\PROD. SONORA\Documental\Documental-Sonido\Conformed Files\arbustos 48000 1.wav" id="17" importerPrivateSettings="Compression:0:0;LargeFileSupport:0:0;SampleType:0:1;" mediaHandler="AmioWav" relativePath="Conformed Files/arbustos 48000 1.wav"/>
    <file absolutePath="E:\JAVERIANA\IX\PROD. SONORA\Documental\Documental-Sonido\Conformed Files\llantomujer 48000 1.wav" id="18" importerPrivateSettings="Compression:0:0;LargeFileSupport:0:0;SampleType:0:1;" mediaHandler="AmioWav" relativePath="Conformed Files/llantomujer 48000 1.wav"/>
    <file absolutePath="E:\JAVERIANA\IX\PROD. SONORA\Documental\Documental-Sonido\Conformed Files\sonido-ambiente-de-bar 48000 1.wav" id="19" mediaHandler="AmioWav" relativePath="Conformed Files/sonido-ambiente-de-bar 48000 1.wav"/>
  </files>

  <audioDevice inputID="2C175D18-0564-48E3-A2D3-D48F630A7FC3" outputID="4E022C53-6C03-436F-95F8-BFF978CD60B4">
    <inputPort id="1" name="Entrada estéreo predeterminada"/>
    <outputPort id="1" name="Salida predeterminada"/>
    <outputPort id="2" name="[01M] Altavoces (High Definition Audio Device) 1"/>
    <outputPort id="3" name="[02M] Altavoces (High Definition Audio Device) 2"/>
    <outputPort id="4" name="Salida estéreo predeterminada"/>
    <outputPort id="5" name="[01S] Altavoces (High Definition Audio Device) 1"/>
    <outputPort id="6" name="Salida envolvente predeterminada"/>
  </audioDevice>

</sesx>
