<?xml version="1.0" encoding="UTF-8" standalone="no" ?>
<!DOCTYPE sesx>
<sesx version="1.7">

  <session appBuild="12.1.3.10" appVersion="12.1" audioChannelType="stereo" bitDepth="24" duration="86596991" sampleRate="48000">
    <tracks>
      <audioTrack automationLaneOpenState="false" id="10005" index="1" select="true" visible="true">
        <trackParameters trackHeight="93" trackHue="326" trackMinimized="false">
          <name>historia</name>
        </trackParameters>
        <trackAudioParameters audioChannelType="stereo" automationMode="1" monitoring="false" recordArmed="false" solo="false" soloSafe="false">
          <trackOutput outputID="10000" type="trackID"/>
          <trackInput inputID="1"/>
          <component componentGuid="1dc4677f-0405-4aec-a1fd-ab62df10a6df" componentID="Audition.Fader" id="trackFader" name="volume" powered="true">
            <parameter index="0" name="volume" parameterValue="1"/>
            <parameter index="1" name="static gain" parameterValue="1"/>
          </component>
          <component componentGuid="5c06238a-1915-4ae4-b6ae-5825c3cca601" componentID="Audition.Mute" id="trackMute" name="Mute" powered="true">
            <parameter index="0" parameterValue="0"/>
            <parameter index="1" name="mute" parameterValue="0"/>
          </component>
          <component componentGuid="e42b265e-26e8-490b-83a0-6dde786332b2" componentID="Audition.StereoPanner" id="trackPan" name="StereoPanner" powered="true">
            <parameter index="0" name="Panorámica" parameterValue="0"/>
          </component>
          <component componentGuid="d022797c-183f-4665-8161-9850d7bb79d5" componentID="Audition.EQ" id="trackEQ" name="EQ" powered="false">
            <parameter index="0" name="Frecuencia estante inferior" parameterValue="0.000834028352983295917510986328125"/>
            <parameter index="1" name="Ganancia estante inferior" parameterValue="0.5"/>
            <parameter index="2" name="Frecuencia estante superior" parameterValue="0.74979150295257568359375"/>
            <parameter index="3" name="Ganancia estante superior" parameterValue="0.5"/>
            <parameter index="4" name="Frecuencia central de banda de EC 1" parameterValue="0.00125104258768260478973388671875"/>
            <parameter index="5" name="Valor Q de banda de EC 1" parameterValue="0.000199989997781813144683837890625"/>
            <parameter index="6" name="Ganancia de banda de EC 1" parameterValue="0.5"/>
            <parameter index="7" name="Activación de banda de EC 1" parameterValue="1"/>
            <parameter index="8" name="Frecuencia central de banda de EC 2" parameterValue="0.0075062550604343414306640625"/>
            <parameter index="9" name="Valor Q de banda de EC 2" parameterValue="0.000199989997781813144683837890625"/>
            <parameter index="10" name="Ganancia de banda de EC 2" parameterValue="0.5"/>
            <parameter index="11" name="Activación de banda de EC 2" parameterValue="1"/>
            <parameter index="12" name="Frecuencia central de banda de EC 3" parameterValue="0.0325271077454090118408203125"/>
            <parameter index="13" name="Valor Q de banda de EC 3" parameterValue="0.000199989997781813144683837890625"/>
            <parameter index="14" name="Ganancia de banda de EC 3" parameterValue="0.5"/>
            <parameter index="15" name="Activación de banda de EC 3" parameterValue="1"/>
            <parameter index="16" name="Frecuencia central de banda de EC 4" parameterValue="0.13261051476001739501953125"/>
            <parameter index="17" name="Valor Q de banda de EC 4" parameterValue="0.000199989997781813144683837890625"/>
            <parameter index="18" name="Ganancia de banda de EC 4" parameterValue="0.5"/>
            <parameter index="19" name="Activación de banda de EC 4" parameterValue="1"/>
            <parameter index="20" name="Frecuencia central de banda de EC 5" parameterValue="0.532944142818450927734375"/>
            <parameter index="21" name="Valor Q de banda de EC 5" parameterValue="0.000199989997781813144683837890625"/>
            <parameter index="22" name="Ganancia de banda de EC 5" parameterValue="0.5"/>
            <parameter index="23" name="Activación de banda de EC 5" parameterValue="1"/>
            <parameter index="24" name="Ganancia maestra" parameterValue="0.666666686534881591796875"/>
            <parameter index="25" name="Constant Q" parameterValue="1"/>
            <parameter index="26" name="Orden de filtro de estante inferior" parameterValue="0"/>
            <parameter index="27" name="Orden de filtro de estante superior" parameterValue="0"/>
            <parameter index="28" name="Modo ultrasilencioso" parameterValue="0"/>
            <parameter index="29" name="Activar estante inferior" parameterValue="1"/>
            <parameter index="30" name="Activar estante superior" parameterValue="1"/>
            <parameter index="31" name="Velocidad de muestreo original" parameterValue="0.25"/>
            <parameter index="32" name="Ancho de banda de EC 1" parameterValue="0.002499990165233612060546875"/>
            <parameter index="33" name="Ancho de banda de EC 2" parameterValue="0.0099999904632568359375"/>
            <parameter index="34" name="Ancho de banda de EC 3" parameterValue="0.0399999916553497314453125"/>
            <parameter index="35" name="Ancho de banda de EC 4" parameterValue="0.15999998152256011962890625"/>
            <parameter index="36" name="Ancho de banda de EC 5" parameterValue="0.63999998569488525390625"/>
            <parameter index="37" name="Activación de filtro de pase alto" parameterValue="0"/>
            <parameter index="38" name="Frecuencia de límite de paso alto" parameterValue="0"/>
            <parameter index="39" name="Pendiente de paso alto" parameterValue="0.4000000059604644775390625"/>
            <parameter index="40" name="Activación de filtro de pase bajo" parameterValue="0"/>
            <parameter index="41" name="Frecuencia de límite de paso bajo" parameterValue="0.833194315433502197265625"/>
            <parameter index="42" name="Pendiente de paso bajo" parameterValue="0.4000000059604644775390625"/>
            <parameter index="43" name="Derivar" parameterValue="0"/>
            <parameter index="44" name="Rango de gráfico bajo" parameterValue="1"/>
          </component>
        </trackAudioParameters>
        <effectsRack preFader="true">
          <component componentGuid="4c1b5a7c-25aa-462b-8f00-2ced3ac77d6c" componentID="Audition.ComponentGroup" id="rackMix" powered="true">
            <parameter index="0" parameterValue="0"/>
            <parameter index="1" parameterValue="0"/>
          </component>
          <component componentGuid="f26a0b30-bb40-4ea3-a68b-dfc0f3b6a582" id="rackInput" powered="true">
            <parameter index="0" parameterValue="1"/>
            <parameter index="1" parameterValue="0"/>
          </component>
          <component componentGuid="603752d8-79fc-41ff-958d-6940ec313a26" id="rackOutput" powered="true">
            <parameter index="0" parameterValue="1"/>
            <parameter index="1" parameterValue="0"/>
          </component>
          <slot powered="true" slotIndex="0">
            <component componentGuid="7b05816e-0846-4217-ad89-caca57def76f" componentID="c6762838-e451-4d22-9c90-b0eaa734605a" editorHeight="454" editorLeft="647" editorTop="293" editorWidth="627" name="Eliminar ruido">
              <busConfig><![CDATA[{"in":[{"layout":[100,101],"name":"Entrada de estéreo","type":0}],"out":[{"layout":[100,101],"name":"Salida de estéreo","type":0}]}]]></busConfig>
              <channelMap direction="input">
                <channel index="0" sourceIndex="0"/>
                <channel index="1" sourceIndex="1"/>
              </channelMap>
              <channelMap direction="output">
                <channel index="0" sourceIndex="0"/>
                <channel index="1" sourceIndex="1"/>
              </channelMap>
              <parameter index="0" name="Cantidad" parameterValue="0.20000000298023223876953125"/>
              <parameter index="1" name="Ganancia de nivel" parameterValue="0"/>
              <parameter index="2" name="Ganancia automática" parameterValue="0"/>
              <parameter index="3" name="Tipo de estante" parameterValue="0"/>
              <parameter index="4" name="Señal de diferencia de salida" parameterValue="0"/>
            </component>
          </slot>
        </effectsRack>
        <editParameter parameterIndex="0" slotIndex="4294967280"/>
        <audioClip clipAutoCrossfade="true" crossFadeHeadClipID="-1" crossFadeTailClipID="-1" endPoint="331605" fileID="0" hue="-1" id="0" lockedInTime="false" looped="false" name="cuento 48000 1" offline="false" select="false" sourceInPoint="69193" sourceOutPoint="400798" startPoint="0" zOrder="0">
          <component componentGuid="7391d650-2447-426b-b3cc-38da203be4d8" componentID="Audition.Fader" id="clipGain" name="volume" powered="true">
            <parameter index="0" name="volume" parameterValue="1"/>
            <parameter index="1" name="static gain" parameterValue="1"/>
          </component>
          <component componentGuid="9b7f7e55-6fbd-4e72-8ef8-8a285db0ea4a" componentID="Audition.Mute" id="clipMute" name="Mute" powered="true">
            <parameter index="0" parameterValue="0"/>
            <parameter index="1" name="mute" parameterValue="0"/>
          </component>
          <component componentGuid="277bc014-53a3-4c6e-a552-9bed888792e5" componentID="Audition.StereoPanner" id="clipPan" name="StereoPanner" powered="true">
            <parameter index="0" name="Panorámica" parameterValue="0">
              <parameterKeyframes enableSplines="false" readOnly="false">
                <parameterKeyframe sampleOffset="3052330" select="false" type="linear" value="0.5"/>
              </parameterKeyframes>
            </parameter>
          </component>
          <fadeIn crossFadeLinkType="linkedAsymmetric" endPoint="0" shape="0" startPoint="0" type="cosine"/>
          <fadeOut crossFadeLinkType="linkedAsymmetric" endPoint="331605" shape="0" startPoint="331605" type="cosine"/>
          <editParameter parameterIndex="0" slotIndex="4294967280"/>
          <editParameter parameterIndex="0" slotIndex="4294967281"/>
          <channelMap>
            <channel index="0" sourceIndex="0"/>
          </channelMap>
        </audioClip>
        <audioClip clipAutoCrossfade="true" crossFadeHeadClipID="-1" crossFadeTailClipID="-1" endPoint="1710230" fileID="0" hue="-1" id="1" lockedInTime="false" looped="false" name="cuento 48000 1" offline="false" select="false" sourceInPoint="400798" sourceOutPoint="1700772" startPoint="410256" zOrder="1">
          <component componentGuid="8ef66914-c0b0-404c-bd4b-67bd4342c1e6" componentID="Audition.Fader" id="clipGain" name="volume" powered="true">
            <parameter index="0" name="volume" parameterValue="1"/>
            <parameter index="1" name="static gain" parameterValue="1"/>
          </component>
          <component componentGuid="1f64a33c-411d-4160-b062-58777d693f19" componentID="Audition.Mute" id="clipMute" name="Mute" powered="true">
            <parameter index="0" parameterValue="0"/>
            <parameter index="1" name="mute" parameterValue="0"/>
          </component>
          <component componentGuid="4fff0b85-6c38-4ac2-a469-a1fcf0ac4be7" componentID="Audition.StereoPanner" id="clipPan" name="StereoPanner" powered="true">
            <parameter index="0" name="Panorámica" parameterValue="0">
              <parameterKeyframes enableSplines="false" readOnly="false">
                <parameterKeyframe sampleOffset="3052330" select="false" type="linear" value="0.5"/>
              </parameterKeyframes>
            </parameter>
          </component>
          <fadeIn crossFadeLinkType="linkedAsymmetric" endPoint="0" shape="0" startPoint="0" type="cosine"/>
          <fadeOut crossFadeLinkType="linkedAsymmetric" endPoint="1299974" shape="0" startPoint="1299974" type="cosine"/>
          <editParameter parameterIndex="0" slotIndex="4294967280"/>
          <editParameter parameterIndex="0" slotIndex="4294967281"/>
          <channelMap>
            <channel index="0" sourceIndex="0"/>
          </channelMap>
        </audioClip>
        <audioClip clipAutoCrossfade="true" crossFadeHeadClipID="-1" crossFadeTailClipID="-1" endPoint="2155102" fileID="0" hue="-1" id="2" lockedInTime="false" looped="false" name="cuento 48000 1" offline="false" select="false" sourceInPoint="1700772" sourceOutPoint="1955526" startPoint="1900348" zOrder="2">
          <component componentGuid="3e817cae-1d7a-4761-851a-822504a6d696" componentID="Audition.Fader" id="clipGain" name="volume" powered="true">
            <parameter index="0" name="volume" parameterValue="1"/>
            <parameter index="1" name="static gain" parameterValue="1"/>
          </component>
          <component componentGuid="10e9fb85-b08f-4493-a56b-f9ed231013e0" componentID="Audition.Mute" id="clipMute" name="Mute" powered="true">
            <parameter index="0" parameterValue="0"/>
            <parameter index="1" name="mute" parameterValue="0"/>
          </component>
          <component componentGuid="2a6145ce-871d-47a5-9eb2-a556be6ff361" componentID="Audition.StereoPanner" id="clipPan" name="StereoPanner" powered="true">
            <parameter index="0" name="Panorámica" parameterValue="0">
              <parameterKeyframes enableSplines="false" readOnly="false">
                <parameterKeyframe sampleOffset="3052330" select="false" type="linear" value="0.5"/>
              </parameterKeyframes>
            </parameter>
          </component>
          <fadeIn crossFadeLinkType="linkedAsymmetric" endPoint="0" shape="0" startPoint="0" type="cosine"/>
          <fadeOut crossFadeLinkType="linkedAsymmetric" endPoint="254754" shape="0" startPoint="254754" type="cosine"/>
          <editParameter parameterIndex="0" slotIndex="4294967281"/>
          <editParameter parameterIndex="0" slotIndex="4294967280"/>
          <channelMap>
            <channel index="0" sourceIndex="0"/>
          </channelMap>
        </audioClip>
        <audioClip clipAutoCrossfade="true" crossFadeHeadClipID="-1" crossFadeTailClipID="-1" endPoint="2529934" fileID="0" hue="-1" id="3" lockedInTime="false" looped="false" name="cuento 48000 1" offline="false" select="false" sourceInPoint="1955526" sourceOutPoint="2208253" startPoint="2277207" zOrder="3">
          <component componentGuid="545c4f61-62a9-4b8d-81b8-c099c16e4bd6" componentID="Audition.Fader" id="clipGain" name="volume" powered="true">
            <parameter index="0" name="volume" parameterValue="1"/>
            <parameter index="1" name="static gain" parameterValue="1"/>
          </component>
          <component componentGuid="869dd843-43fa-4540-8f4f-c566531006c6" componentID="Audition.Mute" id="clipMute" name="Mute" powered="true">
            <parameter index="0" parameterValue="0"/>
            <parameter index="1" name="mute" parameterValue="0"/>
          </component>
          <component componentGuid="b28eb867-342a-4e13-8a4b-e302c8135930" componentID="Audition.StereoPanner" id="clipPan" name="StereoPanner" powered="true">
            <parameter index="0" name="Panorámica" parameterValue="0">
              <parameterKeyframes enableSplines="false" readOnly="false">
                <parameterKeyframe sampleOffset="3052330" select="false" type="linear" value="0.5"/>
              </parameterKeyframes>
            </parameter>
          </component>
          <fadeIn crossFadeLinkType="linkedAsymmetric" endPoint="0" shape="0" startPoint="0" type="cosine"/>
          <fadeOut crossFadeLinkType="linkedAsymmetric" endPoint="252727" shape="0" startPoint="252727" type="cosine"/>
          <editParameter parameterIndex="0" slotIndex="4294967281"/>
          <editParameter parameterIndex="0" slotIndex="4294967280"/>
          <channelMap>
            <channel index="0" sourceIndex="0"/>
          </channelMap>
        </audioClip>
        <audioClip clipAutoCrossfade="true" crossFadeHeadClipID="-1" crossFadeTailClipID="-1" endPoint="2844696" fileID="0" hue="-1" id="4" lockedInTime="false" looped="false" name="cuento 48000 1" offline="false" select="false" sourceInPoint="2208253" sourceOutPoint="2412949" startPoint="2640000" zOrder="11">
          <component componentGuid="76fa11b6-a517-4e77-bbc2-025f8b9f2928" componentID="Audition.Fader" id="clipGain" name="volume" powered="true">
            <parameter index="0" name="volume" parameterValue="1"/>
            <parameter index="1" name="static gain" parameterValue="1"/>
          </component>
          <component componentGuid="4b46646b-aa00-4f18-859f-71fb1a42846b" componentID="Audition.Mute" id="clipMute" name="Mute" powered="true">
            <parameter index="0" parameterValue="0"/>
            <parameter index="1" name="mute" parameterValue="0"/>
          </component>
          <component componentGuid="89ef21a4-a11a-4751-b2b0-9ddae46fa298" componentID="Audition.StereoPanner" id="clipPan" name="StereoPanner" powered="true">
            <parameter index="0" name="Panorámica" parameterValue="0">
              <parameterKeyframes enableSplines="false" readOnly="false">
                <parameterKeyframe sampleOffset="3052330" select="false" type="linear" value="0.5"/>
              </parameterKeyframes>
            </parameter>
          </component>
          <fadeIn crossFadeLinkType="linkedAsymmetric" endPoint="0" shape="0" startPoint="0" type="cosine"/>
          <fadeOut crossFadeLinkType="linkedAsymmetric" endPoint="204696" shape="0" startPoint="204696" type="cosine"/>
          <editParameter parameterIndex="0" slotIndex="4294967281"/>
          <editParameter parameterIndex="0" slotIndex="4294967280"/>
          <channelMap>
            <channel index="0" sourceIndex="0"/>
          </channelMap>
        </audioClip>
        <audioClip clipAutoCrossfade="true" crossFadeHeadClipID="-1" crossFadeTailClipID="-1" endPoint="3733561" fileID="0" hue="-1" id="5" lockedInTime="false" looped="false" name="cuento 48000 1" offline="false" select="true" sourceInPoint="2412949" sourceOutPoint="3054329" startPoint="3092181" zOrder="13">
          <component componentGuid="2e63e0ad-cbaf-48ff-997e-6c3f27f8d905" componentID="Audition.Fader" id="clipGain" name="volume" powered="true">
            <parameter index="0" name="volume" parameterValue="1"/>
            <parameter index="1" name="static gain" parameterValue="1"/>
          </component>
          <component componentGuid="b20bdfd8-3d8e-4361-a5ca-9b350152a36e" componentID="Audition.Mute" id="clipMute" name="Mute" powered="true">
            <parameter index="0" parameterValue="0"/>
            <parameter index="1" name="mute" parameterValue="0"/>
          </component>
          <component componentGuid="adba3e47-f9ba-47c3-92a0-1c1d31055693" componentID="Audition.StereoPanner" id="clipPan" name="StereoPanner" powered="true">
            <parameter index="0" name="Panorámica" parameterValue="0">
              <parameterKeyframes enableSplines="false" readOnly="false">
                <parameterKeyframe sampleOffset="3052330" select="false" type="linear" value="0.5"/>
              </parameterKeyframes>
            </parameter>
          </component>
          <fadeIn crossFadeLinkType="linkedAsymmetric" endPoint="0" shape="0" startPoint="0" type="cosine"/>
          <fadeOut crossFadeLinkType="linkedAsymmetric" endPoint="641380" shape="0" startPoint="641380" type="cosine"/>
          <editParameter parameterIndex="0" slotIndex="4294967281"/>
          <editParameter parameterIndex="0" slotIndex="4294967280"/>
          <channelMap>
            <channel index="0" sourceIndex="0"/>
          </channelMap>
        </audioClip>
      </audioTrack>
      <audioTrack automationLaneOpenState="false" id="10001" index="2" select="false" visible="true">
        <trackParameters trackHeight="93" trackHue="211" trackMinimized="false">
          <name>mujer tarareando</name>
        </trackParameters>
        <trackAudioParameters audioChannelType="stereo" automationMode="1" monitoring="false" recordArmed="false" solo="false" soloSafe="false">
          <trackOutput outputID="10000" type="trackID"/>
          <trackInput inputID="1"/>
          <component componentGuid="4d40325a-a80d-422c-9db4-191e0a72e5b5" componentID="Audition.Fader" id="trackFader" name="volume" powered="true">
            <parameter index="0" name="volume" parameterValue="1"/>
            <parameter index="1" name="static gain" parameterValue="1"/>
          </component>
          <component componentGuid="e939338e-99ff-4de0-83b7-4fcac641b300" componentID="Audition.Mute" id="trackMute" name="Mute" powered="true">
            <parameter index="0" parameterValue="0"/>
            <parameter index="1" name="mute" parameterValue="0"/>
          </component>
          <component componentGuid="c93d245d-62d4-4c31-85b3-5bedd2a7cc04" componentID="Audition.StereoPanner" id="trackPan" name="StereoPanner" powered="true">
            <parameter index="0" name="Panorámica" parameterValue="0"/>
          </component>
          <component componentGuid="51846ea7-ba9f-4142-ab23-cb27983ac9c0" componentID="Audition.EQ" id="trackEQ" name="EQ" powered="false">
            <parameter index="0" name="Frecuencia estante inferior" parameterValue="0.000834028352983295917510986328125"/>
            <parameter index="1" name="Ganancia estante inferior" parameterValue="0.5"/>
            <parameter index="2" name="Frecuencia estante superior" parameterValue="0.74979150295257568359375"/>
            <parameter index="3" name="Ganancia estante superior" parameterValue="0.5"/>
            <parameter index="4" name="Frecuencia central de banda de EC 1" parameterValue="0.00125104258768260478973388671875"/>
            <parameter index="5" name="Valor Q de banda de EC 1" parameterValue="0.000199989997781813144683837890625"/>
            <parameter index="6" name="Ganancia de banda de EC 1" parameterValue="0.5"/>
            <parameter index="7" name="Activación de banda de EC 1" parameterValue="1"/>
            <parameter index="8" name="Frecuencia central de banda de EC 2" parameterValue="0.0075062550604343414306640625"/>
            <parameter index="9" name="Valor Q de banda de EC 2" parameterValue="0.000199989997781813144683837890625"/>
            <parameter index="10" name="Ganancia de banda de EC 2" parameterValue="0.5"/>
            <parameter index="11" name="Activación de banda de EC 2" parameterValue="1"/>
            <parameter index="12" name="Frecuencia central de banda de EC 3" parameterValue="0.0325271077454090118408203125"/>
            <parameter index="13" name="Valor Q de banda de EC 3" parameterValue="0.000199989997781813144683837890625"/>
            <parameter index="14" name="Ganancia de banda de EC 3" parameterValue="0.5"/>
            <parameter index="15" name="Activación de banda de EC 3" parameterValue="1"/>
            <parameter index="16" name="Frecuencia central de banda de EC 4" parameterValue="0.13261051476001739501953125"/>
            <parameter index="17" name="Valor Q de banda de EC 4" parameterValue="0.000199989997781813144683837890625"/>
            <parameter index="18" name="Ganancia de banda de EC 4" parameterValue="0.5"/>
            <parameter index="19" name="Activación de banda de EC 4" parameterValue="1"/>
            <parameter index="20" name="Frecuencia central de banda de EC 5" parameterValue="0.532944142818450927734375"/>
            <parameter index="21" name="Valor Q de banda de EC 5" parameterValue="0.000199989997781813144683837890625"/>
            <parameter index="22" name="Ganancia de banda de EC 5" parameterValue="0.5"/>
            <parameter index="23" name="Activación de banda de EC 5" parameterValue="1"/>
            <parameter index="24" name="Ganancia maestra" parameterValue="0.666666686534881591796875"/>
            <parameter index="25" name="Constant Q" parameterValue="1"/>
            <parameter index="26" name="Orden de filtro de estante inferior" parameterValue="0"/>
            <parameter index="27" name="Orden de filtro de estante superior" parameterValue="0"/>
            <parameter index="28" name="Modo ultrasilencioso" parameterValue="0"/>
            <parameter index="29" name="Activar estante inferior" parameterValue="1"/>
            <parameter index="30" name="Activar estante superior" parameterValue="1"/>
            <parameter index="31" name="Velocidad de muestreo original" parameterValue="0.25"/>
            <parameter index="32" name="Ancho de banda de EC 1" parameterValue="0.002499990165233612060546875"/>
            <parameter index="33" name="Ancho de banda de EC 2" parameterValue="0.0099999904632568359375"/>
            <parameter index="34" name="Ancho de banda de EC 3" parameterValue="0.0399999916553497314453125"/>
            <parameter index="35" name="Ancho de banda de EC 4" parameterValue="0.15999998152256011962890625"/>
            <parameter index="36" name="Ancho de banda de EC 5" parameterValue="0.63999998569488525390625"/>
            <parameter index="37" name="Activación de filtro de pase alto" parameterValue="0"/>
            <parameter index="38" name="Frecuencia de límite de paso alto" parameterValue="0"/>
            <parameter index="39" name="Pendiente de paso alto" parameterValue="0.4000000059604644775390625"/>
            <parameter index="40" name="Activación de filtro de pase bajo" parameterValue="0"/>
            <parameter index="41" name="Frecuencia de límite de paso bajo" parameterValue="0.833194315433502197265625"/>
            <parameter index="42" name="Pendiente de paso bajo" parameterValue="0.4000000059604644775390625"/>
            <parameter index="43" name="Derivar" parameterValue="0"/>
            <parameter index="44" name="Rango de gráfico bajo" parameterValue="1"/>
          </component>
        </trackAudioParameters>
        <editParameter parameterIndex="0" slotIndex="4294967280"/>
        <audioClip clipAutoCrossfade="true" crossFadeHeadClipID="-1" crossFadeTailClipID="-1" endPoint="2701130" fileID="1" hue="-1" id="0" lockedInTime="false" looped="false" name="mujer tarareando 48000 2" offline="false" select="false" sourceInPoint="0" sourceOutPoint="2701130" startPoint="0" zOrder="0">
          <component componentGuid="9c9d07de-49d3-49a8-88cb-00ff3761c821" componentID="Audition.Fader" id="clipGain" name="volume" powered="true">
            <parameter index="0" name="volume" parameterValue="1"/>
            <parameter index="1" name="static gain" parameterValue="1"/>
          </component>
          <component componentGuid="9d516aab-f59d-43ef-b16c-e685451e83c6" componentID="Audition.Mute" id="clipMute" name="Mute" powered="true">
            <parameter index="0" parameterValue="0"/>
            <parameter index="1" name="mute" parameterValue="0"/>
          </component>
          <component componentGuid="11979b1c-0b09-4cf5-8bb2-d4bc6e234dc0" componentID="Audition.StereoPanner" id="clipPan" name="StereoPanner" powered="true">
            <parameter index="0" name="Panorámica" parameterValue="0"/>
          </component>
          <fadeIn crossFadeLinkType="linkedAsymmetric" endPoint="0" shape="0" startPoint="0" type="cosine"/>
          <fadeOut crossFadeLinkType="linkedAsymmetric" endPoint="2701130" shape="0" startPoint="2701130" type="cosine"/>
          <editParameter parameterIndex="0" slotIndex="4294967280"/>
          <editParameter parameterIndex="0" slotIndex="4294967281"/>
          <channelMap>
            <channel index="0" sourceIndex="0"/>
            <channel index="1" sourceIndex="1"/>
          </channelMap>
        </audioClip>
      </audioTrack>
      <audioTrack automationLaneOpenState="false" id="10002" index="3" select="false" visible="true">
        <trackParameters trackHeight="93" trackHue="130" trackMinimized="false">
          <name>Ambiente</name>
        </trackParameters>
        <trackAudioParameters audioChannelType="stereo" automationMode="1" monitoring="false" recordArmed="false" solo="false" soloSafe="false">
          <trackOutput outputID="10000" type="trackID"/>
          <trackInput inputID="1"/>
          <component componentGuid="15a33a7d-3c30-48bf-8414-329b8159aa96" componentID="Audition.Fader" id="trackFader" name="volume" powered="true">
            <parameter index="0" name="volume" parameterValue="1"/>
            <parameter index="1" name="static gain" parameterValue="1"/>
          </component>
          <component componentGuid="cf87bbd0-f811-4d8b-926f-ceddd37c8ef9" componentID="Audition.Mute" id="trackMute" name="Mute" powered="true">
            <parameter index="0" parameterValue="0"/>
            <parameter index="1" name="mute" parameterValue="0"/>
          </component>
          <component componentGuid="88a49644-3a6d-4704-80ff-9c14920cb629" componentID="Audition.StereoPanner" id="trackPan" name="StereoPanner" powered="true">
            <parameter index="0" name="Panorámica" parameterValue="0"/>
          </component>
          <component componentGuid="64847d0b-56d2-4e83-9f6d-415d87a29cf9" componentID="Audition.EQ" id="trackEQ" name="EQ" powered="false">
            <parameter index="0" name="Frecuencia estante inferior" parameterValue="0.000834028352983295917510986328125"/>
            <parameter index="1" name="Ganancia estante inferior" parameterValue="0.5"/>
            <parameter index="2" name="Frecuencia estante superior" parameterValue="0.74979150295257568359375"/>
            <parameter index="3" name="Ganancia estante superior" parameterValue="0.5"/>
            <parameter index="4" name="Frecuencia central de banda de EC 1" parameterValue="0.00125104258768260478973388671875"/>
            <parameter index="5" name="Valor Q de banda de EC 1" parameterValue="0.000199989997781813144683837890625"/>
            <parameter index="6" name="Ganancia de banda de EC 1" parameterValue="0.5"/>
            <parameter index="7" name="Activación de banda de EC 1" parameterValue="1"/>
            <parameter index="8" name="Frecuencia central de banda de EC 2" parameterValue="0.0075062550604343414306640625"/>
            <parameter index="9" name="Valor Q de banda de EC 2" parameterValue="0.000199989997781813144683837890625"/>
            <parameter index="10" name="Ganancia de banda de EC 2" parameterValue="0.5"/>
            <parameter index="11" name="Activación de banda de EC 2" parameterValue="1"/>
            <parameter index="12" name="Frecuencia central de banda de EC 3" parameterValue="0.0325271077454090118408203125"/>
            <parameter index="13" name="Valor Q de banda de EC 3" parameterValue="0.000199989997781813144683837890625"/>
            <parameter index="14" name="Ganancia de banda de EC 3" parameterValue="0.5"/>
            <parameter index="15" name="Activación de banda de EC 3" parameterValue="1"/>
            <parameter index="16" name="Frecuencia central de banda de EC 4" parameterValue="0.13261051476001739501953125"/>
            <parameter index="17" name="Valor Q de banda de EC 4" parameterValue="0.000199989997781813144683837890625"/>
            <parameter index="18" name="Ganancia de banda de EC 4" parameterValue="0.5"/>
            <parameter index="19" name="Activación de banda de EC 4" parameterValue="1"/>
            <parameter index="20" name="Frecuencia central de banda de EC 5" parameterValue="0.532944142818450927734375"/>
            <parameter index="21" name="Valor Q de banda de EC 5" parameterValue="0.000199989997781813144683837890625"/>
            <parameter index="22" name="Ganancia de banda de EC 5" parameterValue="0.5"/>
            <parameter index="23" name="Activación de banda de EC 5" parameterValue="1"/>
            <parameter index="24" name="Ganancia maestra" parameterValue="0.666666686534881591796875"/>
            <parameter index="25" name="Constant Q" parameterValue="1"/>
            <parameter index="26" name="Orden de filtro de estante inferior" parameterValue="0"/>
            <parameter index="27" name="Orden de filtro de estante superior" parameterValue="0"/>
            <parameter index="28" name="Modo ultrasilencioso" parameterValue="0"/>
            <parameter index="29" name="Activar estante inferior" parameterValue="1"/>
            <parameter index="30" name="Activar estante superior" parameterValue="1"/>
            <parameter index="31" name="Velocidad de muestreo original" parameterValue="0.25"/>
            <parameter index="32" name="Ancho de banda de EC 1" parameterValue="0.002499990165233612060546875"/>
            <parameter index="33" name="Ancho de banda de EC 2" parameterValue="0.0099999904632568359375"/>
            <parameter index="34" name="Ancho de banda de EC 3" parameterValue="0.0399999916553497314453125"/>
            <parameter index="35" name="Ancho de banda de EC 4" parameterValue="0.15999998152256011962890625"/>
            <parameter index="36" name="Ancho de banda de EC 5" parameterValue="0.63999998569488525390625"/>
            <parameter index="37" name="Activación de filtro de pase alto" parameterValue="0"/>
            <parameter index="38" name="Frecuencia de límite de paso alto" parameterValue="0"/>
            <parameter index="39" name="Pendiente de paso alto" parameterValue="0.4000000059604644775390625"/>
            <parameter index="40" name="Activación de filtro de pase bajo" parameterValue="0"/>
            <parameter index="41" name="Frecuencia de límite de paso bajo" parameterValue="0.833194315433502197265625"/>
            <parameter index="42" name="Pendiente de paso bajo" parameterValue="0.4000000059604644775390625"/>
            <parameter index="43" name="Derivar" parameterValue="0"/>
            <parameter index="44" name="Rango de gráfico bajo" parameterValue="1"/>
          </component>
        </trackAudioParameters>
        <editParameter parameterIndex="0" slotIndex="4294967280"/>
        <audioClip clipAutoCrossfade="true" crossFadeHeadClipID="-1" crossFadeTailClipID="-1" endPoint="446810" fileID="2" hue="-1" id="0" lockedInTime="false" looped="false" name="campanas de boda 48000 1" offline="false" select="false" sourceInPoint="926926" sourceOutPoint="1203929" startPoint="169807" zOrder="0">
          <component componentGuid="a2cc08ff-1c26-413a-8674-d5b8f13d77f4" componentID="Audition.Fader" id="clipGain" name="volume" powered="true">
            <parameter index="0" name="volume" parameterValue="0.15709473192691802978515625"/>
            <parameter index="1" name="static gain" parameterValue="1"/>
          </component>
          <component componentGuid="056b071a-69d1-4b13-b395-db7f7427fe47" componentID="Audition.Mute" id="clipMute" name="Mute" powered="true">
            <parameter index="0" parameterValue="0"/>
            <parameter index="1" name="mute" parameterValue="0"/>
          </component>
          <component componentGuid="56e6abf8-6877-465e-a4fc-e95d9b573999" componentID="Audition.StereoPanner" id="clipPan" name="StereoPanner" powered="true">
            <parameter index="0" name="Panorámica" parameterValue="0">
              <parameterKeyframes enableSplines="false" readOnly="false">
                <parameterKeyframe sampleOffset="127942" select="false" type="linear" value="0.5"/>
                <parameterKeyframe sampleOffset="973838" select="false" type="linear" value="0.5"/>
              </parameterKeyframes>
            </parameter>
          </component>
          <fadeIn crossFadeLinkType="linkedAsymmetric" endPoint="90081" shape="19" startPoint="0" type="log"/>
          <fadeOut crossFadeLinkType="linkedAsymmetric" endPoint="277003" shape="19" startPoint="277003" type="log"/>
          <editParameter parameterIndex="0" slotIndex="4294967281"/>
          <editParameter parameterIndex="0" slotIndex="4294967280"/>
          <channelMap>
            <channel index="0" sourceIndex="0"/>
            <channel index="1" sourceIndex="1"/>
          </channelMap>
        </audioClip>
        <audioClip clipAutoCrossfade="true" crossFadeHeadClipID="-1" crossFadeTailClipID="-1" endPoint="977231" fileID="5" hue="-1" id="1" lockedInTime="false" looped="false" name="sonido-ambiente-de-bar 48000 1" offline="false" select="false" sourceInPoint="475213" sourceOutPoint="799420" startPoint="653024" zOrder="1">
          <component componentGuid="713259f3-9ef1-4e17-8902-bdf3c01862b6" componentID="Audition.Fader" id="clipGain" name="volume" powered="true">
            <parameter index="0" name="volume" parameterValue="0.1940693557262420654296875"/>
            <parameter index="1" name="static gain" parameterValue="1"/>
          </component>
          <component componentGuid="78ebba5b-060f-4c69-abd6-01567e8cedd5" componentID="Audition.Mute" id="clipMute" name="Mute" powered="true">
            <parameter index="0" parameterValue="0"/>
            <parameter index="1" name="mute" parameterValue="0"/>
          </component>
          <component componentGuid="ba974a5f-ef27-40b0-9e9a-f10ea7c4dbb2" componentID="Audition.StereoPanner" id="clipPan" name="StereoPanner" powered="true">
            <parameter index="0" name="Panorámica" parameterValue="0"/>
          </component>
          <fadeIn crossFadeLinkType="linkedAsymmetric" endPoint="46999" shape="-28" startPoint="0" type="log"/>
          <fadeOut crossFadeLinkType="linkedAsymmetric" endPoint="324207" shape="-58" startPoint="264153" type="log"/>
          <editParameter parameterIndex="0" slotIndex="4294967281"/>
          <editParameter parameterIndex="0" slotIndex="4294967280"/>
          <channelMap>
            <channel index="0" sourceIndex="0"/>
            <channel index="1" sourceIndex="1"/>
          </channelMap>
        </audioClip>
        <audioClip clipAutoCrossfade="true" crossFadeHeadClipID="-1" crossFadeTailClipID="-1" endPoint="1522621" fileID="6" hue="-1" id="2" lockedInTime="false" looped="false" name="bebe riendo 48000 1" offline="false" select="false" sourceInPoint="0" sourceOutPoint="291507" startPoint="1231114" zOrder="2">
          <component componentGuid="858d1b2a-b3b5-4add-a950-ffedc4ce302d" componentID="Audition.Fader" id="clipGain" name="volume" powered="true">
            <parameter index="0" name="volume" parameterValue="0.33149516582489013671875"/>
            <parameter index="1" name="static gain" parameterValue="1"/>
          </component>
          <component componentGuid="a710cad8-d454-465f-a476-253b593547b7" componentID="Audition.Mute" id="clipMute" name="Mute" powered="true">
            <parameter index="0" parameterValue="0"/>
            <parameter index="1" name="mute" parameterValue="0"/>
          </component>
          <component componentGuid="9b79bd65-f7f6-4deb-9d66-bd7ec185cb6a" componentID="Audition.StereoPanner" id="clipPan" name="StereoPanner" powered="true">
            <parameter index="0" name="Panorámica" parameterValue="0"/>
          </component>
          <fadeIn crossFadeLinkType="linkedAsymmetric" endPoint="50915" shape="-22" startPoint="0" type="log"/>
          <fadeOut crossFadeLinkType="linkedAsymmetric" endPoint="291507" shape="-38" startPoint="227163" type="log"/>
          <editParameter parameterIndex="0" slotIndex="4294967281"/>
          <editParameter parameterIndex="0" slotIndex="4294967280"/>
          <channelMap>
            <channel index="0" sourceIndex="0"/>
            <channel index="1" sourceIndex="1"/>
          </channelMap>
        </audioClip>
      </audioTrack>
      <audioTrack automationLaneOpenState="false" id="10003" index="4" select="false" visible="true">
        <trackParameters trackHeight="93" trackHue="211" trackMinimized="false">
          <name>Efectos</name>
        </trackParameters>
        <trackAudioParameters audioChannelType="stereo" automationMode="1" monitoring="false" recordArmed="false" solo="false" soloSafe="false">
          <trackOutput outputID="10000" type="trackID"/>
          <trackInput inputID="1"/>
          <component componentGuid="5e595622-cdce-4f46-afd9-af35f0a4c2a6" componentID="Audition.Fader" id="trackFader" name="volume" powered="true">
            <parameter index="0" name="volume" parameterValue="1"/>
            <parameter index="1" name="static gain" parameterValue="1"/>
          </component>
          <component componentGuid="7af0b20f-8eed-4d48-a168-ec6e937b9fd7" componentID="Audition.Mute" id="trackMute" name="Mute" powered="true">
            <parameter index="0" parameterValue="0"/>
            <parameter index="1" name="mute" parameterValue="0"/>
          </component>
          <component componentGuid="9d4b96f8-a801-4ed6-8800-08c492fa505a" componentID="Audition.StereoPanner" id="trackPan" name="StereoPanner" powered="true">
            <parameter index="0" name="Panorámica" parameterValue="0"/>
          </component>
          <component componentGuid="5f2f59b7-438f-4950-bca2-4c4a4cb3b44b" componentID="Audition.EQ" id="trackEQ" name="EQ" powered="false">
            <parameter index="0" name="Frecuencia estante inferior" parameterValue="0.000834028352983295917510986328125"/>
            <parameter index="1" name="Ganancia estante inferior" parameterValue="0.5"/>
            <parameter index="2" name="Frecuencia estante superior" parameterValue="0.74979150295257568359375"/>
            <parameter index="3" name="Ganancia estante superior" parameterValue="0.5"/>
            <parameter index="4" name="Frecuencia central de banda de EC 1" parameterValue="0.00125104258768260478973388671875"/>
            <parameter index="5" name="Valor Q de banda de EC 1" parameterValue="0.000199989997781813144683837890625"/>
            <parameter index="6" name="Ganancia de banda de EC 1" parameterValue="0.5"/>
            <parameter index="7" name="Activación de banda de EC 1" parameterValue="1"/>
            <parameter index="8" name="Frecuencia central de banda de EC 2" parameterValue="0.0075062550604343414306640625"/>
            <parameter index="9" name="Valor Q de banda de EC 2" parameterValue="0.000199989997781813144683837890625"/>
            <parameter index="10" name="Ganancia de banda de EC 2" parameterValue="0.5"/>
            <parameter index="11" name="Activación de banda de EC 2" parameterValue="1"/>
            <parameter index="12" name="Frecuencia central de banda de EC 3" parameterValue="0.0325271077454090118408203125"/>
            <parameter index="13" name="Valor Q de banda de EC 3" parameterValue="0.000199989997781813144683837890625"/>
            <parameter index="14" name="Ganancia de banda de EC 3" parameterValue="0.5"/>
            <parameter index="15" name="Activación de banda de EC 3" parameterValue="1"/>
            <parameter index="16" name="Frecuencia central de banda de EC 4" parameterValue="0.13261051476001739501953125"/>
            <parameter index="17" name="Valor Q de banda de EC 4" parameterValue="0.000199989997781813144683837890625"/>
            <parameter index="18" name="Ganancia de banda de EC 4" parameterValue="0.5"/>
            <parameter index="19" name="Activación de banda de EC 4" parameterValue="1"/>
            <parameter index="20" name="Frecuencia central de banda de EC 5" parameterValue="0.532944142818450927734375"/>
            <parameter index="21" name="Valor Q de banda de EC 5" parameterValue="0.000199989997781813144683837890625"/>
            <parameter index="22" name="Ganancia de banda de EC 5" parameterValue="0.5"/>
            <parameter index="23" name="Activación de banda de EC 5" parameterValue="1"/>
            <parameter index="24" name="Ganancia maestra" parameterValue="0.666666686534881591796875"/>
            <parameter index="25" name="Constant Q" parameterValue="1"/>
            <parameter index="26" name="Orden de filtro de estante inferior" parameterValue="0"/>
            <parameter index="27" name="Orden de filtro de estante superior" parameterValue="0"/>
            <parameter index="28" name="Modo ultrasilencioso" parameterValue="0"/>
            <parameter index="29" name="Activar estante inferior" parameterValue="1"/>
            <parameter index="30" name="Activar estante superior" parameterValue="1"/>
            <parameter index="31" name="Velocidad de muestreo original" parameterValue="0.25"/>
            <parameter index="32" name="Ancho de banda de EC 1" parameterValue="0.002499990165233612060546875"/>
            <parameter index="33" name="Ancho de banda de EC 2" parameterValue="0.0099999904632568359375"/>
            <parameter index="34" name="Ancho de banda de EC 3" parameterValue="0.0399999916553497314453125"/>
            <parameter index="35" name="Ancho de banda de EC 4" parameterValue="0.15999998152256011962890625"/>
            <parameter index="36" name="Ancho de banda de EC 5" parameterValue="0.63999998569488525390625"/>
            <parameter index="37" name="Activación de filtro de pase alto" parameterValue="0"/>
            <parameter index="38" name="Frecuencia de límite de paso alto" parameterValue="0"/>
            <parameter index="39" name="Pendiente de paso alto" parameterValue="0.4000000059604644775390625"/>
            <parameter index="40" name="Activación de filtro de pase bajo" parameterValue="0"/>
            <parameter index="41" name="Frecuencia de límite de paso bajo" parameterValue="0.833194315433502197265625"/>
            <parameter index="42" name="Pendiente de paso bajo" parameterValue="0.4000000059604644775390625"/>
            <parameter index="43" name="Derivar" parameterValue="0"/>
            <parameter index="44" name="Rango de gráfico bajo" parameterValue="1"/>
          </component>
        </trackAudioParameters>
        <editParameter parameterIndex="0" slotIndex="4294967280"/>
        <audioClip clipAutoCrossfade="true" crossFadeHeadClipID="-1" crossFadeTailClipID="-1" endPoint="931199" fileID="4" hue="-1" id="0" lockedInTime="false" looped="false" name="botella chocando 48000 1" offline="false" select="false" sourceInPoint="0" sourceOutPoint="146703" startPoint="784496" zOrder="0">
          <component componentGuid="f57773fa-7d91-4b85-84d0-d1e9a28e9633" componentID="Audition.Fader" id="clipGain" name="volume" powered="true">
            <parameter index="0" name="volume" parameterValue="0.124383561313152313232421875"/>
            <parameter index="1" name="static gain" parameterValue="1"/>
          </component>
          <component componentGuid="ab3a386c-c144-4ecb-933d-30700604b03b" componentID="Audition.Mute" id="clipMute" name="Mute" powered="true">
            <parameter index="0" parameterValue="0"/>
            <parameter index="1" name="mute" parameterValue="0"/>
          </component>
          <component componentGuid="587f55a9-fdb1-4595-87ff-f7627b395de1" componentID="Audition.StereoPanner" id="clipPan" name="StereoPanner" powered="true">
            <parameter index="0" name="Panorámica" parameterValue="0">
              <parameterKeyframes enableSplines="false" readOnly="false">
                <parameterKeyframe sampleOffset="67626" select="false" type="linear" value="0.5"/>
              </parameterKeyframes>
            </parameter>
          </component>
          <fadeIn crossFadeLinkType="linkedAsymmetric" endPoint="26110" shape="-33" startPoint="0" type="log"/>
          <fadeOut crossFadeLinkType="linkedAsymmetric" endPoint="146703" shape="-24" startPoint="119287" type="log"/>
          <editParameter parameterIndex="0" slotIndex="4294967281"/>
          <editParameter parameterIndex="0" slotIndex="4294967280"/>
          <channelMap>
            <channel index="0" sourceIndex="0"/>
          </channelMap>
        </audioClip>
        <audioClip clipAutoCrossfade="true" crossFadeHeadClipID="-1" crossFadeTailClipID="-1" endPoint="1570561" fileID="7" hue="-1" id="1" lockedInTime="false" looped="true" name="buho 48000 1" offline="false" select="false" sourceInPoint="0" sourceOutPoint="224552" startPoint="1346009" zOrder="1">
          <component componentGuid="6f3b24c3-18b2-4c22-be71-68e0f2322c40" componentID="Audition.Fader" id="clipGain" name="volume" powered="true">
            <parameter index="0" name="volume" parameterValue="0.14021255075931549072265625"/>
            <parameter index="1" name="static gain" parameterValue="1"/>
          </component>
          <component componentGuid="b2089cd6-29a1-4187-a743-ef984ec0ba29" componentID="Audition.Mute" id="clipMute" name="Mute" powered="true">
            <parameter index="0" parameterValue="0"/>
            <parameter index="1" name="mute" parameterValue="0"/>
          </component>
          <component componentGuid="78b5a89a-a628-4e4c-a841-c9adcd03a7ea" componentID="Audition.StereoPanner" id="clipPan" name="StereoPanner" powered="true">
            <parameter index="0" name="Panorámica" parameterValue="0"/>
          </component>
          <fadeIn crossFadeLinkType="linkedAsymmetric" endPoint="60069" shape="-34" startPoint="0" type="log"/>
          <fadeOut crossFadeLinkType="linkedAsymmetric" endPoint="224552" shape="-48" startPoint="195719" type="log"/>
          <editParameter parameterIndex="0" slotIndex="4294967281"/>
          <editParameter parameterIndex="0" slotIndex="4294967280"/>
          <channelMap>
            <channel index="0" sourceIndex="0"/>
          </channelMap>
        </audioClip>
        <audioClip clipAutoCrossfade="true" crossFadeHeadClipID="-1" crossFadeTailClipID="3" endPoint="1729153" fileID="10" hue="-1" id="2" lockedInTime="false" looped="false" name="carruaje 48000 1" offline="false" select="false" sourceInPoint="0" sourceOutPoint="158592" startPoint="1570561" zOrder="2">
          <component componentGuid="df0676c8-bef2-45cc-9eb5-df8afa8bb69f" componentID="Audition.Fader" id="clipGain" name="volume" powered="true">
            <parameter index="0" name="volume" parameterValue="0.33149516582489013671875"/>
            <parameter index="1" name="static gain" parameterValue="1"/>
          </component>
          <component componentGuid="c218eac4-5893-4803-9145-47c2edbd4fbd" componentID="Audition.Mute" id="clipMute" name="Mute" powered="true">
            <parameter index="0" parameterValue="0"/>
            <parameter index="1" name="mute" parameterValue="0"/>
          </component>
          <component componentGuid="37899e2f-82df-4710-a897-dc17fd348a37" componentID="Audition.StereoPanner" id="clipPan" name="StereoPanner" powered="true">
            <parameter index="0" name="Panorámica" parameterValue="0"/>
          </component>
          <fadeIn crossFadeLinkType="linkedAsymmetric" endPoint="0" shape="0" startPoint="0" type="cosine"/>
          <fadeOut crossFadeLinkType="linkedAsymmetric" endPoint="158592" shape="19" startPoint="130355" type="log"/>
          <editParameter parameterIndex="0" slotIndex="4294967281"/>
          <editParameter parameterIndex="0" slotIndex="4294967280"/>
          <channelMap>
            <channel index="0" sourceIndex="0"/>
            <channel index="1" sourceIndex="1"/>
          </channelMap>
        </audioClip>
        <audioClip clipAutoCrossfade="true" crossFadeHeadClipID="2" crossFadeTailClipID="-1" endPoint="1848910" fileID="11" hue="-1" id="3" lockedInTime="false" looped="false" name="lamentomujer 48000 1" offline="false" select="false" sourceInPoint="134554" sourceOutPoint="282548" startPoint="1700916" zOrder="3">
          <component componentGuid="18fc40e0-3f85-4e3a-a621-b4d381dd04ed" componentID="Audition.Fader" id="clipGain" name="volume" powered="true">
            <parameter index="0" name="volume" parameterValue="1"/>
            <parameter index="1" name="static gain" parameterValue="1"/>
          </component>
          <component componentGuid="c7a76c09-4313-49e4-bc98-98c2d3a8845f" componentID="Audition.Mute" id="clipMute" name="Mute" powered="true">
            <parameter index="0" parameterValue="0"/>
            <parameter index="1" name="mute" parameterValue="0"/>
          </component>
          <component componentGuid="a5c0b5fd-fa69-440c-b98a-1f3020a7b8a7" componentID="Audition.StereoPanner" id="clipPan" name="StereoPanner" powered="true">
            <parameter index="0" name="Panorámica" parameterValue="0"/>
          </component>
          <fadeIn crossFadeLinkType="linkedAsymmetric" endPoint="28237" shape="18" startPoint="0" type="log"/>
          <fadeOut crossFadeLinkType="linkedAsymmetric" endPoint="147994" shape="0" startPoint="147994" type="cosine"/>
          <editParameter parameterIndex="0" slotIndex="4294967280"/>
          <editParameter parameterIndex="0" slotIndex="4294967281"/>
          <channelMap>
            <channel index="0" sourceIndex="0"/>
          </channelMap>
        </audioClip>
        <audioClip clipAutoCrossfade="true" crossFadeHeadClipID="-1" crossFadeTailClipID="-1" endPoint="2051296" fileID="12" hue="-1" id="4" lockedInTime="false" looped="false" name="bebé llorando 48000 1" offline="false" select="false" sourceInPoint="234049" sourceOutPoint="436435" startPoint="1848910" zOrder="4">
          <component componentGuid="857ed81a-74ef-436c-b471-774fb6930f12" componentID="Audition.Fader" id="clipGain" name="volume" powered="true">
            <parameter index="0" name="volume" parameterValue="1"/>
            <parameter index="1" name="static gain" parameterValue="1"/>
          </component>
          <component componentGuid="cbccf6ec-64ec-4eef-b806-eed7c713a649" componentID="Audition.Mute" id="clipMute" name="Mute" powered="true">
            <parameter index="0" parameterValue="0"/>
            <parameter index="1" name="mute" parameterValue="0"/>
          </component>
          <component componentGuid="98bc835d-b9bd-4468-a785-ebe1e5bc78ce" componentID="Audition.StereoPanner" id="clipPan" name="StereoPanner" powered="true">
            <parameter index="0" name="Panorámica" parameterValue="0"/>
          </component>
          <fadeIn crossFadeLinkType="linkedAsymmetric" endPoint="60069" shape="-42" startPoint="0" type="log"/>
          <fadeOut crossFadeLinkType="linkedAsymmetric" endPoint="202386" shape="0" startPoint="202386" type="cosine"/>
          <editParameter parameterIndex="0" slotIndex="4294967280"/>
          <editParameter parameterIndex="0" slotIndex="4294967281"/>
          <channelMap>
            <channel index="0" sourceIndex="0"/>
            <channel index="1" sourceIndex="1"/>
          </channelMap>
        </audioClip>
        <audioClip clipAutoCrossfade="true" crossFadeHeadClipID="-1" crossFadeTailClipID="-1" endPoint="2277207" fileID="13" hue="-1" id="5" lockedInTime="false" looped="false" name="ahogamiento 48000 1" offline="false" select="false" sourceInPoint="0" sourceOutPoint="141688" startPoint="2135519" zOrder="5">
          <component componentGuid="94698321-6791-4c4e-bf84-d3d0a724f539" componentID="Audition.Fader" id="clipGain" name="volume" powered="true">
            <parameter index="0" name="volume" parameterValue="0.358375072479248046875"/>
            <parameter index="1" name="static gain" parameterValue="1"/>
          </component>
          <component componentGuid="ac7cc59b-830b-48d6-8acf-9251ac67f093" componentID="Audition.Mute" id="clipMute" name="Mute" powered="true">
            <parameter index="0" parameterValue="0"/>
            <parameter index="1" name="mute" parameterValue="0"/>
          </component>
          <component componentGuid="64a8a427-4ce1-44a0-9cd4-1d7d49f4b9c9" componentID="Audition.StereoPanner" id="clipPan" name="StereoPanner" powered="true">
            <parameter index="0" name="Panorámica" parameterValue="33.802825927734375"/>
          </component>
          <fadeIn crossFadeLinkType="linkedAsymmetric" endPoint="0" shape="0" startPoint="0" type="cosine"/>
          <fadeOut crossFadeLinkType="linkedAsymmetric" endPoint="141688" shape="0" startPoint="141688" type="cosine"/>
          <editParameter parameterIndex="0" slotIndex="4294967281"/>
          <editParameter parameterIndex="0" slotIndex="4294967280"/>
          <channelMap>
            <channel index="0" sourceIndex="0"/>
            <channel index="1" sourceIndex="1"/>
          </channelMap>
        </audioClip>
        <audioClip clipAutoCrossfade="true" crossFadeHeadClipID="-1" crossFadeTailClipID="-1" endPoint="2469849" fileID="15" hue="-1" id="6" lockedInTime="false" looped="false" name="clavadoenelagua 48000 1" offline="false" select="false" sourceInPoint="0" sourceOutPoint="151719" startPoint="2318130" zOrder="6">
          <component componentGuid="983549d7-82f6-4d8f-a179-42960851a0a9" componentID="Audition.Fader" id="clipGain" name="volume" powered="true">
            <parameter index="0" name="volume" parameterValue="1"/>
            <parameter index="1" name="static gain" parameterValue="1"/>
          </component>
          <component componentGuid="40980088-060f-4369-8dfe-a2c7b38ca96d" componentID="Audition.Mute" id="clipMute" name="Mute" powered="true">
            <parameter index="0" parameterValue="0"/>
            <parameter index="1" name="mute" parameterValue="0"/>
          </component>
          <component componentGuid="db632574-e0a4-473c-987e-08c613fa4985" componentID="Audition.StereoPanner" id="clipPan" name="StereoPanner" powered="true">
            <parameter index="0" name="Panorámica" parameterValue="0"/>
          </component>
          <fadeIn crossFadeLinkType="linkedAsymmetric" endPoint="0" shape="0" startPoint="0" type="cosine"/>
          <fadeOut crossFadeLinkType="linkedAsymmetric" endPoint="151719" shape="0" startPoint="151719" type="cosine"/>
          <editParameter parameterIndex="0" slotIndex="4294967280"/>
          <editParameter parameterIndex="0" slotIndex="4294967281"/>
          <channelMap>
            <channel index="0" sourceIndex="0"/>
            <channel index="1" sourceIndex="1"/>
          </channelMap>
        </audioClip>
        <audioClip clipAutoCrossfade="true" crossFadeHeadClipID="-1" crossFadeTailClipID="-1" endPoint="2640000" fileID="18" hue="-1" id="7" lockedInTime="false" looped="false" name="suspenso.2 48000 1" offline="false" select="false" sourceInPoint="0" sourceOutPoint="137130" startPoint="2502870" zOrder="10">
          <component componentGuid="59ffa8f6-e607-48ce-99f6-a707833b361e" componentID="Audition.Fader" id="clipGain" name="volume" powered="true">
            <parameter index="0" name="volume" parameterValue="0.73266041278839111328125"/>
            <parameter index="1" name="static gain" parameterValue="1"/>
          </component>
          <component componentGuid="f3d84309-bd1a-4db1-aec6-a59b5c13ff9c" componentID="Audition.Mute" id="clipMute" name="Mute" powered="true">
            <parameter index="0" parameterValue="0"/>
            <parameter index="1" name="mute" parameterValue="0"/>
          </component>
          <component componentGuid="137f0528-b66f-4ed0-bc60-ff74c71c8453" componentID="Audition.StereoPanner" id="clipPan" name="StereoPanner" powered="true">
            <parameter index="0" name="Panorámica" parameterValue="0"/>
          </component>
          <fadeIn crossFadeLinkType="linkedAsymmetric" endPoint="0" shape="0" startPoint="0" type="cosine"/>
          <fadeOut crossFadeLinkType="linkedAsymmetric" endPoint="137130" shape="19" startPoint="137130" type="log"/>
          <editParameter parameterIndex="0" slotIndex="4294967281"/>
          <editParameter parameterIndex="0" slotIndex="4294967280"/>
          <channelMap>
            <channel index="0" sourceIndex="0"/>
            <channel index="1" sourceIndex="1"/>
          </channelMap>
        </audioClip>
        <audioClip clipAutoCrossfade="true" crossFadeHeadClipID="-1" crossFadeTailClipID="-1" endPoint="3036885" fileID="16" hue="-1" id="8" lockedInTime="false" looped="false" name="llantomujer 48000 1" offline="false" select="false" sourceInPoint="0" sourceOutPoint="193097" startPoint="2843788" zOrder="9">
          <component componentGuid="a75a2b4c-f8cb-442d-b10f-bb73e810577d" componentID="Audition.Fader" id="clipGain" name="volume" powered="true">
            <parameter index="0" name="volume" parameterValue="1"/>
            <parameter index="1" name="static gain" parameterValue="1"/>
          </component>
          <component componentGuid="50ee7b40-8ca1-4335-867f-3120afeffb5d" componentID="Audition.Mute" id="clipMute" name="Mute" powered="true">
            <parameter index="0" parameterValue="0"/>
            <parameter index="1" name="mute" parameterValue="0"/>
          </component>
          <component componentGuid="1b07e992-cade-4555-a8c5-4aad5852f91d" componentID="Audition.StereoPanner" id="clipPan" name="StereoPanner" powered="true">
            <parameter index="0" name="Panorámica" parameterValue="0"/>
          </component>
          <fadeIn crossFadeLinkType="linkedAsymmetric" endPoint="72083" shape="-16" startPoint="0" type="log"/>
          <fadeOut crossFadeLinkType="linkedAsymmetric" endPoint="193097" shape="0" startPoint="193097" type="cosine"/>
          <editParameter parameterIndex="0" slotIndex="4294967280"/>
          <editParameter parameterIndex="0" slotIndex="4294967281"/>
          <channelMap>
            <channel index="0" sourceIndex="0"/>
          </channelMap>
        </audioClip>
        <audioClip clipAutoCrossfade="true" crossFadeHeadClipID="-1" crossFadeTailClipID="-1" endPoint="3667558" fileID="17" hue="-1" id="9" lockedInTime="false" looped="false" name="pasos 48000 1" offline="false" select="false" sourceInPoint="0" sourceOutPoint="470016" startPoint="3197542" zOrder="12">
          <component componentGuid="42468973-c61f-497d-92f2-acd286d9c975" componentID="Audition.Fader" id="clipGain" name="volume" powered="true">
            <parameter index="0" name="volume" parameterValue="1"/>
            <parameter index="1" name="static gain" parameterValue="1"/>
          </component>
          <component componentGuid="6e8b4acc-322b-4cfb-bab8-77ad4da3daa9" componentID="Audition.Mute" id="clipMute" name="Mute" powered="true">
            <parameter index="0" parameterValue="0"/>
            <parameter index="1" name="mute" parameterValue="0"/>
          </component>
          <component componentGuid="aaeb05a4-46ee-4ebb-987f-7a6625199e52" componentID="Audition.StereoPanner" id="clipPan" name="StereoPanner" powered="true">
            <parameter index="0" name="Panorámica" parameterValue="0">
              <parameterKeyframes enableSplines="false" readOnly="false">
                <parameterKeyframe sampleOffset="257637" select="true" type="linear" value="0.5"/>
              </parameterKeyframes>
            </parameter>
          </component>
          <fadeIn crossFadeLinkType="linkedAsymmetric" endPoint="0" shape="0" startPoint="0" type="cosine"/>
          <fadeOut crossFadeLinkType="linkedAsymmetric" endPoint="470016" shape="0" startPoint="470016" type="cosine"/>
          <editParameter parameterIndex="0" slotIndex="4294967280"/>
          <editParameter parameterIndex="0" slotIndex="4294967281"/>
          <channelMap>
            <channel index="0" sourceIndex="0"/>
          </channelMap>
        </audioClip>
      </audioTrack>
      <audioTrack automationLaneOpenState="false" id="10004" index="5" select="false" visible="true">
        <trackParameters trackHeight="93" trackHue="51" trackMinimized="false">
          <name>Canción </name>
        </trackParameters>
        <trackAudioParameters audioChannelType="stereo" automationMode="1" monitoring="false" recordArmed="false" solo="false" soloSafe="false">
          <trackOutput outputID="10000" type="trackID"/>
          <trackInput inputID="1"/>
          <component componentGuid="af98a3b9-844b-4a7e-9a33-0535a449e967" componentID="Audition.Fader" id="trackFader" name="volume" powered="true">
            <parameter index="0" name="volume" parameterValue="1"/>
            <parameter index="1" name="static gain" parameterValue="1"/>
          </component>
          <component componentGuid="31716d3a-33e2-4754-b68d-5355383275a5" componentID="Audition.Mute" id="trackMute" name="Mute" powered="true">
            <parameter index="0" parameterValue="0"/>
            <parameter index="1" name="mute" parameterValue="0"/>
          </component>
          <component componentGuid="8297be7e-614a-448c-900d-aa70e3a6007b" componentID="Audition.StereoPanner" id="trackPan" name="StereoPanner" powered="true">
            <parameter index="0" name="Panorámica" parameterValue="0"/>
          </component>
          <component componentGuid="ed40227b-9f91-4493-a749-372f0844f584" componentID="Audition.EQ" id="trackEQ" name="EQ" powered="false">
            <parameter index="0" name="Frecuencia estante inferior" parameterValue="0.000834028352983295917510986328125"/>
            <parameter index="1" name="Ganancia estante inferior" parameterValue="0.5"/>
            <parameter index="2" name="Frecuencia estante superior" parameterValue="0.74979150295257568359375"/>
            <parameter index="3" name="Ganancia estante superior" parameterValue="0.5"/>
            <parameter index="4" name="Frecuencia central de banda de EC 1" parameterValue="0.00125104258768260478973388671875"/>
            <parameter index="5" name="Valor Q de banda de EC 1" parameterValue="0.000199989997781813144683837890625"/>
            <parameter index="6" name="Ganancia de banda de EC 1" parameterValue="0.5"/>
            <parameter index="7" name="Activación de banda de EC 1" parameterValue="1"/>
            <parameter index="8" name="Frecuencia central de banda de EC 2" parameterValue="0.0075062550604343414306640625"/>
            <parameter index="9" name="Valor Q de banda de EC 2" parameterValue="0.000199989997781813144683837890625"/>
            <parameter index="10" name="Ganancia de banda de EC 2" parameterValue="0.5"/>
            <parameter index="11" name="Activación de banda de EC 2" parameterValue="1"/>
            <parameter index="12" name="Frecuencia central de banda de EC 3" parameterValue="0.0325271077454090118408203125"/>
            <parameter index="13" name="Valor Q de banda de EC 3" parameterValue="0.000199989997781813144683837890625"/>
            <parameter index="14" name="Ganancia de banda de EC 3" parameterValue="0.5"/>
            <parameter index="15" name="Activación de banda de EC 3" parameterValue="1"/>
            <parameter index="16" name="Frecuencia central de banda de EC 4" parameterValue="0.13261051476001739501953125"/>
            <parameter index="17" name="Valor Q de banda de EC 4" parameterValue="0.000199989997781813144683837890625"/>
            <parameter index="18" name="Ganancia de banda de EC 4" parameterValue="0.5"/>
            <parameter index="19" name="Activación de banda de EC 4" parameterValue="1"/>
            <parameter index="20" name="Frecuencia central de banda de EC 5" parameterValue="0.532944142818450927734375"/>
            <parameter index="21" name="Valor Q de banda de EC 5" parameterValue="0.000199989997781813144683837890625"/>
            <parameter index="22" name="Ganancia de banda de EC 5" parameterValue="0.5"/>
            <parameter index="23" name="Activación de banda de EC 5" parameterValue="1"/>
            <parameter index="24" name="Ganancia maestra" parameterValue="0.666666686534881591796875"/>
            <parameter index="25" name="Constant Q" parameterValue="1"/>
            <parameter index="26" name="Orden de filtro de estante inferior" parameterValue="0"/>
            <parameter index="27" name="Orden de filtro de estante superior" parameterValue="0"/>
            <parameter index="28" name="Modo ultrasilencioso" parameterValue="0"/>
            <parameter index="29" name="Activar estante inferior" parameterValue="1"/>
            <parameter index="30" name="Activar estante superior" parameterValue="1"/>
            <parameter index="31" name="Velocidad de muestreo original" parameterValue="0.25"/>
            <parameter index="32" name="Ancho de banda de EC 1" parameterValue="0.002499990165233612060546875"/>
            <parameter index="33" name="Ancho de banda de EC 2" parameterValue="0.0099999904632568359375"/>
            <parameter index="34" name="Ancho de banda de EC 3" parameterValue="0.0399999916553497314453125"/>
            <parameter index="35" name="Ancho de banda de EC 4" parameterValue="0.15999998152256011962890625"/>
            <parameter index="36" name="Ancho de banda de EC 5" parameterValue="0.63999998569488525390625"/>
            <parameter index="37" name="Activación de filtro de pase alto" parameterValue="0"/>
            <parameter index="38" name="Frecuencia de límite de paso alto" parameterValue="0"/>
            <parameter index="39" name="Pendiente de paso alto" parameterValue="0.4000000059604644775390625"/>
            <parameter index="40" name="Activación de filtro de pase bajo" parameterValue="0"/>
            <parameter index="41" name="Frecuencia de límite de paso bajo" parameterValue="0.833194315433502197265625"/>
            <parameter index="42" name="Pendiente de paso bajo" parameterValue="0.4000000059604644775390625"/>
            <parameter index="43" name="Derivar" parameterValue="0"/>
            <parameter index="44" name="Rango de gráfico bajo" parameterValue="1"/>
          </component>
        </trackAudioParameters>
        <editParameter parameterIndex="0" slotIndex="4294967280"/>
        <audioClip clipAutoCrossfade="true" crossFadeHeadClipID="-1" crossFadeTailClipID="-1" endPoint="615473" fileID="3" hue="-1" id="0" lockedInTime="false" looped="false" name="canciondecuna 48000 1" offline="false" select="false" sourceInPoint="0" sourceOutPoint="168663" startPoint="446810" zOrder="0">
          <component componentGuid="8272e5ec-7262-4b55-9e7b-1d3b8799429b" componentID="Audition.Fader" id="clipGain" name="volume" powered="true">
            <parameter index="0" name="volume" parameterValue="1"/>
            <parameter index="1" name="static gain" parameterValue="1"/>
          </component>
          <component componentGuid="e5cf6bbd-00fa-4b93-b78a-dcfad61f41d5" componentID="Audition.Mute" id="clipMute" name="Mute" powered="true">
            <parameter index="0" parameterValue="0"/>
            <parameter index="1" name="mute" parameterValue="0"/>
          </component>
          <component componentGuid="7272304e-5144-4236-ada3-63983cfc3625" componentID="Audition.StereoPanner" id="clipPan" name="StereoPanner" powered="true">
            <parameter index="0" name="Panorámica" parameterValue="0"/>
          </component>
          <fadeIn crossFadeLinkType="linkedAsymmetric" endPoint="22194" shape="-50" startPoint="0" type="log"/>
          <fadeOut crossFadeLinkType="linkedAsymmetric" endPoint="168663" shape="-10" startPoint="130803" type="log"/>
          <editParameter parameterIndex="0" slotIndex="4294967280"/>
          <editParameter parameterIndex="0" slotIndex="4294967281"/>
          <channelMap>
            <channel index="0" sourceIndex="0"/>
            <channel index="1" sourceIndex="1"/>
          </channelMap>
        </audioClip>
      </audioTrack>
      <audioTrack automationLaneOpenState="false" id="10006" index="6" select="false" visible="true">
        <trackParameters trackHeight="93" trackHue="92" trackMinimized="false">
          <name>ambiente rio</name>
        </trackParameters>
        <trackAudioParameters audioChannelType="stereo" automationMode="1" monitoring="false" recordArmed="false" solo="false" soloSafe="false">
          <trackOutput outputID="10000" type="trackID"/>
          <trackInput inputID="1"/>
          <component componentGuid="e8cebed9-444f-4877-a8b4-d5083ad4470a" componentID="Audition.Fader" id="trackFader" name="volume" powered="true">
            <parameter index="0" name="volume" parameterValue="1"/>
            <parameter index="1" name="static gain" parameterValue="1"/>
          </component>
          <component componentGuid="693b0fce-991a-493e-ab7e-439790c2f66b" componentID="Audition.Mute" id="trackMute" name="Mute" powered="true">
            <parameter index="0" parameterValue="0"/>
            <parameter index="1" name="mute" parameterValue="0"/>
          </component>
          <component componentGuid="51094fee-e373-49a9-b8d3-66cec591b4c3" componentID="Audition.StereoPanner" id="trackPan" name="StereoPanner" powered="true">
            <parameter index="0" name="Panorámica" parameterValue="0"/>
          </component>
          <component componentGuid="fefd228e-070d-4a0f-af2e-91b5590caaa5" componentID="Audition.EQ" id="trackEQ" name="EQ" powered="false">
            <parameter index="0" name="Frecuencia estante inferior" parameterValue="0.000834028352983295917510986328125"/>
            <parameter index="1" name="Ganancia estante inferior" parameterValue="0.5"/>
            <parameter index="2" name="Frecuencia estante superior" parameterValue="0.74979150295257568359375"/>
            <parameter index="3" name="Ganancia estante superior" parameterValue="0.5"/>
            <parameter index="4" name="Frecuencia central de banda de EC 1" parameterValue="0.00125104258768260478973388671875"/>
            <parameter index="5" name="Valor Q de banda de EC 1" parameterValue="0.000199989997781813144683837890625"/>
            <parameter index="6" name="Ganancia de banda de EC 1" parameterValue="0.5"/>
            <parameter index="7" name="Activación de banda de EC 1" parameterValue="1"/>
            <parameter index="8" name="Frecuencia central de banda de EC 2" parameterValue="0.0075062550604343414306640625"/>
            <parameter index="9" name="Valor Q de banda de EC 2" parameterValue="0.000199989997781813144683837890625"/>
            <parameter index="10" name="Ganancia de banda de EC 2" parameterValue="0.5"/>
            <parameter index="11" name="Activación de banda de EC 2" parameterValue="1"/>
            <parameter index="12" name="Frecuencia central de banda de EC 3" parameterValue="0.0325271077454090118408203125"/>
            <parameter index="13" name="Valor Q de banda de EC 3" parameterValue="0.000199989997781813144683837890625"/>
            <parameter index="14" name="Ganancia de banda de EC 3" parameterValue="0.5"/>
            <parameter index="15" name="Activación de banda de EC 3" parameterValue="1"/>
            <parameter index="16" name="Frecuencia central de banda de EC 4" parameterValue="0.13261051476001739501953125"/>
            <parameter index="17" name="Valor Q de banda de EC 4" parameterValue="0.000199989997781813144683837890625"/>
            <parameter index="18" name="Ganancia de banda de EC 4" parameterValue="0.5"/>
            <parameter index="19" name="Activación de banda de EC 4" parameterValue="1"/>
            <parameter index="20" name="Frecuencia central de banda de EC 5" parameterValue="0.532944142818450927734375"/>
            <parameter index="21" name="Valor Q de banda de EC 5" parameterValue="0.000199989997781813144683837890625"/>
            <parameter index="22" name="Ganancia de banda de EC 5" parameterValue="0.5"/>
            <parameter index="23" name="Activación de banda de EC 5" parameterValue="1"/>
            <parameter index="24" name="Ganancia maestra" parameterValue="0.666666686534881591796875"/>
            <parameter index="25" name="Constant Q" parameterValue="1"/>
            <parameter index="26" name="Orden de filtro de estante inferior" parameterValue="0"/>
            <parameter index="27" name="Orden de filtro de estante superior" parameterValue="0"/>
            <parameter index="28" name="Modo ultrasilencioso" parameterValue="0"/>
            <parameter index="29" name="Activar estante inferior" parameterValue="1"/>
            <parameter index="30" name="Activar estante superior" parameterValue="1"/>
            <parameter index="31" name="Velocidad de muestreo original" parameterValue="0.25"/>
            <parameter index="32" name="Ancho de banda de EC 1" parameterValue="0.002499990165233612060546875"/>
            <parameter index="33" name="Ancho de banda de EC 2" parameterValue="0.0099999904632568359375"/>
            <parameter index="34" name="Ancho de banda de EC 3" parameterValue="0.0399999916553497314453125"/>
            <parameter index="35" name="Ancho de banda de EC 4" parameterValue="0.15999998152256011962890625"/>
            <parameter index="36" name="Ancho de banda de EC 5" parameterValue="0.63999998569488525390625"/>
            <parameter index="37" name="Activación de filtro de pase alto" parameterValue="0"/>
            <parameter index="38" name="Frecuencia de límite de paso alto" parameterValue="0"/>
            <parameter index="39" name="Pendiente de paso alto" parameterValue="0.4000000059604644775390625"/>
            <parameter index="40" name="Activación de filtro de pase bajo" parameterValue="0"/>
            <parameter index="41" name="Frecuencia de límite de paso bajo" parameterValue="0.833194315433502197265625"/>
            <parameter index="42" name="Pendiente de paso bajo" parameterValue="0.4000000059604644775390625"/>
            <parameter index="43" name="Derivar" parameterValue="0"/>
            <parameter index="44" name="Rango de gráfico bajo" parameterValue="1"/>
          </component>
        </trackAudioParameters>
        <editParameter parameterIndex="0" slotIndex="4294967280"/>
        <audioClip clipAutoCrossfade="true" crossFadeHeadClipID="-1" crossFadeTailClipID="-1" endPoint="2051296" fileID="9" hue="-1" id="0" lockedInTime="false" looped="false" name="ranas 48000 1" offline="false" select="false" sourceInPoint="0" sourceOutPoint="705287" startPoint="1346009" zOrder="0">
          <component componentGuid="36e5b11c-5917-4b60-87a0-e3adb3690511" componentID="Audition.Fader" id="clipGain" name="volume" powered="true">
            <parameter index="0" name="volume" parameterValue="0.015529043041169643402099609375"/>
            <parameter index="1" name="static gain" parameterValue="1"/>
          </component>
          <component componentGuid="60240c39-c1c3-498a-926f-08396ed61ebd" componentID="Audition.Mute" id="clipMute" name="Mute" powered="true">
            <parameter index="0" parameterValue="0"/>
            <parameter index="1" name="mute" parameterValue="0"/>
          </component>
          <component componentGuid="c5975e65-4437-471d-b399-107c863c010b" componentID="Audition.StereoPanner" id="clipPan" name="StereoPanner" powered="true">
            <parameter index="0" name="Panorámica" parameterValue="0"/>
          </component>
          <fadeIn crossFadeLinkType="linkedAsymmetric" endPoint="0" shape="18" startPoint="0" type="log"/>
          <fadeOut crossFadeLinkType="linkedAsymmetric" endPoint="705287" shape="-58" startPoint="571157" type="log"/>
          <editParameter parameterIndex="0" slotIndex="4294967281"/>
          <editParameter parameterIndex="0" slotIndex="4294967280"/>
          <channelMap>
            <channel index="0" sourceIndex="0"/>
          </channelMap>
        </audioClip>
        <audioClip clipAutoCrossfade="true" crossFadeHeadClipID="-1" crossFadeTailClipID="-1" endPoint="2730858" fileID="14" hue="-1" id="1" lockedInTime="false" looped="false" name="corrienterio 48000 1" offline="false" select="false" sourceInPoint="0" sourceOutPoint="679562" startPoint="2051296" zOrder="1">
          <component componentGuid="506b47e2-6277-42ac-865f-c6cc0b8898e3" componentID="Audition.Fader" id="clipGain" name="volume" powered="true">
            <parameter index="0" name="volume" parameterValue="0.15709473192691802978515625"/>
            <parameter index="1" name="static gain" parameterValue="1"/>
          </component>
          <component componentGuid="b3401768-2d32-4d80-aec7-0a20c6b4ec3e" componentID="Audition.Mute" id="clipMute" name="Mute" powered="true">
            <parameter index="0" parameterValue="0"/>
            <parameter index="1" name="mute" parameterValue="0"/>
          </component>
          <component componentGuid="c03402f0-3491-4963-9a17-1c6cfca03787" componentID="Audition.StereoPanner" id="clipPan" name="StereoPanner" powered="true">
            <parameter index="0" name="Panorámica" parameterValue="0"/>
          </component>
          <fadeIn crossFadeLinkType="linkedAsymmetric" endPoint="43250" shape="-24" startPoint="0" type="log"/>
          <fadeOut crossFadeLinkType="linkedAsymmetric" endPoint="679562" shape="0" startPoint="679562" type="cosine"/>
          <editParameter parameterIndex="0" slotIndex="4294967281"/>
          <editParameter parameterIndex="0" slotIndex="4294967280"/>
          <channelMap>
            <channel index="0" sourceIndex="0"/>
            <channel index="1" sourceIndex="1"/>
          </channelMap>
        </audioClip>
      </audioTrack>
      <audioTrack automationLaneOpenState="false" id="10007" index="7" select="false" visible="true">
        <trackParameters trackHeight="93" trackHue="130" trackMinimized="false">
          <name>ambinte bosque</name>
        </trackParameters>
        <trackAudioParameters audioChannelType="stereo" automationMode="1" monitoring="false" recordArmed="false" solo="false" soloSafe="false">
          <trackOutput outputID="10000" type="trackID"/>
          <trackInput inputID="1"/>
          <component componentGuid="9a922c87-eb9e-4c57-8edf-7c4361764451" componentID="Audition.Fader" id="trackFader" name="volume" powered="true">
            <parameter index="0" name="volume" parameterValue="1"/>
            <parameter index="1" name="static gain" parameterValue="1"/>
          </component>
          <component componentGuid="233bf22b-cb0b-4141-a600-29331208ac1b" componentID="Audition.Mute" id="trackMute" name="Mute" powered="true">
            <parameter index="0" parameterValue="0"/>
            <parameter index="1" name="mute" parameterValue="0"/>
          </component>
          <component componentGuid="6cd08583-f1e0-4d37-89a9-2abe2c17fbb3" componentID="Audition.StereoPanner" id="trackPan" name="StereoPanner" powered="true">
            <parameter index="0" name="Panorámica" parameterValue="0"/>
          </component>
          <component componentGuid="d19b67b6-f69b-4784-8d81-110b36a57f72" componentID="Audition.EQ" id="trackEQ" name="EQ" powered="false">
            <parameter index="0" name="Frecuencia estante inferior" parameterValue="0.000834028352983295917510986328125"/>
            <parameter index="1" name="Ganancia estante inferior" parameterValue="0.5"/>
            <parameter index="2" name="Frecuencia estante superior" parameterValue="0.74979150295257568359375"/>
            <parameter index="3" name="Ganancia estante superior" parameterValue="0.5"/>
            <parameter index="4" name="Frecuencia central de banda de EC 1" parameterValue="0.00125104258768260478973388671875"/>
            <parameter index="5" name="Valor Q de banda de EC 1" parameterValue="0.000199989997781813144683837890625"/>
            <parameter index="6" name="Ganancia de banda de EC 1" parameterValue="0.5"/>
            <parameter index="7" name="Activación de banda de EC 1" parameterValue="1"/>
            <parameter index="8" name="Frecuencia central de banda de EC 2" parameterValue="0.0075062550604343414306640625"/>
            <parameter index="9" name="Valor Q de banda de EC 2" parameterValue="0.000199989997781813144683837890625"/>
            <parameter index="10" name="Ganancia de banda de EC 2" parameterValue="0.5"/>
            <parameter index="11" name="Activación de banda de EC 2" parameterValue="1"/>
            <parameter index="12" name="Frecuencia central de banda de EC 3" parameterValue="0.0325271077454090118408203125"/>
            <parameter index="13" name="Valor Q de banda de EC 3" parameterValue="0.000199989997781813144683837890625"/>
            <parameter index="14" name="Ganancia de banda de EC 3" parameterValue="0.5"/>
            <parameter index="15" name="Activación de banda de EC 3" parameterValue="1"/>
            <parameter index="16" name="Frecuencia central de banda de EC 4" parameterValue="0.13261051476001739501953125"/>
            <parameter index="17" name="Valor Q de banda de EC 4" parameterValue="0.000199989997781813144683837890625"/>
            <parameter index="18" name="Ganancia de banda de EC 4" parameterValue="0.5"/>
            <parameter index="19" name="Activación de banda de EC 4" parameterValue="1"/>
            <parameter index="20" name="Frecuencia central de banda de EC 5" parameterValue="0.532944142818450927734375"/>
            <parameter index="21" name="Valor Q de banda de EC 5" parameterValue="0.000199989997781813144683837890625"/>
            <parameter index="22" name="Ganancia de banda de EC 5" parameterValue="0.5"/>
            <parameter index="23" name="Activación de banda de EC 5" parameterValue="1"/>
            <parameter index="24" name="Ganancia maestra" parameterValue="0.666666686534881591796875"/>
            <parameter index="25" name="Constant Q" parameterValue="1"/>
            <parameter index="26" name="Orden de filtro de estante inferior" parameterValue="0"/>
            <parameter index="27" name="Orden de filtro de estante superior" parameterValue="0"/>
            <parameter index="28" name="Modo ultrasilencioso" parameterValue="0"/>
            <parameter index="29" name="Activar estante inferior" parameterValue="1"/>
            <parameter index="30" name="Activar estante superior" parameterValue="1"/>
            <parameter index="31" name="Velocidad de muestreo original" parameterValue="0.25"/>
            <parameter index="32" name="Ancho de banda de EC 1" parameterValue="0.002499990165233612060546875"/>
            <parameter index="33" name="Ancho de banda de EC 2" parameterValue="0.0099999904632568359375"/>
            <parameter index="34" name="Ancho de banda de EC 3" parameterValue="0.0399999916553497314453125"/>
            <parameter index="35" name="Ancho de banda de EC 4" parameterValue="0.15999998152256011962890625"/>
            <parameter index="36" name="Ancho de banda de EC 5" parameterValue="0.63999998569488525390625"/>
            <parameter index="37" name="Activación de filtro de pase alto" parameterValue="0"/>
            <parameter index="38" name="Frecuencia de límite de paso alto" parameterValue="0"/>
            <parameter index="39" name="Pendiente de paso alto" parameterValue="0.4000000059604644775390625"/>
            <parameter index="40" name="Activación de filtro de pase bajo" parameterValue="0"/>
            <parameter index="41" name="Frecuencia de límite de paso bajo" parameterValue="0.833194315433502197265625"/>
            <parameter index="42" name="Pendiente de paso bajo" parameterValue="0.4000000059604644775390625"/>
            <parameter index="43" name="Derivar" parameterValue="0"/>
            <parameter index="44" name="Rango de gráfico bajo" parameterValue="1"/>
          </component>
        </trackAudioParameters>
        <editParameter parameterIndex="0" slotIndex="4294967280"/>
        <audioClip clipAutoCrossfade="true" crossFadeHeadClipID="-1" crossFadeTailClipID="-1" endPoint="2051296" fileID="8" hue="-1" id="0" lockedInTime="false" looped="true" name="WhatsApp Audio 2020-11-16 at 1.47.10 PM 48000 1" offline="false" select="false" sourceInPoint="0" sourceOutPoint="705287" startPoint="1346009" zOrder="0">
          <component componentGuid="24a996ed-63e4-4af9-864e-0f4985e1fd6f" componentID="Audition.Fader" id="clipGain" name="volume" powered="true">
            <parameter index="0" name="volume" parameterValue="0.0507526695728302001953125"/>
            <parameter index="1" name="static gain" parameterValue="1"/>
          </component>
          <component componentGuid="2124882b-7003-4f4c-8f51-7360d79adc25" componentID="Audition.Mute" id="clipMute" name="Mute" powered="true">
            <parameter index="0" parameterValue="0"/>
            <parameter index="1" name="mute" parameterValue="0"/>
          </component>
          <component componentGuid="4ca7d43b-2e25-45bc-b824-159c3b5ce5ac" componentID="Audition.StereoPanner" id="clipPan" name="StereoPanner" powered="true">
            <parameter index="0" name="Panorámica" parameterValue="0"/>
          </component>
          <fadeIn crossFadeLinkType="linkedAsymmetric" endPoint="81694" shape="-33" startPoint="0" type="log"/>
          <fadeOut crossFadeLinkType="linkedAsymmetric" endPoint="705287" shape="19" startPoint="705287" type="log"/>
          <editParameter parameterIndex="0" slotIndex="4294967281"/>
          <editParameter parameterIndex="0" slotIndex="4294967280"/>
          <channelMap>
            <channel index="0" sourceIndex="0"/>
          </channelMap>
        </audioClip>
        <audioClip clipAutoCrossfade="true" crossFadeHeadClipID="-1" crossFadeTailClipID="-1" endPoint="1762411" fileID="7" hue="-1" id="1" lockedInTime="false" looped="false" name="buho 48000 1" offline="false" select="false" sourceInPoint="0" sourceOutPoint="117862" startPoint="1644549" zOrder="3">
          <component componentGuid="429f0b5f-17c6-49a6-9f62-948da5736b85" componentID="Audition.Fader" id="clipGain" name="volume" powered="true">
            <parameter index="0" name="volume" parameterValue="0.2354023456573486328125"/>
            <parameter index="1" name="static gain" parameterValue="1"/>
          </component>
          <component componentGuid="f4b95d61-9bc8-4782-b3a3-bb3837b70e79" componentID="Audition.Mute" id="clipMute" name="Mute" powered="true">
            <parameter index="0" parameterValue="0"/>
            <parameter index="1" name="mute" parameterValue="0"/>
          </component>
          <component componentGuid="94851410-85fb-4e1b-ab06-cd640a56d9a5" componentID="Audition.StereoPanner" id="clipPan" name="StereoPanner" powered="true">
            <parameter index="0" name="Panorámica" parameterValue="0"/>
          </component>
          <fadeIn crossFadeLinkType="linkedAsymmetric" endPoint="0" shape="0" startPoint="0" type="cosine"/>
          <fadeOut crossFadeLinkType="linkedAsymmetric" endPoint="117862" shape="0" startPoint="117862" type="cosine"/>
          <editParameter parameterIndex="0" slotIndex="4294967281"/>
          <editParameter parameterIndex="0" slotIndex="4294967280"/>
          <channelMap>
            <channel index="0" sourceIndex="0"/>
          </channelMap>
        </audioClip>
        <audioClip clipAutoCrossfade="true" crossFadeHeadClipID="-1" crossFadeTailClipID="-1" endPoint="1966772" fileID="7" hue="-1" id="2" lockedInTime="false" looped="false" name="buho 48000 1" offline="false" select="false" sourceInPoint="0" sourceOutPoint="117862" startPoint="1848910" zOrder="4">
          <component componentGuid="99841353-fd22-4680-825f-50f4f74e4d05" componentID="Audition.Fader" id="clipGain" name="volume" powered="true">
            <parameter index="0" name="volume" parameterValue="0.2354023456573486328125"/>
            <parameter index="1" name="static gain" parameterValue="1"/>
          </component>
          <component componentGuid="20cee18c-450b-4635-a32a-9b5bad90750f" componentID="Audition.Mute" id="clipMute" name="Mute" powered="true">
            <parameter index="0" parameterValue="0"/>
            <parameter index="1" name="mute" parameterValue="0"/>
          </component>
          <component componentGuid="55e82139-90ae-41ae-b247-3dea98d90f48" componentID="Audition.StereoPanner" id="clipPan" name="StereoPanner" powered="true">
            <parameter index="0" name="Panorámica" parameterValue="0"/>
          </component>
          <fadeIn crossFadeLinkType="linkedAsymmetric" endPoint="0" shape="0" startPoint="0" type="cosine"/>
          <fadeOut crossFadeLinkType="linkedAsymmetric" endPoint="117862" shape="0" startPoint="117862" type="cosine"/>
          <editParameter parameterIndex="0" slotIndex="4294967281"/>
          <editParameter parameterIndex="0" slotIndex="4294967280"/>
          <channelMap>
            <channel index="0" sourceIndex="0"/>
          </channelMap>
        </audioClip>
        <audioClip clipAutoCrossfade="true" crossFadeHeadClipID="-1" crossFadeTailClipID="-1" endPoint="3332759" fileID="9" hue="-1" id="3" lockedInTime="false" looped="false" name="ranas 48000 1" offline="false" select="false" sourceInPoint="0" sourceOutPoint="1281463" startPoint="2051296" zOrder="1">
          <component componentGuid="68599a13-1b54-4d9b-8ba6-5e9507ed1f2e" componentID="Audition.Fader" id="clipGain" name="volume" powered="true">
            <parameter index="0" name="volume" parameterValue="0.0605590753257274627685546875"/>
            <parameter index="1" name="static gain" parameterValue="1"/>
          </component>
          <component componentGuid="96865a98-9d9e-47b6-b4e9-e3bd99b431e5" componentID="Audition.Mute" id="clipMute" name="Mute" powered="true">
            <parameter index="0" parameterValue="0"/>
            <parameter index="1" name="mute" parameterValue="0"/>
          </component>
          <component componentGuid="79ae3390-2a35-4e61-be3b-8ec84822f0ae" componentID="Audition.StereoPanner" id="clipPan" name="StereoPanner" powered="true">
            <parameter index="0" name="Panorámica" parameterValue="0"/>
          </component>
          <fadeIn crossFadeLinkType="linkedAsymmetric" endPoint="0" shape="0" startPoint="0" type="cosine"/>
          <fadeOut crossFadeLinkType="linkedAsymmetric" endPoint="1281463" shape="0" startPoint="1281463" type="cosine"/>
          <editParameter parameterIndex="0" slotIndex="4294967281"/>
          <editParameter parameterIndex="0" slotIndex="4294967280"/>
          <channelMap>
            <channel index="0" sourceIndex="0"/>
          </channelMap>
        </audioClip>
        <audioClip clipAutoCrossfade="true" crossFadeHeadClipID="-1" crossFadeTailClipID="-1" endPoint="2169158" fileID="7" hue="-1" id="4" lockedInTime="false" looped="false" name="buho 48000 1" offline="false" select="false" sourceInPoint="0" sourceOutPoint="117862" startPoint="2051296" zOrder="2">
          <component componentGuid="ecd127e1-d64f-456a-9548-af114dfd0c0b" componentID="Audition.Fader" id="clipGain" name="volume" powered="true">
            <parameter index="0" name="volume" parameterValue="0.2354023456573486328125"/>
            <parameter index="1" name="static gain" parameterValue="1"/>
          </component>
          <component componentGuid="f7f68f5e-035f-4adb-9b0f-eb1201a138aa" componentID="Audition.Mute" id="clipMute" name="Mute" powered="true">
            <parameter index="0" parameterValue="0"/>
            <parameter index="1" name="mute" parameterValue="0"/>
          </component>
          <component componentGuid="2eb715cd-e532-459c-8b33-29356d53bba2" componentID="Audition.StereoPanner" id="clipPan" name="StereoPanner" powered="true">
            <parameter index="0" name="Panorámica" parameterValue="0"/>
          </component>
          <fadeIn crossFadeLinkType="linkedAsymmetric" endPoint="0" shape="0" startPoint="0" type="cosine"/>
          <fadeOut crossFadeLinkType="linkedAsymmetric" endPoint="117862" shape="0" startPoint="117862" type="cosine"/>
          <editParameter parameterIndex="0" slotIndex="4294967281"/>
          <editParameter parameterIndex="0" slotIndex="4294967280"/>
          <channelMap>
            <channel index="0" sourceIndex="0"/>
          </channelMap>
        </audioClip>
      </audioTrack>
      <masterTrack automationLaneOpenState="false" id="10000" index="8" select="false" visible="true">
        <trackParameters trackHeight="93" trackHue="-1" trackMinimized="false">
          <name>Maestro</name>
        </trackParameters>
        <trackAudioParameters audioChannelType="stereo" automationMode="1" monitoring="false" recordArmed="false" solo="false" soloSafe="true">
          <trackOutput outputID="1" type="hardwareOutput"/>
          <trackInput inputID="-1"/>
          <component componentGuid="0ce60ebc-fa15-4b91-b1bc-4d58f9f2480f" componentID="Audition.Fader" id="trackFader" name="volume" powered="true">
            <parameter index="0" name="volume" parameterValue="1"/>
            <parameter index="1" name="static gain" parameterValue="1"/>
          </component>
          <component componentGuid="78a31db6-b598-4c65-b48c-4fa2e88a25d4" componentID="Audition.Mute" id="trackMute" name="Mute" powered="true">
            <parameter index="0" parameterValue="0"/>
            <parameter index="1" name="mute" parameterValue="0"/>
          </component>
          <component componentGuid="67e79b1d-e031-49bb-92ea-92b48f0ee831" componentID="Audition.StereoPanner" id="trackPan" name="StereoPanner" powered="true">
            <parameter index="0" name="Panorámica" parameterValue="0"/>
          </component>
          <component componentGuid="9da8fe32-1cab-4644-a6b9-1a6588975163" componentID="Audition.EQ" id="trackEQ" name="EQ" powered="false">
            <parameter index="0" name="Frecuencia estante inferior" parameterValue="0.000834028352983295917510986328125"/>
            <parameter index="1" name="Ganancia estante inferior" parameterValue="0.5"/>
            <parameter index="2" name="Frecuencia estante superior" parameterValue="0.74979150295257568359375"/>
            <parameter index="3" name="Ganancia estante superior" parameterValue="0.5"/>
            <parameter index="4" name="Frecuencia central de banda de EC 1" parameterValue="0.00125104258768260478973388671875"/>
            <parameter index="5" name="Valor Q de banda de EC 1" parameterValue="0.000199989997781813144683837890625"/>
            <parameter index="6" name="Ganancia de banda de EC 1" parameterValue="0.5"/>
            <parameter index="7" name="Activación de banda de EC 1" parameterValue="1"/>
            <parameter index="8" name="Frecuencia central de banda de EC 2" parameterValue="0.0075062550604343414306640625"/>
            <parameter index="9" name="Valor Q de banda de EC 2" parameterValue="0.000199989997781813144683837890625"/>
            <parameter index="10" name="Ganancia de banda de EC 2" parameterValue="0.5"/>
            <parameter index="11" name="Activación de banda de EC 2" parameterValue="1"/>
            <parameter index="12" name="Frecuencia central de banda de EC 3" parameterValue="0.0325271077454090118408203125"/>
            <parameter index="13" name="Valor Q de banda de EC 3" parameterValue="0.000199989997781813144683837890625"/>
            <parameter index="14" name="Ganancia de banda de EC 3" parameterValue="0.5"/>
            <parameter index="15" name="Activación de banda de EC 3" parameterValue="1"/>
            <parameter index="16" name="Frecuencia central de banda de EC 4" parameterValue="0.13261051476001739501953125"/>
            <parameter index="17" name="Valor Q de banda de EC 4" parameterValue="0.000199989997781813144683837890625"/>
            <parameter index="18" name="Ganancia de banda de EC 4" parameterValue="0.5"/>
            <parameter index="19" name="Activación de banda de EC 4" parameterValue="1"/>
            <parameter index="20" name="Frecuencia central de banda de EC 5" parameterValue="0.532944142818450927734375"/>
            <parameter index="21" name="Valor Q de banda de EC 5" parameterValue="0.000199989997781813144683837890625"/>
            <parameter index="22" name="Ganancia de banda de EC 5" parameterValue="0.5"/>
            <parameter index="23" name="Activación de banda de EC 5" parameterValue="1"/>
            <parameter index="24" name="Ganancia maestra" parameterValue="0.666666686534881591796875"/>
            <parameter index="25" name="Constant Q" parameterValue="1"/>
            <parameter index="26" name="Orden de filtro de estante inferior" parameterValue="0"/>
            <parameter index="27" name="Orden de filtro de estante superior" parameterValue="0"/>
            <parameter index="28" name="Modo ultrasilencioso" parameterValue="0"/>
            <parameter index="29" name="Activar estante inferior" parameterValue="1"/>
            <parameter index="30" name="Activar estante superior" parameterValue="1"/>
            <parameter index="31" name="Velocidad de muestreo original" parameterValue="0.25"/>
            <parameter index="32" name="Ancho de banda de EC 1" parameterValue="0.002499990165233612060546875"/>
            <parameter index="33" name="Ancho de banda de EC 2" parameterValue="0.0099999904632568359375"/>
            <parameter index="34" name="Ancho de banda de EC 3" parameterValue="0.0399999916553497314453125"/>
            <parameter index="35" name="Ancho de banda de EC 4" parameterValue="0.15999998152256011962890625"/>
            <parameter index="36" name="Ancho de banda de EC 5" parameterValue="0.63999998569488525390625"/>
            <parameter index="37" name="Activación de filtro de pase alto" parameterValue="0"/>
            <parameter index="38" name="Frecuencia de límite de paso alto" parameterValue="0"/>
            <parameter index="39" name="Pendiente de paso alto" parameterValue="0.4000000059604644775390625"/>
            <parameter index="40" name="Activación de filtro de pase bajo" parameterValue="0"/>
            <parameter index="41" name="Frecuencia de límite de paso bajo" parameterValue="0.833194315433502197265625"/>
            <parameter index="42" name="Pendiente de paso bajo" parameterValue="0.4000000059604644775390625"/>
            <parameter index="43" name="Derivar" parameterValue="0"/>
            <parameter index="44" name="Rango de gráfico bajo" parameterValue="1"/>
          </component>
        </trackAudioParameters>
        <editParameter parameterIndex="0" slotIndex="4294967280"/>
      </masterTrack>
    </tracks>
    <sessionState ctiPosition="2606822" smpteStart="0">
      <selectionState selectionDuration="0" selectionStart="2606822"/>
      <viewState horizontalViewDuration="2650252" horizontalViewStart="1258869" trackControlsWidth="224" verticalScrollOffset="0"/>
      <timeFormatState beatsPerBar="4" beatsPerMinute="120" customFrameRate="12" linkToDefaultTimeSettings="false" noteLength="4" subdivisions="16" timeCodeDropFrame="false" timeCodeFrameRate="30" timeCodeNTSC="false" timeFormat="timeFormatDecimal"/>
      <mixingOptionState defaultPanModeLogarithmic="false" panPower="-3"/>
    </sessionState>
    <xmpMetadata><![CDATA[<?xpacket begin="﻿" id="W5M0MpCehiHzreSzNTczkc9d"?>
<x:xmpmeta xmlns:x="adobe:ns:meta/" x:xmptk="Adobe XMP Core 5.6-c148 79.163765, 2019/01/24-18:11:46        ">
   <rdf:RDF xmlns:rdf="http://www.w3.org/1999/02/22-rdf-syntax-ns#">
      <rdf:Description rdf:about=""
            xmlns:xmp="http://ns.adobe.com/xap/1.0/"
            xmlns:xmpMM="http://ns.adobe.com/xap/1.0/mm/"
            xmlns:stEvt="http://ns.adobe.com/xap/1.0/sType/ResourceEvent#"
            xmlns:stRef="http://ns.adobe.com/xap/1.0/sType/ResourceRef#"
            xmlns:dc="http://purl.org/dc/elements/1.1/"
            xmlns:xmpDM="http://ns.adobe.com/xmp/1.0/DynamicMedia/">
         <xmp:CreatorTool>Adobe Audition 12.1 (Windows)</xmp:CreatorTool>
         <xmp:CreateDate>2020-11-16T14:37:54-05:00</xmp:CreateDate>
         <xmp:MetadataDate>2020-11-16T16:35:53-05:00</xmp:MetadataDate>
         <xmp:ModifyDate>2020-11-16T16:35:53-05:00</xmp:ModifyDate>
         <xmpMM:InstanceID>xmp.iid:472c37b4-45b4-064a-b38d-9075dc3e1904</xmpMM:InstanceID>
         <xmpMM:DocumentID>xmp.did:472c37b4-45b4-064a-b38d-9075dc3e1904</xmpMM:DocumentID>
         <xmpMM:OriginalDocumentID>xmp.did:1969f3a7-21d1-7742-b72c-617c7c381234</xmpMM:OriginalDocumentID>
         <xmpMM:History>
            <rdf:Seq>
               <rdf:li rdf:parseType="Resource">
                  <stEvt:action>saved</stEvt:action>
                  <stEvt:instanceID>xmp.iid:1969f3a7-21d1-7742-b72c-617c7c381234</stEvt:instanceID>
                  <stEvt:when>2020-11-16T14:37:57-05:00</stEvt:when>
                  <stEvt:softwareAgent>Adobe Audition 12.1 (Windows)</stEvt:softwareAgent>
                  <stEvt:changed>/metadata</stEvt:changed>
               </rdf:li>
               <rdf:li rdf:parseType="Resource">
                  <stEvt:action>saved</stEvt:action>
                  <stEvt:instanceID>xmp.iid:677ff4f3-cb27-534c-b502-6c5cd17aaac8</stEvt:instanceID>
                  <stEvt:when>2020-11-16T16:35:53-05:00</stEvt:when>
                  <stEvt:softwareAgent>Adobe Audition 12.1 (Windows)</stEvt:softwareAgent>
                  <stEvt:changed>/metadata</stEvt:changed>
               </rdf:li>
               <rdf:li rdf:parseType="Resource">
                  <stEvt:action>saved</stEvt:action>
                  <stEvt:instanceID>xmp.iid:472c37b4-45b4-064a-b38d-9075dc3e1904</stEvt:instanceID>
                  <stEvt:when>2020-11-16T16:35:53-05:00</stEvt:when>
                  <stEvt:softwareAgent>Adobe Audition 12.1 (Windows)</stEvt:softwareAgent>
                  <stEvt:changed>/</stEvt:changed>
               </rdf:li>
            </rdf:Seq>
         </xmpMM:History>
         <xmpMM:DerivedFrom rdf:parseType="Resource">
            <stRef:instanceID>xmp.iid:677ff4f3-cb27-534c-b502-6c5cd17aaac8</stRef:instanceID>
            <stRef:documentID>xmp.did:1969f3a7-21d1-7742-b72c-617c7c381234</stRef:documentID>
            <stRef:originalDocumentID>xmp.did:1969f3a7-21d1-7742-b72c-617c7c381234</stRef:originalDocumentID>
         </xmpMM:DerivedFrom>
         <dc:format>application/xml</dc:format>
         <xmpDM:Tracks>
            <rdf:Bag>
               <rdf:li rdf:parseType="Resource">
                  <xmpDM:trackName>CuePoint Markers</xmpDM:trackName>
                  <xmpDM:trackType>Cue</xmpDM:trackType>
                  <xmpDM:frameRate>f48000</xmpDM:frameRate>
               </rdf:li>
               <rdf:li rdf:parseType="Resource">
                  <xmpDM:trackName>CD Track Markers</xmpDM:trackName>
                  <xmpDM:trackType>Track</xmpDM:trackType>
                  <xmpDM:frameRate>f48000</xmpDM:frameRate>
               </rdf:li>
               <rdf:li rdf:parseType="Resource">
                  <xmpDM:trackName>Subclip Markers</xmpDM:trackName>
                  <xmpDM:trackType>InOut</xmpDM:trackType>
                  <xmpDM:frameRate>f48000</xmpDM:frameRate>
               </rdf:li>
            </rdf:Bag>
         </xmpDM:Tracks>
      </rdf:Description>
   </rdf:RDF>
</x:xmpmeta>
                                                                                                    
                                                                                                    
                                                                                                    
                                                                                                    
                                                                                                    
                                                                                                    
                                                                                                    
                                                                                                    
                                                                                                    
                                                                                                    
                                                                                                    
                                                                                                    
                                                                                                    
                                                                                                    
                                                                                                    
                                                                                                    
                                                                                                    
                                                                                                    
                                                                                                    
                                                                                                    
                           
<?xpacket end="w"?>]]></xmpMetadata>
    <clipGroups/>
    <metronome enabled="false" pattern="downBeat subdivision subdivision subdivision " soundSet="sticks">
      <metronomeTrack automationLaneOpenState="false" id="40000" index="0" select="false" visible="false">
        <trackParameters trackHeight="77" trackHue="-1" trackMinimized="false">
          <name>Metrónomo</name>
        </trackParameters>
        <trackAudioParameters audioChannelType="mono" automationMode="1" monitoring="false" recordArmed="false" solo="false" soloSafe="true">
          <trackOutput outputID="10000" type="trackID"/>
          <trackInput inputID="-1"/>
          <component componentGuid="727ba2b8-04dd-4e1f-bd59-b3391cee50c0" componentID="Audition.Fader" id="trackFader" name="volume" powered="true">
            <parameter index="0" name="volume" parameterValue="0.50118720531463623046875"/>
            <parameter index="1" name="static gain" parameterValue="1"/>
          </component>
          <component componentGuid="4d759201-5fa9-48a9-a67a-9056f022d5fe" componentID="Audition.Mute" id="trackMute" name="Mute" powered="true">
            <parameter index="0" parameterValue="0"/>
            <parameter index="1" name="mute" parameterValue="0"/>
          </component>
          <component componentGuid="8b102bcf-3f36-4b98-9c63-212e2ee14c1e" componentID="Audition.StereoPanner" id="trackPan" name="StereoPanner" powered="true">
            <parameter index="0" name="Panorámica" parameterValue="0"/>
          </component>
          <component componentGuid="c09b8275-0ba0-4201-9f51-d6484388aaaa" componentID="Audition.EQ" id="trackEQ" name="EQ" powered="false">
            <parameter index="0" name="Frecuencia estante inferior" parameterValue="0.000834028352983295917510986328125"/>
            <parameter index="1" name="Ganancia estante inferior" parameterValue="0.5"/>
            <parameter index="2" name="Frecuencia estante superior" parameterValue="0.74979150295257568359375"/>
            <parameter index="3" name="Ganancia estante superior" parameterValue="0.5"/>
            <parameter index="4" name="Frecuencia central de banda de EC 1" parameterValue="0.00125104258768260478973388671875"/>
            <parameter index="5" name="Valor Q de banda de EC 1" parameterValue="0.000199989997781813144683837890625"/>
            <parameter index="6" name="Ganancia de banda de EC 1" parameterValue="0.5"/>
            <parameter index="7" name="Activación de banda de EC 1" parameterValue="1"/>
            <parameter index="8" name="Frecuencia central de banda de EC 2" parameterValue="0.0075062550604343414306640625"/>
            <parameter index="9" name="Valor Q de banda de EC 2" parameterValue="0.000199989997781813144683837890625"/>
            <parameter index="10" name="Ganancia de banda de EC 2" parameterValue="0.5"/>
            <parameter index="11" name="Activación de banda de EC 2" parameterValue="1"/>
            <parameter index="12" name="Frecuencia central de banda de EC 3" parameterValue="0.0325271077454090118408203125"/>
            <parameter index="13" name="Valor Q de banda de EC 3" parameterValue="0.000199989997781813144683837890625"/>
            <parameter index="14" name="Ganancia de banda de EC 3" parameterValue="0.5"/>
            <parameter index="15" name="Activación de banda de EC 3" parameterValue="1"/>
            <parameter index="16" name="Frecuencia central de banda de EC 4" parameterValue="0.13261051476001739501953125"/>
            <parameter index="17" name="Valor Q de banda de EC 4" parameterValue="0.000199989997781813144683837890625"/>
            <parameter index="18" name="Ganancia de banda de EC 4" parameterValue="0.5"/>
            <parameter index="19" name="Activación de banda de EC 4" parameterValue="1"/>
            <parameter index="20" name="Frecuencia central de banda de EC 5" parameterValue="0.532944142818450927734375"/>
            <parameter index="21" name="Valor Q de banda de EC 5" parameterValue="0.000199989997781813144683837890625"/>
            <parameter index="22" name="Ganancia de banda de EC 5" parameterValue="0.5"/>
            <parameter index="23" name="Activación de banda de EC 5" parameterValue="1"/>
            <parameter index="24" name="Ganancia maestra" parameterValue="0.666666686534881591796875"/>
            <parameter index="25" name="Constant Q" parameterValue="1"/>
            <parameter index="26" name="Orden de filtro de estante inferior" parameterValue="0"/>
            <parameter index="27" name="Orden de filtro de estante superior" parameterValue="0"/>
            <parameter index="28" name="Modo ultrasilencioso" parameterValue="0"/>
            <parameter index="29" name="Activar estante inferior" parameterValue="1"/>
            <parameter index="30" name="Activar estante superior" parameterValue="1"/>
            <parameter index="31" name="Velocidad de muestreo original" parameterValue="0.25"/>
            <parameter index="32" name="Ancho de banda de EC 1" parameterValue="0.002499990165233612060546875"/>
            <parameter index="33" name="Ancho de banda de EC 2" parameterValue="0.0099999904632568359375"/>
            <parameter index="34" name="Ancho de banda de EC 3" parameterValue="0.0399999916553497314453125"/>
            <parameter index="35" name="Ancho de banda de EC 4" parameterValue="0.15999998152256011962890625"/>
            <parameter index="36" name="Ancho de banda de EC 5" parameterValue="0.63999998569488525390625"/>
            <parameter index="37" name="Activación de filtro de pase alto" parameterValue="0"/>
            <parameter index="38" name="Frecuencia de límite de paso alto" parameterValue="0"/>
            <parameter index="39" name="Pendiente de paso alto" parameterValue="0.4000000059604644775390625"/>
            <parameter index="40" name="Activación de filtro de pase bajo" parameterValue="0"/>
            <parameter index="41" name="Frecuencia de límite de paso bajo" parameterValue="0.833194315433502197265625"/>
            <parameter index="42" name="Pendiente de paso bajo" parameterValue="0.4000000059604644775390625"/>
            <parameter index="43" name="Derivar" parameterValue="0"/>
            <parameter index="44" name="Rango de gráfico bajo" parameterValue="1"/>
          </component>
        </trackAudioParameters>
        <editParameter parameterIndex="0" slotIndex="4294967280"/>
      </metronomeTrack>
    </metronome>
    <properties>
      <property key="EssentialSoundConfigurations">[{"Guid":"a8b40e3e-13e7-4c1f-b382-96058f1f691d","Name":"$$$/app/Presets/DefaultPresetName=(Default)","PresetData":{"ModeID":"ambience","Models":{"model_ducking":{},"model_loudness":{"DefaultLoudness":{"type":"float","value":-30},"LoudnessStandard":{"type":"std::uint32_t","value":0},"MaxLoudness":{"type":"float","value":-12},"MinLoudness":{"type":"float","value":-42}},"model_soundeffects":{"ReverbPresets":{"type":"tree::any","value":{"$$$/app/Presets/EssentialSound/ReverbPreset/LargeRoomAmbience=Large Room Ambience":{"type":"array::float","value":[0.051507499068975449,0.32432401180267334,0.29292899370193481,0.30000001192092896,0.20000000298023224,0,0.14285700023174286,0.40000000596046448,0.5,0.69999998807907104,0.30000001192092896,0.25125628709793091,0.03125]},"$$$/app/Presets/EssentialSound/ReverbPreset/OutsideAmbience=Outside Ambience":{"type":"array::float","value":[0.091708503663539886,0.043893899768590927,1,0.5,0.20000000298023224,0.80000001192092896,0.18367299437522888,1,0.5,0,0.80000001192092896,0.25125628709793091,0.03125]},"$$$/app/Presets/EssentialSound/ReverbPreset/RoomAmbience=Room Ambience":{"type":"array::float","value":[0.057788901031017303,0.44944900274276733,0.49494898319244385,0.89999997615814209,0.10000000149011612,0.15000000596046448,0.081632703542709351,0.40000000596046448,0.5,0.80000001192092896,0.20000000298023224,0.25125628709793091,0.03125]},"$$$/app/Presets/EssentialSound/ReverbPreset/WindEffect=Wind Effect":{"type":"array::float","value":[0.19597999751567841,0.6896899938583374,0.69696998596191406,0.25,0.5,0.5,0.23469400405883789,0.51999998092651367,0.5,0.75,0.25,0.25125628709793091,0.03125]}}}},"model_stereowidth":{},"model_volume":{"MaxGain":{"type":"float","value":15},"MinGain":{"type":"float","value":-60}}}},"Type":"1c19ca71-c24c-49cd-8dd5-2cc46018507a","Version":1},{"Guid":"58dc27a8-6a2a-480c-bd0c-4b45fff346a6","Name":"$$$/app/Presets/DefaultPresetName=(Default)","PresetData":{"ModeID":"dialog","Models":{"model_clarity":{"EQPresets":{"type":"tree::any","value":{"$$$/app/Presets/EssentialSound/EQPreset/BackgroundVoice=Background Voice":{"type":"array::float","value":[0.12099699676036835,0.5,0.39240506291389465,0,0.5,0.5,0.5,0.5,0.5,0.47827938199043274,0.45772689580917358,0.45778733491897583,0.47946760058403015,0.5,0]},"$$$/app/Presets/EssentialSound/EQPreset/Intercom=Intercom":{"type":"array::float","value":[0.19432899355888367,0.5,1,0,0.071499988436698914,0.071499988436698914,0.071499988436698914,0.40238627791404724,0.48571401834487915,0.5,0.55155748128890991,0.59602576494216919,0.22246670722961426,0.071499988436698914,0]},"$$$/app/Presets/EssentialSound/EQPreset/LockedInTheTrunk=Locked in the Trunk":{"type":"array::float","value":[0.12099699676036835,0.5,0.79746836423873901,0,0.5,0.5,0.5,0.5,0.5,0.32846158742904663,0.15721426904201508,0.15721426904201508,0.15721426904201508,0.15721426904201508,0]},"$$$/app/Presets/EssentialSound/EQPreset/OldRadio=Old Radio":{"type":"array::float","value":[0.12099699676036835,0.5,0.79746836423873901,0,0.15721426904201508,0.15721426904201508,0.15721426904201508,0.28442040085792542,0.48315632343292236,0.36498492956161499,0.52853888273239136,0.43511500954627991,0.27154684066772461,0.15721426904201508,0]},"$$$/app/Presets/EssentialSound/EQPreset/OnTheTelephone=On the Telephone":{"type":"array::float","value":[0.12099699676036835,0.5,0.39240506291389465,0,0.32864287495613098,0.32864287495613098,0.32864287495613098,0.32864287495613098,0.48571401834487915,0.53071397542953491,0.53071397542953491,0.48357096314430237,0.32864287495613098,0.32864287495613098,0]},"$$$/app/Presets/EssentialSound/EQPreset/OutsideOfTheRoom=Outside of the Room":{"type":"array::float","value":[0.12099699676036835,0.5,0.79746836423873901,0,0.42539370059967041,0.47865453362464905,0.5,0.5,0.48571401834487915,0.40073278546333313,0.25656309723854065,0.15721426904201508,0.15721426904201508,0.15721426904201508,0]},"$$$/app/Presets/EssentialSound/EQPreset/PodcastVoice=Podcast Voice":{"type":"array::float","value":[0.12099699676036835,0.5,0.39240506291389465,0,0.5,0.5,0.5,0.51789408922195435,0.50770342350006104,0.5,0.51789408922195435,0.528114914894104,0.5102812647819519,0.5,0]},"$$$/app/Presets/EssentialSound/EQPreset/SubtleBoostFemale=Subtle Boost (Female)":{"type":"array::float","value":[0.096553400158882141,0.5,0.29113924503326416,0,0.5,0.5,0.5,0.5,0.5,0.51933407783508301,0.54642897844314575,0.52706766128540039,0.5,0.5,0]},"$$$/app/Presets/EssentialSound/EQPreset/SubtleBoostMale=Subtle Boost (Male)":{"type":"array::float","value":[0.096553400158882141,0.5,0.29113924503326416,0,0.5,0.5,0.5,0.5,0.5,0.5135338306427002,0.54642897844314575,0.51933407783508301,0.5,0.5,0]},"$$$/app/Presets/EssentialSound/EQPreset/ThatPublicRadioSound=That Public Radio Sound":{"type":"array::float","value":[0.12099699676036835,0.5,0.79746836423873901,0,0.15721426904201508,0.15721426904201508,0.15721426904201508,0.36334344744682312,0.49468311667442322,0.5,0.5,0.5,0.5,0.5,0]},"$$$/app/Presets/EssentialSound/EQPreset/VocalPresence=Vocal Presence":{"type":"array::float","value":[0.096553400158882141,0.5,0.32489451766014099,0,0.3572143018245697,0.3572143018245697,0.46428570151329041,0.47857141494750977,0.4763694703578949,0.49570354819297791,0.55924957990646362,0.56523394584655762,0.50859290361404419,0.46992480754852295,0]}}}},"model_loudness":{"DefaultLoudness":{"type":"float","value":-23},"LoudnessStandard":{"type":"std::uint32_t","value":0},"MaxLoudness":{"type":"float","value":-12},"MinLoudness":{"type":"float","value":-42}},"model_restoration":{"ReduceNoiseMaxSetting":{"type":"array::float","value":[1,0,0,0,0]},"ReduceNoiseMinSetting":{"type":"array::float","value":[0,0,0,0,0]},"ReduceReverbMaxSetting":{"type":"array::float","value":[1,0,1,0,0]},"ReduceReverbMinSetting":{"type":"array::float","value":[0,0,1,0,0]},"ReduceRumbleMaxSetting":{"type":"array::float","value":[1,0.084112152457237244,0.375,0,0,0.00083333335351198912,1,0,1,0.0390625,0.00083408987848088145,0,0.0041666668839752674,0.00022554649331141263,0.0046875001862645149,0.75,0.0052083334885537624,0.75,1,0.75,0.0040520834736526012,0.75,0.0042629167437553406,0.00022554649331141263,0.0064883334562182426,0.00022554649331141263,0.006866666954010725,0.75,0.0071704164147377014,0.00022554649331141263,0.01041458360850811,0.00022554649331141263,0.010900000110268593,0.75,0.011407917365431786,0.00022554649331141263,0.015606249682605267,0.00022554649331141263,0.016333334147930145,0.75,0.017094582319259644,0.00022554649331141263,0.026243748143315315,0.00022554649331141263,0.0274666678160429,0.75,0.028746666386723518,0.00022554649331141263,0.041658751666545868,0.00022554649331141263,0.043600000441074371,0.75,0.045631669461727142,0.00022554649331141263,0.062424581497907639,0.00022554649331141263,0.065333336591720581,0.75,0.068377502262592316,0.00022554649331141263,0.10497540980577469,0.00022554649331141263,0.1098666712641716,0.75,0.11498583108186722,0.00022554649331141263,0.16663584113121033,0.00022554649331141263,0.17440000176429749,0.75,0.18252624571323395,0.00022554649331141263,0.91874998807907104,0.00022554649331141263,1,0.00022554649331141263,0,0,0,0,0,0,0,0,0,0,0,0,0,0,0,0,0,0,0,0,0,0,0,0,0,0,0,0,0,0,0,0,0,0,0,0,0,0,0,0,0,0,0,0,0,0,0,0,0,0,0,0,0,0,0,0,0,0,0,0,0,0,0,0,0,0,0,0,0,0,0,0,0,0,0,0,0,0,0,0,0,0,0,0,0,0,0,0,0,0,0,0,0,0,0,0,0,0,0,0,0,0,0,0,0,0,0,0,0,0,0,0,0,0,0,0,0,0,0,0,0,0,0,0,0,0,0,0,0,0,0,0,0,0,0,0,0,0,0,0,0,0,0,0,0,0,0,0,0,0,0,0,0,0,0,0,0,0,0,0,0,0,0,0,0,0,0,0,0,0,0,0,0,0,0,0,0,0,0,0,0,0,0,0,0,0,0,0,0,0]},"ReduceRumbleMinSetting":{"type":"array::float","value":[1,0.084112152457237244,0.375,0,0,0.00083333335351198912,1,0,1,0.0390625,0.00083408987848088145,0.75,0.0041666668839752674,0.75,0.0046875001862645149,0.75,0.0052083334885537624,0.75,1,0.75,0.91874998807907104,0.61237245798110962,1,0.61237245798110962,0,0,0,0,0,0,0,0,0,0,0,0,0,0,0,0,0,0,0,0,0,0,0,0,0,0,0,0,0,0,0,0,0,0,0,0,0,0,0,0,0,0,0,0,0,0,0,0,0,0,0,0,0,0,0,0,0,0,0,0,0,0,0,0,0,0,0,0,0,0,0,0,0,0,0,0,0,0,0,0,0,0,0,0,0,0,0,0,0,0,0,0,0,0,0,0,0,0,0,0,0,0,0,0,0,0,0,0,0,0,0,0,0,0,0,0,0,0,0,0,0,0,0,0,0,0,0,0,0,0,0,0,0,0,0,0,0,0,0,0,0,0,0,0,0,0,0,0,0,0,0,0,0,0,0,0,0,0,0,0,0,0,0,0,0,0,0,0,0,0,0,0,0,0,0,0,0,0,0,0,0,0,0,0,0,0,0,0,0,0,0,0,0,0,0,0,0,0,0,0,0,0,0,0,0,0,0,0,0,0,0,0,0,0,0,0,0,0,0,0,0,0,0,0,0,0,0,0,0,0,0,0,0,0,0,0,0,0,0,0,0,0]},"ReduceSibilanceMaxSetting":{"type":"array::float","value":[0.5,0.19983997941017151,0.18367347121238708,0.26086956262588501,0.52702701091766357,0,1,0,0,0,0,0.75,1,1,0.40000000596046448]},"ReduceSibilanceMinSetting":{"type":"array::float","value":[0.875,0.19983997941017151,0.18367347121238708,0.19130434095859528,0.25675675272941589,0,1,0,0,0,0,0.75,1,1,0.40000000596046448]}},"model_soundeffects":{"ReverbPresets":{"type":"tree::any","value":{"$$$/app/Presets/EssentialSound/ReverbPreset/Auditorium=Auditorium":{"type":"array::float","value":[0.013047545216977596,0.15895412862300873,1,0.89999997615814209,0,0.52007436752319336,0.41663265228271484,0.46000000834465027,0.5,0.73000001907348633,0.15999999642372131,0.75376886129379272,0.03125]},"$$$/app/Presets/EssentialSound/ReverbPreset/Church=Church":{"type":"array::float","value":[0.032663315534591675,0.39939939975738525,0.79797977209091187,0.25,0.5,0.5,0.2297959178686142,0.72000002861022949,0.5,0.62999999523162842,0.87999999523162842,0.25125628709793091,0.03125]},"$$$/app/Presets/EssentialSound/ReverbPreset/LargeReflectiveRoom=Large Reflective Room":{"type":"array::float","value":[0.0074449013918638229,0.098988421261310577,0.79890537261962891,0.89999997615814209,0.10000000149011612,0.40110713243484497,0.060284845530986786,0.27522978186607361,0.5,0.73000001907348633,0.31999999284744263,0.25125628709793091,0.03125]},"$$$/app/Presets/EssentialSound/ReverbPreset/OutsideTheClub=Outside the Club":{"type":"array::float","value":[0.020615793764591217,0.050136558711528778,0.69696998596191406,0.25,0.094355784356594086,0.22242647409439087,0.1071428582072258,0.2800000011920929,0.5,0.73000001907348633,0.46000000834465027,0.25125628709793091,0.03125]},"$$$/app/Presets/EssentialSound/ReverbPreset/SmallDryRoom=Small Dry Room":{"type":"array::float","value":[0.24623115360736847,0.69975000619888306,0.29292899370193481,0.40000000596046448,0.20000000298023224,0.40000000596046448,0.039285715669393539,0.10000000149011612,0.5,1,0.5,0.75376886129379272,0.03125]},"$$$/app/Presets/EssentialSound/ReverbPreset/ThickenVoice=Thicken Voice":{"type":"array::float","value":[0.19597999751567841,0.23931467533111572,0.69696998596191406,0.25,0.5,0.53999996185302734,0.020408162847161293,0.20945435762405396,0.5,1,0.34999999403953552,0.25125628709793091,0.03125]},"$$$/app/Presets/EssentialSound/ReverbPreset/WarmRoom=Warm Room":{"type":"array::float","value":[0.020100502297282219,0.074074074625968933,0.49494948983192444,0.40000000596046448,0.74960309267044067,0.40000000596046448,0.1239795908331871,0.67000001668930054,0.5,0.85000002384185791,0.56000000238418579,0.25125628709793091,0.03125]},"$$$/app/Presets/EssentialSound/ReverbPreset/WarmVoice=Warm Voice":{"type":"array::float","value":[0.19597989320755005,0.89989989995956421,0,0.40000000596046448,0.20000000298023224,0.40000000596046448,0.10204081982374191,0.090000003576278687,0.5,1,0.30000001192092896,0.25125628709793091,0.03125]}}}},"model_volume":{"MaxGain":{"type":"float","value":15},"MinGain":{"type":"float","value":-60}}}},"Type":"1c19ca71-c24c-49cd-8dd5-2cc46018507a","Version":1},{"Guid":"353811fa-4179-435e-8e5e-23028ba15a7a","Name":"$$$/app/Presets/DefaultPresetName=(Default)","PresetData":{"ModeID":"generic","Models":{"model_loudness":{"DefaultLoudness":{"type":"float","value":-24},"LoudnessStandard":{"type":"std::uint32_t","value":0},"MaxLoudness":{"type":"float","value":-12},"MinLoudness":{"type":"float","value":-42}},"model_volume":{"MaxGain":{"type":"float","value":15},"MinGain":{"type":"float","value":-60}}}},"Type":"1c19ca71-c24c-49cd-8dd5-2cc46018507a","Version":1},{"Guid":"31ba96a6-5d3e-4d89-b1e1-1dbe3c055d0c","Name":"$$$/app/Presets/DefaultPresetName=(Default)","PresetData":{"ModeID":"music","Models":{"model_ducking":{},"model_duration":{},"model_loudness":{"DefaultLoudness":{"type":"float","value":-25},"LoudnessStandard":{"type":"std::uint32_t","value":0},"MaxLoudness":{"type":"float","value":-12},"MinLoudness":{"type":"float","value":-42}},"model_volume":{"MaxGain":{"type":"float","value":15},"MinGain":{"type":"float","value":-60}}}},"Type":"1c19ca71-c24c-49cd-8dd5-2cc46018507a","Version":1},{"Guid":"cea63332-1adc-44a9-a6eb-5490f965859b","Name":"$$$/app/Presets/DefaultPresetName=(Default)","PresetData":{"ModeID":"sfx","Models":{"model_loudness":{"DefaultLoudness":{"type":"float","value":-21},"LoudnessStandard":{"type":"std::uint32_t","value":0},"MaxLoudness":{"type":"float","value":-12},"MinLoudness":{"type":"float","value":-42}},"model_pan":{},"model_soundeffects":{"ReverbPresets":{"type":"tree::any","value":{"$$$/app/Presets/EssentialSound/ReverbPreset/HeavyReverb=Heavy Reverb":{"type":"array::float","value":[0.13316600024700165,0.29929900169372559,1,0.95999997854232788,0.85000002384185791,0.5,0.51530599594116211,0.30000001192092896,0.5,0.5,0.5,0.25125628709793091,0.0625]},"$$$/app/Presets/EssentialSound/ReverbPreset/LightReverb=Light Reverb":{"type":"array::float","value":[0.095477402210235596,0.29929900169372559,0.090909101068973541,1,1,0.80000001192092896,0.22449000179767609,0.60000002384185791,0.5,0.69999998807907104,0.30000001192092896,0.25125628709793091,0.0625]},"$$$/app/Presets/EssentialSound/ReverbPreset/OutsideReverb=Outside Reverb":{"type":"array::float","value":[0.091708503663539886,0.043893899768590927,1,0.5,0.20000000298023224,0.80000001192092896,0.18367299437522888,1,0.5,0,0.80000001192092896,0.25125628709793091,0.0625]},"$$$/app/Presets/EssentialSound/ReverbPreset/RoomReverb=Room Reverb":{"type":"array::float","value":[0.057788901031017303,0.44944900274276733,0.49494898319244385,0.89999997615814209,0.10000000149011612,0.15000000596046448,0.081632703542709351,0.40000000596046448,0.5,0.80000001192092896,0.20000000298023224,0.25125628709793091,0.0625]}}}},"model_volume":{"MaxGain":{"type":"float","value":15},"MinGain":{"type":"float","value":-60}}}},"Type":"1c19ca71-c24c-49cd-8dd5-2cc46018507a","Version":1}]</property>
    </properties>
  </session>

  <files>
    <file absolutePath="D:\SARA\semestre 5\PRODUCCION SONORA\mito\la llorona\Conformed Files\cuento 48000 1.wav" id="0" mediaHandler="AmioWav" recoveryID="ab13a74c-b552-4c0e-9d7c-08ebc67ac0c3" relativePath="../Conformed Files/cuento 48000 1.wav"/>
    <file absolutePath="D:\SARA\semestre 5\PRODUCCION SONORA\mito\la llorona\Conformed Files\mujer tarareando 48000 2.wav" id="1" mediaHandler="AmioWav" recoveryID="48b7ed14-2403-4c12-8ca4-55d599738a7c" relativePath="../Conformed Files/mujer tarareando 48000 2.wav"/>
    <file absolutePath="D:\SARA\semestre 5\PRODUCCION SONORA\mito\la llorona\Conformed Files\campanas de boda 48000 1.wav" id="2" mediaHandler="AmioWav" recoveryID="a2b147df-0d34-4a46-9b46-0b4fe0db18b8" relativePath="../Conformed Files/campanas de boda 48000 1.wav"/>
    <file absolutePath="D:\SARA\semestre 5\PRODUCCION SONORA\mito\la llorona\Conformed Files\canciondecuna 48000 1.wav" id="3" mediaHandler="AmioWav" recoveryID="d96daf19-94f8-48ca-a321-79aa5e145b1a" relativePath="../Conformed Files/canciondecuna 48000 1.wav"/>
    <file absolutePath="D:\SARA\semestre 5\PRODUCCION SONORA\mito\la llorona\Conformed Files\botella chocando 48000 1.wav" id="4" mediaHandler="AmioWav" recoveryID="602b200d-ce6c-4761-ba2d-0121278eb196" relativePath="../Conformed Files/botella chocando 48000 1.wav"/>
    <file absolutePath="D:\SARA\semestre 5\PRODUCCION SONORA\mito\la llorona\Conformed Files\sonido-ambiente-de-bar 48000 1.wav" id="5" mediaHandler="AmioWav" recoveryID="dc7bea45-1630-4a15-afce-28af574eca2f" relativePath="../Conformed Files/sonido-ambiente-de-bar 48000 1.wav"/>
    <file absolutePath="D:\SARA\semestre 5\PRODUCCION SONORA\mito\la llorona\Conformed Files\bebe riendo 48000 1.wav" id="6" mediaHandler="AmioWav" recoveryID="630f2681-295c-406d-a3d7-f70f9440d6f7" relativePath="../Conformed Files/bebe riendo 48000 1.wav"/>
    <file absolutePath="D:\SARA\semestre 5\PRODUCCION SONORA\mito\la llorona\Conformed Files\buho 48000 1.wav" id="7" mediaHandler="AmioWav" recoveryID="90be5ae7-d694-4fb7-aa92-f850c6cc8ff0" relativePath="../Conformed Files/buho 48000 1.wav"/>
    <file absolutePath="D:\SARA\semestre 5\PRODUCCION SONORA\mito\la llorona\Conformed Files\WhatsApp Audio 2020-11-16 at 1.47.10 PM 48000 1.wav" id="8" mediaHandler="AmioWav" recoveryID="6a5cd0cc-8311-4636-b247-5c61665429ad" relativePath="../Conformed Files/WhatsApp Audio 2020-11-16 at 1.47.10 PM 48000 1.wav"/>
    <file absolutePath="D:\SARA\semestre 5\PRODUCCION SONORA\mito\la llorona\Conformed Files\ranas 48000 1.wav" id="9" mediaHandler="AmioWav" recoveryID="cb1f2880-9038-45d9-a2ec-e04d94b7b1ee" relativePath="../Conformed Files/ranas 48000 1.wav"/>
    <file absolutePath="D:\SARA\semestre 5\PRODUCCION SONORA\mito\la llorona\Conformed Files\carruaje 48000 1.wav" id="10" mediaHandler="AmioWav" recoveryID="3f9a4667-99da-4321-9913-bff4fee47731" relativePath="../Conformed Files/carruaje 48000 1.wav"/>
    <file absolutePath="D:\SARA\semestre 5\PRODUCCION SONORA\mito\la llorona\Conformed Files\lamentomujer 48000 1.wav" id="11" mediaHandler="AmioWav" recoveryID="be728903-a273-4598-b626-efe9fdf13238" relativePath="../Conformed Files/lamentomujer 48000 1.wav"/>
    <file absolutePath="D:\SARA\semestre 5\PRODUCCION SONORA\mito\la llorona\Conformed Files\bebé llorando 48000 1.wav" id="12" mediaHandler="AmioWav" recoveryID="48228f70-0f5b-4a63-822f-2eb60c41d60c" relativePath="../Conformed Files/bebé llorando 48000 1.wav"/>
    <file absolutePath="D:\SARA\semestre 5\PRODUCCION SONORA\mito\la llorona\Conformed Files\ahogamiento 48000 1.wav" id="13" mediaHandler="AmioWav" recoveryID="b96e3190-2f6e-417c-aaa5-ff69f86d36c3" relativePath="../Conformed Files/ahogamiento 48000 1.wav"/>
    <file absolutePath="D:\SARA\semestre 5\PRODUCCION SONORA\mito\la llorona\Conformed Files\corrienterio 48000 1.wav" id="14" mediaHandler="AmioWav" recoveryID="50a17911-75f5-47d2-a612-aa794af039c5" relativePath="../Conformed Files/corrienterio 48000 1.wav"/>
    <file absolutePath="D:\SARA\semestre 5\PRODUCCION SONORA\mito\la llorona\Conformed Files\clavadoenelagua 48000 1.wav" id="15" mediaHandler="AmioWav" recoveryID="bffa7734-640f-4fe4-9b46-0085381c9d8a" relativePath="../Conformed Files/clavadoenelagua 48000 1.wav"/>
    <file absolutePath="D:\SARA\semestre 5\PRODUCCION SONORA\mito\la llorona\Conformed Files\llantomujer 48000 1.wav" id="16" mediaHandler="AmioWav" recoveryID="f9b514df-1a9d-4d3d-85f7-dbf587aac83c" relativePath="../Conformed Files/llantomujer 48000 1.wav"/>
    <file absolutePath="D:\SARA\semestre 5\PRODUCCION SONORA\mito\la llorona\Conformed Files\pasos 48000 1.wav" id="17" mediaHandler="AmioWav" recoveryID="c557b300-ac2f-4f5b-8739-dc49b5e4d44b" relativePath="../Conformed Files/pasos 48000 1.wav"/>
    <file absolutePath="D:\SARA\semestre 5\PRODUCCION SONORA\mito\la llorona\Conformed Files\suspenso.2 48000 1.wav" id="18" mediaHandler="AmioWav" recoveryID="5af4bd4e-e580-4f76-8023-ecf37439d8d1" relativePath="../Conformed Files/suspenso.2 48000 1.wav"/>
  </files>

  <audioDevice inputID="2C175D18-0564-48E3-A2D3-D48F630A7FC3" outputID="4E022C53-6C03-436F-95F8-BFF978CD60B4">
    <inputPort id="1" name="Entrada estéreo predeterminada"/>
    <outputPort id="1" name="Salida predeterminada"/>
    <outputPort id="2" name="[01M] Altavoces (High Definition Audio Device) 1"/>
    <outputPort id="3" name="[02M] Altavoces (High Definition Audio Device) 2"/>
    <outputPort id="4" name="Salida estéreo predeterminada"/>
    <outputPort id="5" name="[01S] Altavoces (High Definition Audio Device) 1"/>
    <outputPort id="6" name="Salida envolvente predeterminada"/>
  </audioDevice>

</sesx>
